<svg id="svg" version="1.1" width="400" height="266.6666666666667" xmlns="http://www.w3.org/2000/svg" xmlns:xlink="http://www.w3.org/1999/xlink" style="display: block;"><g id="svgg"><path id="path2" d="" stroke="none" fill="#7f7f7f" fill-rule="evenodd"></path><path id="path3" d="M358.899 132.867 C 359.210 133.262,359.210 133.404,358.899 133.800 C 358.576 134.213,358.582 134.229,358.958 133.936 C 359.191 133.754,359.461 133.684,359.558 133.780 C 359.654 133.877,359.733 133.676,359.733 133.333 C 359.733 132.991,359.654 132.790,359.558 132.887 C 359.461 132.983,359.191 132.913,358.958 132.731 C 358.582 132.438,358.576 132.454,358.899 132.867 " stroke="none" fill="#919191" fill-rule="evenodd"></path><path id="path4" d="M40.000 133.333 C 40.000 264.285,40.009 266.667,40.508 266.667 C 40.788 266.667,41.478 266.442,42.041 266.167 C 44.063 265.183,45.529 264.533,45.729 264.533 C 45.934 264.533,47.684 263.814,50.933 262.395 C 52.772 261.592,53.616 261.261,53.920 261.223 C 54.023 261.210,54.257 261.050,54.440 260.867 C 54.623 260.683,54.959 260.533,55.187 260.532 C 55.414 260.531,55.944 260.351,56.364 260.132 C 56.784 259.913,57.294 259.733,57.497 259.733 C 57.700 259.733,57.867 259.613,57.867 259.467 C 57.867 259.320,58.071 259.200,58.321 259.200 C 58.731 259.200,60.208 258.585,64.473 256.641 C 65.246 256.288,65.987 256.000,66.121 256.000 C 66.254 256.000,67.121 255.658,68.048 255.240 C 70.434 254.165,71.569 253.730,71.800 253.803 C 71.910 253.838,72.000 253.760,72.000 253.629 C 72.000 253.437,72.670 253.152,73.600 252.948 C 73.673 252.931,74.438 252.592,75.299 252.192 C 76.160 251.793,76.972 251.467,77.103 251.467 C 77.233 251.467,77.549 251.355,77.804 251.219 C 78.058 251.083,78.867 250.715,79.600 250.403 C 80.333 250.090,81.293 249.668,81.733 249.465 C 83.302 248.742,87.831 246.966,88.203 246.928 C 88.311 246.916,88.640 246.751,88.933 246.561 C 89.227 246.370,89.947 246.058,90.533 245.867 C 91.120 245.676,91.850 245.357,92.155 245.159 C 92.460 244.960,92.790 244.879,92.888 244.977 C 92.986 245.075,93.067 245.035,93.067 244.888 C 93.067 244.740,93.757 244.391,94.600 244.111 C 95.443 243.831,96.193 243.528,96.267 243.437 C 96.340 243.346,96.700 243.179,97.067 243.065 C 97.433 242.952,98.333 242.590,99.067 242.262 C 99.800 241.933,101.000 241.451,101.733 241.191 C 102.467 240.932,103.303 240.557,103.593 240.359 C 103.882 240.162,104.285 240.000,104.487 240.000 C 104.690 240.000,105.418 239.718,106.105 239.373 C 106.792 239.027,107.830 238.592,108.410 238.405 C 108.991 238.218,109.767 237.898,110.133 237.695 C 110.937 237.250,116.162 235.048,117.939 234.405 C 118.638 234.152,119.288 233.867,119.383 233.773 C 119.478 233.678,119.776 233.600,120.044 233.600 C 120.313 233.600,120.533 233.506,120.533 233.390 C 120.533 233.275,121.373 232.889,122.400 232.533 C 123.427 232.177,124.267 231.792,124.267 231.676 C 124.267 231.561,124.459 231.467,124.693 231.467 C 124.928 231.467,125.498 231.301,125.960 231.098 C 127.956 230.223,128.726 229.907,129.667 229.577 C 130.217 229.384,130.667 229.123,130.667 228.997 C 130.667 228.871,130.778 228.838,130.915 228.922 C 131.051 229.006,131.239 228.953,131.331 228.804 C 131.423 228.655,131.672 228.533,131.884 228.533 C 132.096 228.533,132.899 228.226,133.668 227.850 C 135.561 226.924,140.699 224.873,141.170 224.855 C 141.300 224.850,141.480 224.742,141.570 224.616 C 141.732 224.389,144.311 223.285,146.716 222.413 C 147.404 222.164,148.124 221.832,148.316 221.674 C 148.509 221.517,149.087 221.267,149.600 221.119 C 150.429 220.879,153.810 219.493,154.968 218.918 C 155.208 218.799,156.768 218.148,158.435 217.470 C 160.102 216.793,161.827 216.073,162.267 215.870 C 163.165 215.455,163.973 215.186,164.069 215.270 C 164.105 215.301,164.553 215.071,165.067 214.760 C 165.580 214.449,166.300 214.104,166.667 213.994 C 167.033 213.884,168.053 213.471,168.933 213.077 C 169.813 212.683,170.953 212.206,171.467 212.016 C 171.980 211.827,173.033 211.386,173.807 211.036 C 174.581 210.686,175.384 210.400,175.592 210.400 C 175.799 210.400,176.034 210.293,176.115 210.163 C 176.196 210.032,176.568 209.849,176.942 209.755 C 177.316 209.661,178.511 209.168,179.598 208.659 C 180.686 208.150,181.737 207.733,181.934 207.733 C 182.132 207.733,182.408 207.619,182.547 207.480 C 182.792 207.235,185.631 206.027,192.933 203.061 C 199.093 200.560,199.844 200.247,201.274 199.585 C 202.048 199.227,202.858 198.933,203.074 198.933 C 203.290 198.933,203.467 198.813,203.467 198.667 C 203.467 198.520,203.557 198.422,203.667 198.450 C 203.777 198.477,204.297 198.311,204.823 198.081 C 205.349 197.852,206.069 197.573,206.423 197.463 C 206.777 197.352,207.303 197.098,207.593 196.897 C 207.882 196.697,208.290 196.533,208.499 196.533 C 208.709 196.533,209.492 196.246,210.240 195.895 C 211.466 195.320,212.435 194.910,212.800 194.810 C 212.873 194.790,213.473 194.522,214.133 194.216 C 214.793 193.909,216.593 193.156,218.133 192.542 C 221.313 191.275,221.349 191.260,223.819 190.150 C 224.819 189.701,225.746 189.333,225.879 189.333 C 226.013 189.333,227.002 188.921,228.078 188.418 C 229.153 187.914,230.356 187.421,230.750 187.322 C 231.144 187.223,231.467 187.054,231.467 186.947 C 231.467 186.774,233.136 186.154,234.081 185.975 C 234.272 185.939,234.692 185.739,235.014 185.530 C 235.336 185.322,236.290 184.936,237.133 184.672 C 237.977 184.409,238.667 184.114,238.667 184.016 C 238.667 183.919,239.297 183.615,240.067 183.343 C 240.837 183.070,241.885 182.626,242.396 182.357 C 242.907 182.087,243.511 181.867,243.737 181.867 C 243.963 181.867,244.385 181.703,244.674 181.503 C 244.963 181.302,245.499 181.045,245.864 180.931 C 246.230 180.817,247.269 180.380,248.174 179.962 C 249.079 179.543,249.905 179.200,250.010 179.200 C 250.114 179.200,250.935 178.882,251.833 178.493 C 255.479 176.913,257.584 176.020,259.867 175.082 C 261.187 174.539,262.507 173.986,262.800 173.853 C 264.378 173.134,268.749 171.391,269.267 171.274 C 269.597 171.199,269.867 171.041,269.867 170.923 C 269.867 170.806,270.257 170.625,270.733 170.522 C 271.210 170.419,272.139 170.049,272.798 169.701 C 273.457 169.352,274.097 169.067,274.221 169.067 C 274.345 169.067,275.426 168.634,276.623 168.105 C 279.136 166.996,280.079 166.592,280.267 166.544 C 281.037 166.349,282.720 165.705,283.467 165.319 C 283.980 165.054,286.020 164.163,288.000 163.339 C 289.980 162.515,292.078 161.637,292.661 161.387 C 293.245 161.138,293.815 160.963,293.928 161.000 C 294.041 161.037,294.133 160.961,294.133 160.831 C 294.133 160.702,294.403 160.534,294.733 160.458 C 295.550 160.271,297.170 159.637,297.333 159.439 C 297.407 159.351,298.247 159.011,299.200 158.683 C 300.153 158.356,301.053 157.993,301.200 157.877 C 301.347 157.760,301.767 157.574,302.133 157.463 C 302.500 157.351,303.562 156.912,304.494 156.487 C 307.053 155.320,310.726 153.867,311.118 153.867 C 311.310 153.867,311.467 153.772,311.467 153.657 C 311.467 153.542,312.307 153.156,313.333 152.800 C 314.360 152.444,315.200 152.071,315.200 151.972 C 315.200 151.820,316.242 151.429,316.844 151.355 C 316.942 151.343,317.112 151.243,317.222 151.133 C 317.332 151.023,317.642 150.933,317.911 150.933 C 318.180 150.933,318.400 150.826,318.400 150.696 C 318.400 150.565,318.703 150.382,319.074 150.289 C 319.444 150.196,320.374 149.839,321.140 149.497 C 321.907 149.155,323.163 148.654,323.933 148.385 C 324.703 148.115,325.333 147.798,325.333 147.681 C 325.333 147.563,325.506 147.467,325.716 147.467 C 325.926 147.467,326.376 147.361,326.716 147.232 C 327.056 147.103,327.423 146.981,327.532 146.962 C 327.641 146.943,328.421 146.577,329.265 146.150 C 330.109 145.722,331.131 145.290,331.536 145.190 C 331.941 145.090,332.338 144.901,332.418 144.770 C 332.499 144.640,332.738 144.533,332.950 144.533 C 333.162 144.533,333.965 144.223,334.735 143.843 C 335.504 143.464,336.780 142.924,337.571 142.645 C 338.362 142.365,339.142 142.036,339.304 141.914 C 339.467 141.792,340.200 141.481,340.933 141.224 C 341.667 140.966,342.627 140.589,343.067 140.386 C 344.481 139.733,347.579 138.466,348.267 138.259 C 348.633 138.149,349.352 137.835,349.863 137.563 C 350.374 137.290,350.881 137.067,350.990 137.067 C 351.099 137.067,352.085 136.647,353.182 136.133 C 354.278 135.620,355.276 135.200,355.398 135.200 C 355.520 135.200,356.091 134.960,356.667 134.667 C 357.242 134.373,357.920 134.133,358.174 134.133 C 358.428 134.133,358.711 134.011,358.803 133.862 C 358.895 133.713,359.056 133.644,359.161 133.709 C 359.266 133.774,359.352 133.605,359.352 133.333 C 359.352 133.062,359.266 132.892,359.161 132.957 C 359.056 133.022,358.895 132.953,358.803 132.804 C 358.711 132.655,358.428 132.533,358.174 132.533 C 357.920 132.533,357.242 132.293,356.667 132.000 C 356.091 131.707,355.520 131.467,355.398 131.467 C 355.276 131.467,354.278 131.047,353.182 130.533 C 352.085 130.020,351.099 129.600,350.990 129.600 C 350.881 129.600,350.374 129.377,349.863 129.104 C 349.352 128.831,348.633 128.518,348.267 128.408 C 347.579 128.201,344.481 126.933,343.067 126.281 C 342.627 126.077,341.667 125.701,340.933 125.443 C 340.200 125.186,339.467 124.875,339.304 124.753 C 339.142 124.630,338.362 124.302,337.571 124.022 C 336.780 123.742,335.504 123.203,334.735 122.823 C 333.965 122.444,333.162 122.133,332.950 122.133 C 332.738 122.133,332.499 122.027,332.418 121.896 C 332.338 121.766,331.941 121.577,331.536 121.477 C 331.131 121.376,330.109 120.945,329.265 120.517 C 328.421 120.090,327.701 119.747,327.665 119.755 C 327.629 119.764,327.262 119.642,326.849 119.485 C 326.436 119.328,325.926 119.200,325.716 119.200 C 325.506 119.200,325.333 119.104,325.333 118.986 C 325.333 118.868,324.703 118.552,323.933 118.282 C 323.163 118.013,321.907 117.512,321.140 117.170 C 320.374 116.827,319.444 116.471,319.074 116.378 C 318.703 116.285,318.400 116.102,318.400 115.971 C 318.400 115.840,318.180 115.733,317.911 115.733 C 317.642 115.733,317.332 115.643,317.222 115.533 C 317.112 115.423,316.942 115.324,316.844 115.312 C 316.242 115.238,315.200 114.847,315.200 114.695 C 315.200 114.595,314.360 114.223,313.333 113.867 C 312.307 113.511,311.467 113.125,311.467 113.010 C 311.467 112.894,311.310 112.800,311.118 112.800 C 310.718 112.800,307.014 111.331,304.421 110.143 C 303.449 109.698,302.566 109.333,302.460 109.332 C 302.354 109.331,301.907 109.141,301.467 108.910 C 301.027 108.680,299.947 108.243,299.067 107.939 C 298.187 107.636,297.407 107.315,297.333 107.227 C 297.170 107.030,295.550 106.396,294.733 106.209 C 294.403 106.133,294.133 105.965,294.133 105.836 C 294.133 105.706,294.041 105.630,293.928 105.667 C 293.815 105.703,293.245 105.529,292.661 105.279 C 292.078 105.030,289.980 104.151,288.000 103.328 C 286.020 102.504,283.980 101.613,283.467 101.347 C 282.720 100.961,281.037 100.317,280.267 100.122 C 280.079 100.075,279.136 99.671,276.623 98.561 C 275.426 98.033,274.345 97.600,274.221 97.600 C 274.097 97.600,273.457 97.315,272.798 96.966 C 272.139 96.617,271.210 96.248,270.733 96.145 C 270.257 96.042,269.867 95.861,269.867 95.743 C 269.867 95.625,269.597 95.468,269.267 95.393 C 268.749 95.276,264.378 93.532,262.800 92.814 C 262.507 92.680,261.187 92.127,259.867 91.585 C 257.584 90.647,255.479 89.753,251.833 88.174 C 250.935 87.785,250.114 87.467,250.010 87.467 C 249.905 87.467,249.079 87.124,248.174 86.705 C 247.269 86.286,246.230 85.850,245.864 85.736 C 245.499 85.622,244.963 85.364,244.674 85.164 C 244.385 84.964,243.963 84.800,243.737 84.800 C 243.511 84.800,242.907 84.580,242.396 84.310 C 241.885 84.041,240.837 83.597,240.067 83.324 C 239.297 83.051,238.667 82.748,238.667 82.650 C 238.667 82.553,237.977 82.258,237.133 81.994 C 236.290 81.731,235.336 81.345,235.014 81.136 C 234.692 80.928,234.272 80.727,234.081 80.691 C 233.136 80.513,231.467 79.893,231.467 79.720 C 231.467 79.612,231.144 79.444,230.750 79.345 C 230.356 79.246,229.153 78.753,228.078 78.249 C 227.002 77.745,226.013 77.333,225.879 77.333 C 225.746 77.333,224.819 76.966,223.819 76.516 C 221.349 75.407,221.313 75.392,218.133 74.125 C 216.593 73.511,214.793 72.758,214.133 72.451 C 213.473 72.144,212.873 71.877,212.800 71.857 C 212.435 71.757,211.466 71.346,210.240 70.771 C 209.492 70.420,208.709 70.133,208.499 70.133 C 208.290 70.133,207.882 69.969,207.593 69.769 C 207.303 69.569,206.777 69.315,206.423 69.204 C 206.069 69.094,205.349 68.815,204.823 68.585 C 204.297 68.356,203.777 68.190,203.667 68.217 C 203.557 68.244,203.467 68.147,203.467 68.000 C 203.467 67.853,203.290 67.733,203.074 67.733 C 202.858 67.733,202.048 67.440,201.274 67.082 C 199.844 66.420,199.093 66.107,192.933 63.605 C 185.631 60.640,182.792 59.432,182.547 59.187 C 182.408 59.048,182.132 58.933,181.934 58.933 C 181.737 58.933,180.686 58.517,179.598 58.008 C 178.511 57.499,177.316 57.005,176.942 56.912 C 176.568 56.818,176.196 56.634,176.115 56.504 C 176.034 56.373,175.799 56.267,175.592 56.267 C 175.384 56.267,174.581 55.981,173.807 55.631 C 173.033 55.281,171.980 54.840,171.467 54.650 C 170.953 54.461,169.813 53.984,168.933 53.590 C 168.053 53.195,167.033 52.783,166.667 52.673 C 166.300 52.563,165.580 52.218,165.067 51.907 C 164.553 51.595,164.073 51.354,164.000 51.370 C 163.792 51.415,163.139 51.200,162.267 50.797 C 161.827 50.594,160.102 49.874,158.435 49.196 C 156.768 48.519,155.208 47.868,154.968 47.749 C 153.810 47.174,150.429 45.787,149.600 45.548 C 149.087 45.399,148.509 45.149,148.316 44.992 C 148.124 44.835,147.404 44.503,146.716 44.254 C 144.311 43.382,141.732 42.278,141.570 42.050 C 141.480 41.924,141.300 41.817,141.170 41.812 C 140.699 41.794,135.561 39.743,133.668 38.817 C 132.899 38.441,132.096 38.133,131.884 38.133 C 131.672 38.133,131.423 38.011,131.331 37.862 C 131.239 37.713,131.051 37.660,130.915 37.745 C 130.778 37.829,130.667 37.795,130.667 37.669 C 130.667 37.543,130.217 37.283,129.667 37.090 C 128.726 36.759,127.956 36.443,125.960 35.568 C 125.498 35.366,124.928 35.200,124.693 35.200 C 124.459 35.200,124.267 35.106,124.267 34.990 C 124.267 34.875,123.427 34.489,122.400 34.133 C 121.373 33.777,120.533 33.392,120.533 33.276 C 120.533 33.161,120.313 33.067,120.044 33.067 C 119.776 33.067,119.478 32.989,119.383 32.894 C 119.288 32.799,118.638 32.515,117.939 32.261 C 116.162 31.619,110.937 29.416,110.133 28.971 C 109.767 28.768,108.991 28.449,108.410 28.262 C 107.830 28.075,106.792 27.639,106.105 27.294 C 105.418 26.949,104.690 26.667,104.487 26.667 C 104.285 26.667,103.882 26.505,103.593 26.307 C 103.303 26.110,102.467 25.735,101.733 25.475 C 101.000 25.215,99.800 24.734,99.067 24.405 C 98.333 24.077,97.433 23.715,97.067 23.601 C 96.700 23.488,96.340 23.320,96.267 23.230 C 96.193 23.139,95.443 22.835,94.600 22.556 C 93.757 22.276,93.067 21.926,93.067 21.779 C 93.067 21.632,92.986 21.592,92.888 21.690 C 92.790 21.788,92.460 21.706,92.155 21.508 C 91.850 21.310,91.120 20.991,90.533 20.800 C 89.947 20.609,89.227 20.297,88.933 20.106 C 88.640 19.915,88.340 19.761,88.267 19.764 C 88.008 19.772,83.732 18.085,81.333 17.029 C 78.748 15.890,78.250 15.666,77.804 15.437 C 77.549 15.307,77.233 15.200,77.103 15.200 C 76.972 15.200,76.160 14.873,75.299 14.474 C 74.438 14.075,73.673 13.735,73.600 13.719 C 72.670 13.515,72.000 13.230,72.000 13.038 C 72.000 12.907,71.910 12.829,71.800 12.863 C 71.569 12.937,70.434 12.502,68.048 11.426 C 67.121 11.009,66.254 10.667,66.121 10.667 C 65.987 10.667,65.246 10.378,64.473 10.026 C 60.208 8.081,58.731 7.467,58.321 7.467 C 58.071 7.467,57.867 7.347,57.867 7.200 C 57.867 7.053,57.700 6.933,57.497 6.933 C 57.294 6.933,56.784 6.754,56.364 6.535 C 55.944 6.316,55.405 6.136,55.166 6.135 C 54.927 6.134,54.586 5.957,54.407 5.742 C 54.228 5.527,54.004 5.366,53.908 5.384 C 53.677 5.429,53.019 5.183,50.933 4.272 C 47.684 2.853,45.934 2.133,45.729 2.133 C 45.529 2.133,44.063 1.484,42.041 0.499 C 41.478 0.225,40.788 0.000,40.508 0.000 C 40.009 0.000,40.000 2.382,40.000 133.333 " stroke="none" fill="#a5a2a4" fill-rule="evenodd"></path><path id="path0" d="" stroke="none" fill="#000000" fill-rule="evenodd"></path><path id="path1" d="" stroke="none" fill="#555555" fill-rule="evenodd"></path><path id="path2" d="" stroke="none" fill="#7f7f7f" fill-rule="evenodd"></path><path id="path3" d="M358.899 132.867 C 359.210 133.262,359.210 133.404,358.899 133.800 C 358.576 134.213,358.582 134.229,358.958 133.936 C 359.191 133.754,359.461 133.684,359.558 133.780 C 359.654 133.877,359.733 133.676,359.733 133.333 C 359.733 132.991,359.654 132.790,359.558 132.887 C 359.461 132.983,359.191 132.913,358.958 132.731 C 358.582 132.438,358.576 132.454,358.899 132.867 " stroke="none" fill="#919191" fill-rule="evenodd"></path><path id="path4" d="M40.000 133.333 C 40.000 264.285,40.009 266.667,40.508 266.667 C 40.788 266.667,41.478 266.442,42.041 266.167 C 44.063 265.183,45.529 264.533,45.729 264.533 C 45.934 264.533,47.684 263.814,50.933 262.395 C 52.772 261.592,53.616 261.261,53.920 261.223 C 54.023 261.210,54.257 261.050,54.440 260.867 C 54.623 260.683,54.959 260.533,55.187 260.532 C 55.414 260.531,55.944 260.351,56.364 260.132 C 56.784 259.913,57.294 259.733,57.497 259.733 C 57.700 259.733,57.867 259.613,57.867 259.467 C 57.867 259.320,58.071 259.200,58.321 259.200 C 58.731 259.200,60.208 258.585,64.473 256.641 C 65.246 256.288,65.987 256.000,66.121 256.000 C 66.254 256.000,67.121 255.658,68.048 255.240 C 70.434 254.165,71.569 253.730,71.800 253.803 C 71.910 253.838,72.000 253.760,72.000 253.629 C 72.000 253.437,72.670 253.152,73.600 252.948 C 73.673 252.931,74.438 252.592,75.299 252.192 C 76.160 251.793,76.972 251.467,77.103 251.467 C 77.233 251.467,77.549 251.355,77.804 251.219 C 78.058 251.083,78.867 250.715,79.600 250.403 C 80.333 250.090,81.293 249.668,81.733 249.465 C 83.302 248.742,87.831 246.966,88.203 246.928 C 88.311 246.916,88.640 246.751,88.933 246.561 C 89.227 246.370,89.947 246.058,90.533 245.867 C 91.120 245.676,91.850 245.357,92.155 245.159 C 92.460 244.960,92.790 244.879,92.888 244.977 C 92.986 245.075,93.067 245.035,93.067 244.888 C 93.067 244.740,93.757 244.391,94.600 244.111 C 95.443 243.831,96.193 243.528,96.267 243.437 C 96.340 243.346,96.700 243.179,97.067 243.065 C 97.433 242.952,98.333 242.590,99.067 242.262 C 99.800 241.933,101.000 241.451,101.733 241.191 C 102.467 240.932,103.303 240.557,103.593 240.359 C 103.882 240.162,104.285 240.000,104.487 240.000 C 104.690 240.000,105.418 239.718,106.105 239.373 C 106.792 239.027,107.830 238.592,108.410 238.405 C 108.991 238.218,109.767 237.898,110.133 237.695 C 110.937 237.250,116.162 235.048,117.939 234.405 C 118.638 234.152,119.288 233.867,119.383 233.773 C 119.478 233.678,119.776 233.600,120.044 233.600 C 120.313 233.600,120.533 233.506,120.533 233.390 C 120.533 233.275,121.373 232.889,122.400 232.533 C 123.427 232.177,124.267 231.792,124.267 231.676 C 124.267 231.561,124.459 231.467,124.693 231.467 C 124.928 231.467,125.498 231.301,125.960 231.098 C 127.956 230.223,128.726 229.907,129.667 229.577 C 130.217 229.384,130.667 229.123,130.667 228.997 C 130.667 228.871,130.778 228.838,130.915 228.922 C 131.051 229.006,131.239 228.953,131.331 228.804 C 131.423 228.655,131.672 228.533,131.884 228.533 C 132.096 228.533,132.899 228.226,133.668 227.850 C 135.561 226.924,140.699 224.873,141.170 224.855 C 141.300 224.850,141.480 224.742,141.570 224.616 C 141.732 224.389,144.311 223.285,146.716 222.413 C 147.404 222.164,148.124 221.832,148.316 221.674 C 148.509 221.517,149.087 221.267,149.600 221.119 C 150.429 220.879,153.810 219.493,154.968 218.918 C 155.208 218.799,156.768 218.148,158.435 217.470 C 160.102 216.793,161.827 216.073,162.267 215.870 C 163.165 215.455,163.973 215.186,164.069 215.270 C 164.105 215.301,164.553 215.071,165.067 214.760 C 165.580 214.449,166.300 214.104,166.667 213.994 C 167.033 213.884,168.053 213.471,168.933 213.077 C 169.813 212.683,170.953 212.206,171.467 212.016 C 171.980 211.827,173.033 211.386,173.807 211.036 C 174.581 210.686,175.384 210.400,175.592 210.400 C 175.799 210.400,176.034 210.293,176.115 210.163 C 176.196 210.032,176.568 209.849,176.942 209.755 C 177.316 209.661,178.511 209.168,179.598 208.659 C 180.686 208.150,181.737 207.733,181.934 207.733 C 182.132 207.733,182.408 207.619,182.547 207.480 C 182.792 207.235,185.631 206.027,192.933 203.061 C 199.093 200.560,199.844 200.247,201.274 199.585 C 202.048 199.227,202.858 198.933,203.074 198.933 C 203.290 198.933,203.467 198.813,203.467 198.667 C 203.467 198.520,203.557 198.422,203.667 198.450 C 203.777 198.477,204.297 198.311,204.823 198.081 C 205.349 197.852,206.069 197.573,206.423 197.463 C 206.777 197.352,207.303 197.098,207.593 196.897 C 207.882 196.697,208.290 196.533,208.499 196.533 C 208.709 196.533,209.492 196.246,210.240 195.895 C 211.466 195.320,212.435 194.910,212.800 194.810 C 212.873 194.790,213.473 194.522,214.133 194.216 C 214.793 193.909,216.593 193.156,218.133 192.542 C 221.313 191.275,221.349 191.260,223.819 190.150 C 224.819 189.701,225.746 189.333,225.879 189.333 C 226.013 189.333,227.002 188.921,228.078 188.418 C 229.153 187.914,230.356 187.421,230.750 187.322 C 231.144 187.223,231.467 187.054,231.467 186.947 C 231.467 186.774,233.136 186.154,234.081 185.975 C 234.272 185.939,234.692 185.739,235.014 185.530 C 235.336 185.322,236.290 184.936,237.133 184.672 C 237.977 184.409,238.667 184.114,238.667 184.016 C 238.667 183.919,239.297 183.615,240.067 183.343 C 240.837 183.070,241.885 182.626,242.396 182.357 C 242.907 182.087,243.511 181.867,243.737 181.867 C 243.963 181.867,244.385 181.703,244.674 181.503 C 244.963 181.302,245.499 181.045,245.864 180.931 C 246.230 180.817,247.269 180.380,248.174 179.962 C 249.079 179.543,249.905 179.200,250.010 179.200 C 250.114 179.200,250.935 178.882,251.833 178.493 C 255.479 176.913,257.584 176.020,259.867 175.082 C 261.187 174.539,262.507 173.986,262.800 173.853 C 264.378 173.134,268.749 171.391,269.267 171.274 C 269.597 171.199,269.867 171.041,269.867 170.923 C 269.867 170.806,270.257 170.625,270.733 170.522 C 271.210 170.419,272.139 170.049,272.798 169.701 C 273.457 169.352,274.097 169.067,274.221 169.067 C 274.345 169.067,275.426 168.634,276.623 168.105 C 279.136 166.996,280.079 166.592,280.267 166.544 C 281.037 166.349,282.720 165.705,283.467 165.319 C 283.980 165.054,286.020 164.163,288.000 163.339 C 289.980 162.515,292.078 161.637,292.661 161.387 C 293.245 161.138,293.815 160.963,293.928 161.000 C 294.041 161.037,294.133 160.961,294.133 160.831 C 294.133 160.702,294.403 160.534,294.733 160.458 C 295.550 160.271,297.170 159.637,297.333 159.439 C 297.407 159.351,298.247 159.011,299.200 158.683 C 300.153 158.356,301.053 157.993,301.200 157.877 C 301.347 157.760,301.767 157.574,302.133 157.463 C 302.500 157.351,303.562 156.912,304.494 156.487 C 307.053 155.320,310.726 153.867,311.118 153.867 C 311.310 153.867,311.467 153.772,311.467 153.657 C 311.467 153.542,312.307 153.156,313.333 152.800 C 314.360 152.444,315.200 152.071,315.200 151.972 C 315.200 151.820,316.242 151.429,316.844 151.355 C 316.942 151.343,317.112 151.243,317.222 151.133 C 317.332 151.023,317.642 150.933,317.911 150.933 C 318.180 150.933,318.400 150.826,318.400 150.696 C 318.400 150.565,318.703 150.382,319.074 150.289 C 319.444 150.196,320.374 149.839,321.140 149.497 C 321.907 149.155,323.163 148.654,323.933 148.385 C 324.703 148.115,325.333 147.798,325.333 147.681 C 325.333 147.563,325.506 147.467,325.716 147.467 C 325.926 147.467,326.376 147.361,326.716 147.232 C 327.056 147.103,327.423 146.981,327.532 146.962 C 327.641 146.943,328.421 146.577,329.265 146.150 C 330.109 145.722,331.131 145.290,331.536 145.190 C 331.941 145.090,332.338 144.901,332.418 144.770 C 332.499 144.640,332.738 144.533,332.950 144.533 C 333.162 144.533,333.965 144.223,334.735 143.843 C 335.504 143.464,336.780 142.924,337.571 142.645 C 338.362 142.365,339.142 142.036,339.304 141.914 C 339.467 141.792,340.200 141.481,340.933 141.224 C 341.667 140.966,342.627 140.589,343.067 140.386 C 344.481 139.733,347.579 138.466,348.267 138.259 C 348.633 138.149,349.352 137.835,349.863 137.563 C 350.374 137.290,350.881 137.067,350.990 137.067 C 351.099 137.067,352.085 136.647,353.182 136.133 C 354.278 135.620,355.276 135.200,355.398 135.200 C 355.520 135.200,356.091 134.960,356.667 134.667 C 357.242 134.373,357.920 134.133,358.174 134.133 C 358.428 134.133,358.711 134.011,358.803 133.862 C 358.895 133.713,359.056 133.644,359.161 133.709 C 359.266 133.774,359.352 133.605,359.352 133.333 C 359.352 133.062,359.266 132.892,359.161 132.957 C 359.056 133.022,358.895 132.953,358.803 132.804 C 358.711 132.655,358.428 132.533,358.174 132.533 C 357.920 132.533,357.242 132.293,356.667 132.000 C 356.091 131.707,355.520 131.467,355.398 131.467 C 355.276 131.467,354.278 131.047,353.182 130.533 C 352.085 130.020,351.099 129.600,350.990 129.600 C 350.881 129.600,350.374 129.377,349.863 129.104 C 349.352 128.831,348.633 128.518,348.267 128.408 C 347.579 128.201,344.481 126.933,343.067 126.281 C 342.627 126.077,341.667 125.701,340.933 125.443 C 340.200 125.186,339.467 124.875,339.304 124.753 C 339.142 124.630,338.362 124.302,337.571 124.022 C 336.780 123.742,335.504 123.203,334.735 122.823 C 333.965 122.444,333.162 122.133,332.950 122.133 C 332.738 122.133,332.499 122.027,332.418 121.896 C 332.338 121.766,331.941 121.577,331.536 121.477 C 331.131 121.376,330.109 120.945,329.265 120.517 C 328.421 120.090,327.701 119.747,327.665 119.755 C 327.629 119.764,327.262 119.642,326.849 119.485 C 326.436 119.328,325.926 119.200,325.716 119.200 C 325.506 119.200,325.333 119.104,325.333 118.986 C 325.333 118.868,324.703 118.552,323.933 118.282 C 323.163 118.013,321.907 117.512,321.140 117.170 C 320.374 116.827,319.444 116.471,319.074 116.378 C 318.703 116.285,318.400 116.102,318.400 115.971 C 318.400 115.840,318.180 115.733,317.911 115.733 C 317.642 115.733,317.332 115.643,317.222 115.533 C 317.112 115.423,316.942 115.324,316.844 115.312 C 316.242 115.238,315.200 114.847,315.200 114.695 C 315.200 114.595,314.360 114.223,313.333 113.867 C 312.307 113.511,311.467 113.125,311.467 113.010 C 311.467 112.894,311.310 112.800,311.118 112.800 C 310.718 112.800,307.014 111.331,304.421 110.143 C 303.449 109.698,302.566 109.333,302.460 109.332 C 302.354 109.331,301.907 109.141,301.467 108.910 C 301.027 108.680,299.947 108.243,299.067 107.939 C 298.187 107.636,297.407 107.315,297.333 107.227 C 297.170 107.030,295.550 106.396,294.733 106.209 C 294.403 106.133,294.133 105.965,294.133 105.836 C 294.133 105.706,294.041 105.630,293.928 105.667 C 293.815 105.703,293.245 105.529,292.661 105.279 C 292.078 105.030,289.980 104.151,288.000 103.328 C 286.020 102.504,283.980 101.613,283.467 101.347 C 282.720 100.961,281.037 100.317,280.267 100.122 C 280.079 100.075,279.136 99.671,276.623 98.561 C 275.426 98.033,274.345 97.600,274.221 97.600 C 274.097 97.600,273.457 97.315,272.798 96.966 C 272.139 96.617,271.210 96.248,270.733 96.145 C 270.257 96.042,269.867 95.861,269.867 95.743 C 269.867 95.625,269.597 95.468,269.267 95.393 C 268.749 95.276,264.378 93.532,262.800 92.814 C 262.507 92.680,261.187 92.127,259.867 91.585 C 257.584 90.647,255.479 89.753,251.833 88.174 C 250.935 87.785,250.114 87.467,250.010 87.467 C 249.905 87.467,249.079 87.124,248.174 86.705 C 247.269 86.286,246.230 85.850,245.864 85.736 C 245.499 85.622,244.963 85.364,244.674 85.164 C 244.385 84.964,243.963 84.800,243.737 84.800 C 243.511 84.800,242.907 84.580,242.396 84.310 C 241.885 84.041,240.837 83.597,240.067 83.324 C 239.297 83.051,238.667 82.748,238.667 82.650 C 238.667 82.553,237.977 82.258,237.133 81.994 C 236.290 81.731,235.336 81.345,235.014 81.136 C 234.692 80.928,234.272 80.727,234.081 80.691 C 233.136 80.513,231.467 79.893,231.467 79.720 C 231.467 79.612,231.144 79.444,230.750 79.345 C 230.356 79.246,229.153 78.753,228.078 78.249 C 227.002 77.745,226.013 77.333,225.879 77.333 C 225.746 77.333,224.819 76.966,223.819 76.516 C 221.349 75.407,221.313 75.392,218.133 74.125 C 216.593 73.511,214.793 72.758,214.133 72.451 C 213.473 72.144,212.873 71.877,212.800 71.857 C 212.435 71.757,211.466 71.346,210.240 70.771 C 209.492 70.420,208.709 70.133,208.499 70.133 C 208.290 70.133,207.882 69.969,207.593 69.769 C 207.303 69.569,206.777 69.315,206.423 69.204 C 206.069 69.094,205.349 68.815,204.823 68.585 C 204.297 68.356,203.777 68.190,203.667 68.217 C 203.557 68.244,203.467 68.147,203.467 68.000 C 203.467 67.853,203.290 67.733,203.074 67.733 C 202.858 67.733,202.048 67.440,201.274 67.082 C 199.844 66.420,199.093 66.107,192.933 63.605 C 185.631 60.640,182.792 59.432,182.547 59.187 C 182.408 59.048,182.132 58.933,181.934 58.933 C 181.737 58.933,180.686 58.517,179.598 58.008 C 178.511 57.499,177.316 57.005,176.942 56.912 C 176.568 56.818,176.196 56.634,176.115 56.504 C 176.034 56.373,175.799 56.267,175.592 56.267 C 175.384 56.267,174.581 55.981,173.807 55.631 C 173.033 55.281,171.980 54.840,171.467 54.650 C 170.953 54.461,169.813 53.984,168.933 53.590 C 168.053 53.195,167.033 52.783,166.667 52.673 C 166.300 52.563,165.580 52.218,165.067 51.907 C 164.553 51.595,164.073 51.354,164.000 51.370 C 163.792 51.415,163.139 51.200,162.267 50.797 C 161.827 50.594,160.102 49.874,158.435 49.196 C 156.768 48.519,155.208 47.868,154.968 47.749 C 153.810 47.174,150.429 45.787,149.600 45.548 C 149.087 45.399,148.509 45.149,148.316 44.992 C 148.124 44.835,147.404 44.503,146.716 44.254 C 144.311 43.382,141.732 42.278,141.570 42.050 C 141.480 41.924,141.300 41.817,141.170 41.812 C 140.699 41.794,135.561 39.743,133.668 38.817 C 132.899 38.441,132.096 38.133,131.884 38.133 C 131.672 38.133,131.423 38.011,131.331 37.862 C 131.239 37.713,131.051 37.660,130.915 37.745 C 130.778 37.829,130.667 37.795,130.667 37.669 C 130.667 37.543,130.217 37.283,129.667 37.090 C 128.726 36.759,127.956 36.443,125.960 35.568 C 125.498 35.366,124.928 35.200,124.693 35.200 C 124.459 35.200,124.267 35.106,124.267 34.990 C 124.267 34.875,123.427 34.489,122.400 34.133 C 121.373 33.777,120.533 33.392,120.533 33.276 C 120.533 33.161,120.313 33.067,120.044 33.067 C 119.776 33.067,119.478 32.989,119.383 32.894 C 119.288 32.799,118.638 32.515,117.939 32.261 C 116.162 31.619,110.937 29.416,110.133 28.971 C 109.767 28.768,108.991 28.449,108.410 28.262 C 107.830 28.075,106.792 27.639,106.105 27.294 C 105.418 26.949,104.690 26.667,104.487 26.667 C 104.285 26.667,103.882 26.505,103.593 26.307 C 103.303 26.110,102.467 25.735,101.733 25.475 C 101.000 25.215,99.800 24.734,99.067 24.405 C 98.333 24.077,97.433 23.715,97.067 23.601 C 96.700 23.488,96.340 23.320,96.267 23.230 C 96.193 23.139,95.443 22.835,94.600 22.556 C 93.757 22.276,93.067 21.926,93.067 21.779 C 93.067 21.632,92.986 21.592,92.888 21.690 C 92.790 21.788,92.460 21.706,92.155 21.508 C 91.850 21.310,91.120 20.991,90.533 20.800 C 89.947 20.609,89.227 20.297,88.933 20.106 C 88.640 19.915,88.340 19.761,88.267 19.764 C 88.008 19.772,83.732 18.085,81.333 17.029 C 78.748 15.890,78.250 15.666,77.804 15.437 C 77.549 15.307,77.233 15.200,77.103 15.200 C 76.972 15.200,76.160 14.873,75.299 14.474 C 74.438 14.075,73.673 13.735,73.600 13.719 C 72.670 13.515,72.000 13.230,72.000 13.038 C 72.000 12.907,71.910 12.829,71.800 12.863 C 71.569 12.937,70.434 12.502,68.048 11.426 C 67.121 11.009,66.254 10.667,66.121 10.667 C 65.987 10.667,65.246 10.378,64.473 10.026 C 60.208 8.081,58.731 7.467,58.321 7.467 C 58.071 7.467,57.867 7.347,57.867 7.200 C 57.867 7.053,57.700 6.933,57.497 6.933 C 57.294 6.933,56.784 6.754,56.364 6.535 C 55.944 6.316,55.405 6.136,55.166 6.135 C 54.927 6.134,54.586 5.957,54.407 5.742 C 54.228 5.527,54.004 5.366,53.908 5.384 C 53.677 5.429,53.019 5.183,50.933 4.272 C 47.684 2.853,45.934 2.133,45.729 2.133 C 45.529 2.133,44.063 1.484,42.041 0.499 C 41.478 0.225,40.788 0.000,40.508 0.000 C 40.009 0.000,40.000 2.382,40.000 133.333 " stroke="none" fill="#a5a2a4" fill-rule="evenodd"></path></g></svg>