<svg id="svg" version="1.1" width="400" height="328.4072249589491" xmlns="http://www.w3.org/2000/svg" xmlns:xlink="http://www.w3.org/1999/xlink" style="display: block;"><g id="svgg"><path id="path2" d="" stroke="none" fill="#aaaaaa" fill-rule="evenodd"></path><path id="path3" d="" stroke="none" fill="#bfbfbf" fill-rule="evenodd"></path><path id="path4" d="M49.261 164.204 C 49.261 325.809,49.271 328.407,49.891 328.407 C 50.237 328.407,50.569 328.290,50.629 328.147 C 50.690 328.005,52.143 327.178,53.859 326.310 C 55.575 325.442,57.570 324.390,58.292 323.973 C 59.015 323.556,61.158 322.431,63.054 321.474 C 64.951 320.517,66.576 319.653,66.667 319.555 C 66.757 319.457,68.383 318.582,70.279 317.611 C 72.176 316.641,74.171 315.589,74.713 315.274 C 75.255 314.959,75.797 314.757,75.918 314.825 C 76.039 314.893,76.343 314.743,76.595 314.491 C 77.065 314.021,79.436 312.730,79.897 312.694 C 80.038 312.682,80.536 312.373,81.003 312.006 C 81.469 311.639,81.981 311.420,82.140 311.518 C 82.300 311.617,82.430 311.541,82.430 311.349 C 82.430 311.158,82.541 311.019,82.677 311.041 C 83.331 311.144,83.762 310.969,83.580 310.673 C 83.468 310.493,83.535 310.345,83.728 310.345 C 84.116 310.345,87.095 309.011,87.356 308.721 C 87.535 308.522,88.007 308.271,95.567 304.340 C 101.248 301.386,102.948 300.488,105.060 299.322 C 105.856 298.882,106.693 298.522,106.921 298.522 C 107.148 298.522,107.384 298.404,107.444 298.259 C 107.607 297.869,111.636 295.711,113.054 295.255 C 113.732 295.037,114.286 294.738,114.286 294.591 C 114.286 294.444,114.840 294.074,115.517 293.769 C 116.195 293.463,117.562 292.783,118.555 292.259 C 119.548 291.734,120.546 291.303,120.772 291.301 C 120.998 291.299,121.182 291.166,121.182 291.005 C 121.182 290.676,127.031 287.681,127.668 287.683 C 127.894 287.684,128.079 287.569,128.079 287.428 C 128.079 287.286,129.446 286.451,131.117 285.572 C 132.787 284.692,134.745 283.638,135.468 283.228 C 136.190 282.818,137.049 282.471,137.376 282.457 C 137.702 282.442,137.878 282.282,137.767 282.102 C 137.655 281.921,137.722 281.773,137.915 281.773 C 138.370 281.773,141.328 280.405,141.547 280.094 C 141.639 279.962,142.113 279.755,142.601 279.633 C 143.088 279.510,143.659 279.203,143.869 278.950 C 144.079 278.697,144.455 278.489,144.704 278.489 C 144.952 278.489,145.156 278.342,145.156 278.161 C 145.156 277.980,145.415 277.832,145.731 277.830 C 146.047 277.829,146.749 277.528,147.291 277.160 C 147.833 276.793,149.015 276.120,149.918 275.665 C 150.821 275.210,152.336 274.421,153.284 273.911 C 154.232 273.402,155.008 273.036,155.008 273.100 C 155.008 273.163,155.501 272.887,156.104 272.486 C 156.706 272.085,159.403 270.649,162.097 269.294 C 164.791 267.939,167.069 266.739,167.159 266.628 C 167.250 266.516,168.210 266.021,169.294 265.528 C 170.378 265.034,171.338 264.535,171.429 264.417 C 171.594 264.202,173.419 263.233,178.816 260.497 C 180.441 259.673,181.966 258.803,182.206 258.564 C 182.445 258.324,182.897 258.128,183.209 258.128 C 183.521 258.128,183.917 257.994,184.089 257.830 C 184.454 257.482,187.718 255.716,192.118 253.486 C 193.834 252.617,195.426 251.745,195.656 251.549 C 195.885 251.353,196.550 251.033,197.133 250.837 C 197.717 250.642,198.415 250.305,198.686 250.090 C 199.171 249.705,200.862 248.787,203.448 247.505 C 204.171 247.147,204.984 246.687,205.255 246.482 C 205.525 246.277,206.560 245.747,207.553 245.305 C 208.547 244.863,209.555 244.316,209.794 244.090 C 210.181 243.722,210.404 243.649,211.013 243.690 C 211.110 243.696,211.418 243.473,211.697 243.194 C 211.976 242.915,212.324 242.761,212.472 242.852 C 212.619 242.943,212.810 242.833,212.896 242.608 C 212.983 242.382,213.626 241.996,214.326 241.748 C 215.027 241.501,215.821 241.116,216.092 240.894 C 216.849 240.271,221.104 238.047,221.802 237.910 C 222.143 237.842,222.660 237.598,222.951 237.367 C 223.652 236.810,224.766 236.187,226.765 235.231 C 227.668 234.800,228.777 234.227,229.228 233.958 C 229.680 233.690,230.567 233.218,231.199 232.909 C 231.831 232.601,232.422 232.269,232.512 232.171 C 232.603 232.074,234.154 231.262,235.961 230.368 C 237.767 229.473,239.742 228.409,240.351 228.004 C 240.959 227.599,241.587 227.348,241.747 227.446 C 241.906 227.544,242.036 227.505,242.036 227.359 C 242.036 227.213,243.034 226.603,244.253 226.004 C 245.472 225.404,247.209 224.480,248.112 223.951 C 249.997 222.845,252.459 221.675,252.901 221.675 C 253.066 221.675,253.202 221.543,253.202 221.382 C 253.202 221.221,253.756 220.844,254.433 220.544 C 255.111 220.244,257.291 219.140,259.278 218.091 C 271.331 211.728,272.177 211.276,273.974 210.243 C 274.651 209.854,275.205 209.629,275.205 209.745 C 275.205 209.860,275.464 209.734,275.780 209.466 C 276.479 208.871,278.887 207.717,279.228 207.813 C 279.364 207.851,279.475 207.761,279.475 207.614 C 279.475 207.467,281.285 206.416,283.498 205.279 C 285.710 204.141,287.964 202.951,288.506 202.634 C 289.048 202.317,289.602 202.121,289.737 202.198 C 289.873 202.275,289.984 202.201,289.984 202.034 C 289.984 201.866,290.686 201.415,291.544 201.030 C 292.401 200.645,293.732 199.972,294.499 199.535 C 295.267 199.098,295.895 198.808,295.895 198.890 C 295.895 198.972,296.446 198.664,297.121 198.206 C 297.795 197.748,298.439 197.373,298.551 197.373 C 298.664 197.373,300.010 196.651,301.543 195.769 C 303.075 194.888,304.685 194.055,305.120 193.920 C 305.555 193.785,306.281 193.420,306.732 193.110 C 307.184 192.799,308.181 192.273,308.949 191.940 C 309.717 191.607,310.345 191.207,310.345 191.050 C 310.345 190.894,310.480 190.849,310.645 190.951 C 310.810 191.054,310.995 191.025,311.056 190.889 C 311.216 190.528,315.841 188.177,316.392 188.177 C 316.648 188.177,316.907 188.062,316.968 187.920 C 317.130 187.539,319.507 186.207,320.024 186.207 C 320.270 186.207,320.520 186.082,320.580 185.929 C 320.640 185.777,322.167 184.891,323.974 183.962 C 325.780 183.032,327.406 182.158,327.586 182.018 C 327.767 181.879,328.580 181.473,329.392 181.117 C 330.205 180.761,331.368 180.137,331.977 179.730 C 332.585 179.324,333.193 179.060,333.328 179.143 C 333.463 179.227,333.838 179.003,334.161 178.646 C 334.484 178.289,334.950 177.997,335.197 177.997 C 335.444 177.997,336.198 177.648,336.873 177.222 C 337.548 176.796,338.690 176.152,339.411 175.792 C 340.133 175.433,341.461 174.756,342.365 174.288 C 343.268 173.821,344.228 173.355,344.499 173.252 C 344.770 173.150,345.583 172.700,346.305 172.252 C 347.028 171.804,348.284 171.142,349.097 170.780 C 349.910 170.418,350.796 169.972,351.067 169.788 C 351.338 169.604,352.077 169.201,352.709 168.892 C 353.342 168.583,354.228 168.086,354.680 167.788 C 355.131 167.490,355.863 167.133,356.307 166.995 C 356.750 166.857,357.316 166.541,357.565 166.292 C 357.813 166.043,358.153 165.924,358.319 166.026 C 358.485 166.129,358.621 166.066,358.621 165.886 C 358.621 165.707,359.138 165.373,359.770 165.144 C 361.256 164.607,361.256 163.800,359.770 163.263 C 359.138 163.035,358.621 162.701,358.621 162.521 C 358.621 162.341,358.485 162.278,358.319 162.381 C 358.153 162.484,357.813 162.364,357.565 162.115 C 357.316 161.867,356.750 161.550,356.307 161.412 C 355.863 161.275,355.131 160.918,354.680 160.619 C 354.228 160.321,353.342 159.824,352.709 159.515 C 352.077 159.206,351.338 158.803,351.067 158.619 C 350.796 158.435,349.910 157.989,349.097 157.627 C 348.284 157.265,347.028 156.603,346.305 156.155 C 345.583 155.707,344.770 155.257,344.499 155.155 C 344.228 155.053,343.268 154.587,342.365 154.119 C 341.461 153.652,340.133 152.975,339.411 152.615 C 338.690 152.255,337.548 151.612,336.873 151.185 C 336.198 150.759,335.444 150.411,335.197 150.411 C 334.950 150.411,334.484 150.118,334.161 149.761 C 333.838 149.404,333.463 149.181,333.328 149.264 C 333.193 149.348,332.585 149.083,331.977 148.677 C 331.368 148.270,330.205 147.646,329.392 147.290 C 328.580 146.934,327.767 146.528,327.586 146.389 C 327.406 146.250,325.780 145.375,323.974 144.446 C 322.167 143.516,320.640 142.631,320.580 142.478 C 320.520 142.325,320.270 142.200,320.024 142.200 C 319.507 142.200,317.130 140.868,316.968 140.487 C 316.907 140.346,316.648 140.230,316.392 140.230 C 315.841 140.230,311.216 137.880,311.056 137.518 C 310.995 137.382,310.810 137.354,310.645 137.456 C 310.480 137.558,310.345 137.513,310.345 137.357 C 310.345 137.200,309.717 136.800,308.949 136.467 C 308.181 136.134,307.184 135.608,306.732 135.297 C 306.281 134.987,305.555 134.622,305.120 134.487 C 304.685 134.352,303.075 133.520,301.543 132.638 C 300.010 131.756,298.664 131.034,298.551 131.034 C 298.439 131.034,297.795 130.660,297.121 130.202 C 296.446 129.744,295.895 129.436,295.895 129.517 C 295.895 129.599,295.267 129.309,294.499 128.872 C 293.732 128.435,292.401 127.762,291.544 127.378 C 290.686 126.993,289.984 126.541,289.984 126.374 C 289.984 126.206,289.873 126.133,289.737 126.209 C 289.602 126.286,289.048 126.090,288.506 125.773 C 287.964 125.456,285.710 124.266,283.498 123.129 C 281.285 121.991,279.475 120.940,279.475 120.793 C 279.475 120.646,279.364 120.556,279.228 120.594 C 278.887 120.690,276.479 119.536,275.780 118.942 C 275.464 118.673,275.205 118.547,275.205 118.663 C 275.205 118.778,274.651 118.554,273.974 118.164 C 272.177 117.131,271.331 116.679,259.278 110.316 C 257.291 109.267,255.111 108.163,254.433 107.863 C 253.756 107.563,253.202 107.186,253.202 107.025 C 253.202 106.864,253.066 106.732,252.901 106.732 C 252.459 106.732,249.997 105.562,248.112 104.457 C 247.209 103.927,245.472 103.003,244.253 102.404 C 243.034 101.804,242.036 101.194,242.036 101.048 C 242.036 100.902,241.906 100.863,241.747 100.961 C 241.587 101.060,240.959 100.808,240.351 100.403 C 239.742 99.998,237.767 98.934,235.961 98.039 C 234.154 97.145,232.603 96.333,232.512 96.236 C 232.422 96.139,231.831 95.807,231.199 95.498 C 230.567 95.189,229.680 94.717,229.228 94.449 C 228.777 94.180,227.668 93.607,226.765 93.176 C 224.766 92.221,223.652 91.597,222.951 91.041 C 222.660 90.809,222.143 90.565,221.802 90.498 C 221.104 90.360,216.849 88.136,216.092 87.514 C 215.821 87.291,215.027 86.906,214.326 86.659 C 213.626 86.412,212.983 86.025,212.896 85.799 C 212.810 85.574,212.619 85.464,212.472 85.555 C 212.324 85.646,211.976 85.492,211.697 85.213 C 211.418 84.934,211.110 84.711,211.013 84.717 C 210.404 84.758,210.181 84.685,209.794 84.317 C 209.555 84.091,208.547 83.544,207.553 83.102 C 206.560 82.660,205.525 82.131,205.255 81.926 C 204.984 81.721,204.171 81.260,203.448 80.902 C 200.862 79.620,199.171 78.703,198.686 78.317 C 198.415 78.102,197.717 77.766,197.133 77.570 C 196.550 77.375,195.885 77.054,195.656 76.858 C 195.426 76.662,193.834 75.791,192.118 74.921 C 187.718 72.692,184.454 70.925,184.089 70.577 C 183.917 70.413,183.521 70.279,183.209 70.279 C 182.897 70.279,182.445 70.083,182.206 69.844 C 181.966 69.604,180.441 68.734,178.816 67.910 C 173.419 65.174,171.594 64.206,171.429 63.990 C 171.338 63.872,170.378 63.373,169.294 62.879 C 168.210 62.386,167.250 61.891,167.159 61.779 C 167.069 61.668,164.791 60.468,162.097 59.113 C 159.403 57.759,156.706 56.322,156.104 55.921 C 155.501 55.520,155.008 55.244,155.008 55.307 C 155.008 55.371,154.232 55.006,153.284 54.496 C 152.336 53.986,150.821 53.197,149.918 52.742 C 149.015 52.287,147.833 51.614,147.291 51.247 C 146.749 50.880,146.047 50.578,145.731 50.577 C 145.415 50.576,145.156 50.427,145.156 50.246 C 145.156 50.066,144.952 49.918,144.704 49.918 C 144.455 49.918,144.079 49.711,143.869 49.458 C 143.659 49.204,143.088 48.897,142.601 48.775 C 142.113 48.652,141.639 48.445,141.547 48.314 C 141.328 48.002,138.370 46.634,137.915 46.634 C 137.722 46.634,137.655 46.486,137.767 46.305 C 137.878 46.125,137.702 45.965,137.376 45.951 C 137.049 45.936,136.190 45.589,135.468 45.179 C 134.745 44.770,132.787 43.715,131.117 42.836 C 129.446 41.956,128.079 41.121,128.079 40.980 C 128.079 40.838,127.894 40.723,127.668 40.724 C 127.031 40.727,121.182 37.731,121.182 37.402 C 121.182 37.242,120.998 37.108,120.772 37.106 C 120.546 37.104,119.548 36.673,118.555 36.148 C 117.562 35.624,116.195 34.944,115.517 34.639 C 114.840 34.333,114.286 33.963,114.286 33.816 C 114.286 33.669,113.732 33.370,113.054 33.152 C 111.636 32.696,107.607 30.539,107.444 30.148 C 107.384 30.003,107.148 29.885,106.921 29.885 C 106.693 29.885,105.856 29.525,105.060 29.086 C 102.948 27.919,101.248 27.021,95.567 24.067 C 88.007 20.137,87.535 19.885,87.356 19.686 C 87.095 19.396,84.116 18.062,83.728 18.062 C 83.535 18.062,83.468 17.915,83.580 17.734 C 83.762 17.439,83.331 17.263,82.677 17.367 C 82.541 17.388,82.430 17.249,82.430 17.058 C 82.430 16.867,82.300 16.791,82.140 16.889 C 81.981 16.988,81.430 16.738,80.917 16.334 C 80.403 15.930,79.980 15.658,79.975 15.730 C 79.962 15.949,77.084 14.405,76.595 13.916 C 76.343 13.665,76.039 13.514,75.918 13.582 C 75.797 13.650,75.255 13.448,74.713 13.133 C 74.171 12.818,72.176 11.766,70.279 10.796 C 68.383 9.825,66.757 8.951,66.667 8.852 C 66.576 8.754,64.951 7.890,63.054 6.933 C 61.158 5.976,59.015 4.852,58.292 4.434 C 57.570 4.017,55.575 2.966,53.859 2.098 C 52.143 1.230,50.690 0.403,50.629 0.260 C 50.569 0.117,50.237 0.000,49.891 0.000 C 49.271 0.000,49.261 2.599,49.261 164.204 " stroke="none" fill="#d2d1d1" fill-rule="evenodd"></path><path id="path0" d="" stroke="none" fill="#000000" fill-rule="evenodd"></path><path id="path1" d="" stroke="none" fill="#7f7f7f" fill-rule="evenodd"></path><path id="path2" d="" stroke="none" fill="#aaaaaa" fill-rule="evenodd"></path><path id="path3" d="" stroke="none" fill="#bfbfbf" fill-rule="evenodd"></path><path id="path4" d="M49.261 164.204 C 49.261 325.809,49.271 328.407,49.891 328.407 C 50.237 328.407,50.569 328.290,50.629 328.147 C 50.690 328.005,52.143 327.178,53.859 326.310 C 55.575 325.442,57.570 324.390,58.292 323.973 C 59.015 323.556,61.158 322.431,63.054 321.474 C 64.951 320.517,66.576 319.653,66.667 319.555 C 66.757 319.457,68.383 318.582,70.279 317.611 C 72.176 316.641,74.171 315.589,74.713 315.274 C 75.255 314.959,75.797 314.757,75.918 314.825 C 76.039 314.893,76.343 314.743,76.595 314.491 C 77.065 314.021,79.436 312.730,79.897 312.694 C 80.038 312.682,80.536 312.373,81.003 312.006 C 81.469 311.639,81.981 311.420,82.140 311.518 C 82.300 311.617,82.430 311.541,82.430 311.349 C 82.430 311.158,82.541 311.019,82.677 311.041 C 83.331 311.144,83.762 310.969,83.580 310.673 C 83.468 310.493,83.535 310.345,83.728 310.345 C 84.116 310.345,87.095 309.011,87.356 308.721 C 87.535 308.522,88.007 308.271,95.567 304.340 C 101.248 301.386,102.948 300.488,105.060 299.322 C 105.856 298.882,106.693 298.522,106.921 298.522 C 107.148 298.522,107.384 298.404,107.444 298.259 C 107.607 297.869,111.636 295.711,113.054 295.255 C 113.732 295.037,114.286 294.738,114.286 294.591 C 114.286 294.444,114.840 294.074,115.517 293.769 C 116.195 293.463,117.562 292.783,118.555 292.259 C 119.548 291.734,120.546 291.303,120.772 291.301 C 120.998 291.299,121.182 291.166,121.182 291.005 C 121.182 290.676,127.031 287.681,127.668 287.683 C 127.894 287.684,128.079 287.569,128.079 287.428 C 128.079 287.286,129.446 286.451,131.117 285.572 C 132.787 284.692,134.745 283.638,135.468 283.228 C 136.190 282.818,137.049 282.471,137.376 282.457 C 137.702 282.442,137.878 282.282,137.767 282.102 C 137.655 281.921,137.722 281.773,137.915 281.773 C 138.370 281.773,141.328 280.405,141.547 280.094 C 141.639 279.962,142.113 279.755,142.601 279.633 C 143.088 279.510,143.659 279.203,143.869 278.950 C 144.079 278.697,144.455 278.489,144.704 278.489 C 144.952 278.489,145.156 278.342,145.156 278.161 C 145.156 277.980,145.415 277.832,145.731 277.830 C 146.047 277.829,146.749 277.528,147.291 277.160 C 147.833 276.793,149.015 276.120,149.918 275.665 C 150.821 275.210,152.336 274.421,153.284 273.911 C 154.232 273.402,155.008 273.036,155.008 273.100 C 155.008 273.163,155.501 272.887,156.104 272.486 C 156.706 272.085,159.403 270.649,162.097 269.294 C 164.791 267.939,167.069 266.739,167.159 266.628 C 167.250 266.516,168.210 266.021,169.294 265.528 C 170.378 265.034,171.338 264.535,171.429 264.417 C 171.594 264.202,173.419 263.233,178.816 260.497 C 180.441 259.673,181.966 258.803,182.206 258.564 C 182.445 258.324,182.897 258.128,183.209 258.128 C 183.521 258.128,183.917 257.994,184.089 257.830 C 184.454 257.482,187.718 255.716,192.118 253.486 C 193.834 252.617,195.426 251.745,195.656 251.549 C 195.885 251.353,196.550 251.033,197.133 250.837 C 197.717 250.642,198.415 250.305,198.686 250.090 C 199.171 249.705,200.862 248.787,203.448 247.505 C 204.171 247.147,204.984 246.687,205.255 246.482 C 205.525 246.277,206.560 245.747,207.553 245.305 C 208.547 244.863,209.555 244.316,209.794 244.090 C 210.181 243.722,210.404 243.649,211.013 243.690 C 211.110 243.696,211.418 243.473,211.697 243.194 C 211.976 242.915,212.324 242.761,212.472 242.852 C 212.619 242.943,212.810 242.833,212.896 242.608 C 212.983 242.382,213.626 241.996,214.326 241.748 C 215.027 241.501,215.821 241.116,216.092 240.894 C 216.849 240.271,221.104 238.047,221.802 237.910 C 222.143 237.842,222.660 237.598,222.951 237.367 C 223.652 236.810,224.766 236.187,226.765 235.231 C 227.668 234.800,228.777 234.227,229.228 233.958 C 229.680 233.690,230.567 233.218,231.199 232.909 C 231.831 232.601,232.422 232.269,232.512 232.171 C 232.603 232.074,234.154 231.262,235.961 230.368 C 237.767 229.473,239.742 228.409,240.351 228.004 C 240.959 227.599,241.587 227.348,241.747 227.446 C 241.906 227.544,242.036 227.505,242.036 227.359 C 242.036 227.213,243.034 226.603,244.253 226.004 C 245.472 225.404,247.209 224.480,248.112 223.951 C 249.997 222.845,252.459 221.675,252.901 221.675 C 253.066 221.675,253.202 221.543,253.202 221.382 C 253.202 221.221,253.756 220.844,254.433 220.544 C 255.111 220.244,257.291 219.140,259.278 218.091 C 271.331 211.728,272.177 211.276,273.974 210.243 C 274.651 209.854,275.205 209.629,275.205 209.745 C 275.205 209.860,275.464 209.734,275.780 209.466 C 276.479 208.871,278.887 207.717,279.228 207.813 C 279.364 207.851,279.475 207.761,279.475 207.614 C 279.475 207.467,281.285 206.416,283.498 205.279 C 285.710 204.141,287.964 202.951,288.506 202.634 C 289.048 202.317,289.602 202.121,289.737 202.198 C 289.873 202.275,289.984 202.201,289.984 202.034 C 289.984 201.866,290.686 201.415,291.544 201.030 C 292.401 200.645,293.732 199.972,294.499 199.535 C 295.267 199.098,295.895 198.808,295.895 198.890 C 295.895 198.972,296.446 198.664,297.121 198.206 C 297.795 197.748,298.439 197.373,298.551 197.373 C 298.664 197.373,300.010 196.651,301.543 195.769 C 303.075 194.888,304.685 194.055,305.120 193.920 C 305.555 193.785,306.281 193.420,306.732 193.110 C 307.184 192.799,308.181 192.273,308.949 191.940 C 309.717 191.607,310.345 191.207,310.345 191.050 C 310.345 190.894,310.480 190.849,310.645 190.951 C 310.810 191.054,310.995 191.025,311.056 190.889 C 311.216 190.528,315.841 188.177,316.392 188.177 C 316.648 188.177,316.907 188.062,316.968 187.920 C 317.130 187.539,319.507 186.207,320.024 186.207 C 320.270 186.207,320.520 186.082,320.580 185.929 C 320.640 185.777,322.167 184.891,323.974 183.962 C 325.780 183.032,327.406 182.158,327.586 182.018 C 327.767 181.879,328.580 181.473,329.392 181.117 C 330.205 180.761,331.368 180.137,331.977 179.730 C 332.585 179.324,333.193 179.060,333.328 179.143 C 333.463 179.227,333.838 179.003,334.161 178.646 C 334.484 178.289,334.950 177.997,335.197 177.997 C 335.444 177.997,336.198 177.648,336.873 177.222 C 337.548 176.796,338.690 176.152,339.411 175.792 C 340.133 175.433,341.461 174.756,342.365 174.288 C 343.268 173.821,344.228 173.355,344.499 173.252 C 344.770 173.150,345.583 172.700,346.305 172.252 C 347.028 171.804,348.284 171.142,349.097 170.780 C 349.910 170.418,350.796 169.972,351.067 169.788 C 351.338 169.604,352.077 169.201,352.709 168.892 C 353.342 168.583,354.228 168.086,354.680 167.788 C 355.131 167.490,355.863 167.133,356.307 166.995 C 356.750 166.857,357.316 166.541,357.565 166.292 C 357.813 166.043,358.153 165.924,358.319 166.026 C 358.485 166.129,358.621 166.066,358.621 165.886 C 358.621 165.707,359.138 165.373,359.770 165.144 C 361.256 164.607,361.256 163.800,359.770 163.263 C 359.138 163.035,358.621 162.701,358.621 162.521 C 358.621 162.341,358.485 162.278,358.319 162.381 C 358.153 162.484,357.813 162.364,357.565 162.115 C 357.316 161.867,356.750 161.550,356.307 161.412 C 355.863 161.275,355.131 160.918,354.680 160.619 C 354.228 160.321,353.342 159.824,352.709 159.515 C 352.077 159.206,351.338 158.803,351.067 158.619 C 350.796 158.435,349.910 157.989,349.097 157.627 C 348.284 157.265,347.028 156.603,346.305 156.155 C 345.583 155.707,344.770 155.257,344.499 155.155 C 344.228 155.053,343.268 154.587,342.365 154.119 C 341.461 153.652,340.133 152.975,339.411 152.615 C 338.690 152.255,337.548 151.612,336.873 151.185 C 336.198 150.759,335.444 150.411,335.197 150.411 C 334.950 150.411,334.484 150.118,334.161 149.761 C 333.838 149.404,333.463 149.181,333.328 149.264 C 333.193 149.348,332.585 149.083,331.977 148.677 C 331.368 148.270,330.205 147.646,329.392 147.290 C 328.580 146.934,327.767 146.528,327.586 146.389 C 327.406 146.250,325.780 145.375,323.974 144.446 C 322.167 143.516,320.640 142.631,320.580 142.478 C 320.520 142.325,320.270 142.200,320.024 142.200 C 319.507 142.200,317.130 140.868,316.968 140.487 C 316.907 140.346,316.648 140.230,316.392 140.230 C 315.841 140.230,311.216 137.880,311.056 137.518 C 310.995 137.382,310.810 137.354,310.645 137.456 C 310.480 137.558,310.345 137.513,310.345 137.357 C 310.345 137.200,309.717 136.800,308.949 136.467 C 308.181 136.134,307.184 135.608,306.732 135.297 C 306.281 134.987,305.555 134.622,305.120 134.487 C 304.685 134.352,303.075 133.520,301.543 132.638 C 300.010 131.756,298.664 131.034,298.551 131.034 C 298.439 131.034,297.795 130.660,297.121 130.202 C 296.446 129.744,295.895 129.436,295.895 129.517 C 295.895 129.599,295.267 129.309,294.499 128.872 C 293.732 128.435,292.401 127.762,291.544 127.378 C 290.686 126.993,289.984 126.541,289.984 126.374 C 289.984 126.206,289.873 126.133,289.737 126.209 C 289.602 126.286,289.048 126.090,288.506 125.773 C 287.964 125.456,285.710 124.266,283.498 123.129 C 281.285 121.991,279.475 120.940,279.475 120.793 C 279.475 120.646,279.364 120.556,279.228 120.594 C 278.887 120.690,276.479 119.536,275.780 118.942 C 275.464 118.673,275.205 118.547,275.205 118.663 C 275.205 118.778,274.651 118.554,273.974 118.164 C 272.177 117.131,271.331 116.679,259.278 110.316 C 257.291 109.267,255.111 108.163,254.433 107.863 C 253.756 107.563,253.202 107.186,253.202 107.025 C 253.202 106.864,253.066 106.732,252.901 106.732 C 252.459 106.732,249.997 105.562,248.112 104.457 C 247.209 103.927,245.472 103.003,244.253 102.404 C 243.034 101.804,242.036 101.194,242.036 101.048 C 242.036 100.902,241.906 100.863,241.747 100.961 C 241.587 101.060,240.959 100.808,240.351 100.403 C 239.742 99.998,237.767 98.934,235.961 98.039 C 234.154 97.145,232.603 96.333,232.512 96.236 C 232.422 96.139,231.831 95.807,231.199 95.498 C 230.567 95.189,229.680 94.717,229.228 94.449 C 228.777 94.180,227.668 93.607,226.765 93.176 C 224.766 92.221,223.652 91.597,222.951 91.041 C 222.660 90.809,222.143 90.565,221.802 90.498 C 221.104 90.360,216.849 88.136,216.092 87.514 C 215.821 87.291,215.027 86.906,214.326 86.659 C 213.626 86.412,212.983 86.025,212.896 85.799 C 212.810 85.574,212.619 85.464,212.472 85.555 C 212.324 85.646,211.976 85.492,211.697 85.213 C 211.418 84.934,211.110 84.711,211.013 84.717 C 210.404 84.758,210.181 84.685,209.794 84.317 C 209.555 84.091,208.547 83.544,207.553 83.102 C 206.560 82.660,205.525 82.131,205.255 81.926 C 204.984 81.721,204.171 81.260,203.448 80.902 C 200.862 79.620,199.171 78.703,198.686 78.317 C 198.415 78.102,197.717 77.766,197.133 77.570 C 196.550 77.375,195.885 77.054,195.656 76.858 C 195.426 76.662,193.834 75.791,192.118 74.921 C 187.718 72.692,184.454 70.925,184.089 70.577 C 183.917 70.413,183.521 70.279,183.209 70.279 C 182.897 70.279,182.445 70.083,182.206 69.844 C 181.966 69.604,180.441 68.734,178.816 67.910 C 173.419 65.174,171.594 64.206,171.429 63.990 C 171.338 63.872,170.378 63.373,169.294 62.879 C 168.210 62.386,167.250 61.891,167.159 61.779 C 167.069 61.668,164.791 60.468,162.097 59.113 C 159.403 57.759,156.706 56.322,156.104 55.921 C 155.501 55.520,155.008 55.244,155.008 55.307 C 155.008 55.371,154.232 55.006,153.284 54.496 C 152.336 53.986,150.821 53.197,149.918 52.742 C 149.015 52.287,147.833 51.614,147.291 51.247 C 146.749 50.880,146.047 50.578,145.731 50.577 C 145.415 50.576,145.156 50.427,145.156 50.246 C 145.156 50.066,144.952 49.918,144.704 49.918 C 144.455 49.918,144.079 49.711,143.869 49.458 C 143.659 49.204,143.088 48.897,142.601 48.775 C 142.113 48.652,141.639 48.445,141.547 48.314 C 141.328 48.002,138.370 46.634,137.915 46.634 C 137.722 46.634,137.655 46.486,137.767 46.305 C 137.878 46.125,137.702 45.965,137.376 45.951 C 137.049 45.936,136.190 45.589,135.468 45.179 C 134.745 44.770,132.787 43.715,131.117 42.836 C 129.446 41.956,128.079 41.121,128.079 40.980 C 128.079 40.838,127.894 40.723,127.668 40.724 C 127.031 40.727,121.182 37.731,121.182 37.402 C 121.182 37.242,120.998 37.108,120.772 37.106 C 120.546 37.104,119.548 36.673,118.555 36.148 C 117.562 35.624,116.195 34.944,115.517 34.639 C 114.840 34.333,114.286 33.963,114.286 33.816 C 114.286 33.669,113.732 33.370,113.054 33.152 C 111.636 32.696,107.607 30.539,107.444 30.148 C 107.384 30.003,107.148 29.885,106.921 29.885 C 106.693 29.885,105.856 29.525,105.060 29.086 C 102.948 27.919,101.248 27.021,95.567 24.067 C 88.007 20.137,87.535 19.885,87.356 19.686 C 87.095 19.396,84.116 18.062,83.728 18.062 C 83.535 18.062,83.468 17.915,83.580 17.734 C 83.762 17.439,83.331 17.263,82.677 17.367 C 82.541 17.388,82.430 17.249,82.430 17.058 C 82.430 16.867,82.300 16.791,82.140 16.889 C 81.981 16.988,81.430 16.738,80.917 16.334 C 80.403 15.930,79.980 15.658,79.975 15.730 C 79.962 15.949,77.084 14.405,76.595 13.916 C 76.343 13.665,76.039 13.514,75.918 13.582 C 75.797 13.650,75.255 13.448,74.713 13.133 C 74.171 12.818,72.176 11.766,70.279 10.796 C 68.383 9.825,66.757 8.951,66.667 8.852 C 66.576 8.754,64.951 7.890,63.054 6.933 C 61.158 5.976,59.015 4.852,58.292 4.434 C 57.570 4.017,55.575 2.966,53.859 2.098 C 52.143 1.230,50.690 0.403,50.629 0.260 C 50.569 0.117,50.237 0.000,49.891 0.000 C 49.271 0.000,49.261 2.599,49.261 164.204 " stroke="none" fill="#d2d1d1" fill-rule="evenodd"></path></g></svg>