<svg id="svg" version="1.1" width="400" height="266.6666666666667" xmlns="http://www.w3.org/2000/svg" xmlns:xlink="http://www.w3.org/1999/xlink" style="display: block;"><g id="svgg"><path id="path3" d="M160.267 49.956 C 160.267 50.025,160.654 50.216,161.127 50.381 C 161.601 50.546,161.871 50.571,161.727 50.437 C 161.424 50.153,160.267 49.772,160.267 49.956 M359.022 133.333 C 359.022 133.785,359.109 134.014,359.215 133.843 C 359.320 133.672,359.540 133.614,359.704 133.715 C 359.885 133.827,360.000 133.680,360.000 133.333 C 360.000 132.987,359.885 132.839,359.704 132.952 C 359.540 133.053,359.320 132.995,359.215 132.824 C 359.109 132.652,359.022 132.882,359.022 133.333 M160.933 216.409 C 160.263 216.732,160.242 216.769,160.800 216.634 C 161.167 216.546,161.581 216.367,161.720 216.237 C 162.066 215.914,161.876 215.955,160.933 216.409 " stroke="none" fill="#aaaaaa" fill-rule="evenodd"></path><path id="path4" d="M40.000 133.333 C 40.000 262.485,40.015 266.667,40.489 266.667 C 40.758 266.667,41.842 266.247,42.896 265.733 C 43.951 265.220,44.922 264.800,45.054 264.800 C 45.186 264.800,46.215 264.375,47.341 263.855 C 48.467 263.334,49.736 262.839,50.161 262.755 C 50.586 262.670,50.933 262.503,50.933 262.385 C 50.933 262.266,51.203 262.094,51.533 262.003 C 52.223 261.811,53.790 261.197,55.333 260.515 C 58.086 259.298,60.355 258.400,60.676 258.400 C 60.870 258.400,61.187 258.243,61.381 258.051 C 61.575 257.859,62.482 257.469,63.398 257.184 C 64.313 256.900,65.063 256.577,65.064 256.467 C 65.066 256.357,65.179 256.267,65.316 256.267 C 65.453 256.267,65.843 256.161,66.183 256.032 C 66.522 255.903,66.860 255.802,66.933 255.807 C 67.007 255.813,67.666 255.498,68.398 255.109 C 69.130 254.719,69.816 254.400,69.923 254.400 C 70.030 254.400,70.751 254.114,71.525 253.765 C 72.300 253.415,73.212 253.044,73.554 252.940 C 73.895 252.836,75.071 252.342,76.168 251.842 C 77.265 251.342,78.336 250.933,78.548 250.933 C 78.760 250.933,78.933 250.813,78.933 250.667 C 78.933 250.520,79.100 250.400,79.303 250.400 C 79.506 250.400,80.016 250.221,80.436 250.002 C 80.856 249.783,81.400 249.603,81.644 249.602 C 81.889 249.601,82.129 249.505,82.178 249.389 C 82.227 249.274,82.927 248.921,83.733 248.606 C 85.342 247.977,88.852 246.545,89.800 246.129 C 90.130 245.985,90.670 245.753,91.000 245.615 C 91.330 245.476,92.163 245.116,92.852 244.815 C 93.541 244.513,94.191 244.267,94.297 244.267 C 94.483 244.267,97.042 243.174,99.379 242.097 C 99.990 241.815,101.100 241.403,101.845 241.182 C 102.590 240.960,103.200 240.693,103.200 240.588 C 103.200 240.483,103.675 240.248,104.255 240.067 C 104.835 239.886,106.098 239.377,107.061 238.936 C 108.025 238.494,108.878 238.133,108.957 238.133 C 109.036 238.133,109.757 237.833,110.558 237.467 C 111.360 237.100,112.144 236.800,112.300 236.800 C 112.456 236.800,112.903 236.625,113.292 236.412 C 114.379 235.815,116.907 234.728,119.580 233.707 C 120.911 233.198,122.732 232.426,123.627 231.991 C 124.522 231.556,125.445 231.200,125.678 231.200 C 125.911 231.200,126.176 231.080,126.267 230.933 C 126.357 230.787,126.664 230.667,126.949 230.667 C 127.234 230.667,127.467 230.560,127.467 230.429 C 127.467 230.206,128.251 229.913,129.453 229.685 C 129.738 229.631,130.158 229.422,130.386 229.220 C 130.614 229.018,131.340 228.699,132.000 228.511 C 132.660 228.324,133.500 227.977,133.867 227.742 C 134.233 227.506,135.013 227.156,135.600 226.963 C 136.187 226.770,137.417 226.264,138.334 225.839 C 139.251 225.414,140.154 225.067,140.341 225.067 C 140.528 225.067,140.918 224.903,141.207 224.703 C 141.497 224.502,142.033 224.250,142.400 224.142 C 142.767 224.034,143.727 223.640,144.533 223.266 C 145.340 222.891,146.240 222.495,146.533 222.384 C 147.804 221.903,148.141 221.777,148.267 221.737 C 148.340 221.714,148.760 221.539,149.200 221.348 C 149.640 221.157,150.240 220.905,150.533 220.788 C 150.827 220.672,151.749 220.267,152.583 219.888 C 153.418 219.510,154.174 219.200,154.265 219.200 C 154.355 219.200,154.933 218.972,155.548 218.694 C 157.738 217.705,158.667 217.363,158.671 217.547 C 158.673 217.649,158.763 217.600,158.871 217.437 C 159.086 217.111,164.806 214.746,165.437 214.721 C 165.567 214.716,165.747 214.607,165.837 214.478 C 165.927 214.348,167.320 213.718,168.933 213.078 C 170.547 212.437,172.285 211.692,172.796 211.423 C 173.307 211.154,173.879 210.933,174.066 210.933 C 174.254 210.933,174.616 210.827,174.870 210.696 C 175.125 210.566,175.753 210.279,176.267 210.059 C 176.780 209.839,177.680 209.444,178.267 209.180 C 178.853 208.917,179.393 208.687,179.467 208.668 C 179.540 208.649,180.080 208.422,180.667 208.163 C 181.253 207.903,182.513 207.391,183.467 207.023 C 184.420 206.656,185.661 206.125,186.225 205.844 C 186.789 205.563,187.364 205.333,187.503 205.333 C 187.642 205.333,188.526 204.973,189.467 204.533 C 190.408 204.093,191.300 203.733,191.450 203.733 C 191.601 203.733,192.476 203.385,193.395 202.960 C 194.314 202.535,195.727 201.915,196.533 201.584 C 197.340 201.252,198.480 200.766,199.067 200.504 C 200.931 199.669,205.990 197.556,206.267 197.496 C 206.413 197.464,206.893 197.249,207.333 197.019 C 207.773 196.789,208.433 196.511,208.800 196.402 C 209.167 196.293,210.007 195.971,210.667 195.687 C 211.327 195.403,212.107 195.074,212.400 194.955 C 212.693 194.836,213.486 194.483,214.163 194.170 C 214.839 193.856,215.525 193.600,215.688 193.600 C 215.851 193.600,216.377 193.379,216.859 193.110 C 217.340 192.840,218.345 192.416,219.094 192.168 C 219.842 191.920,220.682 191.544,220.960 191.334 C 221.239 191.123,221.629 190.946,221.826 190.942 C 222.024 190.937,222.624 190.737,223.160 190.498 C 223.695 190.259,224.613 189.852,225.200 189.594 C 225.787 189.336,226.971 188.812,227.832 188.429 C 228.693 188.047,229.540 187.733,229.715 187.733 C 229.889 187.733,230.885 187.313,231.927 186.800 C 232.969 186.287,233.988 185.867,234.193 185.867 C 234.397 185.867,234.798 185.690,235.082 185.475 C 235.367 185.260,235.758 185.080,235.950 185.075 C 236.143 185.070,236.923 184.774,237.683 184.416 C 238.444 184.058,241.287 182.845,244.000 181.721 C 246.713 180.598,249.282 179.511,249.708 179.306 C 250.134 179.101,250.585 178.933,250.711 178.933 C 250.943 178.933,252.167 178.406,255.117 177.034 C 256.024 176.612,256.926 176.267,257.120 176.267 C 257.315 176.267,257.923 176.026,258.471 175.733 C 259.018 175.439,259.467 175.257,259.467 175.328 C 259.467 175.399,259.865 175.234,260.351 174.961 C 260.838 174.687,261.618 174.380,262.085 174.277 C 262.551 174.175,262.933 173.986,262.933 173.858 C 262.933 173.729,263.355 173.545,263.870 173.449 C 264.385 173.352,264.872 173.166,264.952 173.036 C 265.032 172.906,265.331 172.800,265.616 172.800 C 265.900 172.800,266.133 172.682,266.133 172.538 C 266.133 172.395,266.463 172.202,266.867 172.110 C 267.586 171.945,269.999 170.946,272.693 169.697 C 273.441 169.350,274.223 169.067,274.431 169.067 C 274.638 169.067,275.259 168.825,275.810 168.529 C 276.362 168.234,277.860 167.568,279.140 167.050 C 281.705 166.010,282.076 165.856,283.528 165.217 C 284.075 164.977,285.024 164.603,285.638 164.387 C 286.252 164.170,286.884 163.892,287.044 163.769 C 287.203 163.646,287.993 163.318,288.800 163.040 C 289.607 162.762,290.425 162.384,290.619 162.200 C 290.813 162.017,291.092 161.867,291.240 161.867 C 291.607 161.867,294.705 160.639,296.705 159.701 C 297.606 159.279,298.477 158.933,298.642 158.933 C 298.806 158.933,299.149 158.821,299.404 158.683 C 299.658 158.546,300.467 158.172,301.200 157.852 C 301.933 157.532,302.742 157.164,302.996 157.035 C 303.251 156.906,303.701 156.800,303.996 156.800 C 304.292 156.800,304.533 156.689,304.533 156.554 C 304.533 156.352,306.132 155.652,306.688 155.611 C 306.772 155.605,307.252 155.403,307.754 155.161 C 308.256 154.920,308.967 154.606,309.333 154.464 C 309.700 154.322,310.553 153.950,311.229 153.636 C 311.905 153.323,312.655 153.067,312.896 153.067 C 313.136 153.067,313.333 152.947,313.333 152.800 C 313.333 152.653,313.491 152.533,313.683 152.533 C 313.876 152.533,314.530 152.293,315.137 152.000 C 315.744 151.707,316.403 151.467,316.600 151.467 C 316.798 151.467,317.074 151.362,317.213 151.233 C 317.353 151.105,318.307 150.678,319.333 150.284 C 320.360 149.891,321.560 149.403,322.000 149.201 C 322.929 148.775,323.718 148.483,324.223 148.380 C 324.420 148.340,324.780 148.133,325.023 147.921 C 325.267 147.709,326.127 147.324,326.933 147.066 C 327.740 146.807,328.520 146.508,328.667 146.399 C 328.813 146.291,329.413 146.053,330.000 145.869 C 330.587 145.686,331.181 145.430,331.320 145.301 C 331.459 145.172,331.789 145.067,332.053 145.067 C 332.317 145.067,332.533 144.960,332.533 144.829 C 332.533 144.636,333.134 144.379,334.133 144.146 C 334.207 144.128,334.537 143.964,334.867 143.781 C 335.197 143.598,335.469 143.542,335.471 143.657 C 335.473 143.772,335.563 143.734,335.671 143.573 C 335.779 143.411,336.524 143.062,337.327 142.798 C 338.131 142.533,338.924 142.181,339.090 142.015 C 339.256 141.849,340.128 141.478,341.029 141.190 C 341.930 140.902,342.667 140.577,342.667 140.467 C 342.667 140.357,342.848 140.267,343.070 140.267 C 343.292 140.267,343.682 140.164,343.937 140.039 C 345.464 139.289,348.616 137.974,351.015 137.085 C 351.719 136.824,352.433 136.473,352.601 136.305 C 352.769 136.137,353.055 136.000,353.236 136.000 C 353.417 136.000,353.843 135.894,354.183 135.765 C 354.522 135.636,354.860 135.536,354.933 135.544 C 355.007 135.551,355.367 135.391,355.733 135.188 C 356.100 134.986,356.490 134.846,356.600 134.877 C 356.710 134.908,356.800 134.824,356.800 134.690 C 356.800 134.556,357.271 134.367,357.846 134.270 C 358.421 134.173,358.957 133.922,359.037 133.713 C 359.304 133.018,358.903 132.575,357.846 132.396 C 357.271 132.299,356.800 132.110,356.800 131.977 C 356.800 131.843,356.710 131.759,356.600 131.790 C 356.490 131.821,356.100 131.681,355.733 131.478 C 355.367 131.276,355.067 131.139,355.067 131.174 C 355.067 131.209,354.729 131.109,354.316 130.952 C 353.903 130.795,353.417 130.667,353.236 130.667 C 353.055 130.667,352.769 130.529,352.601 130.361 C 352.433 130.193,351.719 129.842,351.015 129.581 C 348.616 128.693,345.464 127.378,343.937 126.627 C 343.682 126.502,343.292 126.400,343.070 126.400 C 342.848 126.400,342.667 126.310,342.667 126.200 C 342.667 126.090,341.930 125.764,341.029 125.477 C 340.128 125.189,339.256 124.818,339.090 124.652 C 338.924 124.486,338.131 124.133,337.327 123.869 C 336.524 123.604,335.779 123.256,335.671 123.094 C 335.563 122.932,335.473 122.894,335.471 123.009 C 335.469 123.125,335.197 123.069,334.867 122.885 C 334.537 122.702,334.207 122.538,334.133 122.521 C 333.134 122.287,332.533 122.031,332.533 121.838 C 332.533 121.707,332.317 121.600,332.053 121.600 C 331.789 121.600,331.459 121.494,331.320 121.366 C 331.181 121.237,330.587 120.981,330.000 120.797 C 329.413 120.614,328.813 120.375,328.667 120.267 C 328.520 120.159,327.740 119.859,326.933 119.601 C 326.127 119.343,325.267 118.958,325.023 118.746 C 324.780 118.533,324.420 118.327,324.223 118.287 C 323.718 118.184,322.929 117.892,322.000 117.465 C 321.560 117.263,320.360 116.776,319.333 116.382 C 318.307 115.989,317.353 115.562,317.213 115.433 C 317.074 115.305,316.798 115.200,316.600 115.200 C 316.403 115.200,315.744 114.960,315.137 114.667 C 314.530 114.373,313.876 114.133,313.683 114.133 C 313.491 114.133,313.333 114.013,313.333 113.867 C 313.333 113.720,313.136 113.600,312.896 113.600 C 312.655 113.600,311.905 113.344,311.229 113.030 C 310.553 112.717,309.700 112.345,309.333 112.202 C 308.967 112.060,308.256 111.746,307.754 111.505 C 307.252 111.264,306.772 111.062,306.688 111.055 C 306.132 111.014,304.533 110.315,304.533 110.113 C 304.533 109.977,304.292 109.867,303.996 109.867 C 303.701 109.867,303.251 109.761,302.996 109.632 C 302.742 109.503,301.933 109.135,301.200 108.815 C 300.467 108.495,299.658 108.121,299.404 107.983 C 299.149 107.846,298.806 107.733,298.642 107.733 C 298.477 107.733,297.606 107.388,296.705 106.965 C 294.705 106.028,291.607 104.800,291.240 104.800 C 291.092 104.800,290.813 104.650,290.619 104.466 C 290.425 104.283,289.607 103.905,288.800 103.627 C 287.993 103.349,287.203 103.020,287.044 102.897 C 286.884 102.774,286.252 102.497,285.638 102.280 C 285.024 102.064,284.075 101.690,283.528 101.449 C 282.076 100.811,281.705 100.656,279.140 99.617 C 277.860 99.099,276.362 98.433,275.810 98.137 C 275.259 97.842,274.638 97.600,274.431 97.600 C 274.223 97.600,273.441 97.316,272.693 96.969 C 269.999 95.720,267.586 94.721,266.867 94.557 C 266.463 94.465,266.133 94.272,266.133 94.128 C 266.133 93.984,265.900 93.867,265.616 93.867 C 265.331 93.867,265.032 93.760,264.952 93.630 C 264.872 93.500,264.385 93.315,263.870 93.218 C 263.355 93.122,262.933 92.937,262.933 92.809 C 262.933 92.681,262.551 92.492,262.085 92.389 C 261.618 92.287,260.838 91.979,260.351 91.706 C 259.865 91.433,259.467 91.267,259.467 91.338 C 259.467 91.410,259.018 91.227,258.471 90.934 C 257.923 90.640,257.315 90.400,257.120 90.400 C 256.926 90.400,256.024 90.055,255.117 89.633 C 252.167 88.261,250.943 87.733,250.711 87.733 C 250.585 87.733,250.134 87.566,249.708 87.361 C 249.282 87.156,246.713 86.069,244.000 84.945 C 241.287 83.822,238.444 82.609,237.683 82.251 C 236.923 81.893,236.143 81.596,235.950 81.592 C 235.758 81.587,235.367 81.407,235.082 81.192 C 234.798 80.976,234.397 80.800,234.193 80.800 C 233.988 80.800,232.969 80.380,231.927 79.867 C 230.885 79.353,229.889 78.933,229.715 78.933 C 229.540 78.933,228.693 78.620,227.832 78.237 C 226.971 77.854,225.787 77.330,225.200 77.073 C 224.613 76.815,223.695 76.408,223.160 76.169 C 222.624 75.929,222.024 75.730,221.826 75.725 C 221.629 75.720,221.239 75.544,220.960 75.333 C 220.682 75.122,219.842 74.747,219.094 74.499 C 218.345 74.251,217.340 73.827,216.859 73.557 C 216.377 73.287,215.851 73.067,215.688 73.067 C 215.525 73.067,214.839 72.810,214.163 72.497 C 213.486 72.184,212.693 71.830,212.400 71.712 C 212.107 71.593,211.327 71.264,210.667 70.980 C 210.007 70.696,209.167 70.374,208.800 70.265 C 208.433 70.155,207.773 69.878,207.333 69.647 C 206.893 69.417,206.413 69.203,206.267 69.171 C 205.990 69.111,200.931 66.997,199.067 66.163 C 198.480 65.901,197.340 65.414,196.533 65.083 C 195.727 64.751,194.314 64.132,193.395 63.707 C 192.476 63.281,191.601 62.933,191.450 62.933 C 191.300 62.933,190.408 62.573,189.467 62.133 C 188.526 61.693,187.642 61.333,187.503 61.333 C 187.364 61.333,186.789 61.103,186.225 60.822 C 185.661 60.541,184.420 60.011,183.467 59.643 C 182.513 59.276,181.253 58.763,180.667 58.504 C 180.080 58.245,179.540 58.017,179.467 57.999 C 179.393 57.980,178.853 57.749,178.267 57.486 C 177.680 57.223,176.780 56.828,176.267 56.608 C 175.753 56.388,175.125 56.101,174.870 55.970 C 174.616 55.840,174.254 55.733,174.066 55.733 C 173.879 55.733,173.307 55.513,172.796 55.244 C 172.285 54.975,170.547 54.230,168.933 53.589 C 167.320 52.948,165.927 52.318,165.837 52.189 C 165.747 52.060,165.567 51.950,165.437 51.945 C 164.806 51.921,159.086 49.555,158.871 49.230 C 158.763 49.067,158.673 49.017,158.671 49.120 C 158.667 49.304,157.738 48.962,155.548 47.972 C 154.933 47.694,154.355 47.467,154.265 47.467 C 154.174 47.467,153.418 47.157,152.583 46.778 C 151.749 46.400,150.827 45.995,150.533 45.878 C 150.240 45.762,149.640 45.510,149.200 45.319 C 148.760 45.128,148.340 44.952,148.267 44.929 C 148.141 44.890,147.804 44.764,146.533 44.283 C 146.240 44.172,145.340 43.775,144.533 43.401 C 143.727 43.027,142.767 42.633,142.400 42.525 C 142.033 42.417,141.497 42.164,141.207 41.964 C 140.918 41.764,140.528 41.600,140.341 41.600 C 140.154 41.600,139.251 41.252,138.334 40.827 C 137.417 40.402,136.187 39.897,135.600 39.704 C 135.013 39.511,134.233 39.160,133.867 38.925 C 133.500 38.689,132.660 38.343,132.000 38.155 C 131.340 37.968,130.614 37.649,130.386 37.447 C 130.158 37.245,129.738 37.035,129.453 36.981 C 128.251 36.754,127.467 36.460,127.467 36.238 C 127.467 36.107,127.234 36.000,126.949 36.000 C 126.664 36.000,126.357 35.880,126.267 35.733 C 126.176 35.587,125.911 35.467,125.678 35.467 C 125.445 35.467,124.522 35.111,123.627 34.676 C 122.732 34.240,120.911 33.468,119.580 32.960 C 116.907 31.939,114.379 30.851,113.292 30.255 C 112.903 30.041,112.456 29.867,112.300 29.867 C 112.144 29.867,111.360 29.567,110.558 29.200 C 109.757 28.833,109.036 28.533,108.957 28.533 C 108.878 28.533,108.025 28.172,107.061 27.731 C 106.098 27.290,104.835 26.780,104.255 26.599 C 103.675 26.418,103.200 26.184,103.200 26.079 C 103.200 25.973,102.590 25.706,101.845 25.485 C 101.100 25.264,99.990 24.852,99.379 24.570 C 97.042 23.493,94.483 22.400,94.297 22.400 C 94.191 22.400,93.541 22.153,92.852 21.852 C 92.163 21.551,91.330 21.191,91.000 21.052 C 90.670 20.913,90.130 20.682,89.800 20.537 C 88.852 20.122,85.342 18.689,83.733 18.061 C 82.927 17.746,82.227 17.393,82.178 17.277 C 82.129 17.161,81.889 17.066,81.644 17.065 C 81.400 17.064,80.856 16.884,80.436 16.665 C 80.016 16.446,79.506 16.267,79.303 16.267 C 79.100 16.267,78.933 16.147,78.933 16.000 C 78.933 15.853,78.760 15.733,78.548 15.733 C 78.336 15.733,77.265 15.324,76.168 14.824 C 75.071 14.324,73.895 13.830,73.554 13.726 C 73.212 13.622,72.300 13.252,71.525 12.902 C 70.751 12.553,70.030 12.267,69.923 12.267 C 69.816 12.267,69.130 11.948,68.398 11.558 C 67.666 11.168,67.007 10.854,66.933 10.859 C 66.860 10.865,66.522 10.764,66.183 10.635 C 65.843 10.506,65.453 10.400,65.316 10.400 C 65.179 10.400,65.066 10.310,65.064 10.200 C 65.063 10.090,64.313 9.767,63.398 9.483 C 62.482 9.198,61.575 8.808,61.381 8.616 C 61.187 8.424,60.870 8.267,60.676 8.267 C 60.355 8.267,58.086 7.369,55.333 6.151 C 53.790 5.469,52.223 4.856,51.533 4.664 C 51.203 4.572,50.933 4.400,50.933 4.282 C 50.933 4.164,50.586 3.997,50.161 3.912 C 49.736 3.827,48.467 3.332,47.341 2.812 C 46.215 2.292,45.186 1.867,45.054 1.867 C 44.922 1.867,43.951 1.447,42.896 0.933 C 41.842 0.420,40.758 -0.000,40.489 -0.000 C 40.015 -0.000,40.000 4.182,40.000 133.333 " stroke="none" fill="#bcbabb" fill-rule="evenodd"></path><path id="path0" d="" stroke="none" fill="#000000" fill-rule="evenodd"></path><path id="path1" d="" stroke="none" fill="#7f7f7f" fill-rule="evenodd"></path><path id="path2" d="" stroke="none" fill="#999999" fill-rule="evenodd"></path><path id="path3" d="M160.267 49.956 C 160.267 50.025,160.654 50.216,161.127 50.381 C 161.601 50.546,161.871 50.571,161.727 50.437 C 161.424 50.153,160.267 49.772,160.267 49.956 M359.022 133.333 C 359.022 133.785,359.109 134.014,359.215 133.843 C 359.320 133.672,359.540 133.614,359.704 133.715 C 359.885 133.827,360.000 133.680,360.000 133.333 C 360.000 132.987,359.885 132.839,359.704 132.952 C 359.540 133.053,359.320 132.995,359.215 132.824 C 359.109 132.652,359.022 132.882,359.022 133.333 M160.933 216.409 C 160.263 216.732,160.242 216.769,160.800 216.634 C 161.167 216.546,161.581 216.367,161.720 216.237 C 162.066 215.914,161.876 215.955,160.933 216.409 " stroke="none" fill="#aaaaaa" fill-rule="evenodd"></path><path id="path4" d="M40.000 133.333 C 40.000 262.485,40.015 266.667,40.489 266.667 C 40.758 266.667,41.842 266.247,42.896 265.733 C 43.951 265.220,44.922 264.800,45.054 264.800 C 45.186 264.800,46.215 264.375,47.341 263.855 C 48.467 263.334,49.736 262.839,50.161 262.755 C 50.586 262.670,50.933 262.503,50.933 262.385 C 50.933 262.266,51.203 262.094,51.533 262.003 C 52.223 261.811,53.790 261.197,55.333 260.515 C 58.086 259.298,60.355 258.400,60.676 258.400 C 60.870 258.400,61.187 258.243,61.381 258.051 C 61.575 257.859,62.482 257.469,63.398 257.184 C 64.313 256.900,65.063 256.577,65.064 256.467 C 65.066 256.357,65.179 256.267,65.316 256.267 C 65.453 256.267,65.843 256.161,66.183 256.032 C 66.522 255.903,66.860 255.802,66.933 255.807 C 67.007 255.813,67.666 255.498,68.398 255.109 C 69.130 254.719,69.816 254.400,69.923 254.400 C 70.030 254.400,70.751 254.114,71.525 253.765 C 72.300 253.415,73.212 253.044,73.554 252.940 C 73.895 252.836,75.071 252.342,76.168 251.842 C 77.265 251.342,78.336 250.933,78.548 250.933 C 78.760 250.933,78.933 250.813,78.933 250.667 C 78.933 250.520,79.100 250.400,79.303 250.400 C 79.506 250.400,80.016 250.221,80.436 250.002 C 80.856 249.783,81.400 249.603,81.644 249.602 C 81.889 249.601,82.129 249.505,82.178 249.389 C 82.227 249.274,82.927 248.921,83.733 248.606 C 85.342 247.977,88.852 246.545,89.800 246.129 C 90.130 245.985,90.670 245.753,91.000 245.615 C 91.330 245.476,92.163 245.116,92.852 244.815 C 93.541 244.513,94.191 244.267,94.297 244.267 C 94.483 244.267,97.042 243.174,99.379 242.097 C 99.990 241.815,101.100 241.403,101.845 241.182 C 102.590 240.960,103.200 240.693,103.200 240.588 C 103.200 240.483,103.675 240.248,104.255 240.067 C 104.835 239.886,106.098 239.377,107.061 238.936 C 108.025 238.494,108.878 238.133,108.957 238.133 C 109.036 238.133,109.757 237.833,110.558 237.467 C 111.360 237.100,112.144 236.800,112.300 236.800 C 112.456 236.800,112.903 236.625,113.292 236.412 C 114.379 235.815,116.907 234.728,119.580 233.707 C 120.911 233.198,122.732 232.426,123.627 231.991 C 124.522 231.556,125.445 231.200,125.678 231.200 C 125.911 231.200,126.176 231.080,126.267 230.933 C 126.357 230.787,126.664 230.667,126.949 230.667 C 127.234 230.667,127.467 230.560,127.467 230.429 C 127.467 230.206,128.251 229.913,129.453 229.685 C 129.738 229.631,130.158 229.422,130.386 229.220 C 130.614 229.018,131.340 228.699,132.000 228.511 C 132.660 228.324,133.500 227.977,133.867 227.742 C 134.233 227.506,135.013 227.156,135.600 226.963 C 136.187 226.770,137.417 226.264,138.334 225.839 C 139.251 225.414,140.154 225.067,140.341 225.067 C 140.528 225.067,140.918 224.903,141.207 224.703 C 141.497 224.502,142.033 224.250,142.400 224.142 C 142.767 224.034,143.727 223.640,144.533 223.266 C 145.340 222.891,146.240 222.495,146.533 222.384 C 147.804 221.903,148.141 221.777,148.267 221.737 C 148.340 221.714,148.760 221.539,149.200 221.348 C 149.640 221.157,150.240 220.905,150.533 220.788 C 150.827 220.672,151.749 220.267,152.583 219.888 C 153.418 219.510,154.174 219.200,154.265 219.200 C 154.355 219.200,154.933 218.972,155.548 218.694 C 157.738 217.705,158.667 217.363,158.671 217.547 C 158.673 217.649,158.763 217.600,158.871 217.437 C 159.086 217.111,164.806 214.746,165.437 214.721 C 165.567 214.716,165.747 214.607,165.837 214.478 C 165.927 214.348,167.320 213.718,168.933 213.078 C 170.547 212.437,172.285 211.692,172.796 211.423 C 173.307 211.154,173.879 210.933,174.066 210.933 C 174.254 210.933,174.616 210.827,174.870 210.696 C 175.125 210.566,175.753 210.279,176.267 210.059 C 176.780 209.839,177.680 209.444,178.267 209.180 C 178.853 208.917,179.393 208.687,179.467 208.668 C 179.540 208.649,180.080 208.422,180.667 208.163 C 181.253 207.903,182.513 207.391,183.467 207.023 C 184.420 206.656,185.661 206.125,186.225 205.844 C 186.789 205.563,187.364 205.333,187.503 205.333 C 187.642 205.333,188.526 204.973,189.467 204.533 C 190.408 204.093,191.300 203.733,191.450 203.733 C 191.601 203.733,192.476 203.385,193.395 202.960 C 194.314 202.535,195.727 201.915,196.533 201.584 C 197.340 201.252,198.480 200.766,199.067 200.504 C 200.931 199.669,205.990 197.556,206.267 197.496 C 206.413 197.464,206.893 197.249,207.333 197.019 C 207.773 196.789,208.433 196.511,208.800 196.402 C 209.167 196.293,210.007 195.971,210.667 195.687 C 211.327 195.403,212.107 195.074,212.400 194.955 C 212.693 194.836,213.486 194.483,214.163 194.170 C 214.839 193.856,215.525 193.600,215.688 193.600 C 215.851 193.600,216.377 193.379,216.859 193.110 C 217.340 192.840,218.345 192.416,219.094 192.168 C 219.842 191.920,220.682 191.544,220.960 191.334 C 221.239 191.123,221.629 190.946,221.826 190.942 C 222.024 190.937,222.624 190.737,223.160 190.498 C 223.695 190.259,224.613 189.852,225.200 189.594 C 225.787 189.336,226.971 188.812,227.832 188.429 C 228.693 188.047,229.540 187.733,229.715 187.733 C 229.889 187.733,230.885 187.313,231.927 186.800 C 232.969 186.287,233.988 185.867,234.193 185.867 C 234.397 185.867,234.798 185.690,235.082 185.475 C 235.367 185.260,235.758 185.080,235.950 185.075 C 236.143 185.070,236.923 184.774,237.683 184.416 C 238.444 184.058,241.287 182.845,244.000 181.721 C 246.713 180.598,249.282 179.511,249.708 179.306 C 250.134 179.101,250.585 178.933,250.711 178.933 C 250.943 178.933,252.167 178.406,255.117 177.034 C 256.024 176.612,256.926 176.267,257.120 176.267 C 257.315 176.267,257.923 176.026,258.471 175.733 C 259.018 175.439,259.467 175.257,259.467 175.328 C 259.467 175.399,259.865 175.234,260.351 174.961 C 260.838 174.687,261.618 174.380,262.085 174.277 C 262.551 174.175,262.933 173.986,262.933 173.858 C 262.933 173.729,263.355 173.545,263.870 173.449 C 264.385 173.352,264.872 173.166,264.952 173.036 C 265.032 172.906,265.331 172.800,265.616 172.800 C 265.900 172.800,266.133 172.682,266.133 172.538 C 266.133 172.395,266.463 172.202,266.867 172.110 C 267.586 171.945,269.999 170.946,272.693 169.697 C 273.441 169.350,274.223 169.067,274.431 169.067 C 274.638 169.067,275.259 168.825,275.810 168.529 C 276.362 168.234,277.860 167.568,279.140 167.050 C 281.705 166.010,282.076 165.856,283.528 165.217 C 284.075 164.977,285.024 164.603,285.638 164.387 C 286.252 164.170,286.884 163.892,287.044 163.769 C 287.203 163.646,287.993 163.318,288.800 163.040 C 289.607 162.762,290.425 162.384,290.619 162.200 C 290.813 162.017,291.092 161.867,291.240 161.867 C 291.607 161.867,294.705 160.639,296.705 159.701 C 297.606 159.279,298.477 158.933,298.642 158.933 C 298.806 158.933,299.149 158.821,299.404 158.683 C 299.658 158.546,300.467 158.172,301.200 157.852 C 301.933 157.532,302.742 157.164,302.996 157.035 C 303.251 156.906,303.701 156.800,303.996 156.800 C 304.292 156.800,304.533 156.689,304.533 156.554 C 304.533 156.352,306.132 155.652,306.688 155.611 C 306.772 155.605,307.252 155.403,307.754 155.161 C 308.256 154.920,308.967 154.606,309.333 154.464 C 309.700 154.322,310.553 153.950,311.229 153.636 C 311.905 153.323,312.655 153.067,312.896 153.067 C 313.136 153.067,313.333 152.947,313.333 152.800 C 313.333 152.653,313.491 152.533,313.683 152.533 C 313.876 152.533,314.530 152.293,315.137 152.000 C 315.744 151.707,316.403 151.467,316.600 151.467 C 316.798 151.467,317.074 151.362,317.213 151.233 C 317.353 151.105,318.307 150.678,319.333 150.284 C 320.360 149.891,321.560 149.403,322.000 149.201 C 322.929 148.775,323.718 148.483,324.223 148.380 C 324.420 148.340,324.780 148.133,325.023 147.921 C 325.267 147.709,326.127 147.324,326.933 147.066 C 327.740 146.807,328.520 146.508,328.667 146.399 C 328.813 146.291,329.413 146.053,330.000 145.869 C 330.587 145.686,331.181 145.430,331.320 145.301 C 331.459 145.172,331.789 145.067,332.053 145.067 C 332.317 145.067,332.533 144.960,332.533 144.829 C 332.533 144.636,333.134 144.379,334.133 144.146 C 334.207 144.128,334.537 143.964,334.867 143.781 C 335.197 143.598,335.469 143.542,335.471 143.657 C 335.473 143.772,335.563 143.734,335.671 143.573 C 335.779 143.411,336.524 143.062,337.327 142.798 C 338.131 142.533,338.924 142.181,339.090 142.015 C 339.256 141.849,340.128 141.478,341.029 141.190 C 341.930 140.902,342.667 140.577,342.667 140.467 C 342.667 140.357,342.848 140.267,343.070 140.267 C 343.292 140.267,343.682 140.164,343.937 140.039 C 345.464 139.289,348.616 137.974,351.015 137.085 C 351.719 136.824,352.433 136.473,352.601 136.305 C 352.769 136.137,353.055 136.000,353.236 136.000 C 353.417 136.000,353.843 135.894,354.183 135.765 C 354.522 135.636,354.860 135.536,354.933 135.544 C 355.007 135.551,355.367 135.391,355.733 135.188 C 356.100 134.986,356.490 134.846,356.600 134.877 C 356.710 134.908,356.800 134.824,356.800 134.690 C 356.800 134.556,357.271 134.367,357.846 134.270 C 358.421 134.173,358.957 133.922,359.037 133.713 C 359.304 133.018,358.903 132.575,357.846 132.396 C 357.271 132.299,356.800 132.110,356.800 131.977 C 356.800 131.843,356.710 131.759,356.600 131.790 C 356.490 131.821,356.100 131.681,355.733 131.478 C 355.367 131.276,355.067 131.139,355.067 131.174 C 355.067 131.209,354.729 131.109,354.316 130.952 C 353.903 130.795,353.417 130.667,353.236 130.667 C 353.055 130.667,352.769 130.529,352.601 130.361 C 352.433 130.193,351.719 129.842,351.015 129.581 C 348.616 128.693,345.464 127.378,343.937 126.627 C 343.682 126.502,343.292 126.400,343.070 126.400 C 342.848 126.400,342.667 126.310,342.667 126.200 C 342.667 126.090,341.930 125.764,341.029 125.477 C 340.128 125.189,339.256 124.818,339.090 124.652 C 338.924 124.486,338.131 124.133,337.327 123.869 C 336.524 123.604,335.779 123.256,335.671 123.094 C 335.563 122.932,335.473 122.894,335.471 123.009 C 335.469 123.125,335.197 123.069,334.867 122.885 C 334.537 122.702,334.207 122.538,334.133 122.521 C 333.134 122.287,332.533 122.031,332.533 121.838 C 332.533 121.707,332.317 121.600,332.053 121.600 C 331.789 121.600,331.459 121.494,331.320 121.366 C 331.181 121.237,330.587 120.981,330.000 120.797 C 329.413 120.614,328.813 120.375,328.667 120.267 C 328.520 120.159,327.740 119.859,326.933 119.601 C 326.127 119.343,325.267 118.958,325.023 118.746 C 324.780 118.533,324.420 118.327,324.223 118.287 C 323.718 118.184,322.929 117.892,322.000 117.465 C 321.560 117.263,320.360 116.776,319.333 116.382 C 318.307 115.989,317.353 115.562,317.213 115.433 C 317.074 115.305,316.798 115.200,316.600 115.200 C 316.403 115.200,315.744 114.960,315.137 114.667 C 314.530 114.373,313.876 114.133,313.683 114.133 C 313.491 114.133,313.333 114.013,313.333 113.867 C 313.333 113.720,313.136 113.600,312.896 113.600 C 312.655 113.600,311.905 113.344,311.229 113.030 C 310.553 112.717,309.700 112.345,309.333 112.202 C 308.967 112.060,308.256 111.746,307.754 111.505 C 307.252 111.264,306.772 111.062,306.688 111.055 C 306.132 111.014,304.533 110.315,304.533 110.113 C 304.533 109.977,304.292 109.867,303.996 109.867 C 303.701 109.867,303.251 109.761,302.996 109.632 C 302.742 109.503,301.933 109.135,301.200 108.815 C 300.467 108.495,299.658 108.121,299.404 107.983 C 299.149 107.846,298.806 107.733,298.642 107.733 C 298.477 107.733,297.606 107.388,296.705 106.965 C 294.705 106.028,291.607 104.800,291.240 104.800 C 291.092 104.800,290.813 104.650,290.619 104.466 C 290.425 104.283,289.607 103.905,288.800 103.627 C 287.993 103.349,287.203 103.020,287.044 102.897 C 286.884 102.774,286.252 102.497,285.638 102.280 C 285.024 102.064,284.075 101.690,283.528 101.449 C 282.076 100.811,281.705 100.656,279.140 99.617 C 277.860 99.099,276.362 98.433,275.810 98.137 C 275.259 97.842,274.638 97.600,274.431 97.600 C 274.223 97.600,273.441 97.316,272.693 96.969 C 269.999 95.720,267.586 94.721,266.867 94.557 C 266.463 94.465,266.133 94.272,266.133 94.128 C 266.133 93.984,265.900 93.867,265.616 93.867 C 265.331 93.867,265.032 93.760,264.952 93.630 C 264.872 93.500,264.385 93.315,263.870 93.218 C 263.355 93.122,262.933 92.937,262.933 92.809 C 262.933 92.681,262.551 92.492,262.085 92.389 C 261.618 92.287,260.838 91.979,260.351 91.706 C 259.865 91.433,259.467 91.267,259.467 91.338 C 259.467 91.410,259.018 91.227,258.471 90.934 C 257.923 90.640,257.315 90.400,257.120 90.400 C 256.926 90.400,256.024 90.055,255.117 89.633 C 252.167 88.261,250.943 87.733,250.711 87.733 C 250.585 87.733,250.134 87.566,249.708 87.361 C 249.282 87.156,246.713 86.069,244.000 84.945 C 241.287 83.822,238.444 82.609,237.683 82.251 C 236.923 81.893,236.143 81.596,235.950 81.592 C 235.758 81.587,235.367 81.407,235.082 81.192 C 234.798 80.976,234.397 80.800,234.193 80.800 C 233.988 80.800,232.969 80.380,231.927 79.867 C 230.885 79.353,229.889 78.933,229.715 78.933 C 229.540 78.933,228.693 78.620,227.832 78.237 C 226.971 77.854,225.787 77.330,225.200 77.073 C 224.613 76.815,223.695 76.408,223.160 76.169 C 222.624 75.929,222.024 75.730,221.826 75.725 C 221.629 75.720,221.239 75.544,220.960 75.333 C 220.682 75.122,219.842 74.747,219.094 74.499 C 218.345 74.251,217.340 73.827,216.859 73.557 C 216.377 73.287,215.851 73.067,215.688 73.067 C 215.525 73.067,214.839 72.810,214.163 72.497 C 213.486 72.184,212.693 71.830,212.400 71.712 C 212.107 71.593,211.327 71.264,210.667 70.980 C 210.007 70.696,209.167 70.374,208.800 70.265 C 208.433 70.155,207.773 69.878,207.333 69.647 C 206.893 69.417,206.413 69.203,206.267 69.171 C 205.990 69.111,200.931 66.997,199.067 66.163 C 198.480 65.901,197.340 65.414,196.533 65.083 C 195.727 64.751,194.314 64.132,193.395 63.707 C 192.476 63.281,191.601 62.933,191.450 62.933 C 191.300 62.933,190.408 62.573,189.467 62.133 C 188.526 61.693,187.642 61.333,187.503 61.333 C 187.364 61.333,186.789 61.103,186.225 60.822 C 185.661 60.541,184.420 60.011,183.467 59.643 C 182.513 59.276,181.253 58.763,180.667 58.504 C 180.080 58.245,179.540 58.017,179.467 57.999 C 179.393 57.980,178.853 57.749,178.267 57.486 C 177.680 57.223,176.780 56.828,176.267 56.608 C 175.753 56.388,175.125 56.101,174.870 55.970 C 174.616 55.840,174.254 55.733,174.066 55.733 C 173.879 55.733,173.307 55.513,172.796 55.244 C 172.285 54.975,170.547 54.230,168.933 53.589 C 167.320 52.948,165.927 52.318,165.837 52.189 C 165.747 52.060,165.567 51.950,165.437 51.945 C 164.806 51.921,159.086 49.555,158.871 49.230 C 158.763 49.067,158.673 49.017,158.671 49.120 C 158.667 49.304,157.738 48.962,155.548 47.972 C 154.933 47.694,154.355 47.467,154.265 47.467 C 154.174 47.467,153.418 47.157,152.583 46.778 C 151.749 46.400,150.827 45.995,150.533 45.878 C 150.240 45.762,149.640 45.510,149.200 45.319 C 148.760 45.128,148.340 44.952,148.267 44.929 C 148.141 44.890,147.804 44.764,146.533 44.283 C 146.240 44.172,145.340 43.775,144.533 43.401 C 143.727 43.027,142.767 42.633,142.400 42.525 C 142.033 42.417,141.497 42.164,141.207 41.964 C 140.918 41.764,140.528 41.600,140.341 41.600 C 140.154 41.600,139.251 41.252,138.334 40.827 C 137.417 40.402,136.187 39.897,135.600 39.704 C 135.013 39.511,134.233 39.160,133.867 38.925 C 133.500 38.689,132.660 38.343,132.000 38.155 C 131.340 37.968,130.614 37.649,130.386 37.447 C 130.158 37.245,129.738 37.035,129.453 36.981 C 128.251 36.754,127.467 36.460,127.467 36.238 C 127.467 36.107,127.234 36.000,126.949 36.000 C 126.664 36.000,126.357 35.880,126.267 35.733 C 126.176 35.587,125.911 35.467,125.678 35.467 C 125.445 35.467,124.522 35.111,123.627 34.676 C 122.732 34.240,120.911 33.468,119.580 32.960 C 116.907 31.939,114.379 30.851,113.292 30.255 C 112.903 30.041,112.456 29.867,112.300 29.867 C 112.144 29.867,111.360 29.567,110.558 29.200 C 109.757 28.833,109.036 28.533,108.957 28.533 C 108.878 28.533,108.025 28.172,107.061 27.731 C 106.098 27.290,104.835 26.780,104.255 26.599 C 103.675 26.418,103.200 26.184,103.200 26.079 C 103.200 25.973,102.590 25.706,101.845 25.485 C 101.100 25.264,99.990 24.852,99.379 24.570 C 97.042 23.493,94.483 22.400,94.297 22.400 C 94.191 22.400,93.541 22.153,92.852 21.852 C 92.163 21.551,91.330 21.191,91.000 21.052 C 90.670 20.913,90.130 20.682,89.800 20.537 C 88.852 20.122,85.342 18.689,83.733 18.061 C 82.927 17.746,82.227 17.393,82.178 17.277 C 82.129 17.161,81.889 17.066,81.644 17.065 C 81.400 17.064,80.856 16.884,80.436 16.665 C 80.016 16.446,79.506 16.267,79.303 16.267 C 79.100 16.267,78.933 16.147,78.933 16.000 C 78.933 15.853,78.760 15.733,78.548 15.733 C 78.336 15.733,77.265 15.324,76.168 14.824 C 75.071 14.324,73.895 13.830,73.554 13.726 C 73.212 13.622,72.300 13.252,71.525 12.902 C 70.751 12.553,70.030 12.267,69.923 12.267 C 69.816 12.267,69.130 11.948,68.398 11.558 C 67.666 11.168,67.007 10.854,66.933 10.859 C 66.860 10.865,66.522 10.764,66.183 10.635 C 65.843 10.506,65.453 10.400,65.316 10.400 C 65.179 10.400,65.066 10.310,65.064 10.200 C 65.063 10.090,64.313 9.767,63.398 9.483 C 62.482 9.198,61.575 8.808,61.381 8.616 C 61.187 8.424,60.870 8.267,60.676 8.267 C 60.355 8.267,58.086 7.369,55.333 6.151 C 53.790 5.469,52.223 4.856,51.533 4.664 C 51.203 4.572,50.933 4.400,50.933 4.282 C 50.933 4.164,50.586 3.997,50.161 3.912 C 49.736 3.827,48.467 3.332,47.341 2.812 C 46.215 2.292,45.186 1.867,45.054 1.867 C 44.922 1.867,43.951 1.447,42.896 0.933 C 41.842 0.420,40.758 -0.000,40.489 -0.000 C 40.015 -0.000,40.000 4.182,40.000 133.333 " stroke="none" fill="#bcbabb" fill-rule="evenodd"></path></g></svg>