<svg id="svg" version="1.1" width="400" height="218.92285298398835" viewBox="0 0 400 218.92285298398835" xmlns="http://www.w3.org/2000/svg" xmlns:xlink="http://www.w3.org/1999/xlink" ><g id="svgg"><path id="path0" d="" stroke="none" fill="#000000" fill-rule="evenodd"></path><path id="path1" d="" stroke="none" fill="#7f7f7f" fill-rule="evenodd"></path><path id="path2" d="" stroke="none" fill="#b6b6b6" fill-rule="evenodd"></path><path id="path3" d="" stroke="none" fill="#ffffff" fill-rule="evenodd"></path><path id="path4" d="M5.711 15.193 C 5.460 15.497,11.949 22.332,12.489 22.332 C 12.604 22.332,12.698 22.437,12.698 22.566 C 12.698 22.869,13.255 23.426,13.559 23.426 C 13.688 23.426,13.793 23.523,13.793 23.640 C 13.793 23.896,17.515 27.586,17.773 27.586 C 17.872 27.586,17.934 27.660,17.911 27.750 C 17.868 27.925,19.795 29.995,20.001 29.995 C 20.205 29.995,21.165 31.024,21.308 31.396 C 21.382 31.588,21.539 31.746,21.657 31.746 C 21.940 31.746,22.989 32.724,22.989 32.988 C 22.989 33.102,23.377 33.484,23.851 33.839 C 24.325 34.193,24.762 34.665,24.821 34.888 C 24.881 35.111,25.035 35.228,25.163 35.149 C 25.292 35.069,25.397 35.101,25.397 35.219 C 25.397 35.500,26.770 36.894,26.984 36.830 C 27.074 36.804,27.148 36.861,27.148 36.958 C 27.148 37.213,31.937 42.036,32.190 42.036 C 32.307 42.036,32.403 42.135,32.403 42.255 C 32.403 42.557,33.222 43.350,33.534 43.350 C 33.675 43.350,33.732 43.407,33.662 43.477 C 33.506 43.633,34.287 44.444,34.592 44.444 C 34.713 44.444,34.811 44.539,34.811 44.656 C 34.811 44.929,39.585 49.699,39.858 49.699 C 39.972 49.699,40.066 49.795,40.066 49.911 C 40.066 50.173,44.893 54.953,45.157 54.953 C 45.261 54.953,45.281 55.059,45.202 55.187 C 45.122 55.316,45.264 55.475,45.517 55.541 C 45.770 55.607,45.977 55.724,45.978 55.800 C 45.979 56.075,47.201 57.362,47.461 57.362 C 47.608 57.362,47.729 57.436,47.729 57.526 C 47.730 57.828,48.942 59.113,49.226 59.113 C 49.380 59.113,49.454 59.197,49.391 59.299 C 49.328 59.402,49.519 59.615,49.816 59.774 C 50.113 59.933,50.356 60.175,50.356 60.312 C 50.356 60.450,50.744 60.852,51.218 61.206 C 51.692 61.560,52.129 62.032,52.188 62.255 C 52.248 62.478,52.402 62.595,52.530 62.516 C 52.659 62.437,52.764 62.466,52.764 62.581 C 52.764 62.870,54.254 64.338,54.399 64.193 C 54.463 64.128,54.516 64.180,54.516 64.307 C 54.516 64.586,59.299 69.403,59.576 69.403 C 59.683 69.403,59.770 69.499,59.770 69.617 C 59.770 69.894,61.688 71.812,61.965 71.812 C 62.083 71.812,62.178 71.908,62.178 72.026 C 62.178 72.302,65.197 75.315,65.473 75.315 C 65.588 75.315,65.681 75.420,65.681 75.548 C 65.681 75.840,67.195 77.285,67.500 77.285 C 67.624 77.285,67.672 77.338,67.608 77.402 C 67.464 77.546,70.465 80.569,70.753 80.569 C 70.868 80.569,70.905 80.661,70.836 80.772 C 70.767 80.884,70.893 81.034,71.117 81.104 C 71.340 81.175,71.654 81.478,71.814 81.777 C 71.974 82.076,72.242 82.321,72.409 82.321 C 72.576 82.321,72.648 82.426,72.569 82.554 C 72.489 82.683,72.631 82.842,72.884 82.908 C 73.137 82.975,73.345 83.091,73.345 83.167 C 73.346 83.450,74.572 84.729,74.842 84.729 C 74.996 84.729,75.082 84.803,75.034 84.893 C 74.919 85.109,77.429 87.577,77.595 87.411 C 77.666 87.341,77.723 87.420,77.723 87.587 C 77.723 87.888,78.995 89.106,79.310 89.107 C 79.401 89.108,79.475 89.250,79.475 89.423 C 79.475 89.597,79.588 89.809,79.727 89.895 C 79.895 89.998,79.920 89.954,79.803 89.765 C 79.686 89.575,79.711 89.531,79.879 89.634 C 80.018 89.720,80.131 89.916,80.131 90.069 C 80.131 90.222,80.378 90.479,80.679 90.640 C 80.980 90.802,81.226 91.059,81.226 91.212 C 81.226 91.365,81.340 91.561,81.479 91.647 C 81.646 91.750,81.672 91.706,81.554 91.516 C 81.437 91.327,81.463 91.282,81.630 91.386 C 81.769 91.472,81.883 91.627,81.883 91.731 C 81.883 92.007,83.156 93.236,83.296 93.095 C 83.362 93.029,83.415 93.076,83.415 93.198 C 83.415 93.503,84.893 95.001,85.045 94.849 C 85.112 94.782,85.167 94.827,85.167 94.949 C 85.167 95.234,86.654 96.771,86.929 96.771 C 87.044 96.771,87.137 96.870,87.137 96.991 C 87.137 97.282,89.305 99.398,89.604 99.398 C 89.733 99.398,89.777 99.459,89.703 99.533 C 89.543 99.693,91.040 101.149,91.364 101.149 C 91.488 101.149,91.530 101.208,91.458 101.281 C 91.307 101.431,92.526 102.682,92.823 102.682 C 92.932 102.682,93.298 103.075,93.637 103.555 C 93.976 104.035,94.433 104.487,94.653 104.560 C 94.872 104.633,95.007 104.737,94.953 104.792 C 94.826 104.918,96.084 106.185,96.337 106.185 C 96.441 106.185,96.596 106.299,96.682 106.438 C 96.788 106.609,96.740 106.631,96.531 106.505 C 96.362 106.402,96.607 106.683,97.075 107.128 C 97.543 107.573,98.006 107.937,98.102 107.937 C 98.198 107.937,98.348 108.050,98.434 108.189 C 98.537 108.357,98.493 108.382,98.303 108.265 C 98.114 108.148,98.069 108.173,98.173 108.341 C 98.259 108.480,98.487 108.593,98.681 108.593 C 98.875 108.593,98.979 108.648,98.912 108.714 C 98.747 108.879,100.152 110.345,100.477 110.345 C 100.620 110.345,100.698 110.419,100.650 110.509 C 100.534 110.725,104.797 114.944,104.963 114.778 C 105.033 114.708,105.090 114.793,105.090 114.967 C 105.090 115.285,105.959 116.174,105.974 115.871 C 105.978 115.782,106.122 115.955,106.294 116.256 C 106.467 116.557,106.611 116.731,106.615 116.641 C 106.627 116.384,107.499 117.203,107.499 117.472 C 107.499 117.605,107.745 117.847,108.046 118.008 C 108.347 118.169,108.593 118.426,108.593 118.579 C 108.593 118.732,108.707 118.928,108.846 119.014 C 109.013 119.117,109.039 119.073,108.922 118.883 C 108.805 118.694,108.830 118.650,108.997 118.753 C 109.136 118.839,109.250 118.994,109.250 119.098 C 109.250 119.351,110.517 120.609,110.643 120.482 C 110.698 120.428,110.801 120.563,110.872 120.783 C 110.943 121.002,111.346 121.417,111.768 121.703 C 112.189 121.990,112.534 122.295,112.534 122.381 C 112.534 122.635,114.030 124.101,114.158 123.973 C 114.223 123.909,114.342 124.030,114.424 124.243 C 114.613 124.737,115.739 125.896,115.886 125.749 C 115.947 125.688,116.061 125.837,116.138 126.081 C 116.215 126.324,116.472 126.585,116.708 126.660 C 116.945 126.735,117.098 126.864,117.049 126.945 C 116.935 127.133,117.484 127.654,117.636 127.502 C 117.698 127.440,117.812 127.588,117.889 127.832 C 117.967 128.076,118.229 128.339,118.473 128.416 C 118.717 128.493,118.872 128.601,118.817 128.656 C 118.691 128.782,119.948 130.049,120.200 130.049 C 120.303 130.049,120.665 130.442,121.004 130.922 C 121.343 131.402,121.800 131.854,122.020 131.927 C 122.240 132.000,122.375 132.104,122.320 132.159 C 122.193 132.286,123.452 133.552,123.704 133.552 C 123.808 133.552,123.963 133.666,124.049 133.805 C 124.153 133.973,124.102 134.002,123.898 133.890 C 123.729 133.798,123.886 133.977,124.247 134.287 C 124.609 134.597,124.984 134.854,125.081 134.858 C 125.179 134.862,125.198 134.964,125.123 135.085 C 125.049 135.205,125.136 135.304,125.316 135.304 C 125.497 135.304,125.715 135.418,125.801 135.557 C 125.904 135.724,125.860 135.749,125.670 135.632 C 125.481 135.515,125.437 135.541,125.540 135.708 C 125.626 135.847,125.855 135.961,126.048 135.961 C 126.242 135.961,126.345 136.016,126.277 136.084 C 126.112 136.249,127.266 137.457,127.477 137.340 C 127.567 137.290,127.641 137.351,127.641 137.475 C 127.641 137.600,128.727 138.788,130.054 140.116 C 131.381 141.443,132.569 142.529,132.694 142.529 C 132.819 142.529,132.880 142.603,132.830 142.693 C 132.713 142.903,133.921 144.058,134.085 143.893 C 134.153 143.825,134.209 143.928,134.209 144.121 C 134.209 144.315,134.323 144.544,134.462 144.630 C 134.629 144.733,134.655 144.689,134.537 144.499 C 134.420 144.310,134.446 144.265,134.613 144.369 C 134.752 144.455,134.866 144.673,134.866 144.853 C 134.866 145.034,134.957 145.125,135.069 145.056 C 135.181 144.987,135.336 145.131,135.413 145.375 C 135.491 145.619,135.634 145.770,135.733 145.709 C 135.831 145.648,135.965 145.805,136.030 146.056 C 136.096 146.308,136.255 146.449,136.384 146.369 C 136.512 146.290,136.617 146.322,136.617 146.440 C 136.617 146.710,137.876 147.984,138.011 147.850 C 138.065 147.795,138.168 147.930,138.239 148.150 C 138.310 148.370,138.710 148.782,139.127 149.065 C 139.545 149.349,139.944 149.763,140.015 149.985 C 140.085 150.207,140.330 150.447,140.558 150.520 C 140.787 150.593,141.035 150.845,141.110 151.082 C 141.185 151.318,141.345 151.451,141.465 151.377 C 141.584 151.303,141.736 151.446,141.801 151.695 C 141.866 151.944,142.107 152.207,142.337 152.280 C 142.566 152.353,142.714 152.479,142.664 152.561 C 142.551 152.749,143.100 153.269,143.252 153.118 C 143.314 153.056,143.428 153.204,143.505 153.448 C 143.583 153.692,143.839 153.953,144.076 154.028 C 144.312 154.103,144.453 154.248,144.390 154.351 C 144.326 154.454,144.467 154.600,144.704 154.675 C 144.940 154.750,145.191 154.993,145.262 155.215 C 145.332 155.436,145.593 155.671,145.842 155.736 C 146.091 155.801,146.234 155.953,146.160 156.072 C 146.086 156.192,146.219 156.352,146.455 156.427 C 146.692 156.502,146.944 156.750,147.017 156.979 C 147.089 157.207,147.348 157.457,147.592 157.535 C 147.836 157.612,147.990 157.721,147.934 157.777 C 147.806 157.905,150.425 160.482,150.683 160.482 C 150.788 160.482,150.813 160.580,150.739 160.701 C 150.664 160.821,150.763 160.920,150.958 160.920 C 151.153 160.920,151.251 161.019,151.176 161.140 C 151.101 161.262,151.267 161.453,151.546 161.564 C 151.825 161.676,151.979 161.774,151.888 161.781 C 151.642 161.802,152.563 162.671,152.832 162.671 C 152.959 162.671,153.002 162.770,152.927 162.892 C 152.852 163.013,153.019 163.204,153.297 163.316 C 153.576 163.428,153.733 163.525,153.646 163.533 C 153.414 163.553,155.419 165.517,155.671 165.517 C 155.788 165.517,155.884 165.623,155.884 165.753 C 155.884 165.883,156.172 166.277,156.524 166.629 C 156.876 166.981,157.270 167.269,157.400 167.269 C 157.529 167.269,157.635 167.372,157.635 167.499 C 157.635 167.812,161.294 171.419,161.451 171.262 C 161.520 171.193,161.576 171.265,161.576 171.421 C 161.576 171.714,163.098 173.269,163.123 173.001 C 163.130 172.919,163.228 173.080,163.340 173.358 C 163.452 173.637,163.642 173.804,163.764 173.729 C 163.885 173.654,163.985 173.739,163.985 173.919 C 163.985 174.098,164.183 174.308,164.426 174.385 C 164.668 174.462,164.826 174.592,164.777 174.674 C 164.664 174.862,165.213 175.382,165.364 175.230 C 165.426 175.168,165.541 175.317,165.618 175.561 C 165.695 175.804,165.951 176.065,166.185 176.139 C 166.420 176.214,166.612 176.359,166.612 176.462 C 166.612 176.706,167.903 177.997,168.147 177.997 C 168.250 177.997,168.396 178.194,168.473 178.435 C 168.549 178.675,168.753 178.872,168.926 178.872 C 169.098 178.872,169.239 179.014,169.239 179.186 C 169.239 179.359,169.438 179.563,169.680 179.640 C 169.923 179.717,170.069 179.864,170.005 179.967 C 169.942 180.070,170.083 180.216,170.320 180.291 C 170.556 180.366,170.809 180.614,170.881 180.843 C 170.954 181.071,171.207 181.320,171.443 181.395 C 171.679 181.470,171.821 181.616,171.757 181.719 C 171.693 181.822,171.835 181.967,172.071 182.043 C 172.307 182.118,172.562 182.371,172.636 182.606 C 172.711 182.840,172.913 183.032,173.085 183.032 C 173.258 183.032,173.399 183.173,173.399 183.346 C 173.399 183.518,173.596 183.722,173.837 183.799 C 174.078 183.875,174.275 184.022,174.275 184.125 C 174.275 184.340,175.319 185.400,175.988 185.864 C 176.237 186.036,176.391 186.258,176.330 186.356 C 176.269 186.455,176.379 186.535,176.574 186.535 C 176.768 186.535,176.866 186.635,176.791 186.756 C 176.716 186.878,176.883 187.068,177.162 187.180 C 177.440 187.292,177.594 187.390,177.504 187.397 C 177.258 187.418,178.179 188.287,178.448 188.287 C 178.575 188.287,178.618 188.386,178.543 188.508 C 178.468 188.629,178.634 188.820,178.913 188.932 C 179.192 189.043,179.353 189.141,179.270 189.149 C 179.003 189.174,180.558 190.695,180.851 190.695 C 181.007 190.695,181.080 190.750,181.012 190.818 C 180.850 190.980,188.567 198.750,188.779 198.638 C 188.870 198.590,188.944 198.668,188.944 198.812 C 188.944 199.089,190.467 200.622,190.490 200.368 C 190.498 200.286,190.595 200.447,190.707 200.726 C 190.819 201.004,191.010 201.171,191.131 201.096 C 191.253 201.021,191.352 201.119,191.352 201.314 C 191.352 201.508,191.426 201.623,191.516 201.568 C 191.606 201.514,191.807 201.606,191.963 201.774 C 192.118 201.942,192.178 202.080,192.096 202.080 C 192.014 202.080,192.331 202.426,192.799 202.849 C 193.842 203.791,193.740 203.692,195.093 205.090 C 195.704 205.722,196.295 206.240,196.405 206.240 C 196.516 206.240,196.606 206.388,196.606 206.568 C 196.606 206.749,196.760 206.897,196.949 206.897 C 197.153 206.897,197.265 207.051,197.228 207.280 C 197.126 207.898,197.459 208.210,198.218 208.210 C 199.023 208.210,199.453 207.880,199.453 207.261 C 199.453 206.868,200.451 205.803,200.821 205.802 C 200.911 205.802,200.985 205.692,200.985 205.557 C 200.985 205.298,202.293 204.060,202.573 204.054 C 202.663 204.052,202.737 203.952,202.737 203.831 C 202.737 203.548,203.542 202.740,203.684 202.881 C 203.743 202.940,203.857 202.783,203.937 202.531 C 204.017 202.279,204.173 202.130,204.285 202.199 C 204.397 202.268,204.488 202.220,204.488 202.093 C 204.488 201.768,205.298 200.992,205.464 201.158 C 205.539 201.233,205.657 201.078,205.726 200.814 C 205.795 200.550,205.939 200.387,206.046 200.453 C 206.152 200.519,206.240 200.420,206.240 200.232 C 206.240 200.044,206.321 199.891,206.419 199.891 C 206.682 199.891,207.991 198.683,207.991 198.440 C 207.991 198.327,208.289 198.058,208.652 197.843 C 209.015 197.629,209.256 197.361,209.186 197.249 C 209.117 197.136,209.214 197.044,209.401 197.044 C 209.589 197.044,209.743 196.897,209.743 196.716 C 209.743 196.535,209.824 196.388,209.922 196.388 C 210.203 196.388,211.507 195.160,211.371 195.024 C 211.305 194.957,211.576 194.674,211.974 194.393 C 212.907 193.738,213.251 193.400,213.121 193.270 C 213.063 193.213,213.166 193.041,213.350 192.889 C 213.533 192.737,213.684 192.677,213.684 192.757 C 213.684 192.996,214.481 192.155,214.756 191.626 C 214.897 191.355,215.119 191.133,215.250 191.133 C 215.503 191.133,216.739 189.821,216.745 189.546 C 216.747 189.455,216.863 189.381,217.003 189.381 C 217.280 189.381,218.500 188.100,218.500 187.810 C 218.500 187.711,218.648 187.630,218.829 187.630 C 219.009 187.630,219.157 187.476,219.157 187.289 C 219.157 187.101,219.249 187.004,219.361 187.074 C 219.474 187.143,219.741 186.903,219.956 186.539 C 220.171 186.176,220.479 185.878,220.640 185.878 C 220.802 185.878,220.880 185.791,220.815 185.684 C 220.749 185.578,220.911 185.434,221.175 185.365 C 221.439 185.296,221.594 185.178,221.519 185.103 C 221.354 184.937,222.129 184.127,222.454 184.127 C 222.582 184.127,222.632 184.040,222.566 183.933 C 222.500 183.826,222.662 183.682,222.927 183.613 C 223.191 183.544,223.346 183.426,223.271 183.351 C 223.105 183.185,223.881 182.375,224.206 182.375 C 224.333 182.375,224.381 182.284,224.312 182.172 C 224.243 182.061,224.369 181.911,224.592 181.840 C 224.816 181.769,225.129 181.467,225.289 181.168 C 225.449 180.869,225.687 180.619,225.817 180.614 C 225.947 180.608,226.349 180.222,226.710 179.755 C 227.072 179.289,227.589 178.784,227.860 178.634 C 228.131 178.483,228.357 178.254,228.363 178.124 C 228.368 177.994,228.758 177.592,229.228 177.230 C 229.699 176.869,230.088 176.500,230.094 176.409 C 230.111 176.125,230.937 175.399,231.080 175.542 C 231.155 175.617,231.273 175.462,231.342 175.198 C 231.411 174.934,231.555 174.772,231.661 174.837 C 231.768 174.903,231.856 174.853,231.856 174.726 C 231.856 174.401,232.665 173.625,232.831 173.791 C 232.906 173.866,233.024 173.711,233.093 173.447 C 233.162 173.182,233.306 173.020,233.413 173.086 C 233.520 173.152,233.607 173.052,233.607 172.865 C 233.607 172.677,233.697 172.523,233.807 172.523 C 233.916 172.523,235.099 171.440,236.434 170.115 C 237.769 168.790,238.804 167.707,238.735 167.707 C 238.666 167.707,238.937 167.436,239.337 167.106 C 240.332 166.285,240.669 165.955,240.511 165.955 C 240.437 165.955,240.504 165.817,240.659 165.649 C 240.814 165.480,240.981 165.380,241.029 165.426 C 241.155 165.546,242.583 163.995,242.583 163.737 C 242.583 163.618,242.663 163.570,242.760 163.630 C 242.858 163.690,243.128 163.482,243.362 163.167 C 243.596 162.852,243.917 162.489,244.074 162.359 C 244.915 161.668,247.619 158.888,247.619 158.714 C 247.619 158.603,247.722 158.511,247.847 158.511 C 247.973 158.511,248.287 158.314,248.545 158.073 C 248.804 157.833,248.947 157.635,248.864 157.635 C 248.782 157.635,248.911 157.438,249.152 157.198 C 249.392 156.957,249.694 156.760,249.821 156.760 C 249.949 156.760,249.992 156.661,249.918 156.541 C 249.843 156.420,249.931 156.322,250.112 156.322 C 250.292 156.322,250.615 156.026,250.828 155.665 C 251.042 155.304,251.288 155.008,251.376 155.008 C 251.463 155.008,252.058 154.452,252.697 153.771 C 253.921 152.468,256.290 150.129,257.854 148.680 C 258.366 148.205,258.785 147.695,258.785 147.545 C 258.785 147.395,258.849 147.337,258.928 147.415 C 259.007 147.494,259.306 147.240,259.594 146.850 C 259.881 146.460,260.183 146.173,260.263 146.212 C 260.344 146.251,260.481 146.103,260.567 145.884 C 260.654 145.664,260.731 145.554,260.740 145.638 C 260.748 145.723,261.187 145.378,261.715 144.872 C 262.243 144.366,262.632 143.878,262.578 143.788 C 262.525 143.697,262.578 143.623,262.697 143.623 C 263.025 143.623,264.490 142.177,264.327 142.014 C 264.249 141.936,264.293 141.872,264.425 141.872 C 264.769 141.872,266.249 140.432,266.079 140.262 C 266.001 140.184,266.045 140.120,266.177 140.120 C 266.309 140.120,266.782 139.776,267.229 139.354 C 267.676 138.933,267.975 138.588,267.893 138.588 C 267.811 138.588,267.871 138.450,268.026 138.282 C 268.182 138.113,268.348 138.013,268.396 138.059 C 268.529 138.186,269.951 136.620,269.951 136.346 C 269.951 136.214,270.015 136.170,270.093 136.249 C 270.263 136.418,271.702 134.939,271.702 134.595 C 271.702 134.463,271.764 134.416,271.838 134.491 C 272.004 134.656,273.062 133.628,273.425 132.948 C 273.570 132.678,273.796 132.458,273.928 132.458 C 274.192 132.458,275.706 130.934,275.464 130.911 C 275.382 130.904,275.543 130.806,275.821 130.694 C 276.100 130.582,276.267 130.391,276.192 130.270 C 276.117 130.149,276.139 130.049,276.241 130.049 C 276.465 130.049,277.228 129.320,280.157 126.307 C 281.375 125.054,283.223 123.218,284.262 122.227 C 285.302 121.237,286.152 120.309,286.152 120.166 C 286.152 120.022,286.210 119.963,286.280 120.033 C 286.439 120.192,287.247 119.404,287.247 119.089 C 287.247 118.962,287.346 118.919,287.466 118.993 C 287.587 119.068,287.781 118.876,287.899 118.568 C 288.016 118.260,288.197 118.008,288.302 118.008 C 288.607 118.008,289.655 117.033,289.655 116.750 C 289.655 116.607,289.876 116.372,290.146 116.228 C 290.825 115.864,291.854 114.806,291.689 114.641 C 291.614 114.566,291.666 114.505,291.804 114.505 C 292.132 114.505,297.318 109.317,297.318 108.990 C 297.318 108.852,297.382 108.803,297.460 108.881 C 297.630 109.051,299.070 107.572,299.070 107.228 C 299.070 107.096,299.133 107.052,299.212 107.130 C 299.372 107.290,300.821 105.829,300.821 105.507 C 300.821 105.392,301.073 105.203,301.382 105.085 C 301.690 104.968,301.881 104.773,301.806 104.653 C 301.732 104.532,301.818 104.433,301.998 104.433 C 302.177 104.433,302.388 104.231,302.467 103.983 C 302.546 103.735,302.854 103.440,303.152 103.327 C 303.450 103.213,303.633 103.022,303.558 102.901 C 303.483 102.781,303.517 102.682,303.632 102.682 C 303.890 102.682,309.360 97.214,309.360 96.956 C 309.360 96.854,309.433 96.771,309.524 96.770 C 309.669 96.770,311.474 95.069,312.124 94.319 C 312.260 94.162,312.629 93.848,312.945 93.620 C 313.261 93.393,313.519 93.070,313.519 92.904 C 313.519 92.738,313.766 92.489,314.067 92.352 C 314.368 92.215,314.614 91.971,314.614 91.809 C 314.614 91.648,314.737 91.541,314.888 91.571 C 315.038 91.601,315.137 91.504,315.108 91.356 C 315.079 91.208,315.325 90.912,315.655 90.699 C 316.605 90.087,317.022 89.689,317.022 89.395 C 317.022 89.246,317.230 89.012,317.483 88.877 C 318.083 88.555,326.103 80.536,326.425 79.935 C 326.560 79.682,326.788 79.475,326.930 79.475 C 327.214 79.475,328.188 78.427,328.188 78.121 C 328.188 78.017,328.441 77.835,328.749 77.718 C 329.057 77.601,329.248 77.406,329.174 77.286 C 329.099 77.165,329.198 77.066,329.392 77.066 C 329.587 77.066,329.702 76.992,329.647 76.902 C 329.593 76.812,329.685 76.611,329.853 76.456 C 330.021 76.300,330.159 76.240,330.159 76.322 C 330.159 76.404,330.505 76.087,330.928 75.619 C 331.870 74.576,331.771 74.678,333.169 73.325 C 333.801 72.714,334.319 72.123,334.319 72.013 C 334.319 71.902,334.404 71.812,334.509 71.812 C 334.757 71.812,336.727 69.841,336.727 69.594 C 336.727 69.489,336.817 69.403,336.928 69.403 C 337.038 69.403,337.629 68.886,338.241 68.254 C 339.593 66.856,339.492 66.955,340.534 66.013 C 341.003 65.590,341.319 65.244,341.237 65.244 C 341.155 65.244,341.215 65.106,341.371 64.938 C 341.526 64.770,341.727 64.677,341.817 64.732 C 341.907 64.787,341.981 64.672,341.981 64.477 C 341.981 64.282,342.081 64.184,342.202 64.259 C 342.324 64.335,342.514 64.168,342.626 63.889 C 342.738 63.611,342.836 63.450,342.843 63.532 C 342.867 63.786,344.390 62.253,344.390 61.975 C 344.390 61.832,344.464 61.754,344.554 61.801 C 344.766 61.914,352.484 54.144,352.321 53.982 C 352.254 53.914,352.326 53.859,352.483 53.859 C 352.776 53.859,354.331 52.337,354.063 52.312 C 353.981 52.305,354.142 52.207,354.420 52.095 C 354.699 51.983,354.865 51.793,354.790 51.671 C 354.715 51.550,354.758 51.450,354.886 51.450 C 355.154 51.450,356.076 50.582,355.829 50.561 C 355.739 50.553,355.893 50.456,356.172 50.344 C 356.450 50.232,356.617 50.041,356.542 49.920 C 356.467 49.798,356.565 49.699,356.760 49.699 C 356.955 49.699,357.064 49.618,357.003 49.520 C 356.942 49.421,357.096 49.200,357.345 49.027 C 358.014 48.563,359.059 47.504,359.059 47.289 C 359.059 47.186,359.256 47.039,359.496 46.962 C 359.737 46.886,359.934 46.682,359.934 46.510 C 359.934 46.337,360.075 46.196,360.248 46.196 C 360.420 46.196,360.623 46.004,360.697 45.769 C 360.772 45.535,361.026 45.281,361.262 45.206 C 361.499 45.131,361.640 44.985,361.576 44.882 C 361.513 44.779,361.654 44.634,361.890 44.558 C 362.127 44.483,362.380 44.235,362.452 44.007 C 362.525 43.778,362.777 43.530,363.014 43.455 C 363.250 43.380,363.392 43.234,363.328 43.131 C 363.264 43.028,363.411 42.880,363.653 42.803 C 363.896 42.726,364.094 42.522,364.094 42.350 C 364.094 42.177,364.235 42.036,364.408 42.036 C 364.580 42.036,364.784 41.839,364.860 41.598 C 364.937 41.357,365.084 41.160,365.187 41.160 C 365.431 41.160,366.721 39.870,366.721 39.626 C 366.721 39.523,366.913 39.377,367.148 39.303 C 367.383 39.228,367.638 38.968,367.715 38.724 C 367.793 38.481,367.907 38.332,367.969 38.394 C 368.121 38.546,368.670 38.025,368.556 37.837 C 368.507 37.756,368.665 37.626,368.908 37.549 C 369.150 37.472,369.349 37.262,369.349 37.082 C 369.349 36.903,369.448 36.817,369.569 36.892 C 369.691 36.967,369.882 36.801,369.993 36.522 C 370.105 36.243,370.203 36.083,370.211 36.165 C 370.235 36.432,371.757 34.878,371.757 34.585 C 371.757 34.428,371.813 34.357,371.882 34.425 C 372.040 34.583,375.698 30.976,375.698 30.663 C 375.698 30.536,375.804 30.432,375.934 30.432 C 376.240 30.432,377.449 29.223,377.449 28.917 C 377.449 28.787,377.545 28.681,377.663 28.681 C 377.963 28.681,379.842 26.768,379.691 26.616 C 379.622 26.548,379.694 26.492,379.850 26.492 C 380.143 26.492,381.698 24.970,381.430 24.945 C 381.348 24.937,381.509 24.840,381.787 24.728 C 382.066 24.616,382.233 24.425,382.158 24.304 C 382.083 24.183,382.181 24.083,382.375 24.083 C 382.570 24.083,382.669 23.985,382.594 23.864 C 382.520 23.744,382.547 23.645,382.655 23.645 C 382.906 23.645,386.426 20.169,386.426 19.921 C 386.426 19.818,386.624 19.671,386.867 19.594 C 387.109 19.517,387.247 19.356,387.173 19.236 C 387.099 19.116,387.242 18.965,387.491 18.900 C 387.740 18.835,388.001 18.600,388.072 18.378 C 388.142 18.157,388.393 17.914,388.630 17.839 C 388.866 17.764,389.007 17.618,388.944 17.515 C 388.880 17.412,389.021 17.266,389.258 17.191 C 389.494 17.116,389.751 16.855,389.828 16.612 C 389.906 16.368,390.020 16.219,390.082 16.281 C 390.241 16.441,390.780 15.908,390.659 15.709 C 390.605 15.619,390.661 15.545,390.785 15.545 C 390.909 15.545,390.953 15.397,390.884 15.216 C 390.699 14.736,6.110 14.713,5.711 15.193 " stroke="none" fill="#d2d1d1" fill-rule="evenodd"></path></g></svg>