<svg id="svg" version="1.1" width="400" height="266.6666666666667" xmlns="http://www.w3.org/2000/svg" xmlns:xlink="http://www.w3.org/1999/xlink" style="display: block;"><g id="svgg"><path id="path2" d="M359.200 133.333 C 359.200 133.627,359.320 133.867,359.467 133.867 C 359.613 133.867,359.733 133.627,359.733 133.333 C 359.733 133.040,359.613 132.800,359.467 132.800 C 359.320 132.800,359.200 133.040,359.200 133.333 " stroke="none" fill="#cccccc" fill-rule="evenodd"></path><path id="path3" d="M40.000 133.333 L 40.000 266.667 40.800 266.667 C 41.242 266.667,41.570 266.536,41.533 266.375 C 41.497 266.215,41.647 265.981,41.867 265.855 C 42.330 265.589,41.764 265.828,52.267 261.467 C 56.740 259.609,60.659 257.965,60.975 257.813 C 61.291 257.661,61.699 257.630,61.882 257.743 C 62.083 257.867,62.148 257.840,62.047 257.677 C 61.950 257.519,62.919 256.979,64.339 256.398 C 65.693 255.844,67.280 255.182,67.867 254.925 C 70.716 253.680,72.557 253.050,72.839 253.224 C 73.012 253.331,73.078 253.300,72.987 253.154 C 72.897 253.008,75.728 251.680,79.413 250.141 C 86.728 247.084,87.046 246.950,88.917 246.123 C 89.641 245.803,90.661 245.383,91.184 245.191 C 91.706 244.998,93.153 244.410,94.398 243.883 C 95.644 243.357,96.821 242.986,97.012 243.060 C 97.204 243.134,97.299 243.093,97.223 242.970 C 97.027 242.653,106.846 238.581,107.232 238.819 C 107.424 238.939,107.479 238.902,107.371 238.727 C 107.270 238.565,107.456 238.359,107.796 238.256 C 108.128 238.155,109.158 237.727,110.085 237.303 C 111.012 236.880,111.852 236.533,111.952 236.532 C 112.052 236.531,112.453 236.363,112.844 236.160 C 113.234 235.956,114.194 235.543,114.977 235.241 C 116.731 234.566,120.013 233.208,121.152 232.685 C 121.618 232.471,123.800 231.560,126.000 230.662 C 128.200 229.764,130.360 228.866,130.801 228.667 C 133.295 227.538,134.266 227.194,134.594 227.320 C 134.796 227.397,134.896 227.356,134.817 227.228 C 134.738 227.100,135.062 226.843,135.537 226.656 C 136.012 226.469,137.034 226.035,137.808 225.692 C 138.582 225.348,139.302 225.066,139.408 225.065 C 139.514 225.064,139.952 224.880,140.382 224.655 C 140.813 224.431,141.349 224.318,141.574 224.404 C 141.800 224.491,141.899 224.477,141.796 224.374 C 141.432 224.010,145.135 222.513,145.635 222.822 C 145.816 222.934,145.878 222.901,145.782 222.745 C 145.684 222.588,147.425 221.726,149.941 220.686 C 152.320 219.703,154.475 218.786,154.730 218.649 C 155.367 218.306,155.804 218.337,155.575 218.708 C 155.456 218.900,155.501 218.943,155.696 218.823 C 155.868 218.717,155.945 218.527,155.867 218.401 C 155.789 218.275,155.997 218.090,156.329 217.990 C 156.662 217.889,157.335 217.622,157.825 217.395 C 158.588 217.042,158.755 217.037,158.983 217.358 C 159.199 217.661,159.223 217.648,159.110 217.292 C 159.010 216.979,159.217 216.753,159.818 216.517 C 160.285 216.333,161.300 215.902,162.075 215.558 C 162.849 215.215,163.569 214.933,163.675 214.932 C 163.780 214.931,164.186 214.763,164.577 214.560 C 164.967 214.356,165.946 213.942,166.752 213.641 C 167.558 213.339,168.738 212.854,169.375 212.563 C 172.264 211.243,173.255 210.947,172.908 211.508 C 172.789 211.700,172.835 211.743,173.030 211.623 C 173.202 211.517,173.282 211.333,173.209 211.215 C 173.029 210.924,180.239 207.932,180.697 208.108 C 180.897 208.185,181.032 208.127,180.997 207.979 C 180.962 207.832,181.953 207.289,183.200 206.774 C 184.447 206.259,185.975 205.604,186.597 205.319 C 187.219 205.033,187.819 204.799,187.930 204.798 C 188.042 204.797,188.453 204.630,188.844 204.426 C 189.234 204.222,190.194 203.816,190.977 203.522 C 191.760 203.229,193.060 202.694,193.867 202.333 C 198.558 200.236,204.022 198.116,204.297 198.286 C 204.486 198.402,204.546 198.369,204.444 198.204 C 204.344 198.043,204.914 197.674,205.803 197.324 C 206.645 196.993,207.693 196.569,208.133 196.381 C 208.573 196.194,209.833 195.662,210.933 195.200 C 212.033 194.738,213.293 194.204,213.733 194.015 C 220.051 191.293,225.104 189.325,225.362 189.484 C 225.553 189.602,225.613 189.570,225.511 189.404 C 225.290 189.047,228.125 187.881,228.560 188.150 C 228.752 188.268,228.813 188.237,228.712 188.073 C 228.611 187.909,229.658 187.343,231.270 186.690 C 232.772 186.081,234.208 185.467,234.463 185.325 C 235.094 184.973,235.540 185.000,235.308 185.375 C 235.189 185.567,235.235 185.610,235.430 185.489 C 235.602 185.383,235.682 185.199,235.608 185.079 C 235.534 184.960,235.862 184.715,236.337 184.536 C 236.812 184.357,239.300 183.332,241.867 182.258 C 244.433 181.185,248.013 179.688,249.821 178.933 C 251.629 178.177,253.278 177.624,253.484 177.703 C 253.691 177.783,253.832 177.727,253.797 177.579 C 253.762 177.432,254.753 176.890,256.000 176.375 C 257.247 175.860,258.900 175.145,259.674 174.786 C 260.448 174.427,261.234 174.133,261.421 174.133 C 261.607 174.133,261.874 174.028,262.013 173.900 C 262.544 173.409,266.646 171.956,266.957 172.148 C 267.151 172.268,267.214 172.238,267.112 172.073 C 267.010 171.908,268.689 171.078,271.271 170.017 C 273.652 169.038,275.859 168.110,276.175 167.954 C 276.491 167.798,276.899 167.763,277.082 167.876 C 277.285 168.001,277.348 167.974,277.245 167.805 C 277.150 167.653,277.461 167.376,277.937 167.189 C 278.412 167.003,279.434 166.569,280.208 166.225 C 280.982 165.881,281.684 165.600,281.768 165.600 C 281.851 165.600,282.298 165.424,282.760 165.209 C 283.570 164.831,284.312 164.521,290.400 162.006 C 291.940 161.370,294.935 160.115,297.055 159.217 C 299.176 158.320,301.072 157.647,301.269 157.723 C 301.466 157.799,301.564 157.758,301.487 157.632 C 301.409 157.507,302.453 156.952,303.806 156.400 C 305.159 155.848,306.627 155.239,307.067 155.047 C 309.551 153.963,311.300 153.364,311.541 153.513 C 311.692 153.606,311.746 153.569,311.660 153.431 C 311.575 153.293,311.826 153.045,312.219 152.881 C 317.684 150.594,318.963 150.120,319.232 150.287 C 319.412 150.398,319.479 150.369,319.387 150.220 C 319.296 150.073,321.826 148.876,325.146 147.494 C 328.402 146.140,331.307 144.924,331.600 144.793 C 331.893 144.662,333.633 143.938,335.467 143.184 C 337.300 142.430,339.280 141.601,339.867 141.342 C 340.453 141.083,342.613 140.185,344.667 139.347 C 346.720 138.509,349.027 137.536,349.793 137.185 C 350.559 136.834,351.490 136.471,351.862 136.377 C 352.234 136.284,352.604 136.101,352.685 135.970 C 352.766 135.840,353.011 135.733,353.231 135.733 C 353.466 135.733,353.553 135.861,353.441 136.041 C 353.322 136.233,353.368 136.277,353.563 136.156 C 353.735 136.050,353.812 135.861,353.735 135.736 C 353.658 135.612,354.046 135.364,354.598 135.187 C 355.149 135.009,355.748 134.746,355.930 134.602 C 356.111 134.458,356.448 134.412,356.677 134.500 C 356.907 134.589,357.027 134.552,356.945 134.418 C 356.862 134.285,357.216 134.037,357.731 133.867 C 358.246 133.698,358.667 133.457,358.667 133.333 C 358.667 133.209,358.246 132.969,357.731 132.799 C 357.216 132.629,356.862 132.381,356.945 132.248 C 357.027 132.115,356.907 132.078,356.677 132.166 C 356.448 132.254,356.111 132.209,355.930 132.065 C 355.748 131.921,355.149 131.658,354.598 131.480 C 354.046 131.302,353.658 131.055,353.735 130.930 C 353.812 130.806,353.735 130.617,353.563 130.511 C 353.368 130.390,353.322 130.433,353.441 130.625 C 353.553 130.806,353.466 130.933,353.231 130.933 C 353.011 130.933,352.766 130.827,352.685 130.696 C 352.604 130.566,352.234 130.383,351.862 130.289 C 351.490 130.196,350.559 129.832,349.793 129.481 C 349.027 129.130,346.720 128.157,344.667 127.320 C 342.613 126.482,340.453 125.584,339.867 125.325 C 339.280 125.066,337.300 124.236,335.467 123.482 C 333.633 122.728,331.893 122.004,331.600 121.873 C 331.307 121.743,328.402 120.527,325.146 119.172 C 321.826 117.791,319.296 116.594,319.387 116.447 C 319.479 116.298,319.412 116.269,319.232 116.380 C 318.963 116.546,317.684 116.073,312.219 113.786 C 311.826 113.621,311.575 113.374,311.660 113.236 C 311.746 113.097,311.692 113.061,311.541 113.154 C 311.300 113.303,309.551 112.703,307.067 111.620 C 306.627 111.428,305.159 110.819,303.806 110.267 C 302.453 109.714,301.409 109.160,301.487 109.034 C 301.564 108.909,301.466 108.868,301.269 108.944 C 301.072 109.019,299.176 108.347,297.055 107.449 C 294.935 106.552,291.940 105.297,290.400 104.661 C 284.312 102.146,283.570 101.835,282.760 101.458 C 282.298 101.243,281.851 101.067,281.768 101.067 C 281.684 101.067,280.982 100.785,280.208 100.442 C 279.434 100.098,278.412 99.664,277.937 99.477 C 277.461 99.291,277.150 99.014,277.245 98.861 C 277.348 98.693,277.285 98.665,277.082 98.790 C 276.899 98.904,276.491 98.869,276.175 98.713 C 275.859 98.557,273.652 97.628,271.271 96.650 C 268.689 95.588,267.010 94.758,267.112 94.594 C 267.214 94.429,267.151 94.399,266.957 94.519 C 266.646 94.711,262.544 93.257,262.013 92.767 C 261.874 92.639,261.607 92.533,261.421 92.533 C 261.234 92.533,260.448 92.240,259.674 91.881 C 258.900 91.522,257.247 90.807,256.000 90.292 C 254.753 89.777,253.762 89.235,253.797 89.087 C 253.832 88.940,253.691 88.884,253.484 88.963 C 253.278 89.043,251.629 88.489,249.821 87.734 C 248.013 86.978,244.433 85.482,241.867 84.408 C 239.300 83.335,236.812 82.310,236.337 82.131 C 235.862 81.951,235.534 81.707,235.608 81.587 C 235.682 81.468,235.602 81.283,235.430 81.177 C 235.235 81.057,235.189 81.100,235.308 81.292 C 235.540 81.667,235.094 81.693,234.463 81.342 C 234.208 81.200,232.772 80.586,231.270 79.977 C 229.658 79.323,228.611 78.757,228.712 78.594 C 228.813 78.429,228.752 78.398,228.560 78.517 C 228.125 78.786,225.290 77.619,225.511 77.262 C 225.613 77.097,225.553 77.064,225.362 77.183 C 225.104 77.342,220.051 75.373,213.733 72.652 C 213.293 72.462,212.033 71.929,210.933 71.467 C 209.833 71.004,208.573 70.473,208.133 70.285 C 207.693 70.098,206.645 69.674,205.803 69.343 C 204.914 68.993,204.344 68.624,204.444 68.462 C 204.546 68.297,204.486 68.264,204.297 68.381 C 204.022 68.551,198.558 66.430,193.867 64.333 C 193.060 63.973,191.760 63.438,190.977 63.144 C 190.194 62.851,189.234 62.444,188.844 62.240 C 188.453 62.037,188.042 61.869,187.930 61.868 C 187.819 61.867,187.219 61.633,186.597 61.348 C 185.975 61.063,184.447 60.408,183.200 59.893 C 181.953 59.377,180.962 58.835,180.997 58.687 C 181.032 58.540,180.897 58.482,180.697 58.559 C 180.239 58.734,173.029 55.743,173.209 55.451 C 173.282 55.333,173.202 55.150,173.030 55.044 C 172.835 54.923,172.789 54.967,172.908 55.159 C 173.255 55.720,172.264 55.424,169.375 54.103 C 168.738 53.812,167.558 53.327,166.752 53.026 C 165.946 52.724,164.967 52.311,164.577 52.107 C 164.186 51.903,163.780 51.736,163.675 51.735 C 163.569 51.734,162.849 51.452,162.075 51.108 C 161.300 50.765,160.285 50.333,159.818 50.150 C 159.217 49.914,159.010 49.688,159.110 49.375 C 159.223 49.018,159.199 49.006,158.983 49.309 C 158.755 49.630,158.588 49.625,157.825 49.272 C 157.335 49.045,156.662 48.777,156.329 48.677 C 155.997 48.577,155.789 48.392,155.867 48.266 C 155.945 48.140,155.868 47.950,155.696 47.844 C 155.501 47.723,155.456 47.767,155.575 47.959 C 155.804 48.330,155.367 48.360,154.730 48.018 C 154.475 47.881,152.320 46.964,149.941 45.981 C 147.425 44.941,145.684 44.079,145.782 43.922 C 145.878 43.765,145.816 43.733,145.635 43.845 C 145.135 44.154,141.432 42.657,141.796 42.293 C 141.899 42.190,141.776 42.185,141.522 42.282 C 141.268 42.380,140.911 42.341,140.730 42.196 C 140.548 42.051,140.100 41.841,139.733 41.729 C 139.367 41.618,138.467 41.262,137.733 40.938 C 137.000 40.615,136.012 40.197,135.537 40.011 C 135.062 39.824,134.738 39.567,134.817 39.439 C 134.896 39.311,134.796 39.269,134.594 39.347 C 134.266 39.473,133.295 39.128,130.801 38.000 C 130.360 37.801,128.200 36.903,126.000 36.005 C 123.800 35.106,121.618 34.196,121.152 33.982 C 120.013 33.459,116.731 32.100,114.977 31.425 C 114.194 31.124,113.234 30.711,112.844 30.507 C 112.453 30.303,112.052 30.136,111.952 30.135 C 111.852 30.134,111.012 29.787,110.085 29.363 C 109.158 28.940,108.128 28.511,107.796 28.411 C 107.456 28.308,107.270 28.102,107.371 27.940 C 107.479 27.764,107.424 27.728,107.232 27.847 C 106.846 28.086,97.027 24.014,97.223 23.696 C 97.299 23.573,97.204 23.533,97.012 23.607 C 96.821 23.680,95.644 23.310,94.398 22.783 C 93.153 22.257,91.706 21.669,91.184 21.476 C 90.661 21.283,89.641 20.864,88.917 20.544 C 87.046 19.716,86.728 19.582,79.413 16.526 C 75.728 14.987,72.897 13.659,72.987 13.513 C 73.078 13.366,73.012 13.335,72.839 13.443 C 72.557 13.617,70.716 12.986,67.867 11.741 C 67.280 11.485,65.693 10.822,64.339 10.269 C 62.919 9.688,61.950 9.147,62.047 8.990 C 62.148 8.826,62.083 8.800,61.882 8.924 C 61.699 9.037,61.291 9.005,60.975 8.853 C 60.659 8.702,56.740 7.058,52.267 5.200 C 41.764 0.839,42.330 1.078,41.867 0.812 C 41.647 0.686,41.497 0.452,41.533 0.291 C 41.570 0.131,41.242 -0.000,40.800 -0.000 L 40.000 0.000 40.000 133.333 " stroke="none" fill="#787575" fill-rule="evenodd"></path><path id="path4" d="" stroke="none" fill="#aa5555" fill-rule="evenodd"></path><path id="path0" d="" stroke="none" fill="#000000" fill-rule="evenodd"></path><path id="path1" d="M41.600 0.667 C 41.783 0.887,42.049 1.067,42.192 1.067 C 42.336 1.067,42.831 1.237,43.293 1.445 C 43.755 1.653,47.793 3.345,52.267 5.205 C 56.740 7.065,60.880 8.800,61.467 9.062 C 62.053 9.323,63.613 9.977,64.933 10.516 C 66.253 11.055,67.842 11.729,68.464 12.014 C 69.085 12.300,69.659 12.533,69.738 12.533 C 69.858 12.533,85.377 18.981,87.067 19.732 C 89.816 20.956,90.704 21.333,90.830 21.333 C 90.911 21.333,91.777 21.678,92.755 22.099 C 93.733 22.520,97.773 24.210,101.733 25.855 C 105.693 27.499,109.533 29.118,110.267 29.452 C 112.123 30.297,112.800 30.487,112.800 30.162 C 112.800 30.011,112.325 29.759,111.745 29.603 C 111.164 29.447,110.620 29.207,110.536 29.071 C 110.452 28.935,110.207 28.891,109.991 28.974 C 109.776 29.056,109.600 28.996,109.600 28.839 C 109.600 28.682,109.090 28.418,108.467 28.252 C 107.843 28.086,107.153 27.794,106.933 27.604 C 106.713 27.413,105.843 27.043,105.000 26.780 C 104.157 26.517,103.467 26.197,103.467 26.069 C 103.467 25.940,103.346 25.910,103.198 26.001 C 103.050 26.093,102.742 25.980,102.512 25.750 C 102.283 25.521,101.903 25.333,101.669 25.333 C 101.271 25.333,99.287 24.516,96.133 23.053 C 95.400 22.713,94.289 22.287,93.663 22.108 C 93.038 21.928,92.394 21.620,92.231 21.424 C 92.068 21.227,91.738 21.067,91.497 21.067 C 91.256 21.067,90.341 20.720,89.463 20.296 C 88.585 19.872,87.477 19.442,87.000 19.341 C 86.523 19.240,86.133 19.040,86.133 18.896 C 86.133 18.753,86.022 18.704,85.885 18.789 C 85.749 18.873,85.567 18.829,85.482 18.691 C 85.397 18.554,84.698 18.236,83.930 17.985 C 83.162 17.734,82.402 17.426,82.242 17.300 C 82.082 17.174,81.872 17.150,81.775 17.247 C 81.679 17.343,81.600 17.298,81.600 17.146 C 81.600 16.994,81.060 16.718,80.400 16.533 C 79.740 16.349,79.200 16.080,79.200 15.937 C 79.200 15.794,79.029 15.742,78.819 15.822 C 78.610 15.903,78.302 15.803,78.134 15.601 C 77.967 15.399,77.450 15.151,76.985 15.049 C 76.521 14.947,75.899 14.708,75.604 14.518 C 75.308 14.328,74.304 13.919,73.372 13.608 C 72.440 13.297,71.390 12.854,71.038 12.624 C 70.687 12.394,70.400 12.282,70.400 12.376 C 70.400 12.470,70.041 12.362,69.603 12.135 C 69.164 11.908,68.757 11.755,68.697 11.795 C 68.638 11.834,68.367 11.668,68.095 11.425 C 67.823 11.182,67.095 10.849,66.478 10.684 C 65.861 10.520,65.287 10.274,65.203 10.138 C 65.118 10.001,64.854 9.965,64.614 10.057 C 64.345 10.160,64.246 10.117,64.353 9.943 C 64.457 9.774,64.053 9.542,63.345 9.364 C 62.695 9.201,61.767 8.837,61.282 8.556 C 60.797 8.275,59.890 7.896,59.267 7.714 C 58.643 7.531,58.133 7.268,58.133 7.129 C 58.133 6.990,57.961 6.942,57.751 7.023 C 57.540 7.104,57.328 7.050,57.279 6.904 C 57.230 6.757,57.012 6.603,56.795 6.561 C 55.704 6.348,54.933 6.052,54.933 5.846 C 54.933 5.720,54.753 5.686,54.533 5.770 C 54.313 5.855,54.133 5.796,54.133 5.639 C 54.133 5.482,53.623 5.218,53.000 5.051 C 52.377 4.884,51.736 4.641,51.575 4.510 C 51.415 4.379,51.205 4.350,51.109 4.447 C 51.012 4.543,50.933 4.492,50.933 4.333 C 50.933 4.173,50.303 3.837,49.533 3.586 C 48.763 3.335,48.013 3.036,47.867 2.921 C 47.720 2.806,47.540 2.708,47.467 2.704 C 47.393 2.699,46.913 2.526,46.400 2.320 C 45.279 1.870,44.756 1.686,44.400 1.615 C 44.253 1.586,43.944 1.391,43.713 1.182 C 43.482 0.973,42.972 0.775,42.580 0.743 C 42.188 0.710,41.867 0.590,41.867 0.475 C 41.867 0.360,41.732 0.267,41.567 0.267 C 41.361 0.267,41.371 0.390,41.600 0.667 M113.109 30.395 C 113.204 30.678,115.486 31.712,118.667 32.913 C 119.180 33.107,120.140 33.514,120.800 33.818 C 123.723 35.164,129.931 37.624,130.066 37.490 C 130.147 37.408,130.346 37.503,130.507 37.700 C 130.753 38.000,136.491 40.533,136.925 40.533 C 137.535 40.533,136.836 40.005,135.867 39.733 C 135.207 39.549,134.667 39.303,134.667 39.187 C 134.667 39.071,134.037 38.771,133.267 38.519 C 132.497 38.268,131.717 37.944,131.533 37.799 C 131.350 37.654,131.200 37.628,131.200 37.742 C 131.200 37.856,130.990 37.769,130.733 37.549 C 130.477 37.328,129.697 36.994,129.000 36.806 C 128.303 36.618,127.733 36.354,127.733 36.220 C 127.733 36.086,127.583 36.003,127.400 36.034 C 127.058 36.094,126.652 35.934,123.857 34.647 C 122.972 34.239,121.922 33.824,121.524 33.724 C 121.126 33.624,120.800 33.422,120.800 33.276 C 120.800 33.129,120.620 33.079,120.400 33.163 C 120.180 33.248,120.000 33.230,120.000 33.123 C 120.000 33.017,119.490 32.772,118.867 32.580 C 118.243 32.387,117.253 32.002,116.667 31.724 C 116.080 31.446,115.120 31.011,114.533 30.757 C 113.947 30.503,113.362 30.243,113.233 30.181 C 113.105 30.118,113.049 30.214,113.109 30.395 M137.369 40.503 C 137.436 40.706,138.085 41.099,138.812 41.376 C 139.539 41.654,140.373 41.989,140.667 42.122 C 143.799 43.542,147.022 44.777,147.240 44.642 C 147.365 44.565,147.467 44.609,147.467 44.741 C 147.467 44.951,153.737 47.733,154.213 47.733 C 154.638 47.733,154.362 47.199,153.933 47.192 C 153.677 47.187,152.750 46.827,151.873 46.392 C 150.997 45.956,150.156 45.600,150.005 45.600 C 149.853 45.600,149.166 45.300,148.477 44.933 C 147.788 44.567,147.067 44.267,146.875 44.267 C 146.683 44.267,145.784 43.905,144.878 43.463 C 143.972 43.021,142.864 42.586,142.416 42.496 C 141.967 42.407,141.600 42.208,141.600 42.056 C 141.600 41.903,141.520 41.858,141.422 41.956 C 141.324 42.054,141.054 41.975,140.822 41.780 C 140.590 41.585,139.860 41.272,139.200 41.085 C 138.540 40.898,137.830 40.607,137.623 40.439 C 137.330 40.201,137.274 40.215,137.369 40.503 M154.723 47.769 C 154.779 47.936,155.419 48.301,156.145 48.581 C 156.872 48.860,158.100 49.384,158.874 49.745 C 159.648 50.105,160.346 50.400,160.424 50.400 C 160.503 50.400,161.190 50.683,161.950 51.030 C 162.711 51.376,163.633 51.751,164.000 51.863 C 164.367 51.974,164.787 52.155,164.933 52.264 C 165.487 52.676,168.267 53.582,168.267 53.350 C 168.267 53.217,167.817 52.963,167.267 52.786 C 166.717 52.609,166.117 52.345,165.933 52.199 C 165.750 52.054,165.600 52.024,165.600 52.133 C 165.600 52.243,165.408 52.173,165.173 51.978 C 164.938 51.783,164.580 51.599,164.377 51.569 C 164.174 51.539,163.256 51.155,162.337 50.715 C 161.418 50.275,160.277 49.834,159.800 49.736 C 159.323 49.638,158.933 49.451,158.933 49.321 C 158.933 49.190,158.753 49.152,158.533 49.237 C 158.313 49.321,158.133 49.262,158.133 49.106 C 158.133 48.949,157.623 48.676,157.000 48.498 C 156.377 48.320,155.677 48.015,155.446 47.821 C 154.930 47.387,154.588 47.363,154.723 47.769 M168.533 53.549 C 168.533 53.789,168.576 53.808,175.467 56.659 C 178.180 57.781,180.760 58.861,181.200 59.058 C 184.725 60.635,185.600 60.929,185.600 60.533 C 185.600 60.387,185.476 60.267,185.325 60.267 C 185.173 60.267,184.603 60.068,184.058 59.826 C 183.513 59.583,182.905 59.411,182.707 59.444 C 182.509 59.476,182.417 59.388,182.503 59.249 C 182.589 59.109,182.128 58.861,181.479 58.697 C 180.829 58.534,179.900 58.170,179.415 57.889 C 178.930 57.609,178.023 57.230,177.400 57.047 C 176.777 56.865,176.267 56.605,176.267 56.469 C 176.267 56.333,176.117 56.277,175.933 56.343 C 175.750 56.409,175.420 56.318,175.200 56.139 C 174.980 55.961,174.230 55.661,173.533 55.473 C 172.837 55.285,172.267 55.048,172.267 54.947 C 172.267 54.847,171.611 54.557,170.809 54.305 C 170.007 54.052,169.280 53.730,169.193 53.589 C 169.001 53.278,168.533 53.250,168.533 53.549 M185.923 60.836 C 185.979 61.003,186.619 61.368,187.345 61.648 C 188.072 61.928,189.054 62.336,189.528 62.555 C 191.142 63.301,192.519 63.705,192.662 63.474 C 192.740 63.347,192.427 63.161,191.966 63.059 C 191.505 62.958,190.574 62.603,189.897 62.269 C 189.220 61.936,188.218 61.520,187.670 61.346 C 187.122 61.171,186.605 60.917,186.521 60.781 C 186.303 60.428,185.802 60.474,185.923 60.836 M192.962 63.688 C 192.806 63.940,192.609 63.851,201.333 67.465 C 204.927 68.954,208.258 70.350,208.736 70.567 C 209.215 70.784,209.725 70.888,209.870 70.798 C 210.015 70.709,210.133 70.747,210.133 70.885 C 210.133 71.022,210.763 71.396,211.533 71.715 C 212.303 72.034,213.173 72.404,213.467 72.537 C 213.760 72.670,218.500 74.653,224.000 76.943 C 229.500 79.233,234.633 81.398,235.407 81.753 C 236.181 82.109,236.961 82.396,237.141 82.392 C 237.590 82.380,236.522 81.600,236.057 81.600 C 235.851 81.600,235.364 81.382,234.974 81.115 C 234.585 80.849,233.517 80.410,232.600 80.140 C 231.683 79.870,230.933 79.550,230.933 79.428 C 230.933 79.307,230.393 79.072,229.733 78.906 C 229.073 78.739,228.533 78.491,228.533 78.353 C 228.533 78.215,228.422 78.171,228.285 78.255 C 228.149 78.340,227.962 78.288,227.872 78.141 C 227.781 77.994,227.052 77.684,226.253 77.451 C 225.454 77.219,224.800 76.930,224.800 76.810 C 224.800 76.689,224.080 76.375,223.200 76.112 C 222.320 75.848,221.600 75.528,221.600 75.400 C 221.600 75.273,221.483 75.241,221.341 75.329 C 221.198 75.417,220.808 75.314,220.474 75.101 C 220.140 74.887,219.357 74.563,218.733 74.381 C 218.110 74.198,217.600 73.958,217.600 73.846 C 217.600 73.734,216.970 73.437,216.200 73.186 C 215.430 72.935,214.680 72.657,214.533 72.569 C 214.387 72.480,214.207 72.399,214.133 72.388 C 214.060 72.377,213.570 72.179,213.043 71.949 C 212.517 71.719,211.797 71.442,211.443 71.334 C 211.090 71.225,210.620 70.982,210.400 70.793 C 210.180 70.604,209.488 70.313,208.863 70.147 C 208.237 69.980,207.337 69.617,206.863 69.339 C 206.388 69.062,205.430 68.693,204.733 68.519 C 204.037 68.345,203.467 68.107,203.467 67.990 C 203.467 67.873,202.704 67.523,201.773 67.213 C 200.841 66.903,199.616 66.413,199.050 66.125 C 198.484 65.836,197.866 65.600,197.677 65.600 C 197.488 65.600,197.333 65.467,197.333 65.305 C 197.333 65.142,197.153 65.079,196.933 65.163 C 196.713 65.248,196.533 65.209,196.533 65.077 C 196.533 64.946,195.873 64.646,195.067 64.411 C 194.260 64.177,193.600 63.868,193.600 63.726 C 193.600 63.410,193.150 63.383,192.962 63.688 M237.600 82.354 C 237.600 82.560,241.897 84.444,249.867 87.733 C 251.700 88.489,253.560 89.268,254.000 89.462 C 256.583 90.604,258.209 91.213,258.336 91.086 C 258.415 91.007,258.612 91.098,258.774 91.289 C 258.935 91.480,259.607 91.855,260.267 92.121 C 260.927 92.387,262.107 92.892,262.889 93.243 C 263.671 93.594,264.571 93.908,264.889 93.940 C 265.207 93.973,265.527 94.078,265.600 94.174 C 265.673 94.270,267.953 95.269,270.667 96.395 C 273.380 97.521,276.260 98.746,277.067 99.118 C 277.873 99.490,278.803 99.811,279.133 99.830 C 279.463 99.850,279.733 99.955,279.733 100.063 C 279.733 100.255,280.902 100.809,282.123 101.197 C 282.518 101.322,282.673 101.293,282.563 101.115 C 282.469 100.963,281.944 100.695,281.396 100.519 C 280.848 100.343,280.220 100.050,280.000 99.867 C 279.780 99.684,279.120 99.391,278.533 99.216 C 277.521 98.913,275.429 98.019,273.776 97.181 C 273.360 96.970,272.910 96.865,272.776 96.948 C 272.643 97.031,272.533 96.984,272.533 96.845 C 272.533 96.705,272.239 96.517,271.878 96.427 C 271.518 96.336,270.948 96.158,270.612 96.030 C 270.275 95.902,269.923 95.813,269.828 95.832 C 269.733 95.851,269.433 95.675,269.161 95.441 C 268.889 95.206,268.097 94.861,267.400 94.673 C 266.703 94.485,266.133 94.231,266.133 94.109 C 266.133 93.987,265.518 93.705,264.766 93.481 C 264.014 93.258,263.264 92.970,263.099 92.842 C 262.935 92.713,262.200 92.391,261.467 92.125 C 260.733 91.859,260.002 91.543,259.842 91.423 C 259.682 91.303,259.489 91.266,259.413 91.342 C 259.338 91.418,259.124 91.297,258.939 91.073 C 258.753 90.850,258.432 90.667,258.225 90.667 C 258.019 90.667,257.403 90.468,256.858 90.226 C 256.313 89.983,255.717 89.808,255.533 89.837 C 255.350 89.866,255.200 89.778,255.200 89.641 C 255.200 89.503,254.870 89.311,254.467 89.214 C 254.063 89.116,253.193 88.760,252.533 88.423 C 251.873 88.085,250.853 87.656,250.267 87.470 C 249.680 87.283,249.069 87.027,248.909 86.901 C 248.749 86.775,248.539 86.750,248.442 86.847 C 248.346 86.943,248.267 86.901,248.267 86.753 C 248.267 86.605,247.547 86.266,246.667 86.000 C 245.787 85.734,245.067 85.419,245.067 85.301 C 245.067 85.184,244.557 84.952,243.933 84.786 C 243.310 84.620,242.440 84.268,242.000 84.004 C 241.560 83.739,240.510 83.308,239.667 83.046 C 238.823 82.784,238.133 82.471,238.133 82.351 C 238.133 82.231,238.013 82.133,237.867 82.133 C 237.720 82.133,237.600 82.233,237.600 82.354 M282.966 101.295 C 283.032 101.493,284.041 102.046,285.209 102.524 C 289.743 104.376,306.560 111.380,307.333 111.738 C 307.627 111.874,308.482 112.221,309.233 112.509 C 309.985 112.797,311.125 113.271,311.767 113.561 C 312.408 113.852,317.013 115.788,322.000 117.864 C 326.987 119.939,331.307 121.743,331.600 121.872 C 334.647 123.215,337.990 124.488,338.173 124.376 C 338.298 124.298,338.400 124.339,338.400 124.466 C 338.400 124.727,338.821 124.920,344.400 127.204 C 346.600 128.106,349.033 129.133,349.807 129.488 C 350.581 129.843,351.279 130.133,351.358 130.133 C 351.436 130.133,352.123 130.417,352.884 130.763 C 354.739 131.609,355.467 131.821,355.467 131.516 C 355.467 131.377,354.927 131.127,354.267 130.961 C 353.607 130.795,353.067 130.544,353.067 130.404 C 353.067 130.263,352.377 129.949,351.533 129.705 C 350.690 129.462,349.927 129.148,349.837 129.009 C 349.747 128.869,349.599 128.759,349.508 128.766 C 349.417 128.772,348.944 128.610,348.457 128.407 C 347.969 128.203,347.247 127.955,346.852 127.856 C 346.457 127.757,346.133 127.561,346.133 127.422 C 346.133 127.283,346.022 127.238,345.885 127.322 C 345.749 127.406,345.572 127.370,345.492 127.241 C 345.412 127.112,344.804 126.854,344.140 126.669 C 343.476 126.483,342.933 126.221,342.933 126.087 C 342.933 125.953,342.783 125.867,342.600 125.896 C 342.417 125.925,341.847 125.768,341.333 125.547 C 339.699 124.844,339.338 124.714,339.133 124.758 C 339.023 124.781,338.933 124.685,338.933 124.544 C 338.933 124.403,338.423 124.152,337.800 123.986 C 337.177 123.820,336.307 123.470,335.867 123.208 C 335.427 122.946,334.587 122.581,334.000 122.398 C 333.413 122.214,332.802 121.961,332.642 121.834 C 332.482 121.708,332.272 121.684,332.175 121.780 C 332.079 121.877,332.000 121.822,332.000 121.658 C 332.000 121.495,331.280 121.159,330.400 120.912 C 329.520 120.665,328.800 120.346,328.800 120.203 C 328.800 120.060,328.620 120.012,328.400 120.096 C 328.180 120.181,328.000 120.149,328.000 120.026 C 328.000 119.903,327.457 119.651,326.793 119.465 C 326.129 119.279,325.521 119.021,325.441 118.892 C 325.362 118.763,325.185 118.727,325.048 118.811 C 324.912 118.896,324.800 118.844,324.800 118.696 C 324.800 118.548,324.140 118.219,323.333 117.965 C 322.527 117.711,321.867 117.392,321.867 117.256 C 321.867 117.121,321.687 117.079,321.467 117.163 C 321.247 117.248,321.067 117.210,321.067 117.079 C 321.067 116.949,320.677 116.760,320.200 116.659 C 319.723 116.558,318.973 116.261,318.533 115.999 C 318.093 115.737,317.043 115.308,316.200 115.046 C 315.357 114.784,314.667 114.475,314.667 114.359 C 314.667 114.243,313.827 113.894,312.800 113.582 C 311.773 113.270,310.933 112.906,310.933 112.774 C 310.933 112.642,310.723 112.530,310.467 112.525 C 310.210 112.520,309.283 112.160,308.407 111.725 C 307.531 111.290,306.691 110.933,306.540 110.932 C 306.390 110.932,305.547 110.572,304.667 110.133 C 303.787 109.694,302.887 109.334,302.667 109.333 C 302.447 109.332,301.547 108.972,300.667 108.533 C 299.787 108.094,298.927 107.735,298.755 107.734 C 298.584 107.734,297.864 107.443,297.155 107.087 C 296.447 106.732,295.537 106.359,295.133 106.258 C 294.730 106.158,294.400 105.972,294.400 105.846 C 294.400 105.720,294.220 105.686,294.000 105.770 C 293.780 105.855,293.600 105.796,293.600 105.639 C 293.600 105.482,293.090 105.219,292.467 105.055 C 291.843 104.891,291.093 104.605,290.800 104.419 C 290.507 104.234,289.637 103.874,288.867 103.620 C 288.097 103.365,287.467 103.034,287.467 102.883 C 287.467 102.733,287.287 102.679,287.067 102.763 C 286.847 102.848,286.667 102.822,286.667 102.707 C 286.667 102.592,285.977 102.282,285.133 102.019 C 284.290 101.756,283.430 101.404,283.223 101.237 C 282.932 101.002,282.874 101.016,282.966 101.295 M355.792 131.776 C 355.849 131.946,356.519 132.322,357.281 132.612 C 358.985 133.259,358.998 133.404,357.400 133.999 C 355.951 134.538,355.542 134.837,355.854 135.129 C 355.975 135.241,356.127 135.183,356.193 134.998 C 356.258 134.814,356.422 134.731,356.556 134.814 C 356.690 134.897,356.800 134.845,356.800 134.699 C 356.800 134.552,357.340 134.352,358.000 134.253 C 359.090 134.089,359.200 134.005,359.200 133.333 C 359.200 132.661,359.090 132.577,358.000 132.414 C 357.340 132.315,356.800 132.114,356.800 131.968 C 356.800 131.822,356.680 131.776,356.533 131.867 C 356.387 131.957,356.267 131.904,356.267 131.749 C 356.267 131.594,356.137 131.467,355.978 131.467 C 355.819 131.467,355.735 131.606,355.792 131.776 M354.667 135.127 C 354.447 135.211,353.644 135.561,352.884 135.906 C 352.123 136.251,351.436 136.533,351.358 136.533 C 351.279 136.533,350.581 136.824,349.807 137.179 C 349.033 137.534,346.600 138.561,344.400 139.462 C 338.821 141.747,338.400 141.939,338.400 142.200 C 338.400 142.327,338.298 142.368,338.173 142.291 C 337.990 142.178,334.647 143.451,331.600 144.794 C 331.307 144.923,326.987 146.727,322.000 148.803 C 317.013 150.878,312.408 152.814,311.767 153.105 C 311.125 153.396,309.985 153.870,309.233 154.158 C 308.482 154.446,307.627 154.792,307.333 154.928 C 306.560 155.286,289.743 162.290,285.209 164.143 C 284.041 164.620,283.032 165.173,282.966 165.372 C 282.874 165.651,282.932 165.664,283.223 165.430 C 283.430 165.263,284.290 164.911,285.133 164.648 C 285.977 164.385,286.667 164.075,286.667 163.960 C 286.667 163.844,286.847 163.819,287.067 163.904 C 287.287 163.988,287.467 163.934,287.467 163.783 C 287.467 163.633,288.097 163.301,288.867 163.047 C 289.637 162.793,290.507 162.433,290.800 162.247 C 291.093 162.062,291.843 161.776,292.467 161.611 C 293.090 161.447,293.600 161.185,293.600 161.028 C 293.600 160.871,293.780 160.812,294.000 160.896 C 294.220 160.981,294.400 160.947,294.400 160.821 C 294.400 160.694,294.730 160.509,295.133 160.408 C 295.537 160.308,296.447 159.935,297.155 159.579 C 297.864 159.224,298.584 158.933,298.755 158.932 C 298.927 158.932,299.787 158.572,300.667 158.133 C 301.547 157.694,302.447 157.334,302.667 157.333 C 302.887 157.332,303.787 156.972,304.667 156.533 C 305.547 156.094,306.390 155.735,306.540 155.734 C 306.691 155.734,307.531 155.377,308.407 154.942 C 309.283 154.506,310.210 154.146,310.467 154.142 C 310.723 154.137,310.933 154.025,310.933 153.893 C 310.933 153.760,311.773 153.397,312.800 153.085 C 313.827 152.773,314.667 152.423,314.667 152.308 C 314.667 152.192,315.357 151.883,316.200 151.621 C 317.043 151.359,318.093 150.930,318.533 150.668 C 318.973 150.405,319.723 150.108,320.200 150.008 C 320.677 149.907,321.067 149.718,321.067 149.587 C 321.067 149.457,321.247 149.419,321.467 149.504 C 321.687 149.588,321.867 149.546,321.867 149.411 C 321.867 149.275,322.527 148.956,323.333 148.702 C 324.140 148.447,324.800 148.118,324.800 147.971 C 324.800 147.823,324.912 147.771,325.048 147.855 C 325.185 147.940,325.362 147.903,325.441 147.774 C 325.521 147.645,326.129 147.388,326.793 147.202 C 327.457 147.016,328.000 146.763,328.000 146.640 C 328.000 146.517,328.180 146.486,328.400 146.570 C 328.620 146.655,328.800 146.607,328.800 146.464 C 328.800 146.321,329.520 146.002,330.400 145.755 C 331.280 145.508,332.000 145.172,332.000 145.008 C 332.000 144.845,332.079 144.790,332.175 144.887 C 332.272 144.983,332.482 144.959,332.642 144.832 C 332.802 144.706,333.413 144.453,334.000 144.269 C 334.587 144.086,335.427 143.721,335.867 143.459 C 336.307 143.197,337.177 142.847,337.800 142.681 C 338.423 142.515,338.933 142.264,338.933 142.123 C 338.933 141.982,339.023 141.886,339.133 141.909 C 339.338 141.952,339.699 141.823,341.333 141.120 C 341.847 140.899,342.417 140.742,342.600 140.771 C 342.783 140.800,342.933 140.714,342.933 140.580 C 342.933 140.446,343.476 140.184,344.140 139.998 C 344.804 139.812,345.412 139.555,345.492 139.426 C 345.572 139.297,345.749 139.260,345.885 139.345 C 346.022 139.429,346.133 139.384,346.133 139.245 C 346.133 139.105,346.457 138.910,346.852 138.811 C 347.247 138.712,347.997 138.452,348.519 138.234 C 349.040 138.016,349.513 137.855,349.570 137.875 C 349.627 137.896,349.747 137.798,349.837 137.658 C 349.927 137.518,350.690 137.205,351.533 136.961 C 352.377 136.718,353.067 136.404,353.067 136.263 C 353.067 136.123,353.607 135.872,354.267 135.706 C 354.927 135.539,355.467 135.298,355.467 135.168 C 355.467 134.909,355.269 134.899,354.667 135.127 M281.114 165.831 C 280.479 166.089,279.879 166.412,279.780 166.550 C 279.681 166.687,279.340 166.827,279.022 166.860 C 278.705 166.892,277.805 167.213,277.022 167.572 C 276.240 167.931,273.380 169.146,270.667 170.272 C 267.953 171.397,265.673 172.397,265.600 172.493 C 265.527 172.588,265.207 172.693,264.889 172.726 C 264.571 172.759,263.671 173.073,262.889 173.424 C 262.107 173.775,260.927 174.280,260.267 174.546 C 259.607 174.812,258.935 175.186,258.774 175.377 C 258.612 175.569,258.415 175.660,258.336 175.580 C 258.209 175.453,256.583 176.063,254.000 177.205 C 253.560 177.399,251.700 178.177,249.867 178.934 C 239.085 183.383,236.620 184.533,237.867 184.533 C 238.013 184.533,238.133 184.435,238.133 184.315 C 238.133 184.195,238.823 183.883,239.667 183.621 C 240.510 183.359,241.560 182.928,242.000 182.663 C 242.440 182.399,243.310 182.047,243.933 181.881 C 244.557 181.715,245.067 181.483,245.067 181.365 C 245.067 181.247,245.787 180.933,246.667 180.667 C 247.547 180.400,248.267 180.061,248.267 179.913 C 248.267 179.765,248.346 179.723,248.442 179.820 C 248.539 179.916,248.749 179.892,248.909 179.766 C 249.069 179.639,249.680 179.384,250.267 179.197 C 250.853 179.010,251.873 178.581,252.533 178.244 C 253.193 177.906,254.063 177.550,254.467 177.453 C 254.870 177.355,255.200 177.163,255.200 177.026 C 255.200 176.889,255.350 176.800,255.533 176.829 C 255.717 176.858,256.313 176.683,256.858 176.441 C 257.403 176.198,258.019 176.000,258.225 176.000 C 258.432 176.000,258.753 175.817,258.939 175.594 C 259.124 175.370,259.338 175.249,259.413 175.325 C 259.489 175.400,259.682 175.364,259.842 175.244 C 260.002 175.123,260.733 174.808,261.467 174.542 C 262.200 174.276,262.935 173.953,263.099 173.825 C 263.264 173.697,264.014 173.409,264.766 173.185 C 265.518 172.962,266.133 172.680,266.133 172.558 C 266.133 172.436,266.703 172.182,267.400 171.994 C 268.097 171.806,268.889 171.460,269.161 171.226 C 269.433 170.992,269.673 170.838,269.695 170.885 C 269.716 170.932,270.069 170.843,270.478 170.688 C 270.888 170.532,271.518 170.330,271.878 170.240 C 272.239 170.149,272.533 169.961,272.533 169.822 C 272.533 169.683,272.643 169.636,272.776 169.719 C 272.910 169.801,273.360 169.696,273.776 169.485 C 275.429 168.648,277.521 167.753,278.533 167.451 C 279.120 167.276,279.780 166.983,280.000 166.800 C 280.220 166.617,280.848 166.324,281.396 166.148 C 281.944 165.972,282.461 165.717,282.545 165.581 C 282.758 165.236,282.446 165.290,281.114 165.831 M235.333 184.929 C 234.600 185.276,229.500 187.433,224.000 189.723 C 218.500 192.014,213.760 193.996,213.467 194.129 C 213.173 194.262,212.303 194.633,211.533 194.952 C 210.763 195.271,210.133 195.645,210.133 195.782 C 210.133 195.919,210.015 195.958,209.870 195.868 C 209.725 195.779,209.215 195.883,208.736 196.100 C 208.258 196.317,204.927 197.713,201.333 199.201 C 192.203 202.984,192.751 202.728,193.099 203.052 C 193.311 203.251,193.436 203.236,193.522 203.001 C 193.589 202.818,194.294 202.480,195.089 202.249 C 195.883 202.018,196.533 201.721,196.533 201.589 C 196.533 201.458,196.713 201.419,196.933 201.504 C 197.153 201.588,197.333 201.524,197.333 201.362 C 197.333 201.200,197.488 201.067,197.677 201.067 C 197.866 201.067,198.484 200.831,199.050 200.542 C 199.616 200.253,200.841 199.764,201.773 199.454 C 202.704 199.143,203.467 198.794,203.467 198.677 C 203.467 198.559,204.037 198.321,204.733 198.148 C 205.430 197.974,206.388 197.605,206.863 197.327 C 207.337 197.050,208.237 196.686,208.863 196.520 C 209.488 196.353,210.180 196.062,210.400 195.873 C 210.620 195.684,211.090 195.441,211.443 195.333 C 211.797 195.225,212.517 194.948,213.043 194.718 C 213.570 194.487,214.060 194.290,214.133 194.279 C 214.207 194.268,214.387 194.186,214.533 194.098 C 214.680 194.010,215.430 193.732,216.200 193.481 C 216.970 193.229,217.600 192.932,217.600 192.821 C 217.600 192.709,218.110 192.468,218.733 192.286 C 219.357 192.103,220.140 191.779,220.474 191.566 C 220.808 191.352,221.198 191.250,221.341 191.338 C 221.483 191.426,221.600 191.394,221.600 191.266 C 221.600 191.139,222.320 190.819,223.200 190.555 C 224.080 190.291,224.800 189.977,224.800 189.857 C 224.800 189.736,225.454 189.448,226.253 189.215 C 227.052 188.983,227.781 188.673,227.872 188.525 C 227.962 188.378,228.149 188.327,228.285 188.411 C 228.422 188.496,228.533 188.452,228.533 188.314 C 228.533 188.176,229.073 187.927,229.733 187.761 C 230.393 187.595,230.933 187.360,230.933 187.238 C 230.933 187.117,231.683 186.797,232.600 186.527 C 233.517 186.257,234.585 185.818,234.974 185.551 C 235.364 185.285,235.851 185.067,236.057 185.067 C 236.263 185.067,236.664 184.890,236.949 184.675 C 237.764 184.059,236.882 184.197,235.333 184.929 M191.467 203.330 C 190.953 203.511,189.993 203.897,189.333 204.188 C 188.673 204.478,187.713 204.874,187.200 205.067 C 186.687 205.261,186.155 205.518,186.018 205.638 C 185.639 205.973,186.071 206.250,186.463 205.925 C 186.652 205.768,187.525 205.375,188.403 205.051 C 189.281 204.727,190.137 204.355,190.304 204.223 C 190.472 204.091,191.131 203.832,191.769 203.647 C 192.407 203.462,192.810 203.241,192.664 203.156 C 192.519 203.070,191.980 203.148,191.467 203.330 M183.333 206.681 C 182.307 207.118,181.227 207.588,180.933 207.726 C 180.640 207.864,178.180 208.893,175.467 210.013 C 168.606 212.844,168.533 212.877,168.533 213.118 C 168.533 213.417,169.001 213.388,169.193 213.077 C 169.280 212.937,170.007 212.615,170.809 212.362 C 171.611 212.109,172.267 211.820,172.267 211.719 C 172.267 211.618,172.837 211.382,173.533 211.194 C 174.230 211.006,174.980 210.706,175.200 210.528 C 175.420 210.349,175.750 210.257,175.933 210.324 C 176.117 210.390,176.267 210.333,176.267 210.198 C 176.267 210.062,176.777 209.802,177.400 209.619 C 178.023 209.437,178.930 209.058,179.415 208.777 C 179.900 208.496,180.829 208.133,181.479 207.969 C 182.128 207.806,182.589 207.558,182.503 207.418 C 182.417 207.278,182.509 207.191,182.707 207.223 C 182.905 207.255,183.513 207.083,184.058 206.841 C 184.603 206.598,185.173 206.400,185.325 206.400 C 185.476 206.400,185.600 206.280,185.600 206.133 C 185.600 205.750,185.410 205.796,183.333 206.681 M167.200 213.448 C 166.687 213.638,165.703 214.049,165.015 214.363 C 164.326 214.677,163.700 214.933,163.623 214.933 C 163.545 214.933,162.827 215.233,162.025 215.600 C 161.223 215.967,160.508 216.267,160.436 216.267 C 160.363 216.267,159.546 216.609,158.619 217.026 C 157.692 217.444,156.513 217.943,156.000 218.136 C 154.898 218.549,154.501 218.856,154.749 219.105 C 154.849 219.204,155.141 219.107,155.398 218.889 C 155.656 218.671,156.377 218.346,157.000 218.169 C 157.623 217.991,158.133 217.717,158.133 217.561 C 158.133 217.404,158.313 217.345,158.533 217.430 C 158.753 217.514,158.933 217.477,158.933 217.346 C 158.933 217.216,159.323 217.029,159.800 216.930 C 160.277 216.832,161.418 216.392,162.337 215.952 C 163.256 215.512,164.174 215.127,164.377 215.097 C 164.580 215.068,164.938 214.884,165.173 214.689 C 165.408 214.494,165.600 214.424,165.600 214.533 C 165.600 214.643,165.750 214.613,165.933 214.467 C 166.117 214.322,166.717 214.058,167.267 213.881 C 167.974 213.653,168.858 212.900,168.200 213.085 C 168.163 213.096,167.713 213.259,167.200 213.448 M150.667 220.313 C 148.980 221.041,147.560 221.750,147.511 221.887 C 147.461 222.024,147.329 222.080,147.217 222.011 C 147.019 221.888,143.672 223.183,140.667 224.544 C 140.373 224.677,139.539 225.013,138.812 225.290 C 138.085 225.568,137.436 225.961,137.369 226.164 C 137.274 226.451,137.330 226.465,137.623 226.228 C 137.830 226.059,138.540 225.769,139.200 225.582 C 139.860 225.394,140.590 225.082,140.822 224.887 C 141.054 224.692,141.324 224.612,141.422 224.711 C 141.520 224.809,141.600 224.764,141.600 224.611 C 141.600 224.458,141.967 224.260,142.416 224.170 C 142.864 224.080,143.972 223.645,144.878 223.204 C 145.784 222.762,146.683 222.400,146.875 222.400 C 147.067 222.400,147.788 222.100,148.477 221.733 C 149.166 221.367,149.853 221.067,150.005 221.067 C 150.156 221.067,150.997 220.710,151.873 220.275 C 152.750 219.840,153.677 219.480,153.933 219.475 C 154.190 219.470,154.400 219.347,154.400 219.200 C 154.400 218.768,153.897 218.918,150.667 220.313 M133.610 227.449 C 131.929 228.159,130.509 228.874,130.454 229.038 C 130.399 229.202,130.248 229.271,130.118 229.190 C 129.919 229.068,124.043 231.358,121.152 232.685 C 119.901 233.259,116.612 234.614,114.933 235.246 C 114.127 235.550,113.355 235.902,113.218 236.028 C 112.741 236.467,113.266 236.547,114.031 236.152 C 115.451 235.418,117.744 234.441,118.877 234.087 C 119.494 233.895,120.000 233.650,120.000 233.543 C 120.000 233.437,120.180 233.419,120.400 233.504 C 120.620 233.588,120.800 233.537,120.800 233.391 C 120.800 233.244,121.126 233.043,121.524 232.943 C 121.922 232.843,122.972 232.428,123.857 232.020 C 126.652 230.732,127.058 230.573,127.400 230.632 C 127.583 230.664,127.733 230.580,127.733 230.446 C 127.733 230.312,128.303 230.049,129.000 229.861 C 129.697 229.673,130.477 229.339,130.733 229.118 C 130.990 228.898,131.200 228.811,131.200 228.925 C 131.200 229.039,131.350 229.013,131.533 228.868 C 131.717 228.723,132.497 228.398,133.267 228.147 C 134.037 227.896,134.667 227.596,134.667 227.480 C 134.667 227.364,135.207 227.118,135.867 226.933 C 136.527 226.749,137.067 226.493,137.067 226.365 C 137.067 226.008,136.880 226.067,133.610 227.449 M111.540 236.661 C 111.067 236.867,110.287 237.212,109.807 237.428 C 109.326 237.644,105.693 239.167,101.733 240.811 C 97.773 242.456,93.733 244.146,92.755 244.568 C 91.777 244.989,90.911 245.333,90.830 245.333 C 90.704 245.333,89.816 245.711,87.067 246.934 C 85.377 247.686,69.858 254.133,69.738 254.133 C 69.659 254.133,69.085 254.367,68.464 254.652 C 67.842 254.938,66.253 255.612,64.933 256.151 C 63.613 256.690,62.053 257.344,61.467 257.605 C 60.880 257.866,56.740 259.602,52.267 261.462 C 47.793 263.322,43.755 265.014,43.293 265.222 C 42.831 265.430,42.336 265.600,42.192 265.600 C 42.049 265.600,41.783 265.780,41.600 266.000 C 41.371 266.276,41.361 266.400,41.567 266.400 C 41.732 266.400,41.867 266.306,41.867 266.191 C 41.867 266.077,42.188 265.956,42.580 265.924 C 42.972 265.891,43.482 265.694,43.713 265.485 C 43.944 265.276,44.222 265.093,44.331 265.078 C 44.579 265.045,45.224 264.818,46.338 264.372 C 46.818 264.180,47.249 264.048,47.297 264.078 C 47.345 264.109,47.553 263.999,47.759 263.835 C 47.965 263.671,48.763 263.332,49.533 263.081 C 50.303 262.829,50.933 262.493,50.933 262.334 C 50.933 262.175,51.012 262.123,51.109 262.220 C 51.205 262.316,51.415 262.288,51.575 262.157 C 51.736 262.026,52.377 261.782,53.000 261.616 C 53.623 261.449,54.133 261.185,54.133 261.028 C 54.133 260.871,54.313 260.812,54.533 260.896 C 54.753 260.981,54.933 260.947,54.933 260.821 C 54.933 260.615,55.704 260.319,56.795 260.106 C 57.012 260.064,57.230 259.909,57.279 259.763 C 57.328 259.616,57.540 259.563,57.751 259.644 C 57.961 259.724,58.133 259.677,58.133 259.537 C 58.133 259.398,58.643 259.135,59.267 258.953 C 59.890 258.770,60.797 258.391,61.282 258.111 C 61.767 257.830,62.695 257.466,63.345 257.303 C 64.053 257.124,64.457 256.892,64.353 256.724 C 64.246 256.550,64.345 256.506,64.614 256.610 C 64.854 256.702,65.118 256.665,65.203 256.529 C 65.287 256.393,65.861 256.147,66.478 255.982 C 67.095 255.818,67.823 255.485,68.095 255.242 C 68.367 254.999,68.638 254.832,68.697 254.872 C 68.757 254.912,69.164 254.759,69.603 254.532 C 70.041 254.305,70.400 254.197,70.400 254.290 C 70.400 254.384,70.687 254.273,71.038 254.043 C 71.390 253.813,72.440 253.370,73.372 253.059 C 74.304 252.748,75.308 252.338,75.604 252.148 C 75.899 251.959,76.521 251.720,76.985 251.618 C 77.450 251.516,77.967 251.267,78.134 251.065 C 78.302 250.864,78.610 250.764,78.819 250.844 C 79.029 250.925,79.200 250.873,79.200 250.730 C 79.200 250.587,79.740 250.318,80.400 250.133 C 81.060 249.949,81.600 249.673,81.600 249.521 C 81.600 249.369,81.679 249.323,81.775 249.420 C 81.872 249.516,82.082 249.492,82.242 249.366 C 82.402 249.240,83.162 248.932,83.930 248.682 C 84.698 248.431,85.397 248.113,85.482 247.975 C 85.567 247.837,85.749 247.794,85.885 247.878 C 86.022 247.962,86.133 247.914,86.133 247.770 C 86.133 247.627,86.523 247.426,87.000 247.325 C 87.477 247.224,88.585 246.795,89.463 246.371 C 90.341 245.947,91.256 245.600,91.497 245.600 C 91.738 245.600,92.068 245.439,92.231 245.243 C 92.394 245.047,93.038 244.739,93.663 244.559 C 94.289 244.379,95.400 243.954,96.133 243.614 C 99.287 242.151,101.271 241.333,101.669 241.333 C 101.903 241.333,102.283 241.146,102.512 240.916 C 102.742 240.687,103.050 240.574,103.198 240.665 C 103.346 240.757,103.467 240.726,103.467 240.598 C 103.467 240.469,104.157 240.149,105.000 239.887 C 105.843 239.624,106.713 239.253,106.933 239.063 C 107.153 238.872,107.843 238.580,108.467 238.415 C 109.090 238.249,109.600 237.985,109.600 237.828 C 109.600 237.671,109.776 237.611,109.991 237.693 C 110.207 237.776,110.452 237.732,110.536 237.596 C 110.620 237.459,111.164 237.220,111.745 237.064 C 112.325 236.907,112.800 236.664,112.800 236.523 C 112.800 236.187,112.576 236.211,111.540 236.661 " stroke="none" fill="#aaaaaa" fill-rule="evenodd"></path><path id="path2" d="M359.200 133.333 C 359.200 133.627,359.320 133.867,359.467 133.867 C 359.613 133.867,359.733 133.627,359.733 133.333 C 359.733 133.040,359.613 132.800,359.467 132.800 C 359.320 132.800,359.200 133.040,359.200 133.333 " stroke="none" fill="#cccccc" fill-rule="evenodd"></path><path id="path3" d="M40.000 133.333 L 40.000 266.667 40.800 266.667 C 41.242 266.667,41.570 266.536,41.533 266.375 C 41.497 266.215,41.647 265.981,41.867 265.855 C 42.330 265.589,41.764 265.828,52.267 261.467 C 56.740 259.609,60.659 257.965,60.975 257.813 C 61.291 257.661,61.699 257.630,61.882 257.743 C 62.083 257.867,62.148 257.840,62.047 257.677 C 61.950 257.519,62.919 256.979,64.339 256.398 C 65.693 255.844,67.280 255.182,67.867 254.925 C 70.716 253.680,72.557 253.050,72.839 253.224 C 73.012 253.331,73.078 253.300,72.987 253.154 C 72.897 253.008,75.728 251.680,79.413 250.141 C 86.728 247.084,87.046 246.950,88.917 246.123 C 89.641 245.803,90.661 245.383,91.184 245.191 C 91.706 244.998,93.153 244.410,94.398 243.883 C 95.644 243.357,96.821 242.986,97.012 243.060 C 97.204 243.134,97.299 243.093,97.223 242.970 C 97.027 242.653,106.846 238.581,107.232 238.819 C 107.424 238.939,107.479 238.902,107.371 238.727 C 107.270 238.565,107.456 238.359,107.796 238.256 C 108.128 238.155,109.158 237.727,110.085 237.303 C 111.012 236.880,111.852 236.533,111.952 236.532 C 112.052 236.531,112.453 236.363,112.844 236.160 C 113.234 235.956,114.194 235.543,114.977 235.241 C 116.731 234.566,120.013 233.208,121.152 232.685 C 121.618 232.471,123.800 231.560,126.000 230.662 C 128.200 229.764,130.360 228.866,130.801 228.667 C 133.295 227.538,134.266 227.194,134.594 227.320 C 134.796 227.397,134.896 227.356,134.817 227.228 C 134.738 227.100,135.062 226.843,135.537 226.656 C 136.012 226.469,137.034 226.035,137.808 225.692 C 138.582 225.348,139.302 225.066,139.408 225.065 C 139.514 225.064,139.952 224.880,140.382 224.655 C 140.813 224.431,141.349 224.318,141.574 224.404 C 141.800 224.491,141.899 224.477,141.796 224.374 C 141.432 224.010,145.135 222.513,145.635 222.822 C 145.816 222.934,145.878 222.901,145.782 222.745 C 145.684 222.588,147.425 221.726,149.941 220.686 C 152.320 219.703,154.475 218.786,154.730 218.649 C 155.367 218.306,155.804 218.337,155.575 218.708 C 155.456 218.900,155.501 218.943,155.696 218.823 C 155.868 218.717,155.945 218.527,155.867 218.401 C 155.789 218.275,155.997 218.090,156.329 217.990 C 156.662 217.889,157.335 217.622,157.825 217.395 C 158.588 217.042,158.755 217.037,158.983 217.358 C 159.199 217.661,159.223 217.648,159.110 217.292 C 159.010 216.979,159.217 216.753,159.818 216.517 C 160.285 216.333,161.300 215.902,162.075 215.558 C 162.849 215.215,163.569 214.933,163.675 214.932 C 163.780 214.931,164.186 214.763,164.577 214.560 C 164.967 214.356,165.946 213.942,166.752 213.641 C 167.558 213.339,168.738 212.854,169.375 212.563 C 172.264 211.243,173.255 210.947,172.908 211.508 C 172.789 211.700,172.835 211.743,173.030 211.623 C 173.202 211.517,173.282 211.333,173.209 211.215 C 173.029 210.924,180.239 207.932,180.697 208.108 C 180.897 208.185,181.032 208.127,180.997 207.979 C 180.962 207.832,181.953 207.289,183.200 206.774 C 184.447 206.259,185.975 205.604,186.597 205.319 C 187.219 205.033,187.819 204.799,187.930 204.798 C 188.042 204.797,188.453 204.630,188.844 204.426 C 189.234 204.222,190.194 203.816,190.977 203.522 C 191.760 203.229,193.060 202.694,193.867 202.333 C 198.558 200.236,204.022 198.116,204.297 198.286 C 204.486 198.402,204.546 198.369,204.444 198.204 C 204.344 198.043,204.914 197.674,205.803 197.324 C 206.645 196.993,207.693 196.569,208.133 196.381 C 208.573 196.194,209.833 195.662,210.933 195.200 C 212.033 194.738,213.293 194.204,213.733 194.015 C 220.051 191.293,225.104 189.325,225.362 189.484 C 225.553 189.602,225.613 189.570,225.511 189.404 C 225.290 189.047,228.125 187.881,228.560 188.150 C 228.752 188.268,228.813 188.237,228.712 188.073 C 228.611 187.909,229.658 187.343,231.270 186.690 C 232.772 186.081,234.208 185.467,234.463 185.325 C 235.094 184.973,235.540 185.000,235.308 185.375 C 235.189 185.567,235.235 185.610,235.430 185.489 C 235.602 185.383,235.682 185.199,235.608 185.079 C 235.534 184.960,235.862 184.715,236.337 184.536 C 236.812 184.357,239.300 183.332,241.867 182.258 C 244.433 181.185,248.013 179.688,249.821 178.933 C 251.629 178.177,253.278 177.624,253.484 177.703 C 253.691 177.783,253.832 177.727,253.797 177.579 C 253.762 177.432,254.753 176.890,256.000 176.375 C 257.247 175.860,258.900 175.145,259.674 174.786 C 260.448 174.427,261.234 174.133,261.421 174.133 C 261.607 174.133,261.874 174.028,262.013 173.900 C 262.544 173.409,266.646 171.956,266.957 172.148 C 267.151 172.268,267.214 172.238,267.112 172.073 C 267.010 171.908,268.689 171.078,271.271 170.017 C 273.652 169.038,275.859 168.110,276.175 167.954 C 276.491 167.798,276.899 167.763,277.082 167.876 C 277.285 168.001,277.348 167.974,277.245 167.805 C 277.150 167.653,277.461 167.376,277.937 167.189 C 278.412 167.003,279.434 166.569,280.208 166.225 C 280.982 165.881,281.684 165.600,281.768 165.600 C 281.851 165.600,282.298 165.424,282.760 165.209 C 283.570 164.831,284.312 164.521,290.400 162.006 C 291.940 161.370,294.935 160.115,297.055 159.217 C 299.176 158.320,301.072 157.647,301.269 157.723 C 301.466 157.799,301.564 157.758,301.487 157.632 C 301.409 157.507,302.453 156.952,303.806 156.400 C 305.159 155.848,306.627 155.239,307.067 155.047 C 309.551 153.963,311.300 153.364,311.541 153.513 C 311.692 153.606,311.746 153.569,311.660 153.431 C 311.575 153.293,311.826 153.045,312.219 152.881 C 317.684 150.594,318.963 150.120,319.232 150.287 C 319.412 150.398,319.479 150.369,319.387 150.220 C 319.296 150.073,321.826 148.876,325.146 147.494 C 328.402 146.140,331.307 144.924,331.600 144.793 C 331.893 144.662,333.633 143.938,335.467 143.184 C 337.300 142.430,339.280 141.601,339.867 141.342 C 340.453 141.083,342.613 140.185,344.667 139.347 C 346.720 138.509,349.027 137.536,349.793 137.185 C 350.559 136.834,351.490 136.471,351.862 136.377 C 352.234 136.284,352.604 136.101,352.685 135.970 C 352.766 135.840,353.011 135.733,353.231 135.733 C 353.466 135.733,353.553 135.861,353.441 136.041 C 353.322 136.233,353.368 136.277,353.563 136.156 C 353.735 136.050,353.812 135.861,353.735 135.736 C 353.658 135.612,354.046 135.364,354.598 135.187 C 355.149 135.009,355.748 134.746,355.930 134.602 C 356.111 134.458,356.448 134.412,356.677 134.500 C 356.907 134.589,357.027 134.552,356.945 134.418 C 356.862 134.285,357.216 134.037,357.731 133.867 C 358.246 133.698,358.667 133.457,358.667 133.333 C 358.667 133.209,358.246 132.969,357.731 132.799 C 357.216 132.629,356.862 132.381,356.945 132.248 C 357.027 132.115,356.907 132.078,356.677 132.166 C 356.448 132.254,356.111 132.209,355.930 132.065 C 355.748 131.921,355.149 131.658,354.598 131.480 C 354.046 131.302,353.658 131.055,353.735 130.930 C 353.812 130.806,353.735 130.617,353.563 130.511 C 353.368 130.390,353.322 130.433,353.441 130.625 C 353.553 130.806,353.466 130.933,353.231 130.933 C 353.011 130.933,352.766 130.827,352.685 130.696 C 352.604 130.566,352.234 130.383,351.862 130.289 C 351.490 130.196,350.559 129.832,349.793 129.481 C 349.027 129.130,346.720 128.157,344.667 127.320 C 342.613 126.482,340.453 125.584,339.867 125.325 C 339.280 125.066,337.300 124.236,335.467 123.482 C 333.633 122.728,331.893 122.004,331.600 121.873 C 331.307 121.743,328.402 120.527,325.146 119.172 C 321.826 117.791,319.296 116.594,319.387 116.447 C 319.479 116.298,319.412 116.269,319.232 116.380 C 318.963 116.546,317.684 116.073,312.219 113.786 C 311.826 113.621,311.575 113.374,311.660 113.236 C 311.746 113.097,311.692 113.061,311.541 113.154 C 311.300 113.303,309.551 112.703,307.067 111.620 C 306.627 111.428,305.159 110.819,303.806 110.267 C 302.453 109.714,301.409 109.160,301.487 109.034 C 301.564 108.909,301.466 108.868,301.269 108.944 C 301.072 109.019,299.176 108.347,297.055 107.449 C 294.935 106.552,291.940 105.297,290.400 104.661 C 284.312 102.146,283.570 101.835,282.760 101.458 C 282.298 101.243,281.851 101.067,281.768 101.067 C 281.684 101.067,280.982 100.785,280.208 100.442 C 279.434 100.098,278.412 99.664,277.937 99.477 C 277.461 99.291,277.150 99.014,277.245 98.861 C 277.348 98.693,277.285 98.665,277.082 98.790 C 276.899 98.904,276.491 98.869,276.175 98.713 C 275.859 98.557,273.652 97.628,271.271 96.650 C 268.689 95.588,267.010 94.758,267.112 94.594 C 267.214 94.429,267.151 94.399,266.957 94.519 C 266.646 94.711,262.544 93.257,262.013 92.767 C 261.874 92.639,261.607 92.533,261.421 92.533 C 261.234 92.533,260.448 92.240,259.674 91.881 C 258.900 91.522,257.247 90.807,256.000 90.292 C 254.753 89.777,253.762 89.235,253.797 89.087 C 253.832 88.940,253.691 88.884,253.484 88.963 C 253.278 89.043,251.629 88.489,249.821 87.734 C 248.013 86.978,244.433 85.482,241.867 84.408 C 239.300 83.335,236.812 82.310,236.337 82.131 C 235.862 81.951,235.534 81.707,235.608 81.587 C 235.682 81.468,235.602 81.283,235.430 81.177 C 235.235 81.057,235.189 81.100,235.308 81.292 C 235.540 81.667,235.094 81.693,234.463 81.342 C 234.208 81.200,232.772 80.586,231.270 79.977 C 229.658 79.323,228.611 78.757,228.712 78.594 C 228.813 78.429,228.752 78.398,228.560 78.517 C 228.125 78.786,225.290 77.619,225.511 77.262 C 225.613 77.097,225.553 77.064,225.362 77.183 C 225.104 77.342,220.051 75.373,213.733 72.652 C 213.293 72.462,212.033 71.929,210.933 71.467 C 209.833 71.004,208.573 70.473,208.133 70.285 C 207.693 70.098,206.645 69.674,205.803 69.343 C 204.914 68.993,204.344 68.624,204.444 68.462 C 204.546 68.297,204.486 68.264,204.297 68.381 C 204.022 68.551,198.558 66.430,193.867 64.333 C 193.060 63.973,191.760 63.438,190.977 63.144 C 190.194 62.851,189.234 62.444,188.844 62.240 C 188.453 62.037,188.042 61.869,187.930 61.868 C 187.819 61.867,187.219 61.633,186.597 61.348 C 185.975 61.063,184.447 60.408,183.200 59.893 C 181.953 59.377,180.962 58.835,180.997 58.687 C 181.032 58.540,180.897 58.482,180.697 58.559 C 180.239 58.734,173.029 55.743,173.209 55.451 C 173.282 55.333,173.202 55.150,173.030 55.044 C 172.835 54.923,172.789 54.967,172.908 55.159 C 173.255 55.720,172.264 55.424,169.375 54.103 C 168.738 53.812,167.558 53.327,166.752 53.026 C 165.946 52.724,164.967 52.311,164.577 52.107 C 164.186 51.903,163.780 51.736,163.675 51.735 C 163.569 51.734,162.849 51.452,162.075 51.108 C 161.300 50.765,160.285 50.333,159.818 50.150 C 159.217 49.914,159.010 49.688,159.110 49.375 C 159.223 49.018,159.199 49.006,158.983 49.309 C 158.755 49.630,158.588 49.625,157.825 49.272 C 157.335 49.045,156.662 48.777,156.329 48.677 C 155.997 48.577,155.789 48.392,155.867 48.266 C 155.945 48.140,155.868 47.950,155.696 47.844 C 155.501 47.723,155.456 47.767,155.575 47.959 C 155.804 48.330,155.367 48.360,154.730 48.018 C 154.475 47.881,152.320 46.964,149.941 45.981 C 147.425 44.941,145.684 44.079,145.782 43.922 C 145.878 43.765,145.816 43.733,145.635 43.845 C 145.135 44.154,141.432 42.657,141.796 42.293 C 141.899 42.190,141.776 42.185,141.522 42.282 C 141.268 42.380,140.911 42.341,140.730 42.196 C 140.548 42.051,140.100 41.841,139.733 41.729 C 139.367 41.618,138.467 41.262,137.733 40.938 C 137.000 40.615,136.012 40.197,135.537 40.011 C 135.062 39.824,134.738 39.567,134.817 39.439 C 134.896 39.311,134.796 39.269,134.594 39.347 C 134.266 39.473,133.295 39.128,130.801 38.000 C 130.360 37.801,128.200 36.903,126.000 36.005 C 123.800 35.106,121.618 34.196,121.152 33.982 C 120.013 33.459,116.731 32.100,114.977 31.425 C 114.194 31.124,113.234 30.711,112.844 30.507 C 112.453 30.303,112.052 30.136,111.952 30.135 C 111.852 30.134,111.012 29.787,110.085 29.363 C 109.158 28.940,108.128 28.511,107.796 28.411 C 107.456 28.308,107.270 28.102,107.371 27.940 C 107.479 27.764,107.424 27.728,107.232 27.847 C 106.846 28.086,97.027 24.014,97.223 23.696 C 97.299 23.573,97.204 23.533,97.012 23.607 C 96.821 23.680,95.644 23.310,94.398 22.783 C 93.153 22.257,91.706 21.669,91.184 21.476 C 90.661 21.283,89.641 20.864,88.917 20.544 C 87.046 19.716,86.728 19.582,79.413 16.526 C 75.728 14.987,72.897 13.659,72.987 13.513 C 73.078 13.366,73.012 13.335,72.839 13.443 C 72.557 13.617,70.716 12.986,67.867 11.741 C 67.280 11.485,65.693 10.822,64.339 10.269 C 62.919 9.688,61.950 9.147,62.047 8.990 C 62.148 8.826,62.083 8.800,61.882 8.924 C 61.699 9.037,61.291 9.005,60.975 8.853 C 60.659 8.702,56.740 7.058,52.267 5.200 C 41.764 0.839,42.330 1.078,41.867 0.812 C 41.647 0.686,41.497 0.452,41.533 0.291 C 41.570 0.131,41.242 -0.000,40.800 -0.000 L 40.000 0.000 40.000 133.333 " stroke="none" fill="#787575" fill-rule="evenodd"></path><path id="path4" d="" stroke="none" fill="#aa5555" fill-rule="evenodd"></path></g></svg>