<svg id="svg" version="1.1" width="400" height="328.4072249589491" xmlns="http://www.w3.org/2000/svg" xmlns:xlink="http://www.w3.org/1999/xlink" style="display: block;"><g id="svgg"><path id="path1" d="" stroke="none" fill="#555555" fill-rule="evenodd"></path><path id="path2" d="M50.575 0.586 C 50.575 0.719,51.868 1.500,53.448 2.321 C 55.029 3.141,58.520 4.968,61.207 6.381 C 63.894 7.794,66.030 8.764,65.955 8.538 C 65.879 8.311,65.233 7.897,64.518 7.616 C 63.803 7.336,63.144 7.002,63.054 6.874 C 62.964 6.747,62.373 6.401,61.741 6.106 C 61.108 5.811,59.673 5.074,58.551 4.469 C 57.429 3.864,56.431 3.448,56.334 3.545 C 56.237 3.643,56.158 3.566,56.158 3.374 C 56.158 3.183,55.530 2.777,54.762 2.471 C 53.994 2.165,53.144 1.735,52.874 1.514 C 52.172 0.942,50.575 0.297,50.575 0.586 M66.338 8.841 C 66.338 9.008,67.833 9.907,69.659 10.840 C 71.486 11.773,72.917 12.347,72.840 12.116 C 72.763 11.884,72.287 11.584,71.782 11.449 C 71.278 11.314,70.623 10.986,70.326 10.720 C 70.029 10.454,69.158 9.986,68.391 9.680 C 67.623 9.374,66.995 8.992,66.995 8.831 C 66.995 8.670,66.847 8.539,66.667 8.539 C 66.486 8.539,66.338 8.675,66.338 8.841 M73.296 12.499 C 73.360 12.690,75.109 13.737,77.182 14.825 C 79.256 15.912,82.911 17.832,85.304 19.091 C 87.697 20.350,89.655 21.227,89.655 21.039 C 89.655 20.701,87.417 19.557,86.946 19.654 C 86.810 19.682,86.700 19.573,86.700 19.412 C 86.700 19.251,86.121 18.887,85.414 18.605 C 84.707 18.322,84.031 17.934,83.913 17.742 C 83.795 17.551,83.561 17.480,83.393 17.584 C 83.225 17.688,83.087 17.636,83.087 17.470 C 83.087 17.303,82.385 16.898,81.527 16.571 C 80.669 16.243,79.772 15.780,79.534 15.541 C 79.295 15.303,78.741 15.018,78.302 14.907 C 77.863 14.797,77.504 14.567,77.504 14.395 C 77.504 14.223,77.356 14.174,77.176 14.286 C 76.995 14.397,76.847 14.352,76.847 14.186 C 76.847 14.019,76.182 13.628,75.369 13.318 C 74.557 13.008,73.892 12.618,73.892 12.452 C 73.892 12.287,73.732 12.151,73.536 12.151 C 73.340 12.151,73.232 12.308,73.296 12.499 M89.984 21.334 C 89.984 21.493,90.833 22.052,91.872 22.576 C 92.911 23.100,95.090 24.239,96.716 25.106 C 100.992 27.388,104.394 29.186,108.867 31.528 C 111.034 32.663,113.597 34.026,114.561 34.556 C 115.831 35.254,117.645 35.710,116.557 35.057 C 115.307 34.307,114.165 33.707,112.890 33.130 C 112.032 32.742,111.330 32.301,111.330 32.150 C 111.330 32.000,111.127 31.954,110.880 32.049 C 110.632 32.144,110.347 32.005,110.245 31.741 C 110.144 31.477,109.606 31.161,109.050 31.039 C 108.494 30.917,107.850 30.628,107.620 30.397 C 107.208 29.985,104.287 28.590,103.889 28.615 C 103.777 28.622,103.595 28.488,103.485 28.317 C 103.228 27.919,101.064 26.773,100.739 26.862 C 100.603 26.899,100.493 26.773,100.493 26.582 C 100.493 26.390,100.345 26.325,100.164 26.437 C 99.984 26.548,99.836 26.483,99.836 26.292 C 99.836 26.101,99.635 25.944,99.389 25.944 C 99.143 25.944,98.420 25.590,97.783 25.157 C 97.145 24.725,96.090 24.178,95.438 23.942 C 94.786 23.706,94.253 23.387,94.253 23.232 C 94.253 23.077,94.115 23.035,93.947 23.139 C 93.779 23.243,93.552 23.182,93.442 23.005 C 93.145 22.525,89.984 20.998,89.984 21.334 M116.918 35.380 C 116.912 35.848,120.015 37.511,120.321 37.205 C 120.434 37.092,120.525 37.157,120.525 37.349 C 120.525 37.540,122.003 38.453,123.810 39.377 C 125.616 40.301,127.094 40.930,127.094 40.776 C 127.094 40.621,126.466 40.215,125.698 39.875 C 124.930 39.535,124.107 39.069,123.868 38.840 C 123.629 38.611,123.243 38.424,123.009 38.424 C 122.776 38.424,122.232 38.147,121.801 37.810 C 121.371 37.472,120.205 36.852,119.212 36.431 C 118.218 36.011,117.297 35.511,117.164 35.321 C 117.005 35.093,116.921 35.113,116.918 35.380 M127.608 41.016 C 127.507 41.180,128.051 41.639,128.819 42.037 C 130.498 42.908,136.116 45.868,139.737 47.789 C 141.182 48.555,143.621 49.843,145.156 50.651 C 146.691 51.459,149.351 52.859,151.067 53.762 C 152.783 54.665,156.108 56.406,158.456 57.630 C 160.805 58.854,163.465 60.261,164.368 60.755 C 169.843 63.755,174.384 65.986,174.384 65.677 C 174.384 65.480,173.941 65.164,173.399 64.975 C 172.857 64.787,172.414 64.503,172.414 64.346 C 172.414 64.189,172.211 64.138,171.964 64.233 C 171.716 64.328,171.425 64.175,171.317 63.894 C 171.209 63.613,170.841 63.383,170.498 63.383 C 170.155 63.383,169.523 63.114,169.092 62.786 C 168.263 62.154,165.118 60.626,164.890 60.744 C 164.816 60.783,164.638 60.605,164.496 60.350 C 164.353 60.095,163.637 59.688,162.906 59.447 C 162.175 59.206,161.576 58.875,161.576 58.713 C 161.576 58.551,161.429 58.509,161.248 58.621 C 161.067 58.732,160.920 58.697,160.920 58.542 C 160.920 58.387,160.402 58.073,159.770 57.844 C 159.138 57.616,158.621 57.275,158.621 57.086 C 158.621 56.898,158.411 56.825,158.155 56.923 C 157.899 57.021,157.619 56.918,157.533 56.694 C 157.447 56.469,156.770 56.086,156.028 55.841 C 155.287 55.596,154.680 55.263,154.680 55.100 C 154.680 54.938,154.532 54.897,154.351 55.008 C 154.171 55.120,154.022 55.092,154.021 54.945 C 154.019 54.799,152.800 54.089,151.311 53.366 C 149.822 52.644,148.496 51.905,148.363 51.724 C 148.225 51.537,148.120 51.529,148.117 51.705 C 148.114 51.875,147.927 51.788,147.701 51.511 C 147.475 51.235,146.590 50.751,145.734 50.437 C 144.878 50.123,144.092 49.728,143.988 49.559 C 143.770 49.207,141.505 48.149,141.133 48.225 C 140.998 48.253,140.887 48.156,140.887 48.009 C 140.887 47.862,140.369 47.539,139.737 47.291 C 139.105 47.043,138.588 46.711,138.588 46.553 C 138.588 46.396,138.440 46.358,138.259 46.470 C 138.079 46.581,137.931 46.536,137.931 46.369 C 137.931 46.061,134.691 44.521,134.236 44.613 C 134.101 44.641,133.990 44.525,133.990 44.356 C 133.990 44.187,133.473 43.862,132.841 43.633 C 132.209 43.405,131.691 43.075,131.691 42.901 C 131.691 42.726,131.598 42.677,131.483 42.792 C 131.369 42.906,130.905 42.709,130.454 42.354 C 130.002 41.998,129.441 41.708,129.207 41.708 C 128.974 41.708,128.560 41.485,128.287 41.213 C 128.015 40.940,127.709 40.852,127.608 41.016 M174.713 65.975 C 174.713 66.364,181.147 69.647,181.405 69.388 C 181.614 69.180,179.005 67.835,178.571 67.928 C 178.436 67.957,178.325 67.853,178.325 67.697 C 178.325 67.540,177.660 67.159,176.847 66.848 C 176.034 66.538,175.369 66.148,175.369 65.983 C 175.369 65.817,175.222 65.681,175.041 65.681 C 174.860 65.681,174.713 65.813,174.713 65.975 M181.609 69.761 C 181.609 69.837,182.459 70.328,183.498 70.852 C 184.536 71.376,186.716 72.515,188.342 73.382 C 192.802 75.762,196.146 77.528,200.411 79.757 C 202.533 80.866,205.948 82.656,208.000 83.735 C 210.052 84.813,211.826 85.602,211.941 85.486 C 212.057 85.371,212.151 85.434,212.151 85.626 C 212.151 85.921,214.476 87.356,214.953 87.356 C 215.575 87.356,214.891 86.679,213.957 86.371 C 213.325 86.162,212.808 85.873,212.808 85.727 C 212.808 85.581,211.958 85.122,210.920 84.706 C 209.881 84.289,208.957 83.849,208.867 83.726 C 208.652 83.434,205.785 81.982,205.620 82.081 C 205.550 82.123,205.402 82.034,205.291 81.884 C 205.030 81.526,202.537 80.324,202.217 80.401 C 202.081 80.433,201.970 80.328,201.970 80.167 C 201.970 80.006,201.392 79.643,200.685 79.360 C 199.978 79.077,199.302 78.689,199.184 78.498 C 199.066 78.307,198.832 78.235,198.664 78.339 C 198.496 78.443,198.358 78.394,198.358 78.230 C 198.358 77.931,195.780 76.719,195.320 76.803 C 195.185 76.827,195.074 76.709,195.074 76.540 C 195.074 76.371,194.557 76.046,193.924 75.817 C 193.292 75.589,192.775 75.275,192.775 75.120 C 192.775 74.965,192.627 74.929,192.447 75.041 C 192.266 75.153,192.118 75.100,192.118 74.923 C 192.118 74.747,191.453 74.349,190.640 74.038 C 189.828 73.728,189.163 73.338,189.163 73.171 C 189.163 73.004,189.015 72.959,188.834 73.071 C 188.654 73.182,188.506 73.147,188.506 72.992 C 188.506 72.837,187.952 72.514,187.274 72.275 C 186.597 72.036,185.821 71.647,185.550 71.412 C 184.798 70.757,181.609 69.421,181.609 69.761 M215.507 87.317 C 215.573 87.567,217.247 88.619,219.226 89.655 C 221.205 90.691,224.007 92.169,225.452 92.940 C 231.041 95.920,233.514 97.221,238.588 99.847 C 241.478 101.343,244.134 102.765,244.490 103.008 C 245.247 103.522,245.649 103.570,245.649 103.145 C 245.649 102.979,245.131 102.672,244.499 102.463 C 243.867 102.254,243.350 101.939,243.350 101.761 C 243.350 101.584,243.202 101.530,243.021 101.642 C 242.841 101.754,242.693 101.694,242.693 101.510 C 242.693 101.326,242.102 100.999,241.379 100.782 C 240.657 100.566,240.066 100.256,240.066 100.093 C 240.066 99.930,239.933 99.879,239.772 99.979 C 239.610 100.079,239.398 99.954,239.301 99.701 C 239.204 99.448,238.676 99.142,238.128 99.022 C 237.580 98.902,236.603 98.444,235.957 98.006 C 235.311 97.567,234.675 97.209,234.544 97.209 C 234.414 97.209,233.774 96.847,233.123 96.404 C 232.473 95.962,231.558 95.504,231.090 95.387 C 230.623 95.270,230.081 94.981,229.886 94.746 C 229.690 94.511,228.687 93.981,227.655 93.568 C 226.624 93.155,225.668 92.635,225.532 92.411 C 225.395 92.188,224.843 91.909,224.304 91.790 C 223.765 91.672,223.230 91.422,223.114 91.235 C 222.878 90.853,219.347 89.179,218.966 89.269 C 218.830 89.301,218.719 89.201,218.719 89.048 C 218.719 88.895,218.091 88.493,217.323 88.154 C 216.556 87.816,215.806 87.387,215.656 87.201 C 215.487 86.991,215.431 87.034,215.507 87.317 M246.003 103.340 C 245.976 103.732,247.897 104.829,255.993 109.048 C 258.522 110.366,260.950 111.633,261.389 111.863 C 261.827 112.093,262.308 112.207,262.456 112.115 C 262.604 112.023,262.726 112.103,262.726 112.292 C 262.726 112.579,266.711 114.822,268.719 115.665 C 269.858 116.143,269.265 115.413,268.062 114.856 C 267.385 114.542,266.055 113.853,265.107 113.325 C 264.158 112.796,263.378 112.464,263.373 112.586 C 263.367 112.708,263.227 112.575,263.060 112.291 C 262.894 112.007,262.160 111.577,261.428 111.335 C 260.697 111.094,260.099 110.764,260.099 110.601 C 260.099 110.439,259.961 110.391,259.793 110.495 C 259.625 110.599,259.393 110.532,259.278 110.345 C 259.046 109.970,256.793 108.900,256.404 108.980 C 256.268 109.008,256.158 108.909,256.158 108.759 C 256.158 108.609,255.382 108.130,254.433 107.695 C 253.485 107.260,252.635 106.804,252.544 106.684 C 252.453 106.563,251.751 106.212,250.984 105.905 C 250.217 105.599,249.589 105.228,249.589 105.081 C 249.589 104.935,248.860 104.572,247.968 104.276 C 247.077 103.980,246.276 103.562,246.188 103.347 C 246.070 103.056,246.022 103.054,246.003 103.340 M269.803 116.224 C 270.481 116.867,279.057 121.162,279.259 120.960 C 279.378 120.841,279.475 120.897,279.475 121.083 C 279.475 121.269,280.952 122.186,282.759 123.121 C 284.565 124.055,286.043 124.712,286.043 124.580 C 286.043 124.448,286.227 124.573,286.453 124.856 C 286.679 125.139,289.228 126.594,292.118 128.087 C 295.008 129.581,298.333 131.317,299.507 131.945 C 300.681 132.573,303.194 133.901,305.090 134.897 C 306.987 135.892,309.479 137.211,310.628 137.827 C 317.500 141.512,323.481 144.495,323.481 144.239 C 323.481 144.076,322.927 143.690,322.250 143.381 C 320.412 142.545,317.702 141.100,317.195 140.687 C 316.950 140.486,316.047 140.060,315.189 139.739 C 314.331 139.418,313.629 139.038,313.629 138.894 C 313.629 138.750,313.296 138.527,312.890 138.398 C 312.484 138.269,311.015 137.535,309.627 136.767 C 308.239 135.999,307.019 135.455,306.918 135.556 C 306.816 135.658,306.732 135.579,306.732 135.380 C 306.732 135.181,306.215 134.831,305.583 134.602 C 304.951 134.374,304.433 134.060,304.433 133.905 C 304.433 133.750,304.298 133.707,304.133 133.809 C 303.968 133.911,303.783 133.882,303.723 133.746 C 303.662 133.609,302.282 132.833,300.657 132.020 C 299.031 131.207,297.593 130.394,297.460 130.213 C 297.327 130.033,297.216 130.019,297.214 130.182 C 297.211 130.346,296.950 130.259,296.634 129.990 C 296.318 129.721,295.542 129.300,294.910 129.055 C 294.278 128.810,293.651 128.433,293.518 128.217 C 293.385 128.001,292.868 127.722,292.369 127.597 C 291.870 127.473,291.203 127.138,290.887 126.853 C 290.571 126.568,290.310 126.469,290.307 126.632 C 290.304 126.796,290.193 126.773,290.061 126.583 C 289.844 126.271,289.218 125.924,285.878 124.265 C 285.337 123.996,284.672 123.638,284.401 123.470 C 284.130 123.302,283.095 122.768,282.102 122.283 C 281.108 121.798,280.222 121.299,280.131 121.174 C 279.910 120.867,276.746 119.425,276.437 119.489 C 276.301 119.517,276.190 119.404,276.190 119.237 C 276.190 119.071,275.673 118.764,275.041 118.555 C 274.409 118.346,273.892 118.031,273.892 117.853 C 273.892 117.676,273.754 117.616,273.586 117.720 C 273.418 117.824,273.190 117.763,273.080 117.584 C 272.895 117.285,270.108 115.928,269.679 115.928 C 269.576 115.928,269.631 116.061,269.803 116.224 M323.810 144.484 C 323.810 144.752,325.443 145.651,335.992 151.187 C 338.267 152.381,340.226 153.261,340.344 153.143 C 340.462 153.025,340.558 153.085,340.558 153.277 C 340.558 153.469,341.260 153.992,342.118 154.439 C 342.976 154.887,345.525 156.216,347.783 157.394 C 350.041 158.572,353.588 160.446,355.665 161.560 C 357.742 162.674,359.700 163.668,360.016 163.769 C 360.333 163.869,360.591 164.065,360.591 164.204 C 360.591 164.342,360.333 164.538,360.016 164.639 C 359.700 164.739,357.742 165.733,355.665 166.847 C 353.588 167.961,350.041 169.836,347.783 171.013 C 345.525 172.191,342.976 173.520,342.118 173.968 C 341.260 174.415,340.558 174.938,340.558 175.130 C 340.558 175.322,340.462 175.382,340.344 175.264 C 340.226 175.146,338.267 176.026,335.992 177.220 C 325.443 182.756,323.810 183.655,323.810 183.923 C 323.810 184.247,327.040 182.695,327.665 182.070 C 327.889 181.846,328.591 181.491,329.225 181.282 C 329.859 181.073,330.378 180.765,330.378 180.599 C 330.378 180.432,330.489 180.319,330.624 180.347 C 331.005 180.426,334.140 178.926,334.265 178.605 C 334.325 178.449,334.510 178.405,334.675 178.507 C 334.840 178.609,334.975 178.536,334.975 178.345 C 334.975 178.153,335.168 177.997,335.404 177.997 C 335.639 177.997,336.499 177.574,337.314 177.057 C 338.129 176.540,339.341 175.937,340.006 175.718 C 340.671 175.498,341.215 175.204,341.215 175.065 C 341.215 174.926,341.880 174.537,342.693 174.202 C 343.506 173.867,344.171 173.451,344.171 173.277 C 344.171 173.103,344.270 173.060,344.390 173.181 C 344.511 173.302,344.844 173.197,345.129 172.949 C 345.415 172.700,346.203 172.319,346.880 172.101 C 347.557 171.884,348.112 171.590,348.112 171.448 C 348.112 171.306,348.777 170.935,349.589 170.625 C 350.402 170.315,351.067 169.937,351.067 169.786 C 351.067 169.635,351.805 169.266,352.707 168.966 C 353.610 168.667,354.459 168.240,354.596 168.017 C 354.732 167.795,355.361 167.413,355.993 167.168 C 356.626 166.923,357.389 166.513,357.691 166.257 C 357.992 166.001,358.875 165.604,359.652 165.375 C 360.786 165.040,361.065 164.808,361.065 164.204 C 361.065 163.599,360.786 163.367,359.652 163.032 C 358.875 162.803,357.992 162.406,357.691 162.150 C 357.389 161.894,356.626 161.484,355.993 161.239 C 355.361 160.994,354.732 160.612,354.596 160.390 C 354.459 160.168,353.610 159.741,352.707 159.441 C 351.805 159.141,351.067 158.773,351.067 158.621 C 351.067 158.470,350.402 158.093,349.589 157.782 C 348.777 157.472,348.112 157.102,348.112 156.960 C 348.112 156.817,347.557 156.523,346.880 156.306 C 346.203 156.088,345.415 155.707,345.129 155.459 C 344.844 155.210,344.511 155.106,344.390 155.226 C 344.270 155.347,344.171 155.304,344.171 155.130 C 344.171 154.957,343.506 154.540,342.693 154.205 C 341.880 153.870,341.215 153.482,341.215 153.342 C 341.215 153.203,340.671 152.909,340.006 152.690 C 339.341 152.470,338.129 151.867,337.314 151.350 C 336.499 150.833,335.639 150.411,335.404 150.411 C 335.168 150.411,334.975 150.254,334.975 150.063 C 334.975 149.871,334.840 149.798,334.675 149.901 C 334.510 150.003,334.325 149.958,334.265 149.802 C 334.140 149.481,331.005 147.981,330.624 148.061 C 330.489 148.089,330.378 147.975,330.378 147.809 C 330.378 147.642,329.859 147.335,329.225 147.125 C 328.591 146.916,327.889 146.562,327.665 146.337 C 327.040 145.712,323.810 144.160,323.810 144.484 M319.046 186.172 C 316.699 187.388,313.227 189.206,311.330 190.211 C 309.433 191.216,306.478 192.777,304.762 193.680 C 303.046 194.583,300.681 195.835,299.507 196.463 C 298.333 197.090,295.008 198.826,292.118 200.320 C 289.228 201.814,286.679 203.268,286.453 203.551 C 286.227 203.835,286.043 203.959,286.043 203.827 C 286.043 203.696,284.565 204.352,282.759 205.287 C 280.952 206.221,279.475 207.138,279.475 207.324 C 279.475 207.510,279.378 207.566,279.259 207.447 C 279.140 207.329,277.034 208.279,274.579 209.560 C 270.503 211.685,269.170 212.479,269.679 212.479 C 270.108 212.479,272.895 211.122,273.080 210.823 C 273.190 210.644,273.418 210.583,273.586 210.687 C 273.754 210.791,273.892 210.731,273.892 210.554 C 273.892 210.377,274.409 210.061,275.041 209.852 C 275.673 209.644,276.190 209.337,276.190 209.170 C 276.190 209.003,276.301 208.890,276.437 208.918 C 276.746 208.982,279.910 207.540,280.131 207.233 C 280.276 207.033,281.323 206.480,284.893 204.721 C 285.435 204.454,286.100 204.096,286.371 203.926 C 286.642 203.756,287.529 203.291,288.342 202.894 C 289.154 202.496,289.928 202.015,290.061 201.825 C 290.193 201.634,290.304 201.612,290.307 201.775 C 290.310 201.938,290.571 201.839,290.887 201.554 C 291.203 201.269,291.870 200.934,292.369 200.810 C 292.868 200.685,293.385 200.407,293.518 200.190 C 293.651 199.974,294.278 199.597,294.910 199.352 C 295.542 199.107,296.318 198.686,296.634 198.417 C 296.950 198.148,297.211 198.062,297.214 198.225 C 297.216 198.388,297.327 198.374,297.460 198.194 C 297.593 198.013,299.031 197.200,300.657 196.388 C 302.282 195.575,303.662 194.798,303.723 194.661 C 303.783 194.525,303.968 194.497,304.133 194.599 C 304.298 194.701,304.433 194.657,304.433 194.502 C 304.433 194.347,304.951 194.034,305.583 193.805 C 306.215 193.576,306.732 193.226,306.732 193.027 C 306.732 192.828,306.816 192.749,306.918 192.851 C 307.019 192.953,308.239 192.408,309.627 191.640 C 311.015 190.872,312.484 190.138,312.890 190.010 C 313.296 189.881,313.629 189.657,313.629 189.513 C 313.629 189.370,314.331 188.990,315.189 188.670 C 316.047 188.349,316.970 187.897,317.241 187.663 C 317.512 187.430,318.399 186.924,319.212 186.539 C 320.025 186.154,321.207 185.552,321.839 185.202 C 322.471 184.852,323.136 184.512,323.317 184.446 C 323.498 184.380,323.571 184.244,323.480 184.143 C 323.389 184.042,321.394 184.955,319.046 186.172 M266.163 214.009 C 264.543 214.833,263.071 215.675,262.890 215.881 C 262.709 216.088,262.266 216.307,261.905 216.369 C 261.544 216.432,261.100 216.598,260.920 216.738 C 260.739 216.879,258.522 218.065,255.993 219.374 C 248.096 223.463,245.976 224.671,246.003 225.068 C 246.022 225.353,246.070 225.351,246.188 225.061 C 246.276 224.845,247.077 224.427,247.968 224.131 C 248.860 223.835,249.589 223.473,249.589 223.326 C 249.589 223.180,250.217 222.809,250.984 222.502 C 251.751 222.195,252.453 221.845,252.544 221.724 C 252.635 221.603,253.485 221.148,254.433 220.712 C 255.382 220.277,256.158 219.798,256.158 219.648 C 256.158 219.499,256.268 219.399,256.404 219.427 C 256.793 219.507,259.046 218.437,259.278 218.062 C 259.393 217.876,259.625 217.808,259.793 217.912 C 259.961 218.016,260.099 217.968,260.099 217.806 C 260.099 217.644,260.697 217.313,261.428 217.072 C 262.160 216.831,262.894 216.400,263.060 216.116 C 263.227 215.832,263.367 215.698,263.373 215.820 C 263.378 215.941,264.011 215.700,264.778 215.285 C 265.546 214.870,266.839 214.183,267.652 213.759 C 269.489 212.800,269.433 212.838,269.255 212.660 C 269.174 212.578,267.782 213.186,266.163 214.009 M244.490 225.400 C 244.134 225.642,241.478 227.064,238.588 228.560 C 233.514 231.187,231.041 232.487,225.452 235.467 C 224.007 236.238,221.205 237.716,219.226 238.752 C 217.247 239.789,215.573 240.841,215.507 241.090 C 215.431 241.373,215.487 241.417,215.656 241.206 C 215.806 241.020,216.556 240.592,217.323 240.253 C 218.091 239.915,218.719 239.512,218.719 239.359 C 218.719 239.206,218.830 239.107,218.966 239.139 C 219.347 239.228,222.878 237.555,223.114 237.172 C 223.230 236.985,223.765 236.735,224.304 236.617 C 224.843 236.499,225.395 236.219,225.532 235.996 C 225.668 235.773,226.624 235.252,227.655 234.839 C 228.687 234.426,229.690 233.896,229.886 233.661 C 230.081 233.426,230.623 233.138,231.090 233.020 C 231.558 232.903,232.473 232.445,233.123 232.003 C 233.774 231.561,234.414 231.199,234.544 231.199 C 234.675 231.199,235.311 230.840,235.957 230.401 C 236.603 229.963,237.580 229.506,238.128 229.385 C 238.676 229.265,239.204 228.959,239.301 228.707 C 239.398 228.454,239.610 228.329,239.772 228.428 C 239.933 228.528,240.066 228.477,240.066 228.314 C 240.066 228.152,240.657 227.841,241.379 227.625 C 242.102 227.409,242.693 227.081,242.693 226.897 C 242.693 226.713,242.841 226.654,243.021 226.765 C 243.202 226.877,243.350 226.823,243.350 226.646 C 243.350 226.469,243.867 226.153,244.499 225.944 C 245.131 225.736,245.649 225.429,245.649 225.262 C 245.649 224.837,245.247 224.885,244.490 225.400 M213.491 241.715 C 212.874 242.060,212.248 242.532,212.100 242.764 C 211.953 242.996,211.830 243.068,211.828 242.924 C 211.825 242.780,210.123 243.556,208.046 244.648 C 205.969 245.740,202.533 247.541,200.411 248.650 C 196.146 250.879,192.802 252.645,188.342 255.025 C 186.716 255.893,184.527 257.035,183.478 257.565 C 182.429 258.094,181.632 258.589,181.708 258.664 C 181.894 258.851,184.937 257.529,185.550 256.996 C 185.821 256.760,186.597 256.371,187.274 256.132 C 187.952 255.893,188.506 255.570,188.506 255.415 C 188.506 255.260,188.654 255.225,188.834 255.337 C 189.015 255.448,189.163 255.403,189.163 255.236 C 189.163 255.070,189.828 254.679,190.640 254.369 C 191.453 254.058,192.118 253.660,192.118 253.484 C 192.118 253.307,192.266 253.255,192.447 253.366 C 192.627 253.478,192.775 253.442,192.775 253.287 C 192.775 253.132,193.292 252.818,193.924 252.590 C 194.557 252.361,195.074 252.036,195.074 251.867 C 195.074 251.698,195.185 251.580,195.320 251.605 C 195.780 251.688,198.358 250.477,198.358 250.177 C 198.358 250.013,198.496 249.964,198.664 250.068 C 198.832 250.172,199.066 250.101,199.184 249.909 C 199.302 249.718,199.978 249.330,200.685 249.047 C 201.392 248.764,201.970 248.401,201.970 248.240 C 201.970 248.079,202.081 247.974,202.217 248.007 C 202.537 248.083,205.030 246.881,205.291 246.524 C 205.402 246.373,205.550 246.284,205.620 246.326 C 205.785 246.425,208.652 244.973,208.867 244.681 C 208.957 244.559,209.881 244.118,210.920 243.702 C 211.958 243.286,212.808 242.826,212.808 242.680 C 212.808 242.535,213.325 242.245,213.957 242.036 C 214.589 241.827,215.107 241.520,215.107 241.354 C 215.107 240.925,214.774 241.000,213.491 241.715 M177.997 260.459 C 175.145 261.928,174.095 262.726,175.014 262.726 C 175.209 262.726,175.369 262.590,175.369 262.425 C 175.369 262.259,176.034 261.869,176.847 261.559 C 177.660 261.248,178.325 260.867,178.325 260.711 C 178.325 260.555,178.436 260.451,178.571 260.480 C 179.012 260.574,181.680 259.196,181.394 259.021 C 181.241 258.928,179.713 259.575,177.997 260.459 M171.757 263.740 C 170.402 264.464,167.299 266.106,164.860 267.388 C 162.422 268.670,159.245 270.344,157.800 271.108 C 156.355 271.871,153.621 273.310,151.724 274.304 C 146.816 276.879,142.771 279.009,139.737 280.619 C 136.116 282.540,130.498 285.499,128.819 286.370 C 128.051 286.768,127.507 287.228,127.608 287.392 C 127.709 287.556,128.015 287.467,128.287 287.195 C 128.560 286.922,128.974 286.700,129.207 286.700 C 129.441 286.700,130.002 286.409,130.454 286.053 C 130.905 285.698,131.369 285.501,131.483 285.616 C 131.598 285.730,131.691 285.681,131.691 285.507 C 131.691 285.332,132.209 285.002,132.841 284.774 C 133.473 284.545,133.990 284.220,133.990 284.051 C 133.990 283.882,134.101 283.766,134.236 283.794 C 134.691 283.886,137.931 282.346,137.931 282.039 C 137.931 281.871,138.079 281.826,138.259 281.938 C 138.440 282.049,138.588 282.012,138.588 281.854 C 138.588 281.697,139.105 281.365,139.737 281.117 C 140.369 280.869,140.887 280.545,140.887 280.398 C 140.887 280.252,140.998 280.154,141.133 280.182 C 141.505 280.259,143.770 279.200,143.988 278.849 C 144.092 278.679,144.878 278.284,145.734 277.970 C 146.590 277.656,147.475 277.173,147.701 276.896 C 147.927 276.620,148.114 276.532,148.117 276.702 C 148.120 276.879,148.225 276.870,148.363 276.683 C 148.496 276.502,149.822 275.764,151.311 275.041 C 152.800 274.319,154.019 273.608,154.021 273.462 C 154.022 273.316,154.171 273.287,154.351 273.399 C 154.532 273.511,154.680 273.469,154.680 273.307 C 154.680 273.144,155.287 272.811,156.028 272.566 C 156.770 272.322,157.447 271.938,157.533 271.714 C 157.619 271.489,157.899 271.386,158.155 271.484 C 158.411 271.583,158.621 271.509,158.621 271.321 C 158.621 271.133,159.138 270.791,159.770 270.563 C 160.402 270.334,160.920 270.020,160.920 269.865 C 160.920 269.710,161.067 269.675,161.248 269.787 C 161.429 269.898,161.576 269.857,161.576 269.694 C 161.576 269.532,162.175 269.202,162.906 268.960 C 163.637 268.719,164.366 268.289,164.525 268.005 C 164.684 267.720,164.899 267.525,165.002 267.571 C 165.281 267.695,168.190 266.308,169.092 265.621 C 169.523 265.293,170.155 265.025,170.498 265.025 C 170.841 265.025,171.209 264.794,171.317 264.513 C 171.425 264.232,171.716 264.079,171.964 264.174 C 172.211 264.269,172.414 264.219,172.414 264.061 C 172.414 263.904,172.857 263.621,173.399 263.432 C 173.941 263.243,174.384 262.933,174.384 262.743 C 174.384 262.300,174.602 262.218,171.757 263.740 M123.839 288.997 C 122.140 289.882,120.627 290.799,120.478 291.034 C 120.329 291.269,120.205 291.348,120.202 291.210 C 120.199 291.071,119.458 291.332,118.555 291.790 C 117.652 292.247,116.915 292.804,116.918 293.027 C 116.921 293.294,117.005 293.315,117.164 293.086 C 117.297 292.896,118.218 292.396,119.212 291.976 C 120.205 291.555,121.371 290.935,121.801 290.598 C 122.232 290.260,122.776 289.984,123.009 289.984 C 123.243 289.984,123.629 289.796,123.868 289.567 C 124.107 289.338,124.930 288.872,125.698 288.532 C 126.466 288.192,127.094 287.788,127.094 287.635 C 127.094 287.274,127.375 287.156,123.839 288.997 M114.778 293.717 C 114.056 294.130,111.544 295.474,109.195 296.704 C 104.564 299.129,101.316 300.847,96.716 303.301 C 95.090 304.169,92.911 305.307,91.872 305.831 C 90.833 306.355,89.984 306.914,89.984 307.073 C 89.984 307.409,93.145 305.882,93.442 305.402 C 93.552 305.225,93.779 305.165,93.947 305.269 C 94.115 305.372,94.253 305.331,94.253 305.176 C 94.253 305.021,94.786 304.701,95.438 304.465 C 96.090 304.230,97.145 303.683,97.783 303.250 C 98.420 302.817,99.143 302.463,99.389 302.463 C 99.635 302.463,99.836 302.307,99.836 302.115 C 99.836 301.924,99.984 301.859,100.164 301.970 C 100.345 302.082,100.493 302.017,100.493 301.826 C 100.493 301.634,100.603 301.508,100.739 301.545 C 101.064 301.634,103.228 300.488,103.485 300.090 C 103.595 299.919,103.743 299.800,103.813 299.826 C 104.068 299.917,107.211 298.418,107.620 298.010 C 107.850 297.779,108.494 297.491,109.050 297.369 C 109.606 297.247,110.144 296.930,110.245 296.666 C 110.347 296.402,110.632 296.263,110.880 296.358 C 111.127 296.453,111.330 296.408,111.330 296.257 C 111.330 296.106,112.032 295.657,112.890 295.260 C 115.460 294.070,116.570 293.446,116.577 293.186 C 116.589 292.795,116.185 292.914,114.778 293.717 M86.700 308.568 C 85.164 309.384,81.617 311.247,78.818 312.706 C 73.448 315.506,72.989 315.792,73.323 316.126 C 73.438 316.240,73.759 316.107,74.037 315.829 C 74.315 315.551,75.061 315.153,75.695 314.944 C 76.329 314.734,76.847 314.418,76.847 314.241 C 76.847 314.064,76.995 314.010,77.176 314.122 C 77.356 314.233,77.504 314.184,77.504 314.012 C 77.504 313.841,77.863 313.610,78.302 313.500 C 78.741 313.390,79.295 313.104,79.534 312.866 C 79.772 312.627,80.669 312.164,81.527 311.836 C 82.385 311.509,83.087 311.104,83.087 310.938 C 83.087 310.771,83.225 310.719,83.393 310.823 C 83.561 310.927,83.795 310.856,83.913 310.665 C 84.031 310.474,84.707 310.086,85.414 309.803 C 86.121 309.520,86.700 309.157,86.700 308.996 C 86.700 308.835,86.810 308.726,86.946 308.754 C 87.405 308.848,89.655 307.711,89.655 307.385 C 89.655 306.965,89.897 306.868,86.700 308.568 M69.540 317.626 C 66.690 319.085,65.686 319.869,66.667 319.869 C 66.847 319.869,66.995 319.737,66.995 319.576 C 66.995 319.415,67.611 319.037,68.363 318.736 C 69.116 318.434,70.097 317.901,70.542 317.551 C 70.988 317.200,71.620 316.913,71.946 316.913 C 72.496 316.913,73.119 316.357,72.857 316.100 C 72.794 316.037,71.301 316.724,69.540 317.626 M60.917 322.187 C 58.209 323.616,54.774 325.408,53.284 326.170 C 51.794 326.932,50.575 327.670,50.575 327.810 C 50.575 328.108,52.158 327.477,52.874 326.893 C 53.144 326.673,53.994 326.242,54.762 325.936 C 55.530 325.630,56.158 325.224,56.158 325.033 C 56.158 324.842,56.237 324.765,56.334 324.862 C 56.431 324.959,57.429 324.541,58.551 323.934 C 59.673 323.326,61.145 322.584,61.823 322.284 C 62.500 321.985,63.054 321.638,63.054 321.513 C 63.054 321.389,63.653 321.090,64.384 320.848 C 65.618 320.441,66.240 319.990,65.958 319.707 C 65.893 319.642,63.624 320.758,60.917 322.187 " stroke="none" fill="#aaaaaa" fill-rule="evenodd"></path><path id="path3" d="M361.066 163.904 C 360.945 164.100,361.010 164.425,361.211 164.626 C 361.479 164.895,361.576 164.800,361.576 164.269 C 361.576 163.476,361.406 163.354,361.066 163.904 " stroke="none" fill="#c7c7c7" fill-rule="evenodd"></path><path id="path4" d="M49.261 164.204 L 49.261 328.407 50.072 328.407 C 50.597 328.407,50.826 328.259,50.721 327.985 C 50.618 327.717,51.547 327.059,53.276 326.176 C 54.771 325.412,57.545 323.965,59.442 322.961 C 61.338 321.956,64.702 320.176,66.916 319.006 C 69.201 317.799,71.119 316.980,71.350 317.113 C 71.574 317.241,71.646 317.224,71.510 317.074 C 71.230 316.765,71.911 316.357,78.325 312.991 C 85.216 309.375,88.283 307.753,90.590 306.502 C 91.736 305.881,92.880 305.452,93.131 305.548 C 93.382 305.645,93.553 305.572,93.510 305.388 C 93.430 305.044,94.415 304.478,102.135 300.428 C 104.573 299.148,107.603 297.551,108.867 296.879 C 111.351 295.558,115.589 293.335,122.332 289.819 C 124.680 288.595,127.340 287.189,128.243 286.696 C 134.428 283.319,138.302 281.433,138.633 281.637 C 138.850 281.771,138.930 281.733,138.817 281.551 C 138.707 281.372,139.460 280.776,140.491 280.226 C 146.605 276.962,148.195 276.203,148.514 276.401 C 148.710 276.521,148.781 276.476,148.672 276.300 C 148.563 276.123,150.129 275.120,152.151 274.070 C 154.174 273.020,156.864 271.612,158.128 270.941 C 166.960 266.254,168.831 265.333,169.133 265.519 C 169.321 265.635,169.434 265.583,169.384 265.402 C 169.292 265.067,169.789 264.777,176.355 261.331 C 178.432 260.241,181.357 258.705,182.855 257.917 C 185.781 256.380,186.043 256.282,185.683 256.865 C 185.537 257.102,185.593 257.155,185.833 257.007 C 186.045 256.876,186.148 256.656,186.063 256.519 C 185.832 256.145,192.394 252.802,192.830 253.072 C 193.043 253.203,193.116 253.159,192.998 252.969 C 192.731 252.537,199.223 249.148,199.724 249.458 C 199.948 249.596,200.012 249.547,199.882 249.336 C 199.750 249.121,200.866 248.371,202.705 247.437 C 204.378 246.588,206.782 245.340,208.046 244.663 C 210.553 243.321,215.235 240.849,219.869 238.421 C 221.494 237.569,223.785 236.355,224.959 235.724 C 226.133 235.092,229.015 233.573,231.363 232.347 C 233.711 231.121,235.815 229.976,236.039 229.801 C 236.262 229.626,236.676 229.572,236.959 229.680 C 237.242 229.789,237.386 229.738,237.280 229.566 C 237.039 229.177,239.704 227.856,240.161 228.138 C 240.345 228.251,240.406 228.200,240.297 228.023 C 239.964 227.484,243.057 226.142,243.431 226.663 C 243.664 226.987,243.698 226.960,243.568 226.553 C 243.370 225.928,246.432 224.151,247.075 224.519 C 247.284 224.638,247.344 224.613,247.208 224.464 C 246.932 224.160,247.793 223.638,253.396 220.716 C 255.525 219.605,257.468 218.774,257.715 218.868 C 257.961 218.963,258.076 218.900,257.970 218.729 C 257.717 218.320,259.682 217.312,260.159 217.607 C 260.362 217.733,260.438 217.690,260.328 217.512 C 260.218 217.334,261.636 216.403,263.480 215.443 C 269.009 212.564,271.698 211.125,272.833 210.439 C 273.424 210.081,274.124 209.871,274.389 209.973 C 274.653 210.074,274.834 210.012,274.791 209.835 C 274.682 209.387,284.027 204.531,284.470 204.805 C 284.669 204.927,284.743 204.885,284.635 204.711 C 284.373 204.288,290.854 200.875,291.344 201.178 C 291.573 201.320,291.639 201.273,291.508 201.060 C 291.233 200.616,297.085 197.586,297.601 197.905 C 297.802 198.029,297.876 197.984,297.765 197.804 C 297.654 197.625,298.259 197.113,299.110 196.668 C 301.947 195.183,308.506 191.717,311.252 190.250 C 312.745 189.453,314.135 188.905,314.341 189.033 C 314.550 189.161,314.626 189.120,314.514 188.938 C 314.236 188.488,318.373 186.384,318.898 186.709 C 319.163 186.872,319.231 186.833,319.087 186.599 C 318.807 186.145,321.378 184.772,321.901 185.096 C 322.103 185.221,322.182 185.182,322.076 185.010 C 321.969 184.838,324.348 183.387,327.361 181.786 C 330.375 180.185,334.062 178.227,335.555 177.434 C 337.047 176.642,338.437 176.097,338.643 176.225 C 338.849 176.352,338.932 176.317,338.827 176.147 C 338.585 175.755,345.042 172.305,345.494 172.584 C 345.678 172.698,345.788 172.642,345.739 172.460 C 345.689 172.278,347.053 171.398,348.768 170.504 C 350.484 169.609,353.588 167.965,355.665 166.850 C 357.742 165.734,359.700 164.739,360.016 164.639 C 360.333 164.538,360.591 164.342,360.591 164.204 C 360.591 164.065,360.333 163.869,360.016 163.769 C 359.700 163.668,357.742 162.673,355.665 161.557 C 353.588 160.442,350.484 158.798,348.768 157.904 C 347.053 157.010,345.689 156.129,345.739 155.947 C 345.788 155.765,345.678 155.709,345.494 155.823 C 345.042 156.103,338.585 152.652,338.827 152.260 C 338.932 152.090,338.849 152.055,338.643 152.183 C 338.437 152.310,337.047 151.766,335.555 150.973 C 334.062 150.180,330.375 148.222,327.361 146.621 C 324.348 145.020,321.969 143.569,322.076 143.397 C 322.182 143.225,322.103 143.186,321.901 143.311 C 321.378 143.635,318.807 142.262,319.087 141.809 C 319.231 141.575,319.163 141.535,318.898 141.699 C 318.373 142.023,314.236 139.920,314.514 139.469 C 314.626 139.288,314.550 139.246,314.341 139.375 C 314.135 139.502,312.745 138.954,311.252 138.157 C 308.506 136.691,301.947 133.224,299.110 131.739 C 298.259 131.294,297.654 130.783,297.765 130.603 C 297.876 130.423,297.802 130.378,297.601 130.502 C 297.085 130.821,291.233 127.791,291.508 127.347 C 291.639 127.134,291.573 127.087,291.344 127.229 C 290.854 127.532,284.373 124.119,284.635 123.696 C 284.743 123.522,284.669 123.480,284.470 123.602 C 284.027 123.876,274.682 119.020,274.791 118.572 C 274.834 118.395,274.653 118.333,274.389 118.435 C 274.124 118.536,273.424 118.326,272.833 117.968 C 271.698 117.282,269.009 115.843,263.480 112.964 C 261.636 112.004,260.218 111.073,260.328 110.895 C 260.438 110.717,260.362 110.675,260.159 110.800 C 259.682 111.095,257.717 110.087,257.970 109.678 C 258.076 109.507,257.961 109.444,257.715 109.539 C 257.468 109.633,255.525 108.802,253.396 107.691 C 247.793 104.769,246.932 104.248,247.208 103.944 C 247.344 103.794,247.284 103.769,247.075 103.889 C 246.432 104.256,243.370 102.479,243.568 101.854 C 243.698 101.448,243.664 101.420,243.431 101.744 C 243.057 102.265,239.964 100.923,240.297 100.384 C 240.406 100.207,240.345 100.156,240.161 100.269 C 239.704 100.552,237.039 99.231,237.280 98.841 C 237.386 98.669,237.242 98.618,236.959 98.727 C 236.676 98.835,236.262 98.781,236.039 98.606 C 235.815 98.432,233.711 97.286,231.363 96.060 C 229.015 94.835,226.133 93.315,224.959 92.684 C 223.785 92.052,221.494 90.838,219.869 89.986 C 215.235 87.558,210.553 85.086,208.046 83.744 C 206.782 83.067,204.378 81.819,202.705 80.970 C 200.866 80.037,199.750 79.286,199.882 79.071 C 200.012 78.861,199.948 78.811,199.724 78.949 C 199.223 79.259,192.731 75.870,192.998 75.438 C 193.116 75.248,193.043 75.204,192.830 75.336 C 192.394 75.605,185.832 72.262,186.063 71.888 C 186.148 71.751,186.045 71.531,185.833 71.401 C 185.593 71.252,185.537 71.305,185.683 71.542 C 186.043 72.125,185.781 72.028,182.855 70.490 C 181.357 69.702,178.432 68.166,176.355 67.076 C 169.789 63.631,169.292 63.340,169.384 63.005 C 169.434 62.824,169.321 62.772,169.133 62.888 C 168.831 63.075,166.960 62.153,158.128 57.466 C 156.864 56.795,154.174 55.387,152.151 54.337 C 150.129 53.287,148.563 52.284,148.672 52.108 C 148.781 51.931,148.710 51.886,148.514 52.007 C 148.195 52.204,146.605 51.446,140.491 48.181 C 139.460 47.631,138.707 47.035,138.817 46.856 C 138.930 46.674,138.850 46.636,138.633 46.770 C 138.302 46.974,134.428 45.088,128.243 41.711 C 127.340 41.218,124.680 39.813,122.332 38.588 C 115.589 35.072,111.351 32.850,108.867 31.529 C 107.603 30.856,104.573 29.259,102.135 27.980 C 94.415 23.929,93.430 23.363,93.510 23.019 C 93.553 22.835,93.382 22.763,93.131 22.859 C 92.880 22.956,91.736 22.526,90.590 21.905 C 88.283 20.654,85.216 19.032,78.325 15.416 C 71.911 12.050,71.230 11.642,71.510 11.333 C 71.646 11.183,71.574 11.166,71.350 11.295 C 71.119 11.427,69.201 10.608,66.916 9.401 C 64.702 8.231,61.338 6.451,59.442 5.447 C 57.545 4.442,54.771 2.995,53.276 2.232 C 51.547 1.349,50.618 0.690,50.721 0.422 C 50.826 0.149,50.597 0.000,50.072 0.000 L 49.261 0.000 49.261 164.204 " stroke="none" fill="#787575" fill-rule="evenodd"></path><path id="path0" d="" stroke="none" fill="#000000" fill-rule="evenodd"></path><path id="path1" d="" stroke="none" fill="#555555" fill-rule="evenodd"></path><path id="path2" d="M50.575 0.586 C 50.575 0.719,51.868 1.500,53.448 2.321 C 55.029 3.141,58.520 4.968,61.207 6.381 C 63.894 7.794,66.030 8.764,65.955 8.538 C 65.879 8.311,65.233 7.897,64.518 7.616 C 63.803 7.336,63.144 7.002,63.054 6.874 C 62.964 6.747,62.373 6.401,61.741 6.106 C 61.108 5.811,59.673 5.074,58.551 4.469 C 57.429 3.864,56.431 3.448,56.334 3.545 C 56.237 3.643,56.158 3.566,56.158 3.374 C 56.158 3.183,55.530 2.777,54.762 2.471 C 53.994 2.165,53.144 1.735,52.874 1.514 C 52.172 0.942,50.575 0.297,50.575 0.586 M66.338 8.841 C 66.338 9.008,67.833 9.907,69.659 10.840 C 71.486 11.773,72.917 12.347,72.840 12.116 C 72.763 11.884,72.287 11.584,71.782 11.449 C 71.278 11.314,70.623 10.986,70.326 10.720 C 70.029 10.454,69.158 9.986,68.391 9.680 C 67.623 9.374,66.995 8.992,66.995 8.831 C 66.995 8.670,66.847 8.539,66.667 8.539 C 66.486 8.539,66.338 8.675,66.338 8.841 M73.296 12.499 C 73.360 12.690,75.109 13.737,77.182 14.825 C 79.256 15.912,82.911 17.832,85.304 19.091 C 87.697 20.350,89.655 21.227,89.655 21.039 C 89.655 20.701,87.417 19.557,86.946 19.654 C 86.810 19.682,86.700 19.573,86.700 19.412 C 86.700 19.251,86.121 18.887,85.414 18.605 C 84.707 18.322,84.031 17.934,83.913 17.742 C 83.795 17.551,83.561 17.480,83.393 17.584 C 83.225 17.688,83.087 17.636,83.087 17.470 C 83.087 17.303,82.385 16.898,81.527 16.571 C 80.669 16.243,79.772 15.780,79.534 15.541 C 79.295 15.303,78.741 15.018,78.302 14.907 C 77.863 14.797,77.504 14.567,77.504 14.395 C 77.504 14.223,77.356 14.174,77.176 14.286 C 76.995 14.397,76.847 14.352,76.847 14.186 C 76.847 14.019,76.182 13.628,75.369 13.318 C 74.557 13.008,73.892 12.618,73.892 12.452 C 73.892 12.287,73.732 12.151,73.536 12.151 C 73.340 12.151,73.232 12.308,73.296 12.499 M89.984 21.334 C 89.984 21.493,90.833 22.052,91.872 22.576 C 92.911 23.100,95.090 24.239,96.716 25.106 C 100.992 27.388,104.394 29.186,108.867 31.528 C 111.034 32.663,113.597 34.026,114.561 34.556 C 115.831 35.254,117.645 35.710,116.557 35.057 C 115.307 34.307,114.165 33.707,112.890 33.130 C 112.032 32.742,111.330 32.301,111.330 32.150 C 111.330 32.000,111.127 31.954,110.880 32.049 C 110.632 32.144,110.347 32.005,110.245 31.741 C 110.144 31.477,109.606 31.161,109.050 31.039 C 108.494 30.917,107.850 30.628,107.620 30.397 C 107.208 29.985,104.287 28.590,103.889 28.615 C 103.777 28.622,103.595 28.488,103.485 28.317 C 103.228 27.919,101.064 26.773,100.739 26.862 C 100.603 26.899,100.493 26.773,100.493 26.582 C 100.493 26.390,100.345 26.325,100.164 26.437 C 99.984 26.548,99.836 26.483,99.836 26.292 C 99.836 26.101,99.635 25.944,99.389 25.944 C 99.143 25.944,98.420 25.590,97.783 25.157 C 97.145 24.725,96.090 24.178,95.438 23.942 C 94.786 23.706,94.253 23.387,94.253 23.232 C 94.253 23.077,94.115 23.035,93.947 23.139 C 93.779 23.243,93.552 23.182,93.442 23.005 C 93.145 22.525,89.984 20.998,89.984 21.334 M116.918 35.380 C 116.912 35.848,120.015 37.511,120.321 37.205 C 120.434 37.092,120.525 37.157,120.525 37.349 C 120.525 37.540,122.003 38.453,123.810 39.377 C 125.616 40.301,127.094 40.930,127.094 40.776 C 127.094 40.621,126.466 40.215,125.698 39.875 C 124.930 39.535,124.107 39.069,123.868 38.840 C 123.629 38.611,123.243 38.424,123.009 38.424 C 122.776 38.424,122.232 38.147,121.801 37.810 C 121.371 37.472,120.205 36.852,119.212 36.431 C 118.218 36.011,117.297 35.511,117.164 35.321 C 117.005 35.093,116.921 35.113,116.918 35.380 M127.608 41.016 C 127.507 41.180,128.051 41.639,128.819 42.037 C 130.498 42.908,136.116 45.868,139.737 47.789 C 141.182 48.555,143.621 49.843,145.156 50.651 C 146.691 51.459,149.351 52.859,151.067 53.762 C 152.783 54.665,156.108 56.406,158.456 57.630 C 160.805 58.854,163.465 60.261,164.368 60.755 C 169.843 63.755,174.384 65.986,174.384 65.677 C 174.384 65.480,173.941 65.164,173.399 64.975 C 172.857 64.787,172.414 64.503,172.414 64.346 C 172.414 64.189,172.211 64.138,171.964 64.233 C 171.716 64.328,171.425 64.175,171.317 63.894 C 171.209 63.613,170.841 63.383,170.498 63.383 C 170.155 63.383,169.523 63.114,169.092 62.786 C 168.263 62.154,165.118 60.626,164.890 60.744 C 164.816 60.783,164.638 60.605,164.496 60.350 C 164.353 60.095,163.637 59.688,162.906 59.447 C 162.175 59.206,161.576 58.875,161.576 58.713 C 161.576 58.551,161.429 58.509,161.248 58.621 C 161.067 58.732,160.920 58.697,160.920 58.542 C 160.920 58.387,160.402 58.073,159.770 57.844 C 159.138 57.616,158.621 57.275,158.621 57.086 C 158.621 56.898,158.411 56.825,158.155 56.923 C 157.899 57.021,157.619 56.918,157.533 56.694 C 157.447 56.469,156.770 56.086,156.028 55.841 C 155.287 55.596,154.680 55.263,154.680 55.100 C 154.680 54.938,154.532 54.897,154.351 55.008 C 154.171 55.120,154.022 55.092,154.021 54.945 C 154.019 54.799,152.800 54.089,151.311 53.366 C 149.822 52.644,148.496 51.905,148.363 51.724 C 148.225 51.537,148.120 51.529,148.117 51.705 C 148.114 51.875,147.927 51.788,147.701 51.511 C 147.475 51.235,146.590 50.751,145.734 50.437 C 144.878 50.123,144.092 49.728,143.988 49.559 C 143.770 49.207,141.505 48.149,141.133 48.225 C 140.998 48.253,140.887 48.156,140.887 48.009 C 140.887 47.862,140.369 47.539,139.737 47.291 C 139.105 47.043,138.588 46.711,138.588 46.553 C 138.588 46.396,138.440 46.358,138.259 46.470 C 138.079 46.581,137.931 46.536,137.931 46.369 C 137.931 46.061,134.691 44.521,134.236 44.613 C 134.101 44.641,133.990 44.525,133.990 44.356 C 133.990 44.187,133.473 43.862,132.841 43.633 C 132.209 43.405,131.691 43.075,131.691 42.901 C 131.691 42.726,131.598 42.677,131.483 42.792 C 131.369 42.906,130.905 42.709,130.454 42.354 C 130.002 41.998,129.441 41.708,129.207 41.708 C 128.974 41.708,128.560 41.485,128.287 41.213 C 128.015 40.940,127.709 40.852,127.608 41.016 M174.713 65.975 C 174.713 66.364,181.147 69.647,181.405 69.388 C 181.614 69.180,179.005 67.835,178.571 67.928 C 178.436 67.957,178.325 67.853,178.325 67.697 C 178.325 67.540,177.660 67.159,176.847 66.848 C 176.034 66.538,175.369 66.148,175.369 65.983 C 175.369 65.817,175.222 65.681,175.041 65.681 C 174.860 65.681,174.713 65.813,174.713 65.975 M181.609 69.761 C 181.609 69.837,182.459 70.328,183.498 70.852 C 184.536 71.376,186.716 72.515,188.342 73.382 C 192.802 75.762,196.146 77.528,200.411 79.757 C 202.533 80.866,205.948 82.656,208.000 83.735 C 210.052 84.813,211.826 85.602,211.941 85.486 C 212.057 85.371,212.151 85.434,212.151 85.626 C 212.151 85.921,214.476 87.356,214.953 87.356 C 215.575 87.356,214.891 86.679,213.957 86.371 C 213.325 86.162,212.808 85.873,212.808 85.727 C 212.808 85.581,211.958 85.122,210.920 84.706 C 209.881 84.289,208.957 83.849,208.867 83.726 C 208.652 83.434,205.785 81.982,205.620 82.081 C 205.550 82.123,205.402 82.034,205.291 81.884 C 205.030 81.526,202.537 80.324,202.217 80.401 C 202.081 80.433,201.970 80.328,201.970 80.167 C 201.970 80.006,201.392 79.643,200.685 79.360 C 199.978 79.077,199.302 78.689,199.184 78.498 C 199.066 78.307,198.832 78.235,198.664 78.339 C 198.496 78.443,198.358 78.394,198.358 78.230 C 198.358 77.931,195.780 76.719,195.320 76.803 C 195.185 76.827,195.074 76.709,195.074 76.540 C 195.074 76.371,194.557 76.046,193.924 75.817 C 193.292 75.589,192.775 75.275,192.775 75.120 C 192.775 74.965,192.627 74.929,192.447 75.041 C 192.266 75.153,192.118 75.100,192.118 74.923 C 192.118 74.747,191.453 74.349,190.640 74.038 C 189.828 73.728,189.163 73.338,189.163 73.171 C 189.163 73.004,189.015 72.959,188.834 73.071 C 188.654 73.182,188.506 73.147,188.506 72.992 C 188.506 72.837,187.952 72.514,187.274 72.275 C 186.597 72.036,185.821 71.647,185.550 71.412 C 184.798 70.757,181.609 69.421,181.609 69.761 M215.507 87.317 C 215.573 87.567,217.247 88.619,219.226 89.655 C 221.205 90.691,224.007 92.169,225.452 92.940 C 231.041 95.920,233.514 97.221,238.588 99.847 C 241.478 101.343,244.134 102.765,244.490 103.008 C 245.247 103.522,245.649 103.570,245.649 103.145 C 245.649 102.979,245.131 102.672,244.499 102.463 C 243.867 102.254,243.350 101.939,243.350 101.761 C 243.350 101.584,243.202 101.530,243.021 101.642 C 242.841 101.754,242.693 101.694,242.693 101.510 C 242.693 101.326,242.102 100.999,241.379 100.782 C 240.657 100.566,240.066 100.256,240.066 100.093 C 240.066 99.930,239.933 99.879,239.772 99.979 C 239.610 100.079,239.398 99.954,239.301 99.701 C 239.204 99.448,238.676 99.142,238.128 99.022 C 237.580 98.902,236.603 98.444,235.957 98.006 C 235.311 97.567,234.675 97.209,234.544 97.209 C 234.414 97.209,233.774 96.847,233.123 96.404 C 232.473 95.962,231.558 95.504,231.090 95.387 C 230.623 95.270,230.081 94.981,229.886 94.746 C 229.690 94.511,228.687 93.981,227.655 93.568 C 226.624 93.155,225.668 92.635,225.532 92.411 C 225.395 92.188,224.843 91.909,224.304 91.790 C 223.765 91.672,223.230 91.422,223.114 91.235 C 222.878 90.853,219.347 89.179,218.966 89.269 C 218.830 89.301,218.719 89.201,218.719 89.048 C 218.719 88.895,218.091 88.493,217.323 88.154 C 216.556 87.816,215.806 87.387,215.656 87.201 C 215.487 86.991,215.431 87.034,215.507 87.317 M246.003 103.340 C 245.976 103.732,247.897 104.829,255.993 109.048 C 258.522 110.366,260.950 111.633,261.389 111.863 C 261.827 112.093,262.308 112.207,262.456 112.115 C 262.604 112.023,262.726 112.103,262.726 112.292 C 262.726 112.579,266.711 114.822,268.719 115.665 C 269.858 116.143,269.265 115.413,268.062 114.856 C 267.385 114.542,266.055 113.853,265.107 113.325 C 264.158 112.796,263.378 112.464,263.373 112.586 C 263.367 112.708,263.227 112.575,263.060 112.291 C 262.894 112.007,262.160 111.577,261.428 111.335 C 260.697 111.094,260.099 110.764,260.099 110.601 C 260.099 110.439,259.961 110.391,259.793 110.495 C 259.625 110.599,259.393 110.532,259.278 110.345 C 259.046 109.970,256.793 108.900,256.404 108.980 C 256.268 109.008,256.158 108.909,256.158 108.759 C 256.158 108.609,255.382 108.130,254.433 107.695 C 253.485 107.260,252.635 106.804,252.544 106.684 C 252.453 106.563,251.751 106.212,250.984 105.905 C 250.217 105.599,249.589 105.228,249.589 105.081 C 249.589 104.935,248.860 104.572,247.968 104.276 C 247.077 103.980,246.276 103.562,246.188 103.347 C 246.070 103.056,246.022 103.054,246.003 103.340 M269.803 116.224 C 270.481 116.867,279.057 121.162,279.259 120.960 C 279.378 120.841,279.475 120.897,279.475 121.083 C 279.475 121.269,280.952 122.186,282.759 123.121 C 284.565 124.055,286.043 124.712,286.043 124.580 C 286.043 124.448,286.227 124.573,286.453 124.856 C 286.679 125.139,289.228 126.594,292.118 128.087 C 295.008 129.581,298.333 131.317,299.507 131.945 C 300.681 132.573,303.194 133.901,305.090 134.897 C 306.987 135.892,309.479 137.211,310.628 137.827 C 317.500 141.512,323.481 144.495,323.481 144.239 C 323.481 144.076,322.927 143.690,322.250 143.381 C 320.412 142.545,317.702 141.100,317.195 140.687 C 316.950 140.486,316.047 140.060,315.189 139.739 C 314.331 139.418,313.629 139.038,313.629 138.894 C 313.629 138.750,313.296 138.527,312.890 138.398 C 312.484 138.269,311.015 137.535,309.627 136.767 C 308.239 135.999,307.019 135.455,306.918 135.556 C 306.816 135.658,306.732 135.579,306.732 135.380 C 306.732 135.181,306.215 134.831,305.583 134.602 C 304.951 134.374,304.433 134.060,304.433 133.905 C 304.433 133.750,304.298 133.707,304.133 133.809 C 303.968 133.911,303.783 133.882,303.723 133.746 C 303.662 133.609,302.282 132.833,300.657 132.020 C 299.031 131.207,297.593 130.394,297.460 130.213 C 297.327 130.033,297.216 130.019,297.214 130.182 C 297.211 130.346,296.950 130.259,296.634 129.990 C 296.318 129.721,295.542 129.300,294.910 129.055 C 294.278 128.810,293.651 128.433,293.518 128.217 C 293.385 128.001,292.868 127.722,292.369 127.597 C 291.870 127.473,291.203 127.138,290.887 126.853 C 290.571 126.568,290.310 126.469,290.307 126.632 C 290.304 126.796,290.193 126.773,290.061 126.583 C 289.844 126.271,289.218 125.924,285.878 124.265 C 285.337 123.996,284.672 123.638,284.401 123.470 C 284.130 123.302,283.095 122.768,282.102 122.283 C 281.108 121.798,280.222 121.299,280.131 121.174 C 279.910 120.867,276.746 119.425,276.437 119.489 C 276.301 119.517,276.190 119.404,276.190 119.237 C 276.190 119.071,275.673 118.764,275.041 118.555 C 274.409 118.346,273.892 118.031,273.892 117.853 C 273.892 117.676,273.754 117.616,273.586 117.720 C 273.418 117.824,273.190 117.763,273.080 117.584 C 272.895 117.285,270.108 115.928,269.679 115.928 C 269.576 115.928,269.631 116.061,269.803 116.224 M323.810 144.484 C 323.810 144.752,325.443 145.651,335.992 151.187 C 338.267 152.381,340.226 153.261,340.344 153.143 C 340.462 153.025,340.558 153.085,340.558 153.277 C 340.558 153.469,341.260 153.992,342.118 154.439 C 342.976 154.887,345.525 156.216,347.783 157.394 C 350.041 158.572,353.588 160.446,355.665 161.560 C 357.742 162.674,359.700 163.668,360.016 163.769 C 360.333 163.869,360.591 164.065,360.591 164.204 C 360.591 164.342,360.333 164.538,360.016 164.639 C 359.700 164.739,357.742 165.733,355.665 166.847 C 353.588 167.961,350.041 169.836,347.783 171.013 C 345.525 172.191,342.976 173.520,342.118 173.968 C 341.260 174.415,340.558 174.938,340.558 175.130 C 340.558 175.322,340.462 175.382,340.344 175.264 C 340.226 175.146,338.267 176.026,335.992 177.220 C 325.443 182.756,323.810 183.655,323.810 183.923 C 323.810 184.247,327.040 182.695,327.665 182.070 C 327.889 181.846,328.591 181.491,329.225 181.282 C 329.859 181.073,330.378 180.765,330.378 180.599 C 330.378 180.432,330.489 180.319,330.624 180.347 C 331.005 180.426,334.140 178.926,334.265 178.605 C 334.325 178.449,334.510 178.405,334.675 178.507 C 334.840 178.609,334.975 178.536,334.975 178.345 C 334.975 178.153,335.168 177.997,335.404 177.997 C 335.639 177.997,336.499 177.574,337.314 177.057 C 338.129 176.540,339.341 175.937,340.006 175.718 C 340.671 175.498,341.215 175.204,341.215 175.065 C 341.215 174.926,341.880 174.537,342.693 174.202 C 343.506 173.867,344.171 173.451,344.171 173.277 C 344.171 173.103,344.270 173.060,344.390 173.181 C 344.511 173.302,344.844 173.197,345.129 172.949 C 345.415 172.700,346.203 172.319,346.880 172.101 C 347.557 171.884,348.112 171.590,348.112 171.448 C 348.112 171.306,348.777 170.935,349.589 170.625 C 350.402 170.315,351.067 169.937,351.067 169.786 C 351.067 169.635,351.805 169.266,352.707 168.966 C 353.610 168.667,354.459 168.240,354.596 168.017 C 354.732 167.795,355.361 167.413,355.993 167.168 C 356.626 166.923,357.389 166.513,357.691 166.257 C 357.992 166.001,358.875 165.604,359.652 165.375 C 360.786 165.040,361.065 164.808,361.065 164.204 C 361.065 163.599,360.786 163.367,359.652 163.032 C 358.875 162.803,357.992 162.406,357.691 162.150 C 357.389 161.894,356.626 161.484,355.993 161.239 C 355.361 160.994,354.732 160.612,354.596 160.390 C 354.459 160.168,353.610 159.741,352.707 159.441 C 351.805 159.141,351.067 158.773,351.067 158.621 C 351.067 158.470,350.402 158.093,349.589 157.782 C 348.777 157.472,348.112 157.102,348.112 156.960 C 348.112 156.817,347.557 156.523,346.880 156.306 C 346.203 156.088,345.415 155.707,345.129 155.459 C 344.844 155.210,344.511 155.106,344.390 155.226 C 344.270 155.347,344.171 155.304,344.171 155.130 C 344.171 154.957,343.506 154.540,342.693 154.205 C 341.880 153.870,341.215 153.482,341.215 153.342 C 341.215 153.203,340.671 152.909,340.006 152.690 C 339.341 152.470,338.129 151.867,337.314 151.350 C 336.499 150.833,335.639 150.411,335.404 150.411 C 335.168 150.411,334.975 150.254,334.975 150.063 C 334.975 149.871,334.840 149.798,334.675 149.901 C 334.510 150.003,334.325 149.958,334.265 149.802 C 334.140 149.481,331.005 147.981,330.624 148.061 C 330.489 148.089,330.378 147.975,330.378 147.809 C 330.378 147.642,329.859 147.335,329.225 147.125 C 328.591 146.916,327.889 146.562,327.665 146.337 C 327.040 145.712,323.810 144.160,323.810 144.484 M319.046 186.172 C 316.699 187.388,313.227 189.206,311.330 190.211 C 309.433 191.216,306.478 192.777,304.762 193.680 C 303.046 194.583,300.681 195.835,299.507 196.463 C 298.333 197.090,295.008 198.826,292.118 200.320 C 289.228 201.814,286.679 203.268,286.453 203.551 C 286.227 203.835,286.043 203.959,286.043 203.827 C 286.043 203.696,284.565 204.352,282.759 205.287 C 280.952 206.221,279.475 207.138,279.475 207.324 C 279.475 207.510,279.378 207.566,279.259 207.447 C 279.140 207.329,277.034 208.279,274.579 209.560 C 270.503 211.685,269.170 212.479,269.679 212.479 C 270.108 212.479,272.895 211.122,273.080 210.823 C 273.190 210.644,273.418 210.583,273.586 210.687 C 273.754 210.791,273.892 210.731,273.892 210.554 C 273.892 210.377,274.409 210.061,275.041 209.852 C 275.673 209.644,276.190 209.337,276.190 209.170 C 276.190 209.003,276.301 208.890,276.437 208.918 C 276.746 208.982,279.910 207.540,280.131 207.233 C 280.276 207.033,281.323 206.480,284.893 204.721 C 285.435 204.454,286.100 204.096,286.371 203.926 C 286.642 203.756,287.529 203.291,288.342 202.894 C 289.154 202.496,289.928 202.015,290.061 201.825 C 290.193 201.634,290.304 201.612,290.307 201.775 C 290.310 201.938,290.571 201.839,290.887 201.554 C 291.203 201.269,291.870 200.934,292.369 200.810 C 292.868 200.685,293.385 200.407,293.518 200.190 C 293.651 199.974,294.278 199.597,294.910 199.352 C 295.542 199.107,296.318 198.686,296.634 198.417 C 296.950 198.148,297.211 198.062,297.214 198.225 C 297.216 198.388,297.327 198.374,297.460 198.194 C 297.593 198.013,299.031 197.200,300.657 196.388 C 302.282 195.575,303.662 194.798,303.723 194.661 C 303.783 194.525,303.968 194.497,304.133 194.599 C 304.298 194.701,304.433 194.657,304.433 194.502 C 304.433 194.347,304.951 194.034,305.583 193.805 C 306.215 193.576,306.732 193.226,306.732 193.027 C 306.732 192.828,306.816 192.749,306.918 192.851 C 307.019 192.953,308.239 192.408,309.627 191.640 C 311.015 190.872,312.484 190.138,312.890 190.010 C 313.296 189.881,313.629 189.657,313.629 189.513 C 313.629 189.370,314.331 188.990,315.189 188.670 C 316.047 188.349,316.970 187.897,317.241 187.663 C 317.512 187.430,318.399 186.924,319.212 186.539 C 320.025 186.154,321.207 185.552,321.839 185.202 C 322.471 184.852,323.136 184.512,323.317 184.446 C 323.498 184.380,323.571 184.244,323.480 184.143 C 323.389 184.042,321.394 184.955,319.046 186.172 M266.163 214.009 C 264.543 214.833,263.071 215.675,262.890 215.881 C 262.709 216.088,262.266 216.307,261.905 216.369 C 261.544 216.432,261.100 216.598,260.920 216.738 C 260.739 216.879,258.522 218.065,255.993 219.374 C 248.096 223.463,245.976 224.671,246.003 225.068 C 246.022 225.353,246.070 225.351,246.188 225.061 C 246.276 224.845,247.077 224.427,247.968 224.131 C 248.860 223.835,249.589 223.473,249.589 223.326 C 249.589 223.180,250.217 222.809,250.984 222.502 C 251.751 222.195,252.453 221.845,252.544 221.724 C 252.635 221.603,253.485 221.148,254.433 220.712 C 255.382 220.277,256.158 219.798,256.158 219.648 C 256.158 219.499,256.268 219.399,256.404 219.427 C 256.793 219.507,259.046 218.437,259.278 218.062 C 259.393 217.876,259.625 217.808,259.793 217.912 C 259.961 218.016,260.099 217.968,260.099 217.806 C 260.099 217.644,260.697 217.313,261.428 217.072 C 262.160 216.831,262.894 216.400,263.060 216.116 C 263.227 215.832,263.367 215.698,263.373 215.820 C 263.378 215.941,264.011 215.700,264.778 215.285 C 265.546 214.870,266.839 214.183,267.652 213.759 C 269.489 212.800,269.433 212.838,269.255 212.660 C 269.174 212.578,267.782 213.186,266.163 214.009 M244.490 225.400 C 244.134 225.642,241.478 227.064,238.588 228.560 C 233.514 231.187,231.041 232.487,225.452 235.467 C 224.007 236.238,221.205 237.716,219.226 238.752 C 217.247 239.789,215.573 240.841,215.507 241.090 C 215.431 241.373,215.487 241.417,215.656 241.206 C 215.806 241.020,216.556 240.592,217.323 240.253 C 218.091 239.915,218.719 239.512,218.719 239.359 C 218.719 239.206,218.830 239.107,218.966 239.139 C 219.347 239.228,222.878 237.555,223.114 237.172 C 223.230 236.985,223.765 236.735,224.304 236.617 C 224.843 236.499,225.395 236.219,225.532 235.996 C 225.668 235.773,226.624 235.252,227.655 234.839 C 228.687 234.426,229.690 233.896,229.886 233.661 C 230.081 233.426,230.623 233.138,231.090 233.020 C 231.558 232.903,232.473 232.445,233.123 232.003 C 233.774 231.561,234.414 231.199,234.544 231.199 C 234.675 231.199,235.311 230.840,235.957 230.401 C 236.603 229.963,237.580 229.506,238.128 229.385 C 238.676 229.265,239.204 228.959,239.301 228.707 C 239.398 228.454,239.610 228.329,239.772 228.428 C 239.933 228.528,240.066 228.477,240.066 228.314 C 240.066 228.152,240.657 227.841,241.379 227.625 C 242.102 227.409,242.693 227.081,242.693 226.897 C 242.693 226.713,242.841 226.654,243.021 226.765 C 243.202 226.877,243.350 226.823,243.350 226.646 C 243.350 226.469,243.867 226.153,244.499 225.944 C 245.131 225.736,245.649 225.429,245.649 225.262 C 245.649 224.837,245.247 224.885,244.490 225.400 M213.491 241.715 C 212.874 242.060,212.248 242.532,212.100 242.764 C 211.953 242.996,211.830 243.068,211.828 242.924 C 211.825 242.780,210.123 243.556,208.046 244.648 C 205.969 245.740,202.533 247.541,200.411 248.650 C 196.146 250.879,192.802 252.645,188.342 255.025 C 186.716 255.893,184.527 257.035,183.478 257.565 C 182.429 258.094,181.632 258.589,181.708 258.664 C 181.894 258.851,184.937 257.529,185.550 256.996 C 185.821 256.760,186.597 256.371,187.274 256.132 C 187.952 255.893,188.506 255.570,188.506 255.415 C 188.506 255.260,188.654 255.225,188.834 255.337 C 189.015 255.448,189.163 255.403,189.163 255.236 C 189.163 255.070,189.828 254.679,190.640 254.369 C 191.453 254.058,192.118 253.660,192.118 253.484 C 192.118 253.307,192.266 253.255,192.447 253.366 C 192.627 253.478,192.775 253.442,192.775 253.287 C 192.775 253.132,193.292 252.818,193.924 252.590 C 194.557 252.361,195.074 252.036,195.074 251.867 C 195.074 251.698,195.185 251.580,195.320 251.605 C 195.780 251.688,198.358 250.477,198.358 250.177 C 198.358 250.013,198.496 249.964,198.664 250.068 C 198.832 250.172,199.066 250.101,199.184 249.909 C 199.302 249.718,199.978 249.330,200.685 249.047 C 201.392 248.764,201.970 248.401,201.970 248.240 C 201.970 248.079,202.081 247.974,202.217 248.007 C 202.537 248.083,205.030 246.881,205.291 246.524 C 205.402 246.373,205.550 246.284,205.620 246.326 C 205.785 246.425,208.652 244.973,208.867 244.681 C 208.957 244.559,209.881 244.118,210.920 243.702 C 211.958 243.286,212.808 242.826,212.808 242.680 C 212.808 242.535,213.325 242.245,213.957 242.036 C 214.589 241.827,215.107 241.520,215.107 241.354 C 215.107 240.925,214.774 241.000,213.491 241.715 M177.997 260.459 C 175.145 261.928,174.095 262.726,175.014 262.726 C 175.209 262.726,175.369 262.590,175.369 262.425 C 175.369 262.259,176.034 261.869,176.847 261.559 C 177.660 261.248,178.325 260.867,178.325 260.711 C 178.325 260.555,178.436 260.451,178.571 260.480 C 179.012 260.574,181.680 259.196,181.394 259.021 C 181.241 258.928,179.713 259.575,177.997 260.459 M171.757 263.740 C 170.402 264.464,167.299 266.106,164.860 267.388 C 162.422 268.670,159.245 270.344,157.800 271.108 C 156.355 271.871,153.621 273.310,151.724 274.304 C 146.816 276.879,142.771 279.009,139.737 280.619 C 136.116 282.540,130.498 285.499,128.819 286.370 C 128.051 286.768,127.507 287.228,127.608 287.392 C 127.709 287.556,128.015 287.467,128.287 287.195 C 128.560 286.922,128.974 286.700,129.207 286.700 C 129.441 286.700,130.002 286.409,130.454 286.053 C 130.905 285.698,131.369 285.501,131.483 285.616 C 131.598 285.730,131.691 285.681,131.691 285.507 C 131.691 285.332,132.209 285.002,132.841 284.774 C 133.473 284.545,133.990 284.220,133.990 284.051 C 133.990 283.882,134.101 283.766,134.236 283.794 C 134.691 283.886,137.931 282.346,137.931 282.039 C 137.931 281.871,138.079 281.826,138.259 281.938 C 138.440 282.049,138.588 282.012,138.588 281.854 C 138.588 281.697,139.105 281.365,139.737 281.117 C 140.369 280.869,140.887 280.545,140.887 280.398 C 140.887 280.252,140.998 280.154,141.133 280.182 C 141.505 280.259,143.770 279.200,143.988 278.849 C 144.092 278.679,144.878 278.284,145.734 277.970 C 146.590 277.656,147.475 277.173,147.701 276.896 C 147.927 276.620,148.114 276.532,148.117 276.702 C 148.120 276.879,148.225 276.870,148.363 276.683 C 148.496 276.502,149.822 275.764,151.311 275.041 C 152.800 274.319,154.019 273.608,154.021 273.462 C 154.022 273.316,154.171 273.287,154.351 273.399 C 154.532 273.511,154.680 273.469,154.680 273.307 C 154.680 273.144,155.287 272.811,156.028 272.566 C 156.770 272.322,157.447 271.938,157.533 271.714 C 157.619 271.489,157.899 271.386,158.155 271.484 C 158.411 271.583,158.621 271.509,158.621 271.321 C 158.621 271.133,159.138 270.791,159.770 270.563 C 160.402 270.334,160.920 270.020,160.920 269.865 C 160.920 269.710,161.067 269.675,161.248 269.787 C 161.429 269.898,161.576 269.857,161.576 269.694 C 161.576 269.532,162.175 269.202,162.906 268.960 C 163.637 268.719,164.366 268.289,164.525 268.005 C 164.684 267.720,164.899 267.525,165.002 267.571 C 165.281 267.695,168.190 266.308,169.092 265.621 C 169.523 265.293,170.155 265.025,170.498 265.025 C 170.841 265.025,171.209 264.794,171.317 264.513 C 171.425 264.232,171.716 264.079,171.964 264.174 C 172.211 264.269,172.414 264.219,172.414 264.061 C 172.414 263.904,172.857 263.621,173.399 263.432 C 173.941 263.243,174.384 262.933,174.384 262.743 C 174.384 262.300,174.602 262.218,171.757 263.740 M123.839 288.997 C 122.140 289.882,120.627 290.799,120.478 291.034 C 120.329 291.269,120.205 291.348,120.202 291.210 C 120.199 291.071,119.458 291.332,118.555 291.790 C 117.652 292.247,116.915 292.804,116.918 293.027 C 116.921 293.294,117.005 293.315,117.164 293.086 C 117.297 292.896,118.218 292.396,119.212 291.976 C 120.205 291.555,121.371 290.935,121.801 290.598 C 122.232 290.260,122.776 289.984,123.009 289.984 C 123.243 289.984,123.629 289.796,123.868 289.567 C 124.107 289.338,124.930 288.872,125.698 288.532 C 126.466 288.192,127.094 287.788,127.094 287.635 C 127.094 287.274,127.375 287.156,123.839 288.997 M114.778 293.717 C 114.056 294.130,111.544 295.474,109.195 296.704 C 104.564 299.129,101.316 300.847,96.716 303.301 C 95.090 304.169,92.911 305.307,91.872 305.831 C 90.833 306.355,89.984 306.914,89.984 307.073 C 89.984 307.409,93.145 305.882,93.442 305.402 C 93.552 305.225,93.779 305.165,93.947 305.269 C 94.115 305.372,94.253 305.331,94.253 305.176 C 94.253 305.021,94.786 304.701,95.438 304.465 C 96.090 304.230,97.145 303.683,97.783 303.250 C 98.420 302.817,99.143 302.463,99.389 302.463 C 99.635 302.463,99.836 302.307,99.836 302.115 C 99.836 301.924,99.984 301.859,100.164 301.970 C 100.345 302.082,100.493 302.017,100.493 301.826 C 100.493 301.634,100.603 301.508,100.739 301.545 C 101.064 301.634,103.228 300.488,103.485 300.090 C 103.595 299.919,103.743 299.800,103.813 299.826 C 104.068 299.917,107.211 298.418,107.620 298.010 C 107.850 297.779,108.494 297.491,109.050 297.369 C 109.606 297.247,110.144 296.930,110.245 296.666 C 110.347 296.402,110.632 296.263,110.880 296.358 C 111.127 296.453,111.330 296.408,111.330 296.257 C 111.330 296.106,112.032 295.657,112.890 295.260 C 115.460 294.070,116.570 293.446,116.577 293.186 C 116.589 292.795,116.185 292.914,114.778 293.717 M86.700 308.568 C 85.164 309.384,81.617 311.247,78.818 312.706 C 73.448 315.506,72.989 315.792,73.323 316.126 C 73.438 316.240,73.759 316.107,74.037 315.829 C 74.315 315.551,75.061 315.153,75.695 314.944 C 76.329 314.734,76.847 314.418,76.847 314.241 C 76.847 314.064,76.995 314.010,77.176 314.122 C 77.356 314.233,77.504 314.184,77.504 314.012 C 77.504 313.841,77.863 313.610,78.302 313.500 C 78.741 313.390,79.295 313.104,79.534 312.866 C 79.772 312.627,80.669 312.164,81.527 311.836 C 82.385 311.509,83.087 311.104,83.087 310.938 C 83.087 310.771,83.225 310.719,83.393 310.823 C 83.561 310.927,83.795 310.856,83.913 310.665 C 84.031 310.474,84.707 310.086,85.414 309.803 C 86.121 309.520,86.700 309.157,86.700 308.996 C 86.700 308.835,86.810 308.726,86.946 308.754 C 87.405 308.848,89.655 307.711,89.655 307.385 C 89.655 306.965,89.897 306.868,86.700 308.568 M69.540 317.626 C 66.690 319.085,65.686 319.869,66.667 319.869 C 66.847 319.869,66.995 319.737,66.995 319.576 C 66.995 319.415,67.611 319.037,68.363 318.736 C 69.116 318.434,70.097 317.901,70.542 317.551 C 70.988 317.200,71.620 316.913,71.946 316.913 C 72.496 316.913,73.119 316.357,72.857 316.100 C 72.794 316.037,71.301 316.724,69.540 317.626 M60.917 322.187 C 58.209 323.616,54.774 325.408,53.284 326.170 C 51.794 326.932,50.575 327.670,50.575 327.810 C 50.575 328.108,52.158 327.477,52.874 326.893 C 53.144 326.673,53.994 326.242,54.762 325.936 C 55.530 325.630,56.158 325.224,56.158 325.033 C 56.158 324.842,56.237 324.765,56.334 324.862 C 56.431 324.959,57.429 324.541,58.551 323.934 C 59.673 323.326,61.145 322.584,61.823 322.284 C 62.500 321.985,63.054 321.638,63.054 321.513 C 63.054 321.389,63.653 321.090,64.384 320.848 C 65.618 320.441,66.240 319.990,65.958 319.707 C 65.893 319.642,63.624 320.758,60.917 322.187 " stroke="none" fill="#aaaaaa" fill-rule="evenodd"></path><path id="path3" d="M361.066 163.904 C 360.945 164.100,361.010 164.425,361.211 164.626 C 361.479 164.895,361.576 164.800,361.576 164.269 C 361.576 163.476,361.406 163.354,361.066 163.904 " stroke="none" fill="#c7c7c7" fill-rule="evenodd"></path><path id="path4" d="M49.261 164.204 L 49.261 328.407 50.072 328.407 C 50.597 328.407,50.826 328.259,50.721 327.985 C 50.618 327.717,51.547 327.059,53.276 326.176 C 54.771 325.412,57.545 323.965,59.442 322.961 C 61.338 321.956,64.702 320.176,66.916 319.006 C 69.201 317.799,71.119 316.980,71.350 317.113 C 71.574 317.241,71.646 317.224,71.510 317.074 C 71.230 316.765,71.911 316.357,78.325 312.991 C 85.216 309.375,88.283 307.753,90.590 306.502 C 91.736 305.881,92.880 305.452,93.131 305.548 C 93.382 305.645,93.553 305.572,93.510 305.388 C 93.430 305.044,94.415 304.478,102.135 300.428 C 104.573 299.148,107.603 297.551,108.867 296.879 C 111.351 295.558,115.589 293.335,122.332 289.819 C 124.680 288.595,127.340 287.189,128.243 286.696 C 134.428 283.319,138.302 281.433,138.633 281.637 C 138.850 281.771,138.930 281.733,138.817 281.551 C 138.707 281.372,139.460 280.776,140.491 280.226 C 146.605 276.962,148.195 276.203,148.514 276.401 C 148.710 276.521,148.781 276.476,148.672 276.300 C 148.563 276.123,150.129 275.120,152.151 274.070 C 154.174 273.020,156.864 271.612,158.128 270.941 C 166.960 266.254,168.831 265.333,169.133 265.519 C 169.321 265.635,169.434 265.583,169.384 265.402 C 169.292 265.067,169.789 264.777,176.355 261.331 C 178.432 260.241,181.357 258.705,182.855 257.917 C 185.781 256.380,186.043 256.282,185.683 256.865 C 185.537 257.102,185.593 257.155,185.833 257.007 C 186.045 256.876,186.148 256.656,186.063 256.519 C 185.832 256.145,192.394 252.802,192.830 253.072 C 193.043 253.203,193.116 253.159,192.998 252.969 C 192.731 252.537,199.223 249.148,199.724 249.458 C 199.948 249.596,200.012 249.547,199.882 249.336 C 199.750 249.121,200.866 248.371,202.705 247.437 C 204.378 246.588,206.782 245.340,208.046 244.663 C 210.553 243.321,215.235 240.849,219.869 238.421 C 221.494 237.569,223.785 236.355,224.959 235.724 C 226.133 235.092,229.015 233.573,231.363 232.347 C 233.711 231.121,235.815 229.976,236.039 229.801 C 236.262 229.626,236.676 229.572,236.959 229.680 C 237.242 229.789,237.386 229.738,237.280 229.566 C 237.039 229.177,239.704 227.856,240.161 228.138 C 240.345 228.251,240.406 228.200,240.297 228.023 C 239.964 227.484,243.057 226.142,243.431 226.663 C 243.664 226.987,243.698 226.960,243.568 226.553 C 243.370 225.928,246.432 224.151,247.075 224.519 C 247.284 224.638,247.344 224.613,247.208 224.464 C 246.932 224.160,247.793 223.638,253.396 220.716 C 255.525 219.605,257.468 218.774,257.715 218.868 C 257.961 218.963,258.076 218.900,257.970 218.729 C 257.717 218.320,259.682 217.312,260.159 217.607 C 260.362 217.733,260.438 217.690,260.328 217.512 C 260.218 217.334,261.636 216.403,263.480 215.443 C 269.009 212.564,271.698 211.125,272.833 210.439 C 273.424 210.081,274.124 209.871,274.389 209.973 C 274.653 210.074,274.834 210.012,274.791 209.835 C 274.682 209.387,284.027 204.531,284.470 204.805 C 284.669 204.927,284.743 204.885,284.635 204.711 C 284.373 204.288,290.854 200.875,291.344 201.178 C 291.573 201.320,291.639 201.273,291.508 201.060 C 291.233 200.616,297.085 197.586,297.601 197.905 C 297.802 198.029,297.876 197.984,297.765 197.804 C 297.654 197.625,298.259 197.113,299.110 196.668 C 301.947 195.183,308.506 191.717,311.252 190.250 C 312.745 189.453,314.135 188.905,314.341 189.033 C 314.550 189.161,314.626 189.120,314.514 188.938 C 314.236 188.488,318.373 186.384,318.898 186.709 C 319.163 186.872,319.231 186.833,319.087 186.599 C 318.807 186.145,321.378 184.772,321.901 185.096 C 322.103 185.221,322.182 185.182,322.076 185.010 C 321.969 184.838,324.348 183.387,327.361 181.786 C 330.375 180.185,334.062 178.227,335.555 177.434 C 337.047 176.642,338.437 176.097,338.643 176.225 C 338.849 176.352,338.932 176.317,338.827 176.147 C 338.585 175.755,345.042 172.305,345.494 172.584 C 345.678 172.698,345.788 172.642,345.739 172.460 C 345.689 172.278,347.053 171.398,348.768 170.504 C 350.484 169.609,353.588 167.965,355.665 166.850 C 357.742 165.734,359.700 164.739,360.016 164.639 C 360.333 164.538,360.591 164.342,360.591 164.204 C 360.591 164.065,360.333 163.869,360.016 163.769 C 359.700 163.668,357.742 162.673,355.665 161.557 C 353.588 160.442,350.484 158.798,348.768 157.904 C 347.053 157.010,345.689 156.129,345.739 155.947 C 345.788 155.765,345.678 155.709,345.494 155.823 C 345.042 156.103,338.585 152.652,338.827 152.260 C 338.932 152.090,338.849 152.055,338.643 152.183 C 338.437 152.310,337.047 151.766,335.555 150.973 C 334.062 150.180,330.375 148.222,327.361 146.621 C 324.348 145.020,321.969 143.569,322.076 143.397 C 322.182 143.225,322.103 143.186,321.901 143.311 C 321.378 143.635,318.807 142.262,319.087 141.809 C 319.231 141.575,319.163 141.535,318.898 141.699 C 318.373 142.023,314.236 139.920,314.514 139.469 C 314.626 139.288,314.550 139.246,314.341 139.375 C 314.135 139.502,312.745 138.954,311.252 138.157 C 308.506 136.691,301.947 133.224,299.110 131.739 C 298.259 131.294,297.654 130.783,297.765 130.603 C 297.876 130.423,297.802 130.378,297.601 130.502 C 297.085 130.821,291.233 127.791,291.508 127.347 C 291.639 127.134,291.573 127.087,291.344 127.229 C 290.854 127.532,284.373 124.119,284.635 123.696 C 284.743 123.522,284.669 123.480,284.470 123.602 C 284.027 123.876,274.682 119.020,274.791 118.572 C 274.834 118.395,274.653 118.333,274.389 118.435 C 274.124 118.536,273.424 118.326,272.833 117.968 C 271.698 117.282,269.009 115.843,263.480 112.964 C 261.636 112.004,260.218 111.073,260.328 110.895 C 260.438 110.717,260.362 110.675,260.159 110.800 C 259.682 111.095,257.717 110.087,257.970 109.678 C 258.076 109.507,257.961 109.444,257.715 109.539 C 257.468 109.633,255.525 108.802,253.396 107.691 C 247.793 104.769,246.932 104.248,247.208 103.944 C 247.344 103.794,247.284 103.769,247.075 103.889 C 246.432 104.256,243.370 102.479,243.568 101.854 C 243.698 101.448,243.664 101.420,243.431 101.744 C 243.057 102.265,239.964 100.923,240.297 100.384 C 240.406 100.207,240.345 100.156,240.161 100.269 C 239.704 100.552,237.039 99.231,237.280 98.841 C 237.386 98.669,237.242 98.618,236.959 98.727 C 236.676 98.835,236.262 98.781,236.039 98.606 C 235.815 98.432,233.711 97.286,231.363 96.060 C 229.015 94.835,226.133 93.315,224.959 92.684 C 223.785 92.052,221.494 90.838,219.869 89.986 C 215.235 87.558,210.553 85.086,208.046 83.744 C 206.782 83.067,204.378 81.819,202.705 80.970 C 200.866 80.037,199.750 79.286,199.882 79.071 C 200.012 78.861,199.948 78.811,199.724 78.949 C 199.223 79.259,192.731 75.870,192.998 75.438 C 193.116 75.248,193.043 75.204,192.830 75.336 C 192.394 75.605,185.832 72.262,186.063 71.888 C 186.148 71.751,186.045 71.531,185.833 71.401 C 185.593 71.252,185.537 71.305,185.683 71.542 C 186.043 72.125,185.781 72.028,182.855 70.490 C 181.357 69.702,178.432 68.166,176.355 67.076 C 169.789 63.631,169.292 63.340,169.384 63.005 C 169.434 62.824,169.321 62.772,169.133 62.888 C 168.831 63.075,166.960 62.153,158.128 57.466 C 156.864 56.795,154.174 55.387,152.151 54.337 C 150.129 53.287,148.563 52.284,148.672 52.108 C 148.781 51.931,148.710 51.886,148.514 52.007 C 148.195 52.204,146.605 51.446,140.491 48.181 C 139.460 47.631,138.707 47.035,138.817 46.856 C 138.930 46.674,138.850 46.636,138.633 46.770 C 138.302 46.974,134.428 45.088,128.243 41.711 C 127.340 41.218,124.680 39.813,122.332 38.588 C 115.589 35.072,111.351 32.850,108.867 31.529 C 107.603 30.856,104.573 29.259,102.135 27.980 C 94.415 23.929,93.430 23.363,93.510 23.019 C 93.553 22.835,93.382 22.763,93.131 22.859 C 92.880 22.956,91.736 22.526,90.590 21.905 C 88.283 20.654,85.216 19.032,78.325 15.416 C 71.911 12.050,71.230 11.642,71.510 11.333 C 71.646 11.183,71.574 11.166,71.350 11.295 C 71.119 11.427,69.201 10.608,66.916 9.401 C 64.702 8.231,61.338 6.451,59.442 5.447 C 57.545 4.442,54.771 2.995,53.276 2.232 C 51.547 1.349,50.618 0.690,50.721 0.422 C 50.826 0.149,50.597 0.000,50.072 0.000 L 49.261 0.000 49.261 164.204 " stroke="none" fill="#787575" fill-rule="evenodd"></path></g></svg>