<svg id="svg" version="1.1" width="400" height="328.4072249589491" xmlns="http://www.w3.org/2000/svg" xmlns:xlink="http://www.w3.org/1999/xlink" style="display: block;"><g id="svgg"><path id="path2" d="M360.920 163.449 C 360.920 163.653,361.104 163.907,361.330 164.012 C 361.658 164.165,361.658 164.242,361.330 164.395 C 361.104 164.501,360.920 164.754,360.920 164.958 C 360.920 165.162,361.173 165.076,361.483 164.767 C 362.014 164.235,362.014 164.172,361.483 163.641 C 361.173 163.331,360.920 163.245,360.920 163.449 " stroke="none" fill="#7f7f7f" fill-rule="evenodd"></path><path id="path3" d="" stroke="none" fill="#919191" fill-rule="evenodd"></path><path id="path4" d="M49.261 164.204 C 49.261 325.809,49.271 328.407,49.891 328.407 C 50.237 328.407,50.569 328.287,50.629 328.140 C 50.690 327.994,51.995 327.237,53.530 326.458 C 55.066 325.680,57.282 324.504,58.456 323.844 C 59.631 323.184,61.293 322.377,62.151 322.050 C 63.009 321.724,63.711 321.343,63.711 321.205 C 63.711 321.067,64.265 320.706,64.943 320.404 C 65.620 320.102,67.800 318.993,69.787 317.939 C 73.594 315.920,77.387 313.919,83.087 310.923 C 84.984 309.926,87.473 308.575,88.619 307.921 C 89.766 307.267,90.790 306.732,90.897 306.732 C 91.207 306.732,94.073 305.321,94.253 305.080 C 94.343 304.959,96.560 303.766,99.179 302.430 C 101.798 301.093,104.015 299.926,104.105 299.836 C 104.195 299.745,105.747 298.941,107.553 298.048 C 109.360 297.156,110.911 296.343,111.002 296.242 C 111.092 296.141,112.644 295.320,114.450 294.417 C 116.256 293.514,117.808 292.701,117.898 292.611 C 117.989 292.521,119.392 291.782,121.018 290.969 C 122.644 290.156,124.051 289.389,124.145 289.265 C 124.238 289.141,125.048 288.726,125.944 288.342 C 126.840 287.958,127.650 287.542,127.744 287.418 C 127.838 287.294,129.466 286.415,131.363 285.464 C 133.259 284.514,136.067 283.061,137.603 282.235 C 147.311 277.014,161.501 269.566,163.540 268.621 C 164.349 268.246,165.088 267.837,165.182 267.713 C 165.276 267.589,166.831 266.749,168.637 265.846 C 170.443 264.943,171.995 264.113,172.085 264.003 C 172.176 263.892,173.654 263.107,175.369 262.258 C 179.081 260.421,181.711 259.035,181.938 258.795 C 182.028 258.699,183.580 257.895,185.386 257.008 C 187.192 256.121,188.744 255.291,188.834 255.164 C 188.924 255.037,189.368 254.819,189.819 254.680 C 190.271 254.541,190.714 254.333,190.805 254.217 C 190.895 254.102,192.742 253.125,194.910 252.045 C 197.077 250.965,198.924 249.992,199.015 249.883 C 199.105 249.773,199.918 249.310,200.821 248.855 C 201.724 248.399,204.015 247.203,205.911 246.196 C 210.937 243.527,214.229 241.799,223.974 236.714 C 225.509 235.913,228.095 234.540,229.721 233.663 C 233.238 231.765,238.070 229.213,242.365 226.983 C 244.080 226.092,246.593 224.777,247.947 224.060 C 249.302 223.343,251.741 222.056,253.366 221.200 C 254.992 220.343,256.973 219.287,257.769 218.853 C 258.565 218.418,259.403 218.062,259.630 218.062 C 259.858 218.062,260.093 217.931,260.153 217.770 C 260.213 217.609,261.002 217.111,261.905 216.663 C 263.500 215.872,269.433 212.790,272.084 211.374 C 272.806 210.989,273.471 210.595,273.562 210.500 C 273.653 210.405,274.392 210.039,275.205 209.688 C 276.018 209.337,276.757 208.955,276.847 208.841 C 276.938 208.726,277.745 208.310,278.642 207.916 C 279.539 207.522,280.352 207.089,280.448 206.954 C 280.545 206.819,282.028 206.007,283.744 205.151 C 285.460 204.294,287.085 203.459,287.356 203.295 C 287.627 203.131,288.292 202.780,288.834 202.515 C 289.376 202.249,290.780 201.509,291.954 200.871 C 293.128 200.232,295.493 198.999,297.209 198.130 C 298.924 197.262,300.402 196.468,300.493 196.367 C 300.583 196.265,302.134 195.452,303.939 194.560 C 305.745 193.669,307.384 192.791,307.583 192.611 C 307.782 192.430,309.335 191.617,311.033 190.805 C 312.732 189.992,314.195 189.246,314.286 189.148 C 314.376 189.049,315.337 188.514,316.420 187.959 C 321.297 185.459,326.765 182.594,328.571 181.591 C 329.655 180.990,331.872 179.811,333.498 178.971 C 335.123 178.131,337.488 176.879,338.752 176.189 C 340.016 175.499,341.494 174.727,342.036 174.474 C 342.578 174.220,343.391 173.792,343.842 173.522 C 344.294 173.252,345.328 172.724,346.141 172.348 C 346.954 171.971,347.693 171.558,347.783 171.429 C 347.961 171.174,350.950 169.809,351.284 169.830 C 351.395 169.837,351.577 169.718,351.687 169.565 C 351.798 169.413,352.479 168.993,353.202 168.634 C 353.924 168.274,354.589 167.906,354.680 167.816 C 355.101 167.395,360.191 164.898,360.335 165.042 C 360.768 165.475,361.321 164.194,360.913 163.703 C 360.684 163.428,360.424 163.276,360.335 163.365 C 360.191 163.509,355.101 161.012,354.680 160.591 C 354.589 160.501,353.924 160.133,353.202 159.773 C 352.479 159.414,351.798 158.995,351.687 158.842 C 351.577 158.689,351.395 158.570,351.284 158.577 C 350.950 158.598,347.961 157.233,347.783 156.979 C 347.693 156.849,346.954 156.436,346.141 156.060 C 345.328 155.684,344.294 155.155,343.842 154.885 C 343.391 154.615,342.578 154.187,342.036 153.933 C 341.494 153.680,340.016 152.908,338.752 152.218 C 337.488 151.528,335.123 150.276,333.498 149.436 C 331.872 148.596,329.655 147.417,328.571 146.816 C 326.765 145.814,321.297 142.948,316.420 140.449 C 315.337 139.893,314.376 139.358,314.286 139.260 C 314.195 139.161,312.732 138.415,311.033 137.603 C 309.335 136.790,307.782 135.977,307.583 135.796 C 307.384 135.616,305.745 134.739,303.939 133.847 C 302.134 132.955,300.583 132.143,300.493 132.041 C 300.402 131.939,298.924 131.145,297.209 130.277 C 295.493 129.409,293.128 128.175,291.954 127.537 C 290.780 126.898,289.376 126.158,288.834 125.892 C 288.292 125.627,287.627 125.276,287.356 125.112 C 287.085 124.948,285.460 124.113,283.744 123.257 C 282.028 122.400,280.545 121.588,280.448 121.453 C 280.352 121.318,279.539 120.886,278.642 120.492 C 277.745 120.098,276.938 119.681,276.847 119.567 C 276.757 119.452,276.018 119.070,275.205 118.719 C 274.392 118.368,273.653 118.003,273.562 117.907 C 273.471 117.812,272.806 117.419,272.084 117.033 C 269.433 115.617,263.500 112.535,261.905 111.744 C 261.002 111.296,260.213 110.798,260.153 110.637 C 260.093 110.476,259.858 110.345,259.630 110.345 C 259.403 110.345,258.565 109.989,257.769 109.555 C 256.973 109.120,254.992 108.064,253.366 107.208 C 251.741 106.351,249.302 105.064,247.947 104.347 C 246.593 103.630,244.080 102.315,242.365 101.424 C 238.070 99.195,233.238 96.642,229.721 94.745 C 228.095 93.868,225.509 92.494,223.974 91.693 C 214.229 86.608,210.937 84.880,205.911 82.211 C 204.015 81.204,201.724 80.008,200.821 79.552 C 199.918 79.097,199.105 78.634,199.015 78.525 C 198.924 78.415,197.077 77.442,194.910 76.362 C 192.742 75.283,190.895 74.305,190.805 74.190 C 190.714 74.074,190.271 73.866,189.819 73.727 C 189.368 73.588,188.924 73.371,188.834 73.244 C 188.744 73.116,187.192 72.287,185.386 71.399 C 183.580 70.512,182.028 69.708,181.938 69.613 C 181.711 69.372,179.081 67.986,175.369 66.149 C 173.654 65.300,172.176 64.515,172.085 64.404 C 171.995 64.294,170.443 63.465,168.637 62.562 C 166.831 61.658,165.276 60.818,165.182 60.694 C 165.088 60.570,164.349 60.161,163.540 59.786 C 161.501 58.841,147.311 51.393,137.603 46.172 C 136.067 45.346,133.259 43.893,131.363 42.943 C 129.466 41.993,127.838 41.114,127.744 40.989 C 127.650 40.865,126.840 40.450,125.944 40.066 C 125.048 39.682,124.238 39.266,124.145 39.142 C 124.051 39.018,122.644 38.251,121.018 37.438 C 119.392 36.626,117.989 35.887,117.898 35.796 C 117.808 35.706,116.256 34.893,114.450 33.990 C 112.644 33.087,111.092 32.266,111.002 32.165 C 110.911 32.064,109.360 31.252,107.553 30.359 C 105.747 29.466,104.195 28.662,104.105 28.571 C 104.015 28.481,101.798 27.314,99.179 25.977 C 96.560 24.641,94.343 23.448,94.253 23.327 C 94.073 23.086,91.207 21.675,90.897 21.675 C 90.790 21.675,89.766 21.140,88.619 20.486 C 87.473 19.832,84.984 18.482,83.087 17.485 C 77.387 14.488,73.594 12.487,69.787 10.468 C 67.800 9.414,65.620 8.305,64.943 8.003 C 64.265 7.701,63.711 7.341,63.711 7.202 C 63.711 7.064,63.009 6.684,62.151 6.357 C 61.293 6.030,59.631 5.223,58.456 4.563 C 57.282 3.904,55.066 2.727,53.530 1.949 C 51.995 1.170,50.690 0.414,50.629 0.267 C 50.569 0.120,50.237 0.000,49.891 0.000 C 49.271 0.000,49.261 2.599,49.261 164.204 " stroke="none" fill="#a5a2a4" fill-rule="evenodd"></path><path id="path0" d="" stroke="none" fill="#000000" fill-rule="evenodd"></path><path id="path1" d="" stroke="none" fill="#555555" fill-rule="evenodd"></path><path id="path2" d="M360.920 163.449 C 360.920 163.653,361.104 163.907,361.330 164.012 C 361.658 164.165,361.658 164.242,361.330 164.395 C 361.104 164.501,360.920 164.754,360.920 164.958 C 360.920 165.162,361.173 165.076,361.483 164.767 C 362.014 164.235,362.014 164.172,361.483 163.641 C 361.173 163.331,360.920 163.245,360.920 163.449 " stroke="none" fill="#7f7f7f" fill-rule="evenodd"></path><path id="path3" d="" stroke="none" fill="#919191" fill-rule="evenodd"></path><path id="path4" d="M49.261 164.204 C 49.261 325.809,49.271 328.407,49.891 328.407 C 50.237 328.407,50.569 328.287,50.629 328.140 C 50.690 327.994,51.995 327.237,53.530 326.458 C 55.066 325.680,57.282 324.504,58.456 323.844 C 59.631 323.184,61.293 322.377,62.151 322.050 C 63.009 321.724,63.711 321.343,63.711 321.205 C 63.711 321.067,64.265 320.706,64.943 320.404 C 65.620 320.102,67.800 318.993,69.787 317.939 C 73.594 315.920,77.387 313.919,83.087 310.923 C 84.984 309.926,87.473 308.575,88.619 307.921 C 89.766 307.267,90.790 306.732,90.897 306.732 C 91.207 306.732,94.073 305.321,94.253 305.080 C 94.343 304.959,96.560 303.766,99.179 302.430 C 101.798 301.093,104.015 299.926,104.105 299.836 C 104.195 299.745,105.747 298.941,107.553 298.048 C 109.360 297.156,110.911 296.343,111.002 296.242 C 111.092 296.141,112.644 295.320,114.450 294.417 C 116.256 293.514,117.808 292.701,117.898 292.611 C 117.989 292.521,119.392 291.782,121.018 290.969 C 122.644 290.156,124.051 289.389,124.145 289.265 C 124.238 289.141,125.048 288.726,125.944 288.342 C 126.840 287.958,127.650 287.542,127.744 287.418 C 127.838 287.294,129.466 286.415,131.363 285.464 C 133.259 284.514,136.067 283.061,137.603 282.235 C 147.311 277.014,161.501 269.566,163.540 268.621 C 164.349 268.246,165.088 267.837,165.182 267.713 C 165.276 267.589,166.831 266.749,168.637 265.846 C 170.443 264.943,171.995 264.113,172.085 264.003 C 172.176 263.892,173.654 263.107,175.369 262.258 C 179.081 260.421,181.711 259.035,181.938 258.795 C 182.028 258.699,183.580 257.895,185.386 257.008 C 187.192 256.121,188.744 255.291,188.834 255.164 C 188.924 255.037,189.368 254.819,189.819 254.680 C 190.271 254.541,190.714 254.333,190.805 254.217 C 190.895 254.102,192.742 253.125,194.910 252.045 C 197.077 250.965,198.924 249.992,199.015 249.883 C 199.105 249.773,199.918 249.310,200.821 248.855 C 201.724 248.399,204.015 247.203,205.911 246.196 C 210.937 243.527,214.229 241.799,223.974 236.714 C 225.509 235.913,228.095 234.540,229.721 233.663 C 233.238 231.765,238.070 229.213,242.365 226.983 C 244.080 226.092,246.593 224.777,247.947 224.060 C 249.302 223.343,251.741 222.056,253.366 221.200 C 254.992 220.343,256.973 219.287,257.769 218.853 C 258.565 218.418,259.403 218.062,259.630 218.062 C 259.858 218.062,260.093 217.931,260.153 217.770 C 260.213 217.609,261.002 217.111,261.905 216.663 C 263.500 215.872,269.433 212.790,272.084 211.374 C 272.806 210.989,273.471 210.595,273.562 210.500 C 273.653 210.405,274.392 210.039,275.205 209.688 C 276.018 209.337,276.757 208.955,276.847 208.841 C 276.938 208.726,277.745 208.310,278.642 207.916 C 279.539 207.522,280.352 207.089,280.448 206.954 C 280.545 206.819,282.028 206.007,283.744 205.151 C 285.460 204.294,287.085 203.459,287.356 203.295 C 287.627 203.131,288.292 202.780,288.834 202.515 C 289.376 202.249,290.780 201.509,291.954 200.871 C 293.128 200.232,295.493 198.999,297.209 198.130 C 298.924 197.262,300.402 196.468,300.493 196.367 C 300.583 196.265,302.134 195.452,303.939 194.560 C 305.745 193.669,307.384 192.791,307.583 192.611 C 307.782 192.430,309.335 191.617,311.033 190.805 C 312.732 189.992,314.195 189.246,314.286 189.148 C 314.376 189.049,315.337 188.514,316.420 187.959 C 321.297 185.459,326.765 182.594,328.571 181.591 C 329.655 180.990,331.872 179.811,333.498 178.971 C 335.123 178.131,337.488 176.879,338.752 176.189 C 340.016 175.499,341.494 174.727,342.036 174.474 C 342.578 174.220,343.391 173.792,343.842 173.522 C 344.294 173.252,345.328 172.724,346.141 172.348 C 346.954 171.971,347.693 171.558,347.783 171.429 C 347.961 171.174,350.950 169.809,351.284 169.830 C 351.395 169.837,351.577 169.718,351.687 169.565 C 351.798 169.413,352.479 168.993,353.202 168.634 C 353.924 168.274,354.589 167.906,354.680 167.816 C 355.101 167.395,360.191 164.898,360.335 165.042 C 360.768 165.475,361.321 164.194,360.913 163.703 C 360.684 163.428,360.424 163.276,360.335 163.365 C 360.191 163.509,355.101 161.012,354.680 160.591 C 354.589 160.501,353.924 160.133,353.202 159.773 C 352.479 159.414,351.798 158.995,351.687 158.842 C 351.577 158.689,351.395 158.570,351.284 158.577 C 350.950 158.598,347.961 157.233,347.783 156.979 C 347.693 156.849,346.954 156.436,346.141 156.060 C 345.328 155.684,344.294 155.155,343.842 154.885 C 343.391 154.615,342.578 154.187,342.036 153.933 C 341.494 153.680,340.016 152.908,338.752 152.218 C 337.488 151.528,335.123 150.276,333.498 149.436 C 331.872 148.596,329.655 147.417,328.571 146.816 C 326.765 145.814,321.297 142.948,316.420 140.449 C 315.337 139.893,314.376 139.358,314.286 139.260 C 314.195 139.161,312.732 138.415,311.033 137.603 C 309.335 136.790,307.782 135.977,307.583 135.796 C 307.384 135.616,305.745 134.739,303.939 133.847 C 302.134 132.955,300.583 132.143,300.493 132.041 C 300.402 131.939,298.924 131.145,297.209 130.277 C 295.493 129.409,293.128 128.175,291.954 127.537 C 290.780 126.898,289.376 126.158,288.834 125.892 C 288.292 125.627,287.627 125.276,287.356 125.112 C 287.085 124.948,285.460 124.113,283.744 123.257 C 282.028 122.400,280.545 121.588,280.448 121.453 C 280.352 121.318,279.539 120.886,278.642 120.492 C 277.745 120.098,276.938 119.681,276.847 119.567 C 276.757 119.452,276.018 119.070,275.205 118.719 C 274.392 118.368,273.653 118.003,273.562 117.907 C 273.471 117.812,272.806 117.419,272.084 117.033 C 269.433 115.617,263.500 112.535,261.905 111.744 C 261.002 111.296,260.213 110.798,260.153 110.637 C 260.093 110.476,259.858 110.345,259.630 110.345 C 259.403 110.345,258.565 109.989,257.769 109.555 C 256.973 109.120,254.992 108.064,253.366 107.208 C 251.741 106.351,249.302 105.064,247.947 104.347 C 246.593 103.630,244.080 102.315,242.365 101.424 C 238.070 99.195,233.238 96.642,229.721 94.745 C 228.095 93.868,225.509 92.494,223.974 91.693 C 214.229 86.608,210.937 84.880,205.911 82.211 C 204.015 81.204,201.724 80.008,200.821 79.552 C 199.918 79.097,199.105 78.634,199.015 78.525 C 198.924 78.415,197.077 77.442,194.910 76.362 C 192.742 75.283,190.895 74.305,190.805 74.190 C 190.714 74.074,190.271 73.866,189.819 73.727 C 189.368 73.588,188.924 73.371,188.834 73.244 C 188.744 73.116,187.192 72.287,185.386 71.399 C 183.580 70.512,182.028 69.708,181.938 69.613 C 181.711 69.372,179.081 67.986,175.369 66.149 C 173.654 65.300,172.176 64.515,172.085 64.404 C 171.995 64.294,170.443 63.465,168.637 62.562 C 166.831 61.658,165.276 60.818,165.182 60.694 C 165.088 60.570,164.349 60.161,163.540 59.786 C 161.501 58.841,147.311 51.393,137.603 46.172 C 136.067 45.346,133.259 43.893,131.363 42.943 C 129.466 41.993,127.838 41.114,127.744 40.989 C 127.650 40.865,126.840 40.450,125.944 40.066 C 125.048 39.682,124.238 39.266,124.145 39.142 C 124.051 39.018,122.644 38.251,121.018 37.438 C 119.392 36.626,117.989 35.887,117.898 35.796 C 117.808 35.706,116.256 34.893,114.450 33.990 C 112.644 33.087,111.092 32.266,111.002 32.165 C 110.911 32.064,109.360 31.252,107.553 30.359 C 105.747 29.466,104.195 28.662,104.105 28.571 C 104.015 28.481,101.798 27.314,99.179 25.977 C 96.560 24.641,94.343 23.448,94.253 23.327 C 94.073 23.086,91.207 21.675,90.897 21.675 C 90.790 21.675,89.766 21.140,88.619 20.486 C 87.473 19.832,84.984 18.482,83.087 17.485 C 77.387 14.488,73.594 12.487,69.787 10.468 C 67.800 9.414,65.620 8.305,64.943 8.003 C 64.265 7.701,63.711 7.341,63.711 7.202 C 63.711 7.064,63.009 6.684,62.151 6.357 C 61.293 6.030,59.631 5.223,58.456 4.563 C 57.282 3.904,55.066 2.727,53.530 1.949 C 51.995 1.170,50.690 0.414,50.629 0.267 C 50.569 0.120,50.237 0.000,49.891 0.000 C 49.271 0.000,49.261 2.599,49.261 164.204 " stroke="none" fill="#a5a2a4" fill-rule="evenodd"></path></g></svg>