<svg id="svg" version="1.1" width="400" height="328.4072249589491" xmlns="http://www.w3.org/2000/svg" xmlns:xlink="http://www.w3.org/1999/xlink" style="display: block;"><g id="svgg"><path id="path2" d="" stroke="none" fill="#999999" fill-rule="evenodd"></path><path id="path3" d="" stroke="none" fill="#aaaaaa" fill-rule="evenodd"></path><path id="path4" d="M49.261 164.204 C 49.261 325.809,49.271 328.407,49.891 328.407 C 50.237 328.407,50.569 328.295,50.629 328.158 C 50.737 327.914,51.451 327.521,57.800 324.207 C 63.788 321.081,66.176 319.805,66.502 319.555 C 66.683 319.417,67.533 319.042,68.391 318.721 C 69.249 318.400,69.951 318.029,69.951 317.897 C 69.951 317.765,70.653 317.336,71.511 316.943 C 72.369 316.550,74.401 315.518,76.026 314.649 C 79.311 312.893,85.072 309.850,88.342 308.142 C 89.516 307.529,91.954 306.223,93.760 305.240 C 95.567 304.257,97.562 303.226,98.194 302.949 C 98.826 302.672,99.713 302.224,100.164 301.952 C 100.616 301.680,101.650 301.138,102.463 300.747 C 103.276 300.356,104.015 299.939,104.105 299.820 C 104.195 299.701,105.673 298.911,107.389 298.065 C 109.105 297.218,112.135 295.649,114.122 294.577 C 116.108 293.505,118.473 292.249,119.376 291.787 C 120.279 291.324,123.235 289.774,125.944 288.342 C 128.654 286.909,131.787 285.286,132.907 284.734 C 134.028 284.183,135.034 283.586,135.143 283.409 C 135.253 283.232,135.617 283.087,135.953 283.087 C 136.288 283.087,136.612 282.963,136.672 282.812 C 136.732 282.661,137.890 281.987,139.245 281.313 C 140.599 280.639,142.177 279.812,142.750 279.474 C 143.323 279.136,146.156 277.631,149.045 276.129 C 151.935 274.628,155.899 272.551,157.855 271.515 C 159.812 270.479,162.225 269.246,163.218 268.774 C 164.212 268.302,165.099 267.820,165.189 267.702 C 165.279 267.584,167.274 266.527,169.622 265.353 C 171.970 264.179,173.966 263.141,174.056 263.046 C 174.333 262.756,183.090 258.141,186.864 256.297 C 187.857 255.812,188.744 255.319,188.834 255.202 C 188.924 255.086,189.663 254.707,190.476 254.362 C 191.289 254.017,192.159 253.577,192.408 253.386 C 192.877 253.027,193.103 252.906,198.764 249.985 C 200.618 249.029,202.800 247.872,203.612 247.413 C 204.827 246.728,210.388 243.785,212.991 242.450 C 213.342 242.270,214.220 241.799,214.943 241.403 C 215.665 241.007,216.958 240.377,217.816 240.002 C 218.674 239.628,219.376 239.210,219.376 239.075 C 219.376 238.940,219.635 238.761,219.951 238.678 C 220.267 238.596,220.673 238.488,220.854 238.440 C 221.034 238.391,221.552 238.096,222.003 237.783 C 222.455 237.470,224.154 236.538,225.780 235.711 C 231.860 232.620,233.009 232.015,233.169 231.818 C 233.259 231.707,233.703 231.502,234.154 231.363 C 234.606 231.224,235.049 231.016,235.140 230.900 C 235.230 230.785,236.117 230.269,237.110 229.753 C 238.808 228.873,243.870 226.209,247.959 224.044 C 248.960 223.515,250.068 222.931,250.423 222.746 C 250.777 222.561,251.658 222.103,252.381 221.727 C 253.103 221.351,254.249 220.800,254.926 220.503 C 255.603 220.205,256.158 219.840,256.158 219.691 C 256.158 219.542,256.490 219.319,256.897 219.195 C 257.303 219.071,258.850 218.313,260.334 217.511 C 261.818 216.708,263.074 216.097,263.125 216.152 C 263.176 216.208,263.699 215.912,264.286 215.494 C 264.873 215.076,265.353 214.828,265.353 214.943 C 265.353 215.057,265.759 214.863,266.256 214.510 C 266.753 214.157,267.677 213.623,268.309 213.323 C 268.941 213.023,270.345 212.274,271.429 211.657 C 272.512 211.041,273.768 210.383,274.220 210.194 C 274.672 210.005,275.411 209.624,275.862 209.346 C 276.314 209.068,277.496 208.446,278.489 207.964 C 279.483 207.482,280.345 206.970,280.405 206.828 C 280.465 206.685,280.631 206.568,280.774 206.568 C 281.164 206.568,283.661 205.369,285.878 204.117 C 286.962 203.505,289.105 202.369,290.640 201.592 C 292.176 200.816,293.506 200.085,293.596 199.968 C 293.805 199.698,296.619 198.417,297.008 198.415 C 297.168 198.415,297.390 198.291,297.500 198.140 C 297.715 197.847,298.904 197.170,301.806 195.688 C 302.800 195.181,303.760 194.644,303.941 194.494 C 304.122 194.344,304.934 193.957,305.746 193.633 C 306.558 193.309,307.297 192.946,307.388 192.827 C 307.479 192.708,308.071 192.345,308.703 192.020 C 309.335 191.695,310.887 190.878,312.151 190.204 C 313.415 189.531,316.593 187.877,319.212 186.529 C 321.831 185.180,324.048 184.002,324.138 183.911 C 324.537 183.506,326.437 182.580,326.437 182.791 C 326.437 182.919,326.695 182.791,327.011 182.506 C 327.328 182.221,329.286 181.113,331.363 180.044 C 333.440 178.975,336.617 177.317,338.424 176.360 C 340.230 175.402,343.851 173.503,346.470 172.139 C 349.089 170.775,352.414 169.027,353.859 168.255 C 355.304 167.484,357.557 166.295,358.867 165.614 C 361.761 164.110,361.761 164.298,358.867 162.793 C 357.557 162.112,355.304 160.924,353.859 160.152 C 352.414 159.380,349.089 157.633,346.470 156.268 C 343.851 154.904,340.230 153.005,338.424 152.048 C 336.617 151.090,333.440 149.432,331.363 148.363 C 329.286 147.294,327.328 146.186,327.011 145.901 C 326.695 145.616,326.437 145.488,326.437 145.616 C 326.437 145.827,324.537 144.902,324.138 144.497 C 324.048 144.405,321.831 143.227,319.212 141.879 C 316.593 140.530,313.415 138.876,312.151 138.203 C 310.887 137.529,309.335 136.712,308.703 136.387 C 308.071 136.062,307.479 135.699,307.388 135.580 C 307.297 135.461,306.558 135.098,305.746 134.774 C 304.934 134.450,304.122 134.063,303.941 133.913 C 303.760 133.764,302.800 133.226,301.806 132.719 C 298.904 131.238,297.715 130.561,297.500 130.268 C 297.390 130.117,297.242 130.026,297.172 130.067 C 297.002 130.165,293.805 128.710,293.596 128.439 C 293.506 128.322,292.176 127.591,290.640 126.815 C 289.105 126.039,286.962 124.903,285.878 124.291 C 283.661 123.038,281.164 121.839,280.774 121.839 C 280.631 121.839,280.465 121.722,280.405 121.580 C 280.345 121.437,279.483 120.925,278.489 120.443 C 277.496 119.961,276.314 119.339,275.862 119.061 C 275.411 118.783,274.672 118.402,274.220 118.213 C 273.768 118.024,272.512 117.366,271.429 116.750 C 270.345 116.134,268.941 115.384,268.309 115.084 C 267.677 114.784,266.753 114.250,266.256 113.897 C 265.759 113.544,265.353 113.350,265.353 113.465 C 265.353 113.580,264.873 113.332,264.286 112.914 C 263.699 112.496,263.176 112.199,263.125 112.255 C 263.074 112.311,261.818 111.699,260.334 110.897 C 258.850 110.094,257.303 109.336,256.897 109.212 C 256.490 109.088,256.158 108.865,256.158 108.716 C 256.158 108.567,255.603 108.202,254.926 107.905 C 254.249 107.607,253.103 107.056,252.381 106.680 C 251.658 106.304,250.777 105.846,250.423 105.661 C 250.068 105.477,248.960 104.893,247.959 104.363 C 243.870 102.199,238.808 99.535,237.110 98.654 C 236.117 98.139,235.230 97.622,235.140 97.507 C 235.049 97.392,234.606 97.183,234.154 97.044 C 233.703 96.905,233.259 96.701,233.169 96.590 C 233.009 96.393,231.860 95.787,225.780 92.696 C 224.154 91.869,222.455 90.937,222.003 90.624 C 221.552 90.312,221.108 90.035,221.018 90.010 C 220.928 89.985,220.521 89.878,220.115 89.772 C 219.709 89.666,219.376 89.468,219.376 89.332 C 219.376 89.197,218.674 88.779,217.816 88.405 C 216.958 88.030,215.665 87.400,214.943 87.004 C 214.220 86.608,213.342 86.137,212.991 85.957 C 210.388 84.622,204.827 81.679,203.612 80.994 C 202.800 80.536,200.618 79.378,198.764 78.422 C 193.103 75.501,192.877 75.381,192.408 75.021 C 192.159 74.830,191.289 74.391,190.476 74.045 C 189.663 73.700,188.924 73.322,188.834 73.205 C 188.744 73.088,187.857 72.596,186.864 72.110 C 183.090 70.266,174.333 65.651,174.056 65.361 C 173.966 65.266,171.970 64.228,169.622 63.054 C 167.274 61.880,165.279 60.823,165.189 60.705 C 165.099 60.587,164.212 60.105,163.218 59.633 C 162.225 59.161,159.812 57.928,157.855 56.892 C 155.899 55.856,151.935 53.780,149.045 52.278 C 146.156 50.776,143.323 49.271,142.750 48.933 C 142.177 48.595,140.599 47.768,139.245 47.094 C 137.890 46.421,136.732 45.746,136.672 45.595 C 136.612 45.444,136.288 45.320,135.953 45.320 C 135.617 45.320,135.253 45.175,135.143 44.998 C 135.034 44.821,134.028 44.225,132.907 43.673 C 131.787 43.121,128.654 41.498,125.944 40.066 C 123.235 38.633,120.279 37.083,119.376 36.621 C 118.473 36.158,116.108 34.903,114.122 33.831 C 112.135 32.758,109.105 31.189,107.389 30.343 C 105.673 29.497,104.195 28.707,104.105 28.587 C 104.015 28.468,103.276 28.051,102.463 27.660 C 101.650 27.269,100.616 26.727,100.164 26.455 C 99.713 26.184,98.826 25.735,98.194 25.458 C 97.562 25.181,95.567 24.150,93.760 23.167 C 91.954 22.184,89.516 20.878,88.342 20.265 C 85.072 18.558,79.311 15.514,76.026 13.758 C 74.401 12.889,72.369 11.857,71.511 11.464 C 70.653 11.071,69.951 10.642,69.951 10.510 C 69.951 10.378,69.249 10.007,68.391 9.686 C 67.533 9.366,66.683 8.990,66.502 8.852 C 66.176 8.602,63.788 7.326,57.800 4.200 C 51.451 0.886,50.737 0.493,50.629 0.249 C 50.569 0.112,50.237 0.000,49.891 0.000 C 49.271 0.000,49.261 2.599,49.261 164.204 " stroke="none" fill="#bcbabb" fill-rule="evenodd"></path><path id="path0" d="" stroke="none" fill="#000000" fill-rule="evenodd"></path><path id="path1" d="M361.224 163.629 C 361.582 164.104,361.582 164.303,361.224 164.778 C 360.812 165.326,360.821 165.326,361.418 164.778 C 362.036 164.213,362.036 164.195,361.418 163.629 C 360.821 163.082,360.812 163.082,361.224 163.629 " stroke="none" fill="#7f7f7f" fill-rule="evenodd"></path><path id="path2" d="" stroke="none" fill="#999999" fill-rule="evenodd"></path><path id="path3" d="" stroke="none" fill="#aaaaaa" fill-rule="evenodd"></path><path id="path4" d="M49.261 164.204 C 49.261 325.809,49.271 328.407,49.891 328.407 C 50.237 328.407,50.569 328.295,50.629 328.158 C 50.737 327.914,51.451 327.521,57.800 324.207 C 63.788 321.081,66.176 319.805,66.502 319.555 C 66.683 319.417,67.533 319.042,68.391 318.721 C 69.249 318.400,69.951 318.029,69.951 317.897 C 69.951 317.765,70.653 317.336,71.511 316.943 C 72.369 316.550,74.401 315.518,76.026 314.649 C 79.311 312.893,85.072 309.850,88.342 308.142 C 89.516 307.529,91.954 306.223,93.760 305.240 C 95.567 304.257,97.562 303.226,98.194 302.949 C 98.826 302.672,99.713 302.224,100.164 301.952 C 100.616 301.680,101.650 301.138,102.463 300.747 C 103.276 300.356,104.015 299.939,104.105 299.820 C 104.195 299.701,105.673 298.911,107.389 298.065 C 109.105 297.218,112.135 295.649,114.122 294.577 C 116.108 293.505,118.473 292.249,119.376 291.787 C 120.279 291.324,123.235 289.774,125.944 288.342 C 128.654 286.909,131.787 285.286,132.907 284.734 C 134.028 284.183,135.034 283.586,135.143 283.409 C 135.253 283.232,135.617 283.087,135.953 283.087 C 136.288 283.087,136.612 282.963,136.672 282.812 C 136.732 282.661,137.890 281.987,139.245 281.313 C 140.599 280.639,142.177 279.812,142.750 279.474 C 143.323 279.136,146.156 277.631,149.045 276.129 C 151.935 274.628,155.899 272.551,157.855 271.515 C 159.812 270.479,162.225 269.246,163.218 268.774 C 164.212 268.302,165.099 267.820,165.189 267.702 C 165.279 267.584,167.274 266.527,169.622 265.353 C 171.970 264.179,173.966 263.141,174.056 263.046 C 174.333 262.756,183.090 258.141,186.864 256.297 C 187.857 255.812,188.744 255.319,188.834 255.202 C 188.924 255.086,189.663 254.707,190.476 254.362 C 191.289 254.017,192.159 253.577,192.408 253.386 C 192.877 253.027,193.103 252.906,198.764 249.985 C 200.618 249.029,202.800 247.872,203.612 247.413 C 204.827 246.728,210.388 243.785,212.991 242.450 C 213.342 242.270,214.220 241.799,214.943 241.403 C 215.665 241.007,216.958 240.377,217.816 240.002 C 218.674 239.628,219.376 239.210,219.376 239.075 C 219.376 238.940,219.635 238.761,219.951 238.678 C 220.267 238.596,220.673 238.488,220.854 238.440 C 221.034 238.391,221.552 238.096,222.003 237.783 C 222.455 237.470,224.154 236.538,225.780 235.711 C 231.860 232.620,233.009 232.015,233.169 231.818 C 233.259 231.707,233.703 231.502,234.154 231.363 C 234.606 231.224,235.049 231.016,235.140 230.900 C 235.230 230.785,236.117 230.269,237.110 229.753 C 238.808 228.873,243.870 226.209,247.959 224.044 C 248.960 223.515,250.068 222.931,250.423 222.746 C 250.777 222.561,251.658 222.103,252.381 221.727 C 253.103 221.351,254.249 220.800,254.926 220.503 C 255.603 220.205,256.158 219.840,256.158 219.691 C 256.158 219.542,256.490 219.319,256.897 219.195 C 257.303 219.071,258.850 218.313,260.334 217.511 C 261.818 216.708,263.074 216.097,263.125 216.152 C 263.176 216.208,263.699 215.912,264.286 215.494 C 264.873 215.076,265.353 214.828,265.353 214.943 C 265.353 215.057,265.759 214.863,266.256 214.510 C 266.753 214.157,267.677 213.623,268.309 213.323 C 268.941 213.023,270.345 212.274,271.429 211.657 C 272.512 211.041,273.768 210.383,274.220 210.194 C 274.672 210.005,275.411 209.624,275.862 209.346 C 276.314 209.068,277.496 208.446,278.489 207.964 C 279.483 207.482,280.345 206.970,280.405 206.828 C 280.465 206.685,280.631 206.568,280.774 206.568 C 281.164 206.568,283.661 205.369,285.878 204.117 C 286.962 203.505,289.105 202.369,290.640 201.592 C 292.176 200.816,293.506 200.085,293.596 199.968 C 293.805 199.698,296.619 198.417,297.008 198.415 C 297.168 198.415,297.390 198.291,297.500 198.140 C 297.715 197.847,298.904 197.170,301.806 195.688 C 302.800 195.181,303.760 194.644,303.941 194.494 C 304.122 194.344,304.934 193.957,305.746 193.633 C 306.558 193.309,307.297 192.946,307.388 192.827 C 307.479 192.708,308.071 192.345,308.703 192.020 C 309.335 191.695,310.887 190.878,312.151 190.204 C 313.415 189.531,316.593 187.877,319.212 186.529 C 321.831 185.180,324.048 184.002,324.138 183.911 C 324.537 183.506,326.437 182.580,326.437 182.791 C 326.437 182.919,326.695 182.791,327.011 182.506 C 327.328 182.221,329.286 181.113,331.363 180.044 C 333.440 178.975,336.617 177.317,338.424 176.360 C 340.230 175.402,343.851 173.503,346.470 172.139 C 349.089 170.775,352.414 169.027,353.859 168.255 C 355.304 167.484,357.557 166.295,358.867 165.614 C 361.761 164.110,361.761 164.298,358.867 162.793 C 357.557 162.112,355.304 160.924,353.859 160.152 C 352.414 159.380,349.089 157.633,346.470 156.268 C 343.851 154.904,340.230 153.005,338.424 152.048 C 336.617 151.090,333.440 149.432,331.363 148.363 C 329.286 147.294,327.328 146.186,327.011 145.901 C 326.695 145.616,326.437 145.488,326.437 145.616 C 326.437 145.827,324.537 144.902,324.138 144.497 C 324.048 144.405,321.831 143.227,319.212 141.879 C 316.593 140.530,313.415 138.876,312.151 138.203 C 310.887 137.529,309.335 136.712,308.703 136.387 C 308.071 136.062,307.479 135.699,307.388 135.580 C 307.297 135.461,306.558 135.098,305.746 134.774 C 304.934 134.450,304.122 134.063,303.941 133.913 C 303.760 133.764,302.800 133.226,301.806 132.719 C 298.904 131.238,297.715 130.561,297.500 130.268 C 297.390 130.117,297.242 130.026,297.172 130.067 C 297.002 130.165,293.805 128.710,293.596 128.439 C 293.506 128.322,292.176 127.591,290.640 126.815 C 289.105 126.039,286.962 124.903,285.878 124.291 C 283.661 123.038,281.164 121.839,280.774 121.839 C 280.631 121.839,280.465 121.722,280.405 121.580 C 280.345 121.437,279.483 120.925,278.489 120.443 C 277.496 119.961,276.314 119.339,275.862 119.061 C 275.411 118.783,274.672 118.402,274.220 118.213 C 273.768 118.024,272.512 117.366,271.429 116.750 C 270.345 116.134,268.941 115.384,268.309 115.084 C 267.677 114.784,266.753 114.250,266.256 113.897 C 265.759 113.544,265.353 113.350,265.353 113.465 C 265.353 113.580,264.873 113.332,264.286 112.914 C 263.699 112.496,263.176 112.199,263.125 112.255 C 263.074 112.311,261.818 111.699,260.334 110.897 C 258.850 110.094,257.303 109.336,256.897 109.212 C 256.490 109.088,256.158 108.865,256.158 108.716 C 256.158 108.567,255.603 108.202,254.926 107.905 C 254.249 107.607,253.103 107.056,252.381 106.680 C 251.658 106.304,250.777 105.846,250.423 105.661 C 250.068 105.477,248.960 104.893,247.959 104.363 C 243.870 102.199,238.808 99.535,237.110 98.654 C 236.117 98.139,235.230 97.622,235.140 97.507 C 235.049 97.392,234.606 97.183,234.154 97.044 C 233.703 96.905,233.259 96.701,233.169 96.590 C 233.009 96.393,231.860 95.787,225.780 92.696 C 224.154 91.869,222.455 90.937,222.003 90.624 C 221.552 90.312,221.108 90.035,221.018 90.010 C 220.928 89.985,220.521 89.878,220.115 89.772 C 219.709 89.666,219.376 89.468,219.376 89.332 C 219.376 89.197,218.674 88.779,217.816 88.405 C 216.958 88.030,215.665 87.400,214.943 87.004 C 214.220 86.608,213.342 86.137,212.991 85.957 C 210.388 84.622,204.827 81.679,203.612 80.994 C 202.800 80.536,200.618 79.378,198.764 78.422 C 193.103 75.501,192.877 75.381,192.408 75.021 C 192.159 74.830,191.289 74.391,190.476 74.045 C 189.663 73.700,188.924 73.322,188.834 73.205 C 188.744 73.088,187.857 72.596,186.864 72.110 C 183.090 70.266,174.333 65.651,174.056 65.361 C 173.966 65.266,171.970 64.228,169.622 63.054 C 167.274 61.880,165.279 60.823,165.189 60.705 C 165.099 60.587,164.212 60.105,163.218 59.633 C 162.225 59.161,159.812 57.928,157.855 56.892 C 155.899 55.856,151.935 53.780,149.045 52.278 C 146.156 50.776,143.323 49.271,142.750 48.933 C 142.177 48.595,140.599 47.768,139.245 47.094 C 137.890 46.421,136.732 45.746,136.672 45.595 C 136.612 45.444,136.288 45.320,135.953 45.320 C 135.617 45.320,135.253 45.175,135.143 44.998 C 135.034 44.821,134.028 44.225,132.907 43.673 C 131.787 43.121,128.654 41.498,125.944 40.066 C 123.235 38.633,120.279 37.083,119.376 36.621 C 118.473 36.158,116.108 34.903,114.122 33.831 C 112.135 32.758,109.105 31.189,107.389 30.343 C 105.673 29.497,104.195 28.707,104.105 28.587 C 104.015 28.468,103.276 28.051,102.463 27.660 C 101.650 27.269,100.616 26.727,100.164 26.455 C 99.713 26.184,98.826 25.735,98.194 25.458 C 97.562 25.181,95.567 24.150,93.760 23.167 C 91.954 22.184,89.516 20.878,88.342 20.265 C 85.072 18.558,79.311 15.514,76.026 13.758 C 74.401 12.889,72.369 11.857,71.511 11.464 C 70.653 11.071,69.951 10.642,69.951 10.510 C 69.951 10.378,69.249 10.007,68.391 9.686 C 67.533 9.366,66.683 8.990,66.502 8.852 C 66.176 8.602,63.788 7.326,57.800 4.200 C 51.451 0.886,50.737 0.493,50.629 0.249 C 50.569 0.112,50.237 0.000,49.891 0.000 C 49.271 0.000,49.261 2.599,49.261 164.204 " stroke="none" fill="#bcbabb" fill-rule="evenodd"></path></g></svg>