<svg xmlns="http://www.w3.org/2000/svg" viewBox="0 0 297.67 154.66"><defs><style>.cls-1{fill:#d2d1d1;}.cls-2{fill:#c6d05b;}.cls-3{opacity:0.6;}.cls-4,.cls-8{font-size:10.79px;fill:#000;}.cls-4{font-family:Avenir-Heavy, Avenir Heavy;}.cls-5{opacity:0.5;}.cls-6{opacity:0.8;}.cls-7{opacity:0.39;}.cls-8{font-family:Arial-Black, Arial;}</style></defs><title>Ресурс 28</title><g id="Шар_2" data-name="Шар 2"><g id="Layer_1" data-name="Layer 1"><rect class="cls-1" x="0.06" y="0.17" width="120.82" height="35.3"/><rect class="cls-1" x="140.51" width="157.16" height="35.3"/><rect class="cls-2" x="0.27" y="39.87" width="120.61" height="35.3"/><g class="cls-3"><rect class="cls-1" y="79.57" width="120.88" height="35.3"/></g><rect class="cls-2" x="0.06" y="119.26" width="120.82" height="35.3"/><rect class="cls-2" x="140.43" y="39.87" width="157.24" height="35.3"/><g class="cls-3"><rect class="cls-1" x="140.64" y="79.57" width="157.03" height="35.3"/></g><rect class="cls-2" x="140.43" y="119.26" width="157.24" height="35.3"/><text class="cls-4" transform="translate(164.78 59.91)">Libido</text><text class="cls-4" transform="translate(163.3 140.78)">Stamina</text><text class="cls-4" transform="translate(163.98 100.51)">Erection Quality</text><text class="cls-4" transform="translate(16.71 61.1)">Testosterone</text><text class="cls-4" transform="translate(18.19 101.52)">Blood Flow</text><text class="cls-4" transform="translate(17.45 139.87)">Metabolism</text><g class="cls-5"><polyline class="cls-1" points="139.07 97.04 120.88 79.39 120.88 114.69 139.28 97.04"/></g><g class="cls-6"><polyline class="cls-1" points="139.07 17.82 120.88 0.17 120.88 35.47 139.28 17.82"/></g><g class="cls-7"><polyline class="cls-2" points="139.07 137.01 120.88 119.36 120.88 154.66 139.28 137.01"/></g><g class="cls-7"><polyline class="cls-2" points="139.21 57.52 121.02 39.87 121.02 75.17 139.42 57.52"/></g><text class="cls-8" transform="translate(7.83 23.09)" style="font-weight: 600">MALE BIO-DRIVER</text><text class="cls-8" transform="translate(149.23 22.06)" style="font-weight: 600">PHYSICAL INDICATION</text></g></g></svg>