<svg id="svg" version="1.1" width="400" height="266.6666666666667" xmlns="http://www.w3.org/2000/svg" xmlns:xlink="http://www.w3.org/1999/xlink" style="display: block;"><g id="svgg"><path id="path2" d="" stroke="none" fill="#aaaaaa" fill-rule="evenodd"></path><path id="path3" d="M158.251 49.213 C 158.824 49.642,159.312 49.730,159.087 49.366 C 159.007 49.237,158.670 49.063,158.337 48.979 C 157.755 48.832,157.752 48.840,158.251 49.213 M358.816 132.933 C 359.328 133.329,359.328 133.337,358.816 133.733 C 358.531 133.953,358.418 134.133,358.565 134.133 C 359.369 134.133,359.883 133.346,359.349 132.933 C 359.064 132.713,358.711 132.533,358.565 132.533 C 358.418 132.533,358.531 132.713,358.816 132.933 M158.251 217.453 C 157.752 217.827,157.755 217.835,158.337 217.688 C 158.670 217.604,159.007 217.430,159.087 217.301 C 159.312 216.936,158.824 217.025,158.251 217.453 " stroke="none" fill="#bfbfbf" fill-rule="evenodd"></path><path id="path4" d="M40.000 133.333 C 40.000 265.803,40.003 266.667,40.525 266.667 C 40.814 266.667,41.444 266.450,41.925 266.186 C 42.406 265.921,43.400 265.482,44.133 265.209 C 44.867 264.937,46.460 264.248,47.674 263.679 C 48.888 263.110,49.988 262.710,50.118 262.791 C 50.248 262.871,50.395 262.840,50.444 262.722 C 50.583 262.390,53.065 261.300,54.045 261.141 C 54.528 261.063,54.869 260.912,54.804 260.806 C 54.676 260.599,56.550 259.900,56.839 260.046 C 56.933 260.094,57.233 259.934,57.505 259.689 C 57.777 259.445,58.810 258.985,59.800 258.666 C 60.790 258.348,61.600 257.987,61.600 257.865 C 61.600 257.742,61.990 257.560,62.467 257.459 C 62.943 257.358,63.753 257.052,64.267 256.779 C 64.780 256.506,66.731 255.679,68.602 254.942 C 70.474 254.205,72.214 253.490,72.469 253.354 C 73.183 252.972,73.975 252.710,74.233 252.769 C 74.362 252.798,74.662 252.652,74.900 252.445 C 75.352 252.051,77.319 251.317,77.667 251.412 C 77.777 251.442,77.867 251.347,77.867 251.200 C 77.867 251.053,77.972 250.933,78.101 250.933 C 78.230 250.933,78.800 250.731,79.367 250.483 C 79.935 250.235,80.490 250.010,80.600 249.983 C 80.710 249.956,80.830 249.909,80.867 249.880 C 80.903 249.850,81.171 249.782,81.462 249.727 C 81.752 249.673,82.032 249.503,82.084 249.348 C 82.136 249.193,82.384 249.067,82.636 249.067 C 82.887 249.067,83.237 248.923,83.413 248.747 C 83.589 248.571,83.733 248.513,83.733 248.619 C 83.733 248.724,84.213 248.566,84.800 248.267 C 85.387 247.967,85.867 247.794,85.867 247.880 C 85.867 247.967,86.055 247.850,86.286 247.619 C 86.516 247.389,86.876 247.185,87.086 247.167 C 87.767 247.107,88.851 246.683,89.067 246.392 C 89.140 246.293,89.964 245.950,90.897 245.629 C 91.831 245.308,93.031 244.824,93.564 244.552 C 94.097 244.280,94.628 244.053,94.743 244.048 C 94.858 244.043,95.475 243.786,96.114 243.476 C 96.752 243.167,97.519 242.867,97.818 242.809 C 98.116 242.752,98.649 242.516,99.001 242.285 C 99.354 242.054,99.723 241.945,99.821 242.044 C 99.920 242.142,100.000 242.097,100.000 241.944 C 100.000 241.792,100.390 241.575,100.867 241.463 C 102.014 241.193,101.917 241.227,102.600 240.848 C 102.930 240.665,103.202 240.609,103.204 240.724 C 103.206 240.839,103.296 240.809,103.404 240.657 C 103.611 240.365,107.807 238.400,108.224 238.400 C 108.359 238.400,109.168 238.080,110.022 237.689 C 110.876 237.298,111.731 236.978,111.921 236.978 C 112.111 236.978,112.267 236.878,112.267 236.756 C 112.267 236.633,112.409 236.533,112.582 236.533 C 112.756 236.533,113.416 236.283,114.049 235.976 C 114.681 235.670,115.349 235.393,115.533 235.360 C 116.200 235.241,117.203 234.857,117.333 234.670 C 117.407 234.565,118.187 234.212,119.067 233.885 C 122.574 232.584,123.092 232.370,123.733 231.954 C 124.100 231.717,124.700 231.437,125.067 231.333 C 125.433 231.230,126.693 230.729,127.867 230.220 C 129.040 229.712,130.240 229.201,130.533 229.085 C 130.827 228.969,131.487 228.693,132.001 228.473 C 132.515 228.252,133.334 227.984,133.820 227.877 C 134.307 227.770,134.636 227.614,134.553 227.531 C 134.469 227.447,135.031 227.159,135.800 226.890 C 136.570 226.622,137.560 226.229,138.000 226.018 C 138.707 225.679,139.295 225.460,139.936 225.298 C 140.045 225.271,140.643 224.964,141.267 224.616 C 141.890 224.268,142.400 224.051,142.400 224.134 C 142.400 224.217,142.670 224.136,143.000 223.953 C 143.330 223.771,143.750 223.652,143.933 223.689 C 144.117 223.726,144.267 223.646,144.267 223.511 C 144.267 223.289,144.870 222.994,146.203 222.566 C 146.461 222.483,146.701 222.421,146.736 222.430 C 146.771 222.438,147.400 222.146,148.133 221.781 C 148.867 221.416,149.977 220.967,150.600 220.783 C 151.223 220.599,151.733 220.348,151.733 220.224 C 151.733 220.101,151.943 219.998,152.200 219.997 C 152.457 219.995,153.374 219.635,154.238 219.197 C 155.102 218.758,155.954 218.400,156.131 218.400 C 156.309 218.400,156.992 218.114,157.650 217.764 C 158.307 217.414,159.224 217.045,159.686 216.944 C 160.149 216.842,160.596 216.648,160.679 216.513 C 160.763 216.377,161.124 216.267,161.482 216.267 C 161.840 216.267,162.133 216.176,162.133 216.065 C 162.133 215.906,165.053 214.613,165.600 214.531 C 165.673 214.520,166.123 214.303,166.600 214.049 C 167.077 213.794,167.467 213.656,167.467 213.742 C 167.467 213.827,168.037 213.597,168.733 213.230 C 169.825 212.656,170.702 212.270,171.200 212.146 C 171.273 212.128,171.753 211.920,172.267 211.685 C 173.215 211.250,174.031 210.949,174.272 210.946 C 174.346 210.945,174.794 210.737,175.269 210.484 C 176.189 209.993,178.888 208.810,179.333 208.702 C 179.480 208.667,180.185 208.374,180.901 208.052 C 181.616 207.730,182.433 207.467,182.716 207.467 C 183.000 207.467,183.171 207.369,183.098 207.250 C 183.024 207.131,183.647 206.819,184.482 206.557 C 185.317 206.295,186.180 205.972,186.400 205.839 C 187.038 205.452,188.210 205.033,188.348 205.141 C 188.389 205.173,188.748 204.987,189.145 204.727 C 189.542 204.467,189.867 204.336,189.867 204.435 C 189.867 204.535,190.077 204.436,190.333 204.215 C 190.847 203.774,191.535 203.482,192.496 203.299 C 192.843 203.233,193.276 203.029,193.459 202.846 C 193.642 202.663,194.528 202.278,195.429 201.990 C 196.330 201.702,197.067 201.390,197.067 201.296 C 197.067 201.201,197.397 201.044,197.800 200.945 C 198.203 200.846,199.137 200.482,199.875 200.136 C 200.613 199.789,201.573 199.420,202.009 199.314 C 202.444 199.209,203.119 198.900,203.508 198.628 C 203.897 198.356,204.397 198.133,204.620 198.133 C 204.842 198.133,205.363 197.964,205.778 197.756 C 206.857 197.218,208.628 196.449,210.933 195.521 C 213.697 194.407,213.972 194.309,214.200 194.358 C 214.310 194.381,214.400 194.294,214.400 194.164 C 214.400 194.035,214.670 193.867,215.000 193.791 C 215.819 193.604,217.437 192.970,217.600 192.772 C 217.673 192.683,218.213 192.457,218.800 192.269 C 219.387 192.081,220.409 191.656,221.071 191.324 C 221.734 190.992,222.784 190.584,223.404 190.417 C 224.025 190.250,224.533 189.997,224.533 189.856 C 224.533 189.715,224.623 189.625,224.733 189.655 C 224.843 189.685,225.293 189.519,225.733 189.287 C 226.173 189.054,226.923 188.780,227.400 188.678 C 227.877 188.575,228.267 188.405,228.267 188.301 C 228.267 188.196,228.957 187.884,229.800 187.606 C 230.643 187.329,231.457 187.012,231.608 186.901 C 231.759 186.789,233.979 185.858,236.541 184.830 C 239.104 183.802,241.688 182.722,242.285 182.431 C 242.881 182.140,243.721 181.817,244.151 181.715 C 244.581 181.612,245.113 181.374,245.333 181.185 C 245.553 180.996,246.093 180.756,246.533 180.651 C 246.973 180.546,247.453 180.390,247.600 180.304 C 247.747 180.218,248.035 180.123,248.240 180.092 C 248.445 180.061,248.685 179.926,248.773 179.793 C 248.861 179.660,249.533 179.331,250.267 179.063 C 251.000 178.794,251.731 178.477,251.891 178.356 C 252.051 178.236,252.261 178.217,252.358 178.313 C 252.454 178.410,252.533 178.362,252.533 178.207 C 252.533 178.051,252.863 177.844,253.267 177.745 C 253.670 177.646,254.600 177.285,255.333 176.943 C 256.067 176.601,257.177 176.170,257.800 175.985 C 258.423 175.800,258.933 175.568,258.933 175.469 C 258.933 175.370,259.083 175.289,259.267 175.289 C 259.450 175.289,260.020 175.104,260.533 174.877 C 264.360 173.191,266.282 172.410,266.459 172.467 C 266.573 172.503,266.667 172.427,266.667 172.296 C 266.667 172.166,267.116 171.975,267.666 171.872 C 268.216 171.769,268.726 171.598,268.799 171.492 C 268.942 171.288,271.924 170.043,272.056 170.133 C 272.098 170.162,272.850 169.814,273.726 169.360 C 274.602 168.905,275.532 168.533,275.793 168.533 C 276.053 168.533,276.267 168.413,276.267 168.267 C 276.267 168.120,276.357 168.019,276.467 168.042 C 276.577 168.065,277.085 167.895,277.597 167.665 C 278.109 167.436,278.619 167.304,278.731 167.373 C 278.842 167.442,278.933 167.351,278.933 167.171 C 278.933 166.992,279.014 166.925,279.112 167.023 C 279.210 167.121,279.544 167.036,279.854 166.833 C 280.164 166.630,281.373 166.081,282.542 165.614 C 283.711 165.146,284.851 164.667,285.075 164.549 C 285.300 164.431,285.870 164.250,286.342 164.146 C 286.814 164.042,287.200 163.871,287.200 163.766 C 287.200 163.660,287.650 163.422,288.200 163.235 C 288.750 163.049,289.860 162.621,290.667 162.283 C 292.499 161.517,293.189 161.275,293.239 161.383 C 293.260 161.429,293.500 161.266,293.772 161.021 C 294.044 160.776,294.627 160.491,295.067 160.389 C 295.507 160.287,296.107 160.057,296.400 159.878 C 296.693 159.699,297.533 159.334,298.267 159.067 C 299.000 158.800,300.453 158.181,301.495 157.691 C 302.537 157.201,303.580 156.800,303.812 156.800 C 304.045 156.800,304.301 156.693,304.382 156.563 C 304.462 156.432,304.852 156.245,305.247 156.145 C 305.643 156.046,306.847 155.553,307.922 155.049 C 308.998 154.545,310.007 154.133,310.165 154.133 C 310.322 154.133,310.770 153.958,311.159 153.744 C 311.548 153.530,312.467 153.102,313.200 152.792 C 313.933 152.482,314.893 152.066,315.333 151.868 C 315.773 151.670,316.493 151.420,316.933 151.312 C 317.373 151.204,317.983 150.954,318.288 150.757 C 318.593 150.560,319.463 150.214,320.221 149.989 C 320.980 149.764,321.600 149.464,321.600 149.323 C 321.600 149.182,321.690 149.086,321.800 149.109 C 322.057 149.163,322.681 148.920,324.717 147.970 C 325.624 147.546,326.480 147.200,326.619 147.200 C 326.759 147.200,327.207 147.026,327.617 146.814 C 328.027 146.601,328.460 146.488,328.581 146.563 C 328.701 146.637,328.800 146.584,328.800 146.445 C 328.800 146.305,329.122 146.110,329.515 146.012 C 329.909 145.913,330.719 145.593,331.315 145.301 C 332.236 144.851,333.395 144.358,337.200 142.798 C 337.493 142.678,337.803 142.569,337.888 142.556 C 337.972 142.544,338.452 142.331,338.954 142.084 C 339.767 141.683,340.230 141.506,340.860 141.355 C 340.967 141.329,341.378 141.140,341.774 140.935 C 342.171 140.729,342.594 140.622,342.714 140.696 C 342.835 140.771,342.933 140.712,342.933 140.567 C 342.933 140.344,343.542 140.030,344.333 139.846 C 344.443 139.821,344.593 139.770,344.667 139.733 C 344.740 139.697,344.890 139.641,345.000 139.609 C 345.183 139.557,346.537 138.990,347.867 138.410 C 348.160 138.282,349.060 137.873,349.867 137.501 C 350.673 137.129,351.663 136.746,352.067 136.650 C 352.470 136.554,352.800 136.389,352.800 136.282 C 352.800 136.176,352.951 136.089,353.135 136.089 C 353.319 136.089,354.489 135.642,355.735 135.095 C 356.981 134.548,358.270 133.991,358.600 133.856 C 358.930 133.722,359.200 133.486,359.200 133.333 C 359.200 133.180,358.930 132.945,358.600 132.811 C 358.270 132.676,356.981 132.119,355.735 131.572 C 354.489 131.025,353.319 130.578,353.135 130.578 C 352.951 130.578,352.800 130.491,352.800 130.384 C 352.800 130.278,352.470 130.113,352.067 130.017 C 351.663 129.921,350.673 129.538,349.867 129.166 C 349.060 128.794,348.160 128.385,347.867 128.257 C 346.537 127.677,345.183 127.110,345.000 127.057 C 344.890 127.026,344.740 126.970,344.667 126.933 C 344.593 126.897,344.443 126.846,344.333 126.820 C 343.542 126.637,342.933 126.323,342.933 126.100 C 342.933 125.954,342.835 125.896,342.714 125.971 C 342.594 126.045,342.144 125.924,341.714 125.701 C 341.285 125.478,340.933 125.312,340.933 125.332 C 340.933 125.425,339.772 124.986,338.954 124.583 C 338.452 124.336,337.972 124.123,337.888 124.110 C 337.803 124.098,337.493 123.989,337.200 123.869 C 333.395 122.309,332.236 121.816,331.315 121.365 C 330.719 121.073,329.909 120.754,329.515 120.655 C 329.122 120.556,328.800 120.361,328.800 120.222 C 328.800 120.083,328.701 120.029,328.581 120.104 C 328.460 120.178,328.027 120.066,327.617 119.853 C 327.207 119.641,326.759 119.467,326.619 119.467 C 326.480 119.467,325.624 119.120,324.717 118.697 C 322.681 117.747,322.057 117.503,321.800 117.558 C 321.690 117.581,321.600 117.485,321.600 117.344 C 321.600 117.203,320.980 116.903,320.221 116.678 C 319.463 116.453,318.593 116.107,318.288 115.910 C 317.983 115.712,317.373 115.463,316.933 115.355 C 316.493 115.247,315.773 114.997,315.333 114.799 C 314.893 114.601,313.933 114.185,313.200 113.875 C 312.467 113.565,311.548 113.136,311.159 112.922 C 310.770 112.708,310.322 112.533,310.165 112.533 C 310.007 112.533,308.998 112.121,307.922 111.618 C 306.847 111.114,305.643 110.621,305.247 110.521 C 304.852 110.422,304.462 110.234,304.382 110.104 C 304.301 109.973,304.045 109.867,303.812 109.867 C 303.580 109.867,302.537 109.466,301.495 108.976 C 300.453 108.486,299.000 107.867,298.267 107.600 C 297.533 107.332,296.693 106.968,296.400 106.789 C 296.107 106.610,295.507 106.380,295.067 106.278 C 294.627 106.175,294.087 105.930,293.867 105.732 C 293.647 105.533,293.347 105.348,293.200 105.318 C 292.757 105.230,292.204 105.026,290.667 104.383 C 289.860 104.046,288.750 103.617,288.200 103.431 C 287.650 103.245,287.200 103.007,287.200 102.901 C 287.200 102.795,286.814 102.624,286.342 102.521 C 285.870 102.417,285.300 102.236,285.075 102.118 C 284.851 102.000,283.711 101.521,282.542 101.053 C 281.373 100.585,280.164 100.037,279.854 99.834 C 279.544 99.631,279.210 99.545,279.112 99.644 C 279.014 99.742,278.933 99.675,278.933 99.495 C 278.933 99.316,278.842 99.225,278.731 99.294 C 278.619 99.363,278.109 99.231,277.597 99.001 C 277.085 98.771,276.577 98.602,276.467 98.625 C 276.357 98.648,276.267 98.547,276.267 98.400 C 276.267 98.253,276.053 98.133,275.793 98.133 C 275.532 98.133,274.602 97.761,273.726 97.307 C 272.850 96.853,272.098 96.505,272.056 96.534 C 271.924 96.623,268.942 95.378,268.799 95.174 C 268.726 95.069,268.216 94.898,267.666 94.795 C 267.116 94.692,266.667 94.501,266.667 94.370 C 266.667 94.240,266.573 94.163,266.459 94.200 C 266.282 94.257,264.360 93.475,260.533 91.789 C 260.020 91.563,259.450 91.378,259.267 91.378 C 259.083 91.378,258.933 91.297,258.933 91.198 C 258.933 91.099,258.423 90.866,257.800 90.681 C 257.177 90.497,256.067 90.065,255.333 89.723 C 254.600 89.381,253.670 89.021,253.267 88.922 C 252.863 88.823,252.533 88.615,252.533 88.460 C 252.533 88.305,252.454 88.257,252.358 88.353 C 252.261 88.450,252.051 88.430,251.891 88.310 C 251.731 88.190,251.000 87.872,250.267 87.604 C 249.533 87.335,248.861 87.007,248.773 86.873 C 248.685 86.740,248.445 86.606,248.240 86.575 C 248.035 86.544,247.747 86.448,247.600 86.363 C 247.453 86.277,246.973 86.121,246.533 86.016 C 246.093 85.911,245.553 85.671,245.333 85.482 C 245.113 85.293,244.581 85.054,244.151 84.952 C 243.721 84.849,242.881 84.527,242.285 84.236 C 241.688 83.944,239.104 82.865,236.541 81.837 C 233.979 80.809,231.759 79.877,231.608 79.766 C 231.457 79.655,230.643 79.337,229.800 79.060 C 228.957 78.783,228.267 78.471,228.267 78.366 C 228.267 78.261,227.877 78.092,227.400 77.989 C 226.923 77.886,226.173 77.612,225.733 77.380 C 225.293 77.147,224.843 76.982,224.733 77.012 C 224.623 77.042,224.533 76.951,224.533 76.810 C 224.533 76.669,224.025 76.417,223.404 76.250 C 222.784 76.083,221.734 75.674,221.071 75.343 C 220.409 75.011,219.387 74.586,218.800 74.398 C 218.213 74.210,217.673 73.983,217.600 73.895 C 217.437 73.697,215.819 73.063,215.000 72.875 C 214.670 72.800,214.400 72.632,214.400 72.502 C 214.400 72.373,214.310 72.286,214.200 72.309 C 213.972 72.357,213.697 72.259,210.933 71.146 C 208.628 70.217,206.857 69.449,205.778 68.910 C 205.363 68.703,204.842 68.533,204.620 68.533 C 204.397 68.533,203.897 68.311,203.508 68.039 C 203.119 67.767,202.444 67.458,202.009 67.353 C 201.573 67.247,200.613 66.877,199.875 66.531 C 199.137 66.185,198.203 65.821,197.800 65.722 C 197.397 65.623,197.067 65.465,197.067 65.371 C 197.067 65.277,196.330 64.964,195.429 64.677 C 194.528 64.389,193.642 64.004,193.459 63.821 C 193.276 63.638,192.843 63.434,192.496 63.368 C 191.535 63.184,190.847 62.893,190.333 62.451 C 190.077 62.231,189.867 62.132,189.867 62.231 C 189.867 62.331,189.597 62.235,189.267 62.019 C 188.937 61.803,188.607 61.628,188.533 61.630 C 188.276 61.638,187.329 61.292,186.933 61.046 C 186.448 60.743,186.386 60.720,184.482 60.115 C 183.647 59.850,183.024 59.536,183.098 59.417 C 183.171 59.297,183.000 59.200,182.716 59.200 C 182.433 59.200,181.616 58.937,180.901 58.615 C 180.185 58.293,179.480 58.000,179.333 57.964 C 178.888 57.856,176.189 56.673,175.269 56.183 C 174.794 55.930,174.314 55.710,174.203 55.694 C 173.828 55.641,173.206 55.412,172.267 54.982 C 171.753 54.746,171.273 54.539,171.200 54.520 C 170.702 54.396,169.825 54.011,168.733 53.436 C 168.037 53.069,167.467 52.839,167.467 52.925 C 167.467 53.010,167.077 52.872,166.600 52.618 C 166.123 52.364,165.673 52.147,165.600 52.136 C 165.053 52.054,162.133 50.761,162.133 50.601 C 162.133 50.491,161.840 50.400,161.482 50.400 C 161.124 50.400,160.763 50.289,160.679 50.154 C 160.596 50.018,160.149 49.825,159.686 49.723 C 159.224 49.621,158.307 49.252,157.650 48.903 C 156.992 48.553,156.309 48.267,156.131 48.267 C 155.954 48.267,155.102 47.908,154.238 47.470 C 153.374 47.032,152.457 46.672,152.200 46.670 C 151.943 46.668,151.733 46.566,151.733 46.442 C 151.733 46.319,151.223 46.067,150.600 45.883 C 149.977 45.700,148.867 45.250,148.133 44.885 C 147.400 44.520,146.800 44.240,146.800 44.261 C 146.800 44.283,146.560 44.222,146.267 44.126 C 144.825 43.651,144.267 43.380,144.267 43.156 C 144.267 43.021,144.117 42.940,143.933 42.978 C 143.750 43.015,143.330 42.896,143.000 42.713 C 142.670 42.531,142.400 42.449,142.400 42.533 C 142.400 42.616,141.859 42.382,141.198 42.013 C 140.537 41.643,139.938 41.336,139.867 41.330 C 139.560 41.303,138.740 41.004,138.000 40.649 C 137.560 40.438,136.570 40.045,135.800 39.776 C 135.031 39.508,134.469 39.220,134.553 39.136 C 134.636 39.052,134.307 38.897,133.820 38.790 C 133.334 38.683,132.515 38.415,132.001 38.194 C 131.487 37.973,130.827 37.698,130.533 37.582 C 130.240 37.466,129.040 36.955,127.867 36.446 C 126.693 35.938,125.433 35.437,125.067 35.333 C 124.700 35.229,124.100 34.950,123.733 34.713 C 123.092 34.297,122.574 34.083,119.067 32.782 C 118.187 32.455,117.407 32.102,117.333 31.997 C 117.203 31.810,116.200 31.425,115.533 31.306 C 115.349 31.274,114.681 30.996,114.049 30.690 C 113.416 30.384,112.756 30.133,112.582 30.133 C 112.409 30.133,112.267 30.033,112.267 29.911 C 112.267 29.789,112.111 29.689,111.921 29.689 C 111.731 29.689,110.876 29.369,110.022 28.978 C 109.168 28.587,108.359 28.267,108.224 28.267 C 107.807 28.267,103.611 26.302,103.404 26.010 C 103.296 25.858,103.206 25.828,103.204 25.943 C 103.202 26.058,102.930 26.002,102.600 25.819 C 101.917 25.440,102.014 25.474,100.867 25.204 C 100.390 25.092,100.000 24.875,100.000 24.722 C 100.000 24.569,99.920 24.525,99.821 24.623 C 99.723 24.721,99.354 24.613,99.001 24.382 C 98.649 24.151,98.116 23.915,97.818 23.857 C 97.519 23.800,96.752 23.500,96.114 23.190 C 95.475 22.881,94.858 22.624,94.743 22.619 C 94.628 22.614,94.097 22.387,93.564 22.115 C 93.031 21.843,91.831 21.358,90.897 21.037 C 89.964 20.717,89.140 20.373,89.067 20.274 C 88.851 19.983,87.767 19.560,87.086 19.500 C 86.876 19.482,86.516 19.278,86.286 19.048 C 86.055 18.817,85.867 18.700,85.867 18.786 C 85.867 18.873,85.387 18.699,84.800 18.400 C 84.213 18.101,83.733 17.942,83.733 18.048 C 83.733 18.154,83.589 18.096,83.413 17.920 C 83.237 17.744,82.887 17.600,82.636 17.600 C 82.384 17.600,82.136 17.473,82.084 17.319 C 82.032 17.164,81.752 16.993,81.462 16.939 C 81.171 16.885,80.903 16.817,80.867 16.787 C 80.830 16.758,80.710 16.711,80.600 16.684 C 80.490 16.657,79.935 16.432,79.367 16.184 C 78.800 15.936,78.230 15.733,78.101 15.733 C 77.972 15.733,77.867 15.613,77.867 15.467 C 77.867 15.320,77.777 15.225,77.667 15.255 C 77.319 15.350,75.352 14.615,74.900 14.222 C 74.662 14.014,74.362 13.868,74.233 13.898 C 73.975 13.957,73.183 13.695,72.469 13.313 C 72.214 13.177,70.474 12.462,68.602 11.725 C 66.731 10.988,64.780 10.161,64.267 9.888 C 63.753 9.615,62.943 9.309,62.467 9.208 C 61.990 9.107,61.600 8.924,61.600 8.802 C 61.600 8.680,60.790 8.319,59.800 8.000 C 58.810 7.682,57.820 7.260,57.600 7.063 C 57.380 6.866,57.140 6.725,57.067 6.750 C 56.766 6.853,54.694 6.039,54.804 5.861 C 54.869 5.755,54.528 5.604,54.045 5.526 C 53.065 5.367,50.583 4.276,50.444 3.944 C 50.395 3.826,50.248 3.796,50.118 3.876 C 49.988 3.957,48.888 3.557,47.674 2.988 C 46.460 2.419,44.867 1.730,44.133 1.457 C 43.400 1.185,42.406 0.745,41.925 0.481 C 41.444 0.216,40.814 0.000,40.525 0.000 C 40.003 0.000,40.000 0.864,40.000 133.333 " stroke="none" fill="#d2d1d1" fill-rule="evenodd"></path><path id="path0" d="" stroke="none" fill="#000000" fill-rule="evenodd"></path><path id="path1" d="" stroke="none" fill="#7f7f7f" fill-rule="evenodd"></path><path id="path2" d="" stroke="none" fill="#aaaaaa" fill-rule="evenodd"></path><path id="path3" d="M158.251 49.213 C 158.824 49.642,159.312 49.730,159.087 49.366 C 159.007 49.237,158.670 49.063,158.337 48.979 C 157.755 48.832,157.752 48.840,158.251 49.213 M358.816 132.933 C 359.328 133.329,359.328 133.337,358.816 133.733 C 358.531 133.953,358.418 134.133,358.565 134.133 C 359.369 134.133,359.883 133.346,359.349 132.933 C 359.064 132.713,358.711 132.533,358.565 132.533 C 358.418 132.533,358.531 132.713,358.816 132.933 M158.251 217.453 C 157.752 217.827,157.755 217.835,158.337 217.688 C 158.670 217.604,159.007 217.430,159.087 217.301 C 159.312 216.936,158.824 217.025,158.251 217.453 " stroke="none" fill="#bfbfbf" fill-rule="evenodd"></path><path id="path4" d="M40.000 133.333 C 40.000 265.803,40.003 266.667,40.525 266.667 C 40.814 266.667,41.444 266.450,41.925 266.186 C 42.406 265.921,43.400 265.482,44.133 265.209 C 44.867 264.937,46.460 264.248,47.674 263.679 C 48.888 263.110,49.988 262.710,50.118 262.791 C 50.248 262.871,50.395 262.840,50.444 262.722 C 50.583 262.390,53.065 261.300,54.045 261.141 C 54.528 261.063,54.869 260.912,54.804 260.806 C 54.676 260.599,56.550 259.900,56.839 260.046 C 56.933 260.094,57.233 259.934,57.505 259.689 C 57.777 259.445,58.810 258.985,59.800 258.666 C 60.790 258.348,61.600 257.987,61.600 257.865 C 61.600 257.742,61.990 257.560,62.467 257.459 C 62.943 257.358,63.753 257.052,64.267 256.779 C 64.780 256.506,66.731 255.679,68.602 254.942 C 70.474 254.205,72.214 253.490,72.469 253.354 C 73.183 252.972,73.975 252.710,74.233 252.769 C 74.362 252.798,74.662 252.652,74.900 252.445 C 75.352 252.051,77.319 251.317,77.667 251.412 C 77.777 251.442,77.867 251.347,77.867 251.200 C 77.867 251.053,77.972 250.933,78.101 250.933 C 78.230 250.933,78.800 250.731,79.367 250.483 C 79.935 250.235,80.490 250.010,80.600 249.983 C 80.710 249.956,80.830 249.909,80.867 249.880 C 80.903 249.850,81.171 249.782,81.462 249.727 C 81.752 249.673,82.032 249.503,82.084 249.348 C 82.136 249.193,82.384 249.067,82.636 249.067 C 82.887 249.067,83.237 248.923,83.413 248.747 C 83.589 248.571,83.733 248.513,83.733 248.619 C 83.733 248.724,84.213 248.566,84.800 248.267 C 85.387 247.967,85.867 247.794,85.867 247.880 C 85.867 247.967,86.055 247.850,86.286 247.619 C 86.516 247.389,86.876 247.185,87.086 247.167 C 87.767 247.107,88.851 246.683,89.067 246.392 C 89.140 246.293,89.964 245.950,90.897 245.629 C 91.831 245.308,93.031 244.824,93.564 244.552 C 94.097 244.280,94.628 244.053,94.743 244.048 C 94.858 244.043,95.475 243.786,96.114 243.476 C 96.752 243.167,97.519 242.867,97.818 242.809 C 98.116 242.752,98.649 242.516,99.001 242.285 C 99.354 242.054,99.723 241.945,99.821 242.044 C 99.920 242.142,100.000 242.097,100.000 241.944 C 100.000 241.792,100.390 241.575,100.867 241.463 C 102.014 241.193,101.917 241.227,102.600 240.848 C 102.930 240.665,103.202 240.609,103.204 240.724 C 103.206 240.839,103.296 240.809,103.404 240.657 C 103.611 240.365,107.807 238.400,108.224 238.400 C 108.359 238.400,109.168 238.080,110.022 237.689 C 110.876 237.298,111.731 236.978,111.921 236.978 C 112.111 236.978,112.267 236.878,112.267 236.756 C 112.267 236.633,112.409 236.533,112.582 236.533 C 112.756 236.533,113.416 236.283,114.049 235.976 C 114.681 235.670,115.349 235.393,115.533 235.360 C 116.200 235.241,117.203 234.857,117.333 234.670 C 117.407 234.565,118.187 234.212,119.067 233.885 C 122.574 232.584,123.092 232.370,123.733 231.954 C 124.100 231.717,124.700 231.437,125.067 231.333 C 125.433 231.230,126.693 230.729,127.867 230.220 C 129.040 229.712,130.240 229.201,130.533 229.085 C 130.827 228.969,131.487 228.693,132.001 228.473 C 132.515 228.252,133.334 227.984,133.820 227.877 C 134.307 227.770,134.636 227.614,134.553 227.531 C 134.469 227.447,135.031 227.159,135.800 226.890 C 136.570 226.622,137.560 226.229,138.000 226.018 C 138.707 225.679,139.295 225.460,139.936 225.298 C 140.045 225.271,140.643 224.964,141.267 224.616 C 141.890 224.268,142.400 224.051,142.400 224.134 C 142.400 224.217,142.670 224.136,143.000 223.953 C 143.330 223.771,143.750 223.652,143.933 223.689 C 144.117 223.726,144.267 223.646,144.267 223.511 C 144.267 223.289,144.870 222.994,146.203 222.566 C 146.461 222.483,146.701 222.421,146.736 222.430 C 146.771 222.438,147.400 222.146,148.133 221.781 C 148.867 221.416,149.977 220.967,150.600 220.783 C 151.223 220.599,151.733 220.348,151.733 220.224 C 151.733 220.101,151.943 219.998,152.200 219.997 C 152.457 219.995,153.374 219.635,154.238 219.197 C 155.102 218.758,155.954 218.400,156.131 218.400 C 156.309 218.400,156.992 218.114,157.650 217.764 C 158.307 217.414,159.224 217.045,159.686 216.944 C 160.149 216.842,160.596 216.648,160.679 216.513 C 160.763 216.377,161.124 216.267,161.482 216.267 C 161.840 216.267,162.133 216.176,162.133 216.065 C 162.133 215.906,165.053 214.613,165.600 214.531 C 165.673 214.520,166.123 214.303,166.600 214.049 C 167.077 213.794,167.467 213.656,167.467 213.742 C 167.467 213.827,168.037 213.597,168.733 213.230 C 169.825 212.656,170.702 212.270,171.200 212.146 C 171.273 212.128,171.753 211.920,172.267 211.685 C 173.215 211.250,174.031 210.949,174.272 210.946 C 174.346 210.945,174.794 210.737,175.269 210.484 C 176.189 209.993,178.888 208.810,179.333 208.702 C 179.480 208.667,180.185 208.374,180.901 208.052 C 181.616 207.730,182.433 207.467,182.716 207.467 C 183.000 207.467,183.171 207.369,183.098 207.250 C 183.024 207.131,183.647 206.819,184.482 206.557 C 185.317 206.295,186.180 205.972,186.400 205.839 C 187.038 205.452,188.210 205.033,188.348 205.141 C 188.389 205.173,188.748 204.987,189.145 204.727 C 189.542 204.467,189.867 204.336,189.867 204.435 C 189.867 204.535,190.077 204.436,190.333 204.215 C 190.847 203.774,191.535 203.482,192.496 203.299 C 192.843 203.233,193.276 203.029,193.459 202.846 C 193.642 202.663,194.528 202.278,195.429 201.990 C 196.330 201.702,197.067 201.390,197.067 201.296 C 197.067 201.201,197.397 201.044,197.800 200.945 C 198.203 200.846,199.137 200.482,199.875 200.136 C 200.613 199.789,201.573 199.420,202.009 199.314 C 202.444 199.209,203.119 198.900,203.508 198.628 C 203.897 198.356,204.397 198.133,204.620 198.133 C 204.842 198.133,205.363 197.964,205.778 197.756 C 206.857 197.218,208.628 196.449,210.933 195.521 C 213.697 194.407,213.972 194.309,214.200 194.358 C 214.310 194.381,214.400 194.294,214.400 194.164 C 214.400 194.035,214.670 193.867,215.000 193.791 C 215.819 193.604,217.437 192.970,217.600 192.772 C 217.673 192.683,218.213 192.457,218.800 192.269 C 219.387 192.081,220.409 191.656,221.071 191.324 C 221.734 190.992,222.784 190.584,223.404 190.417 C 224.025 190.250,224.533 189.997,224.533 189.856 C 224.533 189.715,224.623 189.625,224.733 189.655 C 224.843 189.685,225.293 189.519,225.733 189.287 C 226.173 189.054,226.923 188.780,227.400 188.678 C 227.877 188.575,228.267 188.405,228.267 188.301 C 228.267 188.196,228.957 187.884,229.800 187.606 C 230.643 187.329,231.457 187.012,231.608 186.901 C 231.759 186.789,233.979 185.858,236.541 184.830 C 239.104 183.802,241.688 182.722,242.285 182.431 C 242.881 182.140,243.721 181.817,244.151 181.715 C 244.581 181.612,245.113 181.374,245.333 181.185 C 245.553 180.996,246.093 180.756,246.533 180.651 C 246.973 180.546,247.453 180.390,247.600 180.304 C 247.747 180.218,248.035 180.123,248.240 180.092 C 248.445 180.061,248.685 179.926,248.773 179.793 C 248.861 179.660,249.533 179.331,250.267 179.063 C 251.000 178.794,251.731 178.477,251.891 178.356 C 252.051 178.236,252.261 178.217,252.358 178.313 C 252.454 178.410,252.533 178.362,252.533 178.207 C 252.533 178.051,252.863 177.844,253.267 177.745 C 253.670 177.646,254.600 177.285,255.333 176.943 C 256.067 176.601,257.177 176.170,257.800 175.985 C 258.423 175.800,258.933 175.568,258.933 175.469 C 258.933 175.370,259.083 175.289,259.267 175.289 C 259.450 175.289,260.020 175.104,260.533 174.877 C 264.360 173.191,266.282 172.410,266.459 172.467 C 266.573 172.503,266.667 172.427,266.667 172.296 C 266.667 172.166,267.116 171.975,267.666 171.872 C 268.216 171.769,268.726 171.598,268.799 171.492 C 268.942 171.288,271.924 170.043,272.056 170.133 C 272.098 170.162,272.850 169.814,273.726 169.360 C 274.602 168.905,275.532 168.533,275.793 168.533 C 276.053 168.533,276.267 168.413,276.267 168.267 C 276.267 168.120,276.357 168.019,276.467 168.042 C 276.577 168.065,277.085 167.895,277.597 167.665 C 278.109 167.436,278.619 167.304,278.731 167.373 C 278.842 167.442,278.933 167.351,278.933 167.171 C 278.933 166.992,279.014 166.925,279.112 167.023 C 279.210 167.121,279.544 167.036,279.854 166.833 C 280.164 166.630,281.373 166.081,282.542 165.614 C 283.711 165.146,284.851 164.667,285.075 164.549 C 285.300 164.431,285.870 164.250,286.342 164.146 C 286.814 164.042,287.200 163.871,287.200 163.766 C 287.200 163.660,287.650 163.422,288.200 163.235 C 288.750 163.049,289.860 162.621,290.667 162.283 C 292.499 161.517,293.189 161.275,293.239 161.383 C 293.260 161.429,293.500 161.266,293.772 161.021 C 294.044 160.776,294.627 160.491,295.067 160.389 C 295.507 160.287,296.107 160.057,296.400 159.878 C 296.693 159.699,297.533 159.334,298.267 159.067 C 299.000 158.800,300.453 158.181,301.495 157.691 C 302.537 157.201,303.580 156.800,303.812 156.800 C 304.045 156.800,304.301 156.693,304.382 156.563 C 304.462 156.432,304.852 156.245,305.247 156.145 C 305.643 156.046,306.847 155.553,307.922 155.049 C 308.998 154.545,310.007 154.133,310.165 154.133 C 310.322 154.133,310.770 153.958,311.159 153.744 C 311.548 153.530,312.467 153.102,313.200 152.792 C 313.933 152.482,314.893 152.066,315.333 151.868 C 315.773 151.670,316.493 151.420,316.933 151.312 C 317.373 151.204,317.983 150.954,318.288 150.757 C 318.593 150.560,319.463 150.214,320.221 149.989 C 320.980 149.764,321.600 149.464,321.600 149.323 C 321.600 149.182,321.690 149.086,321.800 149.109 C 322.057 149.163,322.681 148.920,324.717 147.970 C 325.624 147.546,326.480 147.200,326.619 147.200 C 326.759 147.200,327.207 147.026,327.617 146.814 C 328.027 146.601,328.460 146.488,328.581 146.563 C 328.701 146.637,328.800 146.584,328.800 146.445 C 328.800 146.305,329.122 146.110,329.515 146.012 C 329.909 145.913,330.719 145.593,331.315 145.301 C 332.236 144.851,333.395 144.358,337.200 142.798 C 337.493 142.678,337.803 142.569,337.888 142.556 C 337.972 142.544,338.452 142.331,338.954 142.084 C 339.767 141.683,340.230 141.506,340.860 141.355 C 340.967 141.329,341.378 141.140,341.774 140.935 C 342.171 140.729,342.594 140.622,342.714 140.696 C 342.835 140.771,342.933 140.712,342.933 140.567 C 342.933 140.344,343.542 140.030,344.333 139.846 C 344.443 139.821,344.593 139.770,344.667 139.733 C 344.740 139.697,344.890 139.641,345.000 139.609 C 345.183 139.557,346.537 138.990,347.867 138.410 C 348.160 138.282,349.060 137.873,349.867 137.501 C 350.673 137.129,351.663 136.746,352.067 136.650 C 352.470 136.554,352.800 136.389,352.800 136.282 C 352.800 136.176,352.951 136.089,353.135 136.089 C 353.319 136.089,354.489 135.642,355.735 135.095 C 356.981 134.548,358.270 133.991,358.600 133.856 C 358.930 133.722,359.200 133.486,359.200 133.333 C 359.200 133.180,358.930 132.945,358.600 132.811 C 358.270 132.676,356.981 132.119,355.735 131.572 C 354.489 131.025,353.319 130.578,353.135 130.578 C 352.951 130.578,352.800 130.491,352.800 130.384 C 352.800 130.278,352.470 130.113,352.067 130.017 C 351.663 129.921,350.673 129.538,349.867 129.166 C 349.060 128.794,348.160 128.385,347.867 128.257 C 346.537 127.677,345.183 127.110,345.000 127.057 C 344.890 127.026,344.740 126.970,344.667 126.933 C 344.593 126.897,344.443 126.846,344.333 126.820 C 343.542 126.637,342.933 126.323,342.933 126.100 C 342.933 125.954,342.835 125.896,342.714 125.971 C 342.594 126.045,342.144 125.924,341.714 125.701 C 341.285 125.478,340.933 125.312,340.933 125.332 C 340.933 125.425,339.772 124.986,338.954 124.583 C 338.452 124.336,337.972 124.123,337.888 124.110 C 337.803 124.098,337.493 123.989,337.200 123.869 C 333.395 122.309,332.236 121.816,331.315 121.365 C 330.719 121.073,329.909 120.754,329.515 120.655 C 329.122 120.556,328.800 120.361,328.800 120.222 C 328.800 120.083,328.701 120.029,328.581 120.104 C 328.460 120.178,328.027 120.066,327.617 119.853 C 327.207 119.641,326.759 119.467,326.619 119.467 C 326.480 119.467,325.624 119.120,324.717 118.697 C 322.681 117.747,322.057 117.503,321.800 117.558 C 321.690 117.581,321.600 117.485,321.600 117.344 C 321.600 117.203,320.980 116.903,320.221 116.678 C 319.463 116.453,318.593 116.107,318.288 115.910 C 317.983 115.712,317.373 115.463,316.933 115.355 C 316.493 115.247,315.773 114.997,315.333 114.799 C 314.893 114.601,313.933 114.185,313.200 113.875 C 312.467 113.565,311.548 113.136,311.159 112.922 C 310.770 112.708,310.322 112.533,310.165 112.533 C 310.007 112.533,308.998 112.121,307.922 111.618 C 306.847 111.114,305.643 110.621,305.247 110.521 C 304.852 110.422,304.462 110.234,304.382 110.104 C 304.301 109.973,304.045 109.867,303.812 109.867 C 303.580 109.867,302.537 109.466,301.495 108.976 C 300.453 108.486,299.000 107.867,298.267 107.600 C 297.533 107.332,296.693 106.968,296.400 106.789 C 296.107 106.610,295.507 106.380,295.067 106.278 C 294.627 106.175,294.087 105.930,293.867 105.732 C 293.647 105.533,293.347 105.348,293.200 105.318 C 292.757 105.230,292.204 105.026,290.667 104.383 C 289.860 104.046,288.750 103.617,288.200 103.431 C 287.650 103.245,287.200 103.007,287.200 102.901 C 287.200 102.795,286.814 102.624,286.342 102.521 C 285.870 102.417,285.300 102.236,285.075 102.118 C 284.851 102.000,283.711 101.521,282.542 101.053 C 281.373 100.585,280.164 100.037,279.854 99.834 C 279.544 99.631,279.210 99.545,279.112 99.644 C 279.014 99.742,278.933 99.675,278.933 99.495 C 278.933 99.316,278.842 99.225,278.731 99.294 C 278.619 99.363,278.109 99.231,277.597 99.001 C 277.085 98.771,276.577 98.602,276.467 98.625 C 276.357 98.648,276.267 98.547,276.267 98.400 C 276.267 98.253,276.053 98.133,275.793 98.133 C 275.532 98.133,274.602 97.761,273.726 97.307 C 272.850 96.853,272.098 96.505,272.056 96.534 C 271.924 96.623,268.942 95.378,268.799 95.174 C 268.726 95.069,268.216 94.898,267.666 94.795 C 267.116 94.692,266.667 94.501,266.667 94.370 C 266.667 94.240,266.573 94.163,266.459 94.200 C 266.282 94.257,264.360 93.475,260.533 91.789 C 260.020 91.563,259.450 91.378,259.267 91.378 C 259.083 91.378,258.933 91.297,258.933 91.198 C 258.933 91.099,258.423 90.866,257.800 90.681 C 257.177 90.497,256.067 90.065,255.333 89.723 C 254.600 89.381,253.670 89.021,253.267 88.922 C 252.863 88.823,252.533 88.615,252.533 88.460 C 252.533 88.305,252.454 88.257,252.358 88.353 C 252.261 88.450,252.051 88.430,251.891 88.310 C 251.731 88.190,251.000 87.872,250.267 87.604 C 249.533 87.335,248.861 87.007,248.773 86.873 C 248.685 86.740,248.445 86.606,248.240 86.575 C 248.035 86.544,247.747 86.448,247.600 86.363 C 247.453 86.277,246.973 86.121,246.533 86.016 C 246.093 85.911,245.553 85.671,245.333 85.482 C 245.113 85.293,244.581 85.054,244.151 84.952 C 243.721 84.849,242.881 84.527,242.285 84.236 C 241.688 83.944,239.104 82.865,236.541 81.837 C 233.979 80.809,231.759 79.877,231.608 79.766 C 231.457 79.655,230.643 79.337,229.800 79.060 C 228.957 78.783,228.267 78.471,228.267 78.366 C 228.267 78.261,227.877 78.092,227.400 77.989 C 226.923 77.886,226.173 77.612,225.733 77.380 C 225.293 77.147,224.843 76.982,224.733 77.012 C 224.623 77.042,224.533 76.951,224.533 76.810 C 224.533 76.669,224.025 76.417,223.404 76.250 C 222.784 76.083,221.734 75.674,221.071 75.343 C 220.409 75.011,219.387 74.586,218.800 74.398 C 218.213 74.210,217.673 73.983,217.600 73.895 C 217.437 73.697,215.819 73.063,215.000 72.875 C 214.670 72.800,214.400 72.632,214.400 72.502 C 214.400 72.373,214.310 72.286,214.200 72.309 C 213.972 72.357,213.697 72.259,210.933 71.146 C 208.628 70.217,206.857 69.449,205.778 68.910 C 205.363 68.703,204.842 68.533,204.620 68.533 C 204.397 68.533,203.897 68.311,203.508 68.039 C 203.119 67.767,202.444 67.458,202.009 67.353 C 201.573 67.247,200.613 66.877,199.875 66.531 C 199.137 66.185,198.203 65.821,197.800 65.722 C 197.397 65.623,197.067 65.465,197.067 65.371 C 197.067 65.277,196.330 64.964,195.429 64.677 C 194.528 64.389,193.642 64.004,193.459 63.821 C 193.276 63.638,192.843 63.434,192.496 63.368 C 191.535 63.184,190.847 62.893,190.333 62.451 C 190.077 62.231,189.867 62.132,189.867 62.231 C 189.867 62.331,189.597 62.235,189.267 62.019 C 188.937 61.803,188.607 61.628,188.533 61.630 C 188.276 61.638,187.329 61.292,186.933 61.046 C 186.448 60.743,186.386 60.720,184.482 60.115 C 183.647 59.850,183.024 59.536,183.098 59.417 C 183.171 59.297,183.000 59.200,182.716 59.200 C 182.433 59.200,181.616 58.937,180.901 58.615 C 180.185 58.293,179.480 58.000,179.333 57.964 C 178.888 57.856,176.189 56.673,175.269 56.183 C 174.794 55.930,174.314 55.710,174.203 55.694 C 173.828 55.641,173.206 55.412,172.267 54.982 C 171.753 54.746,171.273 54.539,171.200 54.520 C 170.702 54.396,169.825 54.011,168.733 53.436 C 168.037 53.069,167.467 52.839,167.467 52.925 C 167.467 53.010,167.077 52.872,166.600 52.618 C 166.123 52.364,165.673 52.147,165.600 52.136 C 165.053 52.054,162.133 50.761,162.133 50.601 C 162.133 50.491,161.840 50.400,161.482 50.400 C 161.124 50.400,160.763 50.289,160.679 50.154 C 160.596 50.018,160.149 49.825,159.686 49.723 C 159.224 49.621,158.307 49.252,157.650 48.903 C 156.992 48.553,156.309 48.267,156.131 48.267 C 155.954 48.267,155.102 47.908,154.238 47.470 C 153.374 47.032,152.457 46.672,152.200 46.670 C 151.943 46.668,151.733 46.566,151.733 46.442 C 151.733 46.319,151.223 46.067,150.600 45.883 C 149.977 45.700,148.867 45.250,148.133 44.885 C 147.400 44.520,146.800 44.240,146.800 44.261 C 146.800 44.283,146.560 44.222,146.267 44.126 C 144.825 43.651,144.267 43.380,144.267 43.156 C 144.267 43.021,144.117 42.940,143.933 42.978 C 143.750 43.015,143.330 42.896,143.000 42.713 C 142.670 42.531,142.400 42.449,142.400 42.533 C 142.400 42.616,141.859 42.382,141.198 42.013 C 140.537 41.643,139.938 41.336,139.867 41.330 C 139.560 41.303,138.740 41.004,138.000 40.649 C 137.560 40.438,136.570 40.045,135.800 39.776 C 135.031 39.508,134.469 39.220,134.553 39.136 C 134.636 39.052,134.307 38.897,133.820 38.790 C 133.334 38.683,132.515 38.415,132.001 38.194 C 131.487 37.973,130.827 37.698,130.533 37.582 C 130.240 37.466,129.040 36.955,127.867 36.446 C 126.693 35.938,125.433 35.437,125.067 35.333 C 124.700 35.229,124.100 34.950,123.733 34.713 C 123.092 34.297,122.574 34.083,119.067 32.782 C 118.187 32.455,117.407 32.102,117.333 31.997 C 117.203 31.810,116.200 31.425,115.533 31.306 C 115.349 31.274,114.681 30.996,114.049 30.690 C 113.416 30.384,112.756 30.133,112.582 30.133 C 112.409 30.133,112.267 30.033,112.267 29.911 C 112.267 29.789,112.111 29.689,111.921 29.689 C 111.731 29.689,110.876 29.369,110.022 28.978 C 109.168 28.587,108.359 28.267,108.224 28.267 C 107.807 28.267,103.611 26.302,103.404 26.010 C 103.296 25.858,103.206 25.828,103.204 25.943 C 103.202 26.058,102.930 26.002,102.600 25.819 C 101.917 25.440,102.014 25.474,100.867 25.204 C 100.390 25.092,100.000 24.875,100.000 24.722 C 100.000 24.569,99.920 24.525,99.821 24.623 C 99.723 24.721,99.354 24.613,99.001 24.382 C 98.649 24.151,98.116 23.915,97.818 23.857 C 97.519 23.800,96.752 23.500,96.114 23.190 C 95.475 22.881,94.858 22.624,94.743 22.619 C 94.628 22.614,94.097 22.387,93.564 22.115 C 93.031 21.843,91.831 21.358,90.897 21.037 C 89.964 20.717,89.140 20.373,89.067 20.274 C 88.851 19.983,87.767 19.560,87.086 19.500 C 86.876 19.482,86.516 19.278,86.286 19.048 C 86.055 18.817,85.867 18.700,85.867 18.786 C 85.867 18.873,85.387 18.699,84.800 18.400 C 84.213 18.101,83.733 17.942,83.733 18.048 C 83.733 18.154,83.589 18.096,83.413 17.920 C 83.237 17.744,82.887 17.600,82.636 17.600 C 82.384 17.600,82.136 17.473,82.084 17.319 C 82.032 17.164,81.752 16.993,81.462 16.939 C 81.171 16.885,80.903 16.817,80.867 16.787 C 80.830 16.758,80.710 16.711,80.600 16.684 C 80.490 16.657,79.935 16.432,79.367 16.184 C 78.800 15.936,78.230 15.733,78.101 15.733 C 77.972 15.733,77.867 15.613,77.867 15.467 C 77.867 15.320,77.777 15.225,77.667 15.255 C 77.319 15.350,75.352 14.615,74.900 14.222 C 74.662 14.014,74.362 13.868,74.233 13.898 C 73.975 13.957,73.183 13.695,72.469 13.313 C 72.214 13.177,70.474 12.462,68.602 11.725 C 66.731 10.988,64.780 10.161,64.267 9.888 C 63.753 9.615,62.943 9.309,62.467 9.208 C 61.990 9.107,61.600 8.924,61.600 8.802 C 61.600 8.680,60.790 8.319,59.800 8.000 C 58.810 7.682,57.820 7.260,57.600 7.063 C 57.380 6.866,57.140 6.725,57.067 6.750 C 56.766 6.853,54.694 6.039,54.804 5.861 C 54.869 5.755,54.528 5.604,54.045 5.526 C 53.065 5.367,50.583 4.276,50.444 3.944 C 50.395 3.826,50.248 3.796,50.118 3.876 C 49.988 3.957,48.888 3.557,47.674 2.988 C 46.460 2.419,44.867 1.730,44.133 1.457 C 43.400 1.185,42.406 0.745,41.925 0.481 C 41.444 0.216,40.814 0.000,40.525 0.000 C 40.003 0.000,40.000 0.864,40.000 133.333 " stroke="none" fill="#d2d1d1" fill-rule="evenodd"></path></g></svg>